<?xml version="1.0" encoding="utf-8"?>
<svg xmlns="http://www.w3.org/2000/svg" xmlns:xlink="http://www.w3.org/1999/xlink" width="600" height="400" viewBox="0 0 2400 1600">
<defs>
  <clipPath id="clip0600">
    <rect x="0" y="0" width="2400" height="1600"/>
  </clipPath>
</defs>
<polygon clip-path="url(#clip0600)" points="
0,1600 2400,1600 2400,0 0,0 
  " fill="#ffffff" fill-rule="evenodd" fill-opacity="1"/>
<defs>
  <clipPath id="clip0601">
    <rect x="480" y="0" width="1681" height="1600"/>
  </clipPath>
</defs>
<polygon clip-path="url(#clip0600)" points="
211.005,1440.48 2321.26,1440.48 2321.26,125.984 211.005,125.984 
  " fill="#ffffff" fill-rule="evenodd" fill-opacity="1"/>
<defs>
  <clipPath id="clip0602">
    <rect x="211" y="125" width="2111" height="1315"/>
  </clipPath>
</defs>
<polyline clip-path="url(#clip0602)" style="stroke:#000000; stroke-width:2; stroke-opacity:0.1; fill:none" points="
  361.737,1440.48 361.737,125.984 
  "/>
<polyline clip-path="url(#clip0602)" style="stroke:#000000; stroke-width:2; stroke-opacity:0.1; fill:none" points="
  663.202,1440.48 663.202,125.984 
  "/>
<polyline clip-path="url(#clip0602)" style="stroke:#000000; stroke-width:2; stroke-opacity:0.1; fill:none" points="
  964.667,1440.48 964.667,125.984 
  "/>
<polyline clip-path="url(#clip0602)" style="stroke:#000000; stroke-width:2; stroke-opacity:0.1; fill:none" points="
  1266.13,1440.48 1266.13,125.984 
  "/>
<polyline clip-path="url(#clip0602)" style="stroke:#000000; stroke-width:2; stroke-opacity:0.1; fill:none" points="
  1567.6,1440.48 1567.6,125.984 
  "/>
<polyline clip-path="url(#clip0602)" style="stroke:#000000; stroke-width:2; stroke-opacity:0.1; fill:none" points="
  1869.06,1440.48 1869.06,125.984 
  "/>
<polyline clip-path="url(#clip0602)" style="stroke:#000000; stroke-width:2; stroke-opacity:0.1; fill:none" points="
  2170.53,1440.48 2170.53,125.984 
  "/>
<polyline clip-path="url(#clip0602)" style="stroke:#000000; stroke-width:2; stroke-opacity:0.1; fill:none" points="
  211.005,1411.1 2321.26,1411.1 
  "/>
<polyline clip-path="url(#clip0602)" style="stroke:#000000; stroke-width:2; stroke-opacity:0.1; fill:none" points="
  211.005,1117.3 2321.26,1117.3 
  "/>
<polyline clip-path="url(#clip0602)" style="stroke:#000000; stroke-width:2; stroke-opacity:0.1; fill:none" points="
  211.005,823.49 2321.26,823.49 
  "/>
<polyline clip-path="url(#clip0602)" style="stroke:#000000; stroke-width:2; stroke-opacity:0.1; fill:none" points="
  211.005,529.685 2321.26,529.685 
  "/>
<polyline clip-path="url(#clip0602)" style="stroke:#000000; stroke-width:2; stroke-opacity:0.1; fill:none" points="
  211.005,235.879 2321.26,235.879 
  "/>
<polyline clip-path="url(#clip0600)" style="stroke:#000000; stroke-width:4; stroke-opacity:1; fill:none" points="
  211.005,1440.48 2321.26,1440.48 
  "/>
<polyline clip-path="url(#clip0600)" style="stroke:#000000; stroke-width:4; stroke-opacity:1; fill:none" points="
  211.005,1440.48 211.005,125.984 
  "/>
<polyline clip-path="url(#clip0600)" style="stroke:#000000; stroke-width:4; stroke-opacity:1; fill:none" points="
  361.737,1440.48 361.737,1420.77 
  "/>
<polyline clip-path="url(#clip0600)" style="stroke:#000000; stroke-width:4; stroke-opacity:1; fill:none" points="
  663.202,1440.48 663.202,1420.77 
  "/>
<polyline clip-path="url(#clip0600)" style="stroke:#000000; stroke-width:4; stroke-opacity:1; fill:none" points="
  964.667,1440.48 964.667,1420.77 
  "/>
<polyline clip-path="url(#clip0600)" style="stroke:#000000; stroke-width:4; stroke-opacity:1; fill:none" points="
  1266.13,1440.48 1266.13,1420.77 
  "/>
<polyline clip-path="url(#clip0600)" style="stroke:#000000; stroke-width:4; stroke-opacity:1; fill:none" points="
  1567.6,1440.48 1567.6,1420.77 
  "/>
<polyline clip-path="url(#clip0600)" style="stroke:#000000; stroke-width:4; stroke-opacity:1; fill:none" points="
  1869.06,1440.48 1869.06,1420.77 
  "/>
<polyline clip-path="url(#clip0600)" style="stroke:#000000; stroke-width:4; stroke-opacity:1; fill:none" points="
  2170.53,1440.48 2170.53,1420.77 
  "/>
<polyline clip-path="url(#clip0600)" style="stroke:#000000; stroke-width:4; stroke-opacity:1; fill:none" points="
  211.005,1411.1 242.659,1411.1 
  "/>
<polyline clip-path="url(#clip0600)" style="stroke:#000000; stroke-width:4; stroke-opacity:1; fill:none" points="
  211.005,1117.3 242.659,1117.3 
  "/>
<polyline clip-path="url(#clip0600)" style="stroke:#000000; stroke-width:4; stroke-opacity:1; fill:none" points="
  211.005,823.49 242.659,823.49 
  "/>
<polyline clip-path="url(#clip0600)" style="stroke:#000000; stroke-width:4; stroke-opacity:1; fill:none" points="
  211.005,529.685 242.659,529.685 
  "/>
<polyline clip-path="url(#clip0600)" style="stroke:#000000; stroke-width:4; stroke-opacity:1; fill:none" points="
  211.005,235.879 242.659,235.879 
  "/>
<g clip-path="url(#clip0600)">
<text style="fill:#000000; fill-opacity:1; font-family:Arial,Helvetica Neue,Helvetica,sans-serif; font-size:48px; text-anchor:middle;" transform="rotate(0, 361.737, 1494.48)" x="361.737" y="1494.48">0</text>
</g>
<g clip-path="url(#clip0600)">
<text style="fill:#000000; fill-opacity:1; font-family:Arial,Helvetica Neue,Helvetica,sans-serif; font-size:48px; text-anchor:middle;" transform="rotate(0, 663.202, 1494.48)" x="663.202" y="1494.48">1</text>
</g>
<g clip-path="url(#clip0600)">
<text style="fill:#000000; fill-opacity:1; font-family:Arial,Helvetica Neue,Helvetica,sans-serif; font-size:48px; text-anchor:middle;" transform="rotate(0, 964.667, 1494.48)" x="964.667" y="1494.48">2</text>
</g>
<g clip-path="url(#clip0600)">
<text style="fill:#000000; fill-opacity:1; font-family:Arial,Helvetica Neue,Helvetica,sans-serif; font-size:48px; text-anchor:middle;" transform="rotate(0, 1266.13, 1494.48)" x="1266.13" y="1494.48">3</text>
</g>
<g clip-path="url(#clip0600)">
<text style="fill:#000000; fill-opacity:1; font-family:Arial,Helvetica Neue,Helvetica,sans-serif; font-size:48px; text-anchor:middle;" transform="rotate(0, 1567.6, 1494.48)" x="1567.6" y="1494.48">4</text>
</g>
<g clip-path="url(#clip0600)">
<text style="fill:#000000; fill-opacity:1; font-family:Arial,Helvetica Neue,Helvetica,sans-serif; font-size:48px; text-anchor:middle;" transform="rotate(0, 1869.06, 1494.48)" x="1869.06" y="1494.48">5</text>
</g>
<g clip-path="url(#clip0600)">
<text style="fill:#000000; fill-opacity:1; font-family:Arial,Helvetica Neue,Helvetica,sans-serif; font-size:48px; text-anchor:middle;" transform="rotate(0, 2170.53, 1494.48)" x="2170.53" y="1494.48">6</text>
</g>
<g clip-path="url(#clip0600)">
<text style="fill:#000000; fill-opacity:1; font-family:Arial,Helvetica Neue,Helvetica,sans-serif; font-size:48px; text-anchor:end;" transform="rotate(0, 187.005, 1428.6)" x="187.005" y="1428.6">0</text>
</g>
<g clip-path="url(#clip0600)">
<text style="fill:#000000; fill-opacity:1; font-family:Arial,Helvetica Neue,Helvetica,sans-serif; font-size:48px; text-anchor:end;" transform="rotate(0, 187.005, 1134.8)" x="187.005" y="1134.8">5</text>
</g>
<g clip-path="url(#clip0600)">
<text style="fill:#000000; fill-opacity:1; font-family:Arial,Helvetica Neue,Helvetica,sans-serif; font-size:48px; text-anchor:end;" transform="rotate(0, 187.005, 840.99)" x="187.005" y="840.99">10</text>
</g>
<g clip-path="url(#clip0600)">
<text style="fill:#000000; fill-opacity:1; font-family:Arial,Helvetica Neue,Helvetica,sans-serif; font-size:48px; text-anchor:end;" transform="rotate(0, 187.005, 547.185)" x="187.005" y="547.185">15</text>
</g>
<g clip-path="url(#clip0600)">
<text style="fill:#000000; fill-opacity:1; font-family:Arial,Helvetica Neue,Helvetica,sans-serif; font-size:48px; text-anchor:end;" transform="rotate(0, 187.005, 253.379)" x="187.005" y="253.379">20</text>
</g>
<g clip-path="url(#clip0600)">
<text style="fill:#000000; fill-opacity:1; font-family:Arial,Helvetica Neue,Helvetica,sans-serif; font-size:66px; text-anchor:middle;" transform="rotate(0, 1266.13, 57.6)" x="1266.13" y="57.6">GCF_000064305.2_ASM6430v2_genomic.fna.K23.counts.histogram</text>
</g>
<g clip-path="url(#clip0600)">
<text style="fill:#000000; fill-opacity:1; font-family:Arial,Helvetica Neue,Helvetica,sans-serif; font-size:66px; text-anchor:middle;" transform="rotate(0, 1266.13, 1590.4)" x="1266.13" y="1590.4">log2(depth of coverage)</text>
</g>
<g clip-path="url(#clip0600)">
<text style="fill:#000000; fill-opacity:1; font-family:Arial,Helvetica Neue,Helvetica,sans-serif; font-size:66px; text-anchor:middle;" transform="rotate(-90, 57.6, 783.233)" x="57.6" y="783.233">log2(# kmers)</text>
</g>
<circle clip-path="url(#clip0602)" style="fill:#000000; stroke:none; fill-opacity:1" cx="361.737" cy="155.365" r="18"/>
<circle clip-path="url(#clip0602)" style="fill:#009af9; stroke:none; fill-opacity:1" cx="361.737" cy="155.365" r="14"/>
<circle clip-path="url(#clip0602)" style="fill:#000000; stroke:none; fill-opacity:1" cx="663.202" cy="590.007" r="18"/>
<circle clip-path="url(#clip0602)" style="fill:#009af9; stroke:none; fill-opacity:1" cx="663.202" cy="590.007" r="14"/>
<circle clip-path="url(#clip0602)" style="fill:#000000; stroke:none; fill-opacity:1" cx="839.548" cy="660.429" r="18"/>
<circle clip-path="url(#clip0602)" style="fill:#009af9; stroke:none; fill-opacity:1" cx="839.548" cy="660.429" r="14"/>
<circle clip-path="url(#clip0602)" style="fill:#000000; stroke:none; fill-opacity:1" cx="964.667" cy="786.723" r="18"/>
<circle clip-path="url(#clip0602)" style="fill:#009af9; stroke:none; fill-opacity:1" cx="964.667" cy="786.723" r="14"/>
<circle clip-path="url(#clip0602)" style="fill:#000000; stroke:none; fill-opacity:1" cx="1061.72" cy="816.883" r="18"/>
<circle clip-path="url(#clip0602)" style="fill:#009af9; stroke:none; fill-opacity:1" cx="1061.72" cy="816.883" r="14"/>
<circle clip-path="url(#clip0602)" style="fill:#000000; stroke:none; fill-opacity:1" cx="1141.01" cy="665.474" r="18"/>
<circle clip-path="url(#clip0602)" style="fill:#009af9; stroke:none; fill-opacity:1" cx="1141.01" cy="665.474" r="14"/>
<circle clip-path="url(#clip0602)" style="fill:#000000; stroke:none; fill-opacity:1" cx="1208.06" cy="774.224" r="18"/>
<circle clip-path="url(#clip0602)" style="fill:#009af9; stroke:none; fill-opacity:1" cx="1208.06" cy="774.224" r="14"/>
<circle clip-path="url(#clip0602)" style="fill:#000000; stroke:none; fill-opacity:1" cx="1266.13" cy="898.64" r="18"/>
<circle clip-path="url(#clip0602)" style="fill:#009af9; stroke:none; fill-opacity:1" cx="1266.13" cy="898.64" r="14"/>
<circle clip-path="url(#clip0602)" style="fill:#000000; stroke:none; fill-opacity:1" cx="1317.36" cy="902.756" r="18"/>
<circle clip-path="url(#clip0602)" style="fill:#009af9; stroke:none; fill-opacity:1" cx="1317.36" cy="902.756" r="14"/>
<circle clip-path="url(#clip0602)" style="fill:#000000; stroke:none; fill-opacity:1" cx="1363.18" cy="880.288" r="18"/>
<circle clip-path="url(#clip0602)" style="fill:#009af9; stroke:none; fill-opacity:1" cx="1363.18" cy="880.288" r="14"/>
<circle clip-path="url(#clip0602)" style="fill:#000000; stroke:none; fill-opacity:1" cx="1404.63" cy="863.6" r="18"/>
<circle clip-path="url(#clip0602)" style="fill:#009af9; stroke:none; fill-opacity:1" cx="1404.63" cy="863.6" r="14"/>
<circle clip-path="url(#clip0602)" style="fill:#000000; stroke:none; fill-opacity:1" cx="1442.48" cy="951.955" r="18"/>
<circle clip-path="url(#clip0602)" style="fill:#009af9; stroke:none; fill-opacity:1" cx="1442.48" cy="951.955" r="14"/>
<circle clip-path="url(#clip0602)" style="fill:#000000; stroke:none; fill-opacity:1" cx="1477.29" cy="1141.68" r="18"/>
<circle clip-path="url(#clip0602)" style="fill:#009af9; stroke:none; fill-opacity:1" cx="1477.29" cy="1141.68" r="14"/>
<circle clip-path="url(#clip0602)" style="fill:#000000; stroke:none; fill-opacity:1" cx="1509.52" cy="1071.38" r="18"/>
<circle clip-path="url(#clip0602)" style="fill:#009af9; stroke:none; fill-opacity:1" cx="1509.52" cy="1071.38" r="14"/>
<circle clip-path="url(#clip0602)" style="fill:#000000; stroke:none; fill-opacity:1" cx="1539.53" cy="973.26" r="18"/>
<circle clip-path="url(#clip0602)" style="fill:#009af9; stroke:none; fill-opacity:1" cx="1539.53" cy="973.26" r="14"/>
<circle clip-path="url(#clip0602)" style="fill:#000000; stroke:none; fill-opacity:1" cx="1567.6" cy="1128.62" r="18"/>
<circle clip-path="url(#clip0602)" style="fill:#009af9; stroke:none; fill-opacity:1" cx="1567.6" cy="1128.62" r="14"/>
<circle clip-path="url(#clip0602)" style="fill:#000000; stroke:none; fill-opacity:1" cx="1593.96" cy="1134.9" r="18"/>
<circle clip-path="url(#clip0602)" style="fill:#009af9; stroke:none; fill-opacity:1" cx="1593.96" cy="1134.9" r="14"/>
<circle clip-path="url(#clip0602)" style="fill:#000000; stroke:none; fill-opacity:1" cx="1618.82" cy="1122.77" r="18"/>
<circle clip-path="url(#clip0602)" style="fill:#009af9; stroke:none; fill-opacity:1" cx="1618.82" cy="1122.77" r="14"/>
<circle clip-path="url(#clip0602)" style="fill:#000000; stroke:none; fill-opacity:1" cx="1642.34" cy="1119.99" r="18"/>
<circle clip-path="url(#clip0602)" style="fill:#009af9; stroke:none; fill-opacity:1" cx="1642.34" cy="1119.99" r="14"/>
<circle clip-path="url(#clip0602)" style="fill:#000000; stroke:none; fill-opacity:1" cx="1664.65" cy="1215.9" r="18"/>
<circle clip-path="url(#clip0602)" style="fill:#009af9; stroke:none; fill-opacity:1" cx="1664.65" cy="1215.9" r="14"/>
<circle clip-path="url(#clip0602)" style="fill:#000000; stroke:none; fill-opacity:1" cx="1685.87" cy="1411.1" r="18"/>
<circle clip-path="url(#clip0602)" style="fill:#009af9; stroke:none; fill-opacity:1" cx="1685.87" cy="1411.1" r="14"/>
<circle clip-path="url(#clip0602)" style="fill:#000000; stroke:none; fill-opacity:1" cx="1706.1" cy="1274.66" r="18"/>
<circle clip-path="url(#clip0602)" style="fill:#009af9; stroke:none; fill-opacity:1" cx="1706.1" cy="1274.66" r="14"/>
<circle clip-path="url(#clip0602)" style="fill:#000000; stroke:none; fill-opacity:1" cx="1725.43" cy="1293.58" r="18"/>
<circle clip-path="url(#clip0602)" style="fill:#009af9; stroke:none; fill-opacity:1" cx="1725.43" cy="1293.58" r="14"/>
<circle clip-path="url(#clip0602)" style="fill:#000000; stroke:none; fill-opacity:1" cx="1743.94" cy="1246.14" r="18"/>
<circle clip-path="url(#clip0602)" style="fill:#009af9; stroke:none; fill-opacity:1" cx="1743.94" cy="1246.14" r="14"/>
<circle clip-path="url(#clip0602)" style="fill:#000000; stroke:none; fill-opacity:1" cx="1761.7" cy="1246.14" r="18"/>
<circle clip-path="url(#clip0602)" style="fill:#009af9; stroke:none; fill-opacity:1" cx="1761.7" cy="1246.14" r="14"/>
<circle clip-path="url(#clip0602)" style="fill:#000000; stroke:none; fill-opacity:1" cx="1778.76" cy="1234.82" r="18"/>
<circle clip-path="url(#clip0602)" style="fill:#009af9; stroke:none; fill-opacity:1" cx="1778.76" cy="1234.82" r="14"/>
<circle clip-path="url(#clip0602)" style="fill:#000000; stroke:none; fill-opacity:1" cx="1795.17" cy="1246.14" r="18"/>
<circle clip-path="url(#clip0602)" style="fill:#009af9; stroke:none; fill-opacity:1" cx="1795.17" cy="1246.14" r="14"/>
<circle clip-path="url(#clip0602)" style="fill:#000000; stroke:none; fill-opacity:1" cx="1810.99" cy="1224.83" r="18"/>
<circle clip-path="url(#clip0602)" style="fill:#009af9; stroke:none; fill-opacity:1" cx="1810.99" cy="1224.83" r="14"/>
<circle clip-path="url(#clip0602)" style="fill:#000000; stroke:none; fill-opacity:1" cx="1826.25" cy="1193.66" r="18"/>
<circle clip-path="url(#clip0602)" style="fill:#009af9; stroke:none; fill-opacity:1" cx="1826.25" cy="1193.66" r="14"/>
<circle clip-path="url(#clip0602)" style="fill:#000000; stroke:none; fill-opacity:1" cx="1840.99" cy="1224.83" r="18"/>
<circle clip-path="url(#clip0602)" style="fill:#009af9; stroke:none; fill-opacity:1" cx="1840.99" cy="1224.83" r="14"/>
<circle clip-path="url(#clip0602)" style="fill:#000000; stroke:none; fill-opacity:1" cx="1855.25" cy="1166.07" r="18"/>
<circle clip-path="url(#clip0602)" style="fill:#009af9; stroke:none; fill-opacity:1" cx="1855.25" cy="1166.07" r="14"/>
<circle clip-path="url(#clip0602)" style="fill:#000000; stroke:none; fill-opacity:1" cx="1869.06" cy="1193.66" r="18"/>
<circle clip-path="url(#clip0602)" style="fill:#009af9; stroke:none; fill-opacity:1" cx="1869.06" cy="1193.66" r="14"/>
<circle clip-path="url(#clip0602)" style="fill:#000000; stroke:none; fill-opacity:1" cx="1882.45" cy="1193.66" r="18"/>
<circle clip-path="url(#clip0602)" style="fill:#009af9; stroke:none; fill-opacity:1" cx="1882.45" cy="1193.66" r="14"/>
<circle clip-path="url(#clip0602)" style="fill:#000000; stroke:none; fill-opacity:1" cx="1895.43" cy="1259.21" r="18"/>
<circle clip-path="url(#clip0602)" style="fill:#009af9; stroke:none; fill-opacity:1" cx="1895.43" cy="1259.21" r="14"/>
<circle clip-path="url(#clip0602)" style="fill:#000000; stroke:none; fill-opacity:1" cx="1908.04" cy="1293.58" r="18"/>
<circle clip-path="url(#clip0602)" style="fill:#009af9; stroke:none; fill-opacity:1" cx="1908.04" cy="1293.58" r="14"/>
<circle clip-path="url(#clip0602)" style="fill:#000000; stroke:none; fill-opacity:1" cx="1920.29" cy="1317.97" r="18"/>
<circle clip-path="url(#clip0602)" style="fill:#009af9; stroke:none; fill-opacity:1" cx="1920.29" cy="1317.97" r="14"/>
<circle clip-path="url(#clip0602)" style="fill:#000000; stroke:none; fill-opacity:1" cx="1932.21" cy="1259.21" r="18"/>
<circle clip-path="url(#clip0602)" style="fill:#009af9; stroke:none; fill-opacity:1" cx="1932.21" cy="1259.21" r="14"/>
<circle clip-path="url(#clip0602)" style="fill:#000000; stroke:none; fill-opacity:1" cx="2135.15" cy="1411.1" r="18"/>
<circle clip-path="url(#clip0602)" style="fill:#009af9; stroke:none; fill-opacity:1" cx="2135.15" cy="1411.1" r="14"/>
<circle clip-path="url(#clip0602)" style="fill:#000000; stroke:none; fill-opacity:1" cx="2149.65" cy="1352.34" r="18"/>
<circle clip-path="url(#clip0602)" style="fill:#009af9; stroke:none; fill-opacity:1" cx="2149.65" cy="1352.34" r="14"/>
<circle clip-path="url(#clip0602)" style="fill:#000000; stroke:none; fill-opacity:1" cx="2156.72" cy="1411.1" r="18"/>
<circle clip-path="url(#clip0602)" style="fill:#009af9; stroke:none; fill-opacity:1" cx="2156.72" cy="1411.1" r="14"/>
<circle clip-path="url(#clip0602)" style="fill:#000000; stroke:none; fill-opacity:1" cx="2163.68" cy="1411.1" r="18"/>
<circle clip-path="url(#clip0602)" style="fill:#009af9; stroke:none; fill-opacity:1" cx="2163.68" cy="1411.1" r="14"/>
<circle clip-path="url(#clip0602)" style="fill:#000000; stroke:none; fill-opacity:1" cx="2170.53" cy="1352.34" r="18"/>
<circle clip-path="url(#clip0602)" style="fill:#009af9; stroke:none; fill-opacity:1" cx="2170.53" cy="1352.34" r="14"/>
<polyline clip-path="url(#clip0602)" style="stroke:#e26f46; stroke-width:4; stroke-opacity:1; fill:none" points="
  361.737,324.857 380.008,336.214 398.279,347.571 416.549,358.928 434.82,370.285 453.091,381.643 471.361,393 489.632,404.357 507.902,415.714 526.173,427.071 
  544.444,438.428 562.714,449.785 580.985,461.143 599.255,472.5 617.526,483.857 635.797,495.214 654.067,506.571 672.338,517.928 690.608,529.286 708.879,540.643 
  727.15,552 745.42,563.357 763.691,574.714 781.961,586.071 800.232,597.428 818.503,608.786 836.773,620.143 855.044,631.5 873.314,642.857 891.585,654.214 
  909.856,665.571 928.126,676.928 946.397,688.286 964.667,699.643 982.938,711 1001.21,722.357 1019.48,733.714 1037.75,745.071 1056.02,756.429 1074.29,767.786 
  1092.56,779.143 1110.83,790.5 1129.1,801.857 1147.37,813.214 1165.64,824.571 1183.91,835.929 1202.19,847.286 1220.46,858.643 1238.73,870 1257,881.357 
  1275.27,892.714 1293.54,904.072 1311.81,915.429 1330.08,926.786 1348.35,938.143 1366.62,949.5 1384.89,960.857 1403.16,972.214 1421.43,983.572 1439.7,994.929 
  1457.97,1006.29 1476.24,1017.64 1494.51,1029 1512.79,1040.36 1531.06,1051.71 1549.33,1063.07 1567.6,1074.43 1585.87,1085.79 1604.14,1097.14 1622.41,1108.5 
  1640.68,1119.86 1658.95,1131.21 1677.22,1142.57 1695.49,1153.93 1713.76,1165.29 1732.03,1176.64 1750.3,1188 1768.57,1199.36 1786.84,1210.71 1805.12,1222.07 
  1823.39,1233.43 1841.66,1244.79 1859.93,1256.14 1878.2,1267.5 1896.47,1278.86 1914.74,1290.21 1933.01,1301.57 1951.28,1312.93 1969.55,1324.29 1987.82,1335.64 
  2006.09,1347 2024.36,1358.36 2042.63,1369.71 2060.9,1381.07 2079.17,1392.43 2097.44,1403.79 2115.72,1415.14 2133.99,1426.5 2152.26,1437.86 2170.53,1449.21 
  
  "/>
<g clip-path="url(#clip0600)">
<text style="fill:#000000; fill-opacity:1; font-family:Arial,Helvetica Neue,Helvetica,sans-serif; font-size:59px; text-anchor:start;" transform="rotate(0, 361.737, 1373.84)" x="361.737" y="1373.84">r = -0.95</text>
</g>
</svg>
