<?xml version="1.0" encoding="utf-8"?>
<svg xmlns="http://www.w3.org/2000/svg" xmlns:xlink="http://www.w3.org/1999/xlink" width="600" height="400" viewBox="0 0 2400 1600">
<defs>
  <clipPath id="clip8900">
    <rect x="0" y="0" width="2400" height="1600"/>
  </clipPath>
</defs>
<polygon clip-path="url(#clip8900)" points="
0,1600 2400,1600 2400,0 0,0 
  " fill="#ffffff" fill-rule="evenodd" fill-opacity="1"/>
<defs>
  <clipPath id="clip8901">
    <rect x="480" y="0" width="1681" height="1600"/>
  </clipPath>
</defs>
<polygon clip-path="url(#clip8900)" points="
211.005,1440.48 2321.26,1440.48 2321.26,125.984 211.005,125.984 
  " fill="#ffffff" fill-rule="evenodd" fill-opacity="1"/>
<defs>
  <clipPath id="clip8902">
    <rect x="211" y="125" width="2111" height="1315"/>
  </clipPath>
</defs>
<polyline clip-path="url(#clip8902)" style="stroke:#000000; stroke-width:2; stroke-opacity:0.1; fill:none" points="
  211.005,1440.48 211.005,125.984 
  "/>
<polyline clip-path="url(#clip8902)" style="stroke:#000000; stroke-width:2; stroke-opacity:0.1; fill:none" points="
  738.569,1440.48 738.569,125.984 
  "/>
<polyline clip-path="url(#clip8902)" style="stroke:#000000; stroke-width:2; stroke-opacity:0.1; fill:none" points="
  1266.13,1440.48 1266.13,125.984 
  "/>
<polyline clip-path="url(#clip8902)" style="stroke:#000000; stroke-width:2; stroke-opacity:0.1; fill:none" points="
  1793.7,1440.48 1793.7,125.984 
  "/>
<polyline clip-path="url(#clip8902)" style="stroke:#000000; stroke-width:2; stroke-opacity:0.1; fill:none" points="
  2321.26,1440.48 2321.26,125.984 
  "/>
<polyline clip-path="url(#clip8902)" style="stroke:#000000; stroke-width:2; stroke-opacity:0.1; fill:none" points="
  211.005,1390.49 2321.26,1390.49 
  "/>
<polyline clip-path="url(#clip8902)" style="stroke:#000000; stroke-width:2; stroke-opacity:0.1; fill:none" points="
  211.005,1190.53 2321.26,1190.53 
  "/>
<polyline clip-path="url(#clip8902)" style="stroke:#000000; stroke-width:2; stroke-opacity:0.1; fill:none" points="
  211.005,990.57 2321.26,990.57 
  "/>
<polyline clip-path="url(#clip8902)" style="stroke:#000000; stroke-width:2; stroke-opacity:0.1; fill:none" points="
  211.005,790.608 2321.26,790.608 
  "/>
<polyline clip-path="url(#clip8902)" style="stroke:#000000; stroke-width:2; stroke-opacity:0.1; fill:none" points="
  211.005,590.647 2321.26,590.647 
  "/>
<polyline clip-path="url(#clip8902)" style="stroke:#000000; stroke-width:2; stroke-opacity:0.1; fill:none" points="
  211.005,390.685 2321.26,390.685 
  "/>
<polyline clip-path="url(#clip8902)" style="stroke:#000000; stroke-width:2; stroke-opacity:0.1; fill:none" points="
  211.005,190.724 2321.26,190.724 
  "/>
<polyline clip-path="url(#clip8900)" style="stroke:#000000; stroke-width:4; stroke-opacity:1; fill:none" points="
  211.005,1440.48 2321.26,1440.48 
  "/>
<polyline clip-path="url(#clip8900)" style="stroke:#000000; stroke-width:4; stroke-opacity:1; fill:none" points="
  211.005,1440.48 211.005,125.984 
  "/>
<polyline clip-path="url(#clip8900)" style="stroke:#000000; stroke-width:4; stroke-opacity:1; fill:none" points="
  211.005,1440.48 211.005,1420.77 
  "/>
<polyline clip-path="url(#clip8900)" style="stroke:#000000; stroke-width:4; stroke-opacity:1; fill:none" points="
  738.569,1440.48 738.569,1420.77 
  "/>
<polyline clip-path="url(#clip8900)" style="stroke:#000000; stroke-width:4; stroke-opacity:1; fill:none" points="
  1266.13,1440.48 1266.13,1420.77 
  "/>
<polyline clip-path="url(#clip8900)" style="stroke:#000000; stroke-width:4; stroke-opacity:1; fill:none" points="
  1793.7,1440.48 1793.7,1420.77 
  "/>
<polyline clip-path="url(#clip8900)" style="stroke:#000000; stroke-width:4; stroke-opacity:1; fill:none" points="
  2321.26,1440.48 2321.26,1420.77 
  "/>
<polyline clip-path="url(#clip8900)" style="stroke:#000000; stroke-width:4; stroke-opacity:1; fill:none" points="
  211.005,1390.49 242.659,1390.49 
  "/>
<polyline clip-path="url(#clip8900)" style="stroke:#000000; stroke-width:4; stroke-opacity:1; fill:none" points="
  211.005,1190.53 242.659,1190.53 
  "/>
<polyline clip-path="url(#clip8900)" style="stroke:#000000; stroke-width:4; stroke-opacity:1; fill:none" points="
  211.005,990.57 242.659,990.57 
  "/>
<polyline clip-path="url(#clip8900)" style="stroke:#000000; stroke-width:4; stroke-opacity:1; fill:none" points="
  211.005,790.608 242.659,790.608 
  "/>
<polyline clip-path="url(#clip8900)" style="stroke:#000000; stroke-width:4; stroke-opacity:1; fill:none" points="
  211.005,590.647 242.659,590.647 
  "/>
<polyline clip-path="url(#clip8900)" style="stroke:#000000; stroke-width:4; stroke-opacity:1; fill:none" points="
  211.005,390.685 242.659,390.685 
  "/>
<polyline clip-path="url(#clip8900)" style="stroke:#000000; stroke-width:4; stroke-opacity:1; fill:none" points="
  211.005,190.724 242.659,190.724 
  "/>
<g clip-path="url(#clip8900)">
<text style="fill:#000000; fill-opacity:1; font-family:Arial,Helvetica Neue,Helvetica,sans-serif; font-size:48px; text-anchor:middle;" transform="rotate(0, 211.005, 1494.48)" x="211.005" y="1494.48">-0.5</text>
</g>
<g clip-path="url(#clip8900)">
<text style="fill:#000000; fill-opacity:1; font-family:Arial,Helvetica Neue,Helvetica,sans-serif; font-size:48px; text-anchor:middle;" transform="rotate(0, 738.569, 1494.48)" x="738.569" y="1494.48">0.0</text>
</g>
<g clip-path="url(#clip8900)">
<text style="fill:#000000; fill-opacity:1; font-family:Arial,Helvetica Neue,Helvetica,sans-serif; font-size:48px; text-anchor:middle;" transform="rotate(0, 1266.13, 1494.48)" x="1266.13" y="1494.48">0.5</text>
</g>
<g clip-path="url(#clip8900)">
<text style="fill:#000000; fill-opacity:1; font-family:Arial,Helvetica Neue,Helvetica,sans-serif; font-size:48px; text-anchor:middle;" transform="rotate(0, 1793.7, 1494.48)" x="1793.7" y="1494.48">1.0</text>
</g>
<g clip-path="url(#clip8900)">
<text style="fill:#000000; fill-opacity:1; font-family:Arial,Helvetica Neue,Helvetica,sans-serif; font-size:48px; text-anchor:middle;" transform="rotate(0, 2321.26, 1494.48)" x="2321.26" y="1494.48">1.5</text>
</g>
<g clip-path="url(#clip8900)">
<text style="fill:#000000; fill-opacity:1; font-family:Arial,Helvetica Neue,Helvetica,sans-serif; font-size:48px; text-anchor:end;" transform="rotate(0, 187.005, 1407.99)" x="187.005" y="1407.99">0</text>
</g>
<g clip-path="url(#clip8900)">
<text style="fill:#000000; fill-opacity:1; font-family:Arial,Helvetica Neue,Helvetica,sans-serif; font-size:48px; text-anchor:end;" transform="rotate(0, 187.005, 1208.03)" x="187.005" y="1208.03">2</text>
</g>
<g clip-path="url(#clip8900)">
<text style="fill:#000000; fill-opacity:1; font-family:Arial,Helvetica Neue,Helvetica,sans-serif; font-size:48px; text-anchor:end;" transform="rotate(0, 187.005, 1008.07)" x="187.005" y="1008.07">4</text>
</g>
<g clip-path="url(#clip8900)">
<text style="fill:#000000; fill-opacity:1; font-family:Arial,Helvetica Neue,Helvetica,sans-serif; font-size:48px; text-anchor:end;" transform="rotate(0, 187.005, 808.108)" x="187.005" y="808.108">6</text>
</g>
<g clip-path="url(#clip8900)">
<text style="fill:#000000; fill-opacity:1; font-family:Arial,Helvetica Neue,Helvetica,sans-serif; font-size:48px; text-anchor:end;" transform="rotate(0, 187.005, 608.147)" x="187.005" y="608.147">8</text>
</g>
<g clip-path="url(#clip8900)">
<text style="fill:#000000; fill-opacity:1; font-family:Arial,Helvetica Neue,Helvetica,sans-serif; font-size:48px; text-anchor:end;" transform="rotate(0, 187.005, 408.185)" x="187.005" y="408.185">10</text>
</g>
<g clip-path="url(#clip8900)">
<text style="fill:#000000; fill-opacity:1; font-family:Arial,Helvetica Neue,Helvetica,sans-serif; font-size:48px; text-anchor:end;" transform="rotate(0, 187.005, 208.224)" x="187.005" y="208.224">12</text>
</g>
<g clip-path="url(#clip8900)">
<text style="fill:#000000; fill-opacity:1; font-family:Arial,Helvetica Neue,Helvetica,sans-serif; font-size:66px; text-anchor:middle;" transform="rotate(0, 1266.13, 57.6)" x="1266.13" y="57.6">GCF_000849665.1_ViralProj14593_genomic.fna.K13.counts.histogram</text>
</g>
<g clip-path="url(#clip8900)">
<text style="fill:#000000; fill-opacity:1; font-family:Arial,Helvetica Neue,Helvetica,sans-serif; font-size:66px; text-anchor:middle;" transform="rotate(0, 1266.13, 1590.4)" x="1266.13" y="1590.4">log2(depth of coverage)</text>
</g>
<g clip-path="url(#clip8900)">
<text style="fill:#000000; fill-opacity:1; font-family:Arial,Helvetica Neue,Helvetica,sans-serif; font-size:66px; text-anchor:middle;" transform="rotate(-90, 57.6, 783.233)" x="57.6" y="783.233">log2(# kmers)</text>
</g>
<circle clip-path="url(#clip8902)" style="fill:#000000; stroke:none; fill-opacity:1" cx="738.569" cy="175.975" r="18"/>
<circle clip-path="url(#clip8902)" style="fill:#009af9; stroke:none; fill-opacity:1" cx="738.569" cy="175.975" r="14"/>
<circle clip-path="url(#clip8902)" style="fill:#000000; stroke:none; fill-opacity:1" cx="1793.7" cy="1109.81" r="18"/>
<circle clip-path="url(#clip8902)" style="fill:#009af9; stroke:none; fill-opacity:1" cx="1793.7" cy="1109.81" r="14"/>
<polyline clip-path="url(#clip8902)" style="stroke:#e26f46; stroke-width:4; stroke-opacity:1; fill:none" points="
  738.569,175.975 749.227,185.407 759.884,194.84 770.542,204.273 781.2,213.705 791.858,223.138 802.516,232.571 813.174,242.003 823.832,251.436 834.489,260.869 
  845.147,270.302 855.805,279.734 866.463,289.167 877.121,298.6 887.779,308.032 898.436,317.465 909.094,326.898 919.752,336.33 930.41,345.763 941.068,355.196 
  951.726,364.628 962.384,374.061 973.041,383.494 983.699,392.926 994.357,402.359 1005.02,411.792 1015.67,421.225 1026.33,430.657 1036.99,440.09 1047.65,449.523 
  1058.3,458.955 1068.96,468.388 1079.62,477.821 1090.28,487.253 1100.94,496.686 1111.59,506.119 1122.25,515.551 1132.91,524.984 1143.57,534.417 1154.22,543.85 
  1164.88,553.282 1175.54,562.715 1186.2,572.148 1196.86,581.58 1207.51,591.013 1218.17,600.446 1228.83,609.878 1239.49,619.311 1250.15,628.744 1260.8,638.176 
  1271.46,647.609 1282.12,657.042 1292.78,666.475 1303.43,675.907 1314.09,685.34 1324.75,694.773 1335.41,704.205 1346.07,713.638 1356.72,723.071 1367.38,732.503 
  1378.04,741.936 1388.7,751.369 1399.36,760.801 1410.01,770.234 1420.67,779.667 1431.33,789.1 1441.99,798.532 1452.64,807.965 1463.3,817.398 1473.96,826.83 
  1484.62,836.263 1495.28,845.696 1505.93,855.128 1516.59,864.561 1527.25,873.994 1537.91,883.426 1548.57,892.859 1559.22,902.292 1569.88,911.724 1580.54,921.157 
  1591.2,930.59 1601.85,940.023 1612.51,949.455 1623.17,958.888 1633.83,968.321 1644.49,977.753 1655.14,987.186 1665.8,996.619 1676.46,1006.05 1687.12,1015.48 
  1697.78,1024.92 1708.43,1034.35 1719.09,1043.78 1729.75,1053.21 1740.41,1062.65 1751.06,1072.08 1761.72,1081.51 1772.38,1090.95 1783.04,1100.38 1793.7,1109.81 
  
  "/>
<g clip-path="url(#clip8900)">
<text style="fill:#000000; fill-opacity:1; font-family:Arial,Helvetica Neue,Helvetica,sans-serif; font-size:59px; text-anchor:start;" transform="rotate(0, 738.569, 1312.01)" x="738.569" y="1312.01">r = -1.0</text>
</g>
</svg>
