<?xml version="1.0" encoding="utf-8"?>
<svg xmlns="http://www.w3.org/2000/svg" xmlns:xlink="http://www.w3.org/1999/xlink" width="600" height="400" viewBox="0 0 2400 1600">
<defs>
  <clipPath id="clip9200">
    <rect x="0" y="0" width="2400" height="1600"/>
  </clipPath>
</defs>
<polygon clip-path="url(#clip9200)" points="
0,1600 2400,1600 2400,0 0,0 
  " fill="#ffffff" fill-rule="evenodd" fill-opacity="1"/>
<defs>
  <clipPath id="clip9201">
    <rect x="480" y="0" width="1681" height="1600"/>
  </clipPath>
</defs>
<polygon clip-path="url(#clip9200)" points="
251.149,1440.48 2321.26,1440.48 2321.26,125.984 251.149,125.984 
  " fill="#ffffff" fill-rule="evenodd" fill-opacity="1"/>
<defs>
  <clipPath id="clip9202">
    <rect x="251" y="125" width="2071" height="1315"/>
  </clipPath>
</defs>
<polyline clip-path="url(#clip9202)" style="stroke:#000000; stroke-width:2; stroke-opacity:0.1; fill:none" points="
  499.368,1440.48 499.368,125.984 
  "/>
<polyline clip-path="url(#clip9202)" style="stroke:#000000; stroke-width:2; stroke-opacity:0.1; fill:none" points="
  995.806,1440.48 995.806,125.984 
  "/>
<polyline clip-path="url(#clip9202)" style="stroke:#000000; stroke-width:2; stroke-opacity:0.1; fill:none" points="
  1492.24,1440.48 1492.24,125.984 
  "/>
<polyline clip-path="url(#clip9202)" style="stroke:#000000; stroke-width:2; stroke-opacity:0.1; fill:none" points="
  1988.68,1440.48 1988.68,125.984 
  "/>
<polyline clip-path="url(#clip9202)" style="stroke:#000000; stroke-width:2; stroke-opacity:0.1; fill:none" points="
  251.149,1386.72 2321.26,1386.72 
  "/>
<polyline clip-path="url(#clip9202)" style="stroke:#000000; stroke-width:2; stroke-opacity:0.1; fill:none" points="
  251.149,1117.93 2321.26,1117.93 
  "/>
<polyline clip-path="url(#clip9202)" style="stroke:#000000; stroke-width:2; stroke-opacity:0.1; fill:none" points="
  251.149,849.132 2321.26,849.132 
  "/>
<polyline clip-path="url(#clip9202)" style="stroke:#000000; stroke-width:2; stroke-opacity:0.1; fill:none" points="
  251.149,580.336 2321.26,580.336 
  "/>
<polyline clip-path="url(#clip9202)" style="stroke:#000000; stroke-width:2; stroke-opacity:0.1; fill:none" points="
  251.149,311.54 2321.26,311.54 
  "/>
<polyline clip-path="url(#clip9200)" style="stroke:#000000; stroke-width:4; stroke-opacity:1; fill:none" points="
  251.149,1440.48 2321.26,1440.48 
  "/>
<polyline clip-path="url(#clip9200)" style="stroke:#000000; stroke-width:4; stroke-opacity:1; fill:none" points="
  251.149,1440.48 251.149,125.984 
  "/>
<polyline clip-path="url(#clip9200)" style="stroke:#000000; stroke-width:4; stroke-opacity:1; fill:none" points="
  499.368,1440.48 499.368,1420.77 
  "/>
<polyline clip-path="url(#clip9200)" style="stroke:#000000; stroke-width:4; stroke-opacity:1; fill:none" points="
  995.806,1440.48 995.806,1420.77 
  "/>
<polyline clip-path="url(#clip9200)" style="stroke:#000000; stroke-width:4; stroke-opacity:1; fill:none" points="
  1492.24,1440.48 1492.24,1420.77 
  "/>
<polyline clip-path="url(#clip9200)" style="stroke:#000000; stroke-width:4; stroke-opacity:1; fill:none" points="
  1988.68,1440.48 1988.68,1420.77 
  "/>
<polyline clip-path="url(#clip9200)" style="stroke:#000000; stroke-width:4; stroke-opacity:1; fill:none" points="
  251.149,1386.72 282.2,1386.72 
  "/>
<polyline clip-path="url(#clip9200)" style="stroke:#000000; stroke-width:4; stroke-opacity:1; fill:none" points="
  251.149,1117.93 282.2,1117.93 
  "/>
<polyline clip-path="url(#clip9200)" style="stroke:#000000; stroke-width:4; stroke-opacity:1; fill:none" points="
  251.149,849.132 282.2,849.132 
  "/>
<polyline clip-path="url(#clip9200)" style="stroke:#000000; stroke-width:4; stroke-opacity:1; fill:none" points="
  251.149,580.336 282.2,580.336 
  "/>
<polyline clip-path="url(#clip9200)" style="stroke:#000000; stroke-width:4; stroke-opacity:1; fill:none" points="
  251.149,311.54 282.2,311.54 
  "/>
<g clip-path="url(#clip9200)">
<text style="fill:#000000; fill-opacity:1; font-family:Arial,Helvetica Neue,Helvetica,sans-serif; font-size:48px; text-anchor:middle;" transform="rotate(0, 499.368, 1494.48)" x="499.368" y="1494.48">0</text>
</g>
<g clip-path="url(#clip9200)">
<text style="fill:#000000; fill-opacity:1; font-family:Arial,Helvetica Neue,Helvetica,sans-serif; font-size:48px; text-anchor:middle;" transform="rotate(0, 995.806, 1494.48)" x="995.806" y="1494.48">1</text>
</g>
<g clip-path="url(#clip9200)">
<text style="fill:#000000; fill-opacity:1; font-family:Arial,Helvetica Neue,Helvetica,sans-serif; font-size:48px; text-anchor:middle;" transform="rotate(0, 1492.24, 1494.48)" x="1492.24" y="1494.48">2</text>
</g>
<g clip-path="url(#clip9200)">
<text style="fill:#000000; fill-opacity:1; font-family:Arial,Helvetica Neue,Helvetica,sans-serif; font-size:48px; text-anchor:middle;" transform="rotate(0, 1988.68, 1494.48)" x="1988.68" y="1494.48">3</text>
</g>
<g clip-path="url(#clip9200)">
<text style="fill:#000000; fill-opacity:1; font-family:Arial,Helvetica Neue,Helvetica,sans-serif; font-size:48px; text-anchor:end;" transform="rotate(0, 227.149, 1404.22)" x="227.149" y="1404.22">0.0</text>
</g>
<g clip-path="url(#clip9200)">
<text style="fill:#000000; fill-opacity:1; font-family:Arial,Helvetica Neue,Helvetica,sans-serif; font-size:48px; text-anchor:end;" transform="rotate(0, 227.149, 1135.43)" x="227.149" y="1135.43">2.5</text>
</g>
<g clip-path="url(#clip9200)">
<text style="fill:#000000; fill-opacity:1; font-family:Arial,Helvetica Neue,Helvetica,sans-serif; font-size:48px; text-anchor:end;" transform="rotate(0, 227.149, 866.632)" x="227.149" y="866.632">5.0</text>
</g>
<g clip-path="url(#clip9200)">
<text style="fill:#000000; fill-opacity:1; font-family:Arial,Helvetica Neue,Helvetica,sans-serif; font-size:48px; text-anchor:end;" transform="rotate(0, 227.149, 597.836)" x="227.149" y="597.836">7.5</text>
</g>
<g clip-path="url(#clip9200)">
<text style="fill:#000000; fill-opacity:1; font-family:Arial,Helvetica Neue,Helvetica,sans-serif; font-size:48px; text-anchor:end;" transform="rotate(0, 227.149, 329.04)" x="227.149" y="329.04">10.0</text>
</g>
<g clip-path="url(#clip9200)">
<text style="fill:#000000; fill-opacity:1; font-family:Arial,Helvetica Neue,Helvetica,sans-serif; font-size:66px; text-anchor:middle;" transform="rotate(0, 1286.2, 57.6)" x="1286.2" y="57.6">GCF_000868425.1_ViralProj17577_genomic.fna.K7.counts.histogram</text>
</g>
<g clip-path="url(#clip9200)">
<text style="fill:#000000; fill-opacity:1; font-family:Arial,Helvetica Neue,Helvetica,sans-serif; font-size:66px; text-anchor:middle;" transform="rotate(0, 1286.2, 1590.4)" x="1286.2" y="1590.4">log2(depth of coverage)</text>
</g>
<g clip-path="url(#clip9200)">
<text style="fill:#000000; fill-opacity:1; font-family:Arial,Helvetica Neue,Helvetica,sans-serif; font-size:66px; text-anchor:middle;" transform="rotate(-90, 57.6, 783.233)" x="57.6" y="783.233">log2(# kmers)</text>
</g>
<circle clip-path="url(#clip9202)" style="fill:#000000; stroke:none; fill-opacity:1" cx="499.368" cy="179.743" r="18"/>
<circle clip-path="url(#clip9202)" style="fill:#009af9; stroke:none; fill-opacity:1" cx="499.368" cy="179.743" r="14"/>
<circle clip-path="url(#clip9202)" style="fill:#000000; stroke:none; fill-opacity:1" cx="995.806" cy="303.857" r="18"/>
<circle clip-path="url(#clip9202)" style="fill:#009af9; stroke:none; fill-opacity:1" cx="995.806" cy="303.857" r="14"/>
<circle clip-path="url(#clip9202)" style="fill:#000000; stroke:none; fill-opacity:1" cx="1286.2" cy="426.188" r="18"/>
<circle clip-path="url(#clip9202)" style="fill:#009af9; stroke:none; fill-opacity:1" cx="1286.2" cy="426.188" r="14"/>
<circle clip-path="url(#clip9202)" style="fill:#000000; stroke:none; fill-opacity:1" cx="1492.24" cy="568.796" r="18"/>
<circle clip-path="url(#clip9202)" style="fill:#009af9; stroke:none; fill-opacity:1" cx="1492.24" cy="568.796" r="14"/>
<circle clip-path="url(#clip9202)" style="fill:#000000; stroke:none; fill-opacity:1" cx="1652.06" cy="725.513" r="18"/>
<circle clip-path="url(#clip9202)" style="fill:#009af9; stroke:none; fill-opacity:1" cx="1652.06" cy="725.513" r="14"/>
<circle clip-path="url(#clip9202)" style="fill:#000000; stroke:none; fill-opacity:1" cx="1782.64" cy="887.424" r="18"/>
<circle clip-path="url(#clip9202)" style="fill:#009af9; stroke:none; fill-opacity:1" cx="1782.64" cy="887.424" r="14"/>
<circle clip-path="url(#clip9202)" style="fill:#000000; stroke:none; fill-opacity:1" cx="1893.05" cy="1171.69" r="18"/>
<circle clip-path="url(#clip9202)" style="fill:#009af9; stroke:none; fill-opacity:1" cx="1893.05" cy="1171.69" r="14"/>
<circle clip-path="url(#clip9202)" style="fill:#000000; stroke:none; fill-opacity:1" cx="1988.68" cy="1137.07" r="18"/>
<circle clip-path="url(#clip9202)" style="fill:#009af9; stroke:none; fill-opacity:1" cx="1988.68" cy="1137.07" r="14"/>
<circle clip-path="url(#clip9202)" style="fill:#000000; stroke:none; fill-opacity:1" cx="2073.04" cy="1386.72" r="18"/>
<circle clip-path="url(#clip9202)" style="fill:#009af9; stroke:none; fill-opacity:1" cx="2073.04" cy="1386.72" r="14"/>
<polyline clip-path="url(#clip9202)" style="stroke:#e26f46; stroke-width:4; stroke-opacity:1; fill:none" points="
  499.368,-23.4772 515.263,-11.3445 531.159,0.788309 547.055,12.9211 562.95,25.0538 578.846,37.1866 594.742,49.3194 610.638,61.4521 626.533,73.5849 642.429,85.7177 
  658.325,97.8505 674.22,109.983 690.116,122.116 706.012,134.249 721.907,146.382 737.803,158.514 753.699,170.647 769.594,182.78 785.49,194.913 801.386,207.045 
  817.281,219.178 833.177,231.311 849.073,243.444 864.969,255.576 880.864,267.709 896.76,279.842 912.656,291.975 928.551,304.107 944.447,316.24 960.343,328.373 
  976.238,340.506 992.134,352.639 1008.03,364.771 1023.93,376.904 1039.82,389.037 1055.72,401.17 1071.61,413.302 1087.51,425.435 1103.4,437.568 1119.3,449.701 
  1135.2,461.833 1151.09,473.966 1166.99,486.099 1182.88,498.232 1198.78,510.365 1214.67,522.497 1230.57,534.63 1246.46,546.763 1262.36,558.896 1278.26,571.028 
  1294.15,583.161 1310.05,595.294 1325.94,607.427 1341.84,619.559 1357.73,631.692 1373.63,643.825 1389.53,655.958 1405.42,668.091 1421.32,680.223 1437.21,692.356 
  1453.11,704.489 1469,716.622 1484.9,728.754 1500.8,740.887 1516.69,753.02 1532.59,765.153 1548.48,777.285 1564.38,789.418 1580.27,801.551 1596.17,813.684 
  1612.07,825.817 1627.96,837.949 1643.86,850.082 1659.75,862.215 1675.65,874.348 1691.54,886.48 1707.44,898.613 1723.34,910.746 1739.23,922.879 1755.13,935.011 
  1771.02,947.144 1786.92,959.277 1802.81,971.41 1818.71,983.542 1834.61,995.675 1850.5,1007.81 1866.4,1019.94 1882.29,1032.07 1898.19,1044.21 1914.08,1056.34 
  1929.98,1068.47 1945.88,1080.6 1961.77,1092.74 1977.67,1104.87 1993.56,1117 2009.46,1129.14 2025.35,1141.27 2041.25,1153.4 2057.14,1165.53 2073.04,1177.67 
  
  "/>
<g clip-path="url(#clip9200)">
<text style="fill:#000000; fill-opacity:1; font-family:Arial,Helvetica Neue,Helvetica,sans-serif; font-size:59px; text-anchor:start;" transform="rotate(0, 499.368, 1300.71)" x="499.368" y="1300.71">r = -0.94</text>
</g>
</svg>
