<?xml version="1.0" encoding="utf-8"?>
<svg xmlns="http://www.w3.org/2000/svg" xmlns:xlink="http://www.w3.org/1999/xlink" width="600" height="400" viewBox="0 0 2400 1600">
<defs>
  <clipPath id="clip2000">
    <rect x="0" y="0" width="2400" height="1600"/>
  </clipPath>
</defs>
<polygon clip-path="url(#clip2000)" points="
0,1600 2400,1600 2400,0 0,0 
  " fill="#ffffff" fill-rule="evenodd" fill-opacity="1"/>
<defs>
  <clipPath id="clip2001">
    <rect x="480" y="0" width="1681" height="1600"/>
  </clipPath>
</defs>
<polygon clip-path="url(#clip2000)" points="
211.005,1440.48 2321.26,1440.48 2321.26,125.984 211.005,125.984 
  " fill="#ffffff" fill-rule="evenodd" fill-opacity="1"/>
<defs>
  <clipPath id="clip2002">
    <rect x="211" y="125" width="2111" height="1315"/>
  </clipPath>
</defs>
<polyline clip-path="url(#clip2002)" style="stroke:#000000; stroke-width:2; stroke-opacity:0.1; fill:none" points="
  364.308,1440.48 364.308,125.984 
  "/>
<polyline clip-path="url(#clip2002)" style="stroke:#000000; stroke-width:2; stroke-opacity:0.1; fill:none" points="
  670.913,1440.48 670.913,125.984 
  "/>
<polyline clip-path="url(#clip2002)" style="stroke:#000000; stroke-width:2; stroke-opacity:0.1; fill:none" points="
  977.518,1440.48 977.518,125.984 
  "/>
<polyline clip-path="url(#clip2002)" style="stroke:#000000; stroke-width:2; stroke-opacity:0.1; fill:none" points="
  1284.12,1440.48 1284.12,125.984 
  "/>
<polyline clip-path="url(#clip2002)" style="stroke:#000000; stroke-width:2; stroke-opacity:0.1; fill:none" points="
  1590.73,1440.48 1590.73,125.984 
  "/>
<polyline clip-path="url(#clip2002)" style="stroke:#000000; stroke-width:2; stroke-opacity:0.1; fill:none" points="
  1897.33,1440.48 1897.33,125.984 
  "/>
<polyline clip-path="url(#clip2002)" style="stroke:#000000; stroke-width:2; stroke-opacity:0.1; fill:none" points="
  2203.94,1440.48 2203.94,125.984 
  "/>
<polyline clip-path="url(#clip2002)" style="stroke:#000000; stroke-width:2; stroke-opacity:0.1; fill:none" points="
  211.005,1411.11 2321.26,1411.11 
  "/>
<polyline clip-path="url(#clip2002)" style="stroke:#000000; stroke-width:2; stroke-opacity:0.1; fill:none" points="
  211.005,1117.35 2321.26,1117.35 
  "/>
<polyline clip-path="url(#clip2002)" style="stroke:#000000; stroke-width:2; stroke-opacity:0.1; fill:none" points="
  211.005,823.594 2321.26,823.594 
  "/>
<polyline clip-path="url(#clip2002)" style="stroke:#000000; stroke-width:2; stroke-opacity:0.1; fill:none" points="
  211.005,529.837 2321.26,529.837 
  "/>
<polyline clip-path="url(#clip2002)" style="stroke:#000000; stroke-width:2; stroke-opacity:0.1; fill:none" points="
  211.005,236.081 2321.26,236.081 
  "/>
<polyline clip-path="url(#clip2000)" style="stroke:#000000; stroke-width:4; stroke-opacity:1; fill:none" points="
  211.005,1440.48 2321.26,1440.48 
  "/>
<polyline clip-path="url(#clip2000)" style="stroke:#000000; stroke-width:4; stroke-opacity:1; fill:none" points="
  211.005,1440.48 211.005,125.984 
  "/>
<polyline clip-path="url(#clip2000)" style="stroke:#000000; stroke-width:4; stroke-opacity:1; fill:none" points="
  364.308,1440.48 364.308,1420.77 
  "/>
<polyline clip-path="url(#clip2000)" style="stroke:#000000; stroke-width:4; stroke-opacity:1; fill:none" points="
  670.913,1440.48 670.913,1420.77 
  "/>
<polyline clip-path="url(#clip2000)" style="stroke:#000000; stroke-width:4; stroke-opacity:1; fill:none" points="
  977.518,1440.48 977.518,1420.77 
  "/>
<polyline clip-path="url(#clip2000)" style="stroke:#000000; stroke-width:4; stroke-opacity:1; fill:none" points="
  1284.12,1440.48 1284.12,1420.77 
  "/>
<polyline clip-path="url(#clip2000)" style="stroke:#000000; stroke-width:4; stroke-opacity:1; fill:none" points="
  1590.73,1440.48 1590.73,1420.77 
  "/>
<polyline clip-path="url(#clip2000)" style="stroke:#000000; stroke-width:4; stroke-opacity:1; fill:none" points="
  1897.33,1440.48 1897.33,1420.77 
  "/>
<polyline clip-path="url(#clip2000)" style="stroke:#000000; stroke-width:4; stroke-opacity:1; fill:none" points="
  2203.94,1440.48 2203.94,1420.77 
  "/>
<polyline clip-path="url(#clip2000)" style="stroke:#000000; stroke-width:4; stroke-opacity:1; fill:none" points="
  211.005,1411.11 242.659,1411.11 
  "/>
<polyline clip-path="url(#clip2000)" style="stroke:#000000; stroke-width:4; stroke-opacity:1; fill:none" points="
  211.005,1117.35 242.659,1117.35 
  "/>
<polyline clip-path="url(#clip2000)" style="stroke:#000000; stroke-width:4; stroke-opacity:1; fill:none" points="
  211.005,823.594 242.659,823.594 
  "/>
<polyline clip-path="url(#clip2000)" style="stroke:#000000; stroke-width:4; stroke-opacity:1; fill:none" points="
  211.005,529.837 242.659,529.837 
  "/>
<polyline clip-path="url(#clip2000)" style="stroke:#000000; stroke-width:4; stroke-opacity:1; fill:none" points="
  211.005,236.081 242.659,236.081 
  "/>
<g clip-path="url(#clip2000)">
<text style="fill:#000000; fill-opacity:1; font-family:Arial,Helvetica Neue,Helvetica,sans-serif; font-size:48px; text-anchor:middle;" transform="rotate(0, 364.308, 1494.48)" x="364.308" y="1494.48">0</text>
</g>
<g clip-path="url(#clip2000)">
<text style="fill:#000000; fill-opacity:1; font-family:Arial,Helvetica Neue,Helvetica,sans-serif; font-size:48px; text-anchor:middle;" transform="rotate(0, 670.913, 1494.48)" x="670.913" y="1494.48">1</text>
</g>
<g clip-path="url(#clip2000)">
<text style="fill:#000000; fill-opacity:1; font-family:Arial,Helvetica Neue,Helvetica,sans-serif; font-size:48px; text-anchor:middle;" transform="rotate(0, 977.518, 1494.48)" x="977.518" y="1494.48">2</text>
</g>
<g clip-path="url(#clip2000)">
<text style="fill:#000000; fill-opacity:1; font-family:Arial,Helvetica Neue,Helvetica,sans-serif; font-size:48px; text-anchor:middle;" transform="rotate(0, 1284.12, 1494.48)" x="1284.12" y="1494.48">3</text>
</g>
<g clip-path="url(#clip2000)">
<text style="fill:#000000; fill-opacity:1; font-family:Arial,Helvetica Neue,Helvetica,sans-serif; font-size:48px; text-anchor:middle;" transform="rotate(0, 1590.73, 1494.48)" x="1590.73" y="1494.48">4</text>
</g>
<g clip-path="url(#clip2000)">
<text style="fill:#000000; fill-opacity:1; font-family:Arial,Helvetica Neue,Helvetica,sans-serif; font-size:48px; text-anchor:middle;" transform="rotate(0, 1897.33, 1494.48)" x="1897.33" y="1494.48">5</text>
</g>
<g clip-path="url(#clip2000)">
<text style="fill:#000000; fill-opacity:1; font-family:Arial,Helvetica Neue,Helvetica,sans-serif; font-size:48px; text-anchor:middle;" transform="rotate(0, 2203.94, 1494.48)" x="2203.94" y="1494.48">6</text>
</g>
<g clip-path="url(#clip2000)">
<text style="fill:#000000; fill-opacity:1; font-family:Arial,Helvetica Neue,Helvetica,sans-serif; font-size:48px; text-anchor:end;" transform="rotate(0, 187.005, 1428.61)" x="187.005" y="1428.61">0</text>
</g>
<g clip-path="url(#clip2000)">
<text style="fill:#000000; fill-opacity:1; font-family:Arial,Helvetica Neue,Helvetica,sans-serif; font-size:48px; text-anchor:end;" transform="rotate(0, 187.005, 1134.85)" x="187.005" y="1134.85">5</text>
</g>
<g clip-path="url(#clip2000)">
<text style="fill:#000000; fill-opacity:1; font-family:Arial,Helvetica Neue,Helvetica,sans-serif; font-size:48px; text-anchor:end;" transform="rotate(0, 187.005, 841.094)" x="187.005" y="841.094">10</text>
</g>
<g clip-path="url(#clip2000)">
<text style="fill:#000000; fill-opacity:1; font-family:Arial,Helvetica Neue,Helvetica,sans-serif; font-size:48px; text-anchor:end;" transform="rotate(0, 187.005, 547.337)" x="187.005" y="547.337">15</text>
</g>
<g clip-path="url(#clip2000)">
<text style="fill:#000000; fill-opacity:1; font-family:Arial,Helvetica Neue,Helvetica,sans-serif; font-size:48px; text-anchor:end;" transform="rotate(0, 187.005, 253.581)" x="187.005" y="253.581">20</text>
</g>
<g clip-path="url(#clip2000)">
<text style="fill:#000000; fill-opacity:1; font-family:Arial,Helvetica Neue,Helvetica,sans-serif; font-size:66px; text-anchor:middle;" transform="rotate(0, 1266.13, 57.6)" x="1266.13" y="57.6">GCF_000064305.2_ASM6430v2_genomic.fna.K29.counts.histogram</text>
</g>
<g clip-path="url(#clip2000)">
<text style="fill:#000000; fill-opacity:1; font-family:Arial,Helvetica Neue,Helvetica,sans-serif; font-size:66px; text-anchor:middle;" transform="rotate(0, 1266.13, 1590.4)" x="1266.13" y="1590.4">log2(depth of coverage)</text>
</g>
<g clip-path="url(#clip2000)">
<text style="fill:#000000; fill-opacity:1; font-family:Arial,Helvetica Neue,Helvetica,sans-serif; font-size:66px; text-anchor:middle;" transform="rotate(-90, 57.6, 783.233)" x="57.6" y="783.233">log2(# kmers)</text>
</g>
<circle clip-path="url(#clip2002)" style="fill:#000000; stroke:none; fill-opacity:1" cx="364.308" cy="155.36" r="18"/>
<circle clip-path="url(#clip2002)" style="fill:#009af9; stroke:none; fill-opacity:1" cx="364.308" cy="155.36" r="14"/>
<circle clip-path="url(#clip2002)" style="fill:#000000; stroke:none; fill-opacity:1" cx="670.913" cy="595.058" r="18"/>
<circle clip-path="url(#clip2002)" style="fill:#009af9; stroke:none; fill-opacity:1" cx="670.913" cy="595.058" r="14"/>
<circle clip-path="url(#clip2002)" style="fill:#000000; stroke:none; fill-opacity:1" cx="850.266" cy="661.569" r="18"/>
<circle clip-path="url(#clip2002)" style="fill:#009af9; stroke:none; fill-opacity:1" cx="850.266" cy="661.569" r="14"/>
<circle clip-path="url(#clip2002)" style="fill:#000000; stroke:none; fill-opacity:1" cx="977.518" cy="784.557" r="18"/>
<circle clip-path="url(#clip2002)" style="fill:#009af9; stroke:none; fill-opacity:1" cx="977.518" cy="784.557" r="14"/>
<circle clip-path="url(#clip2002)" style="fill:#000000; stroke:none; fill-opacity:1" cx="1076.22" cy="812.805" r="18"/>
<circle clip-path="url(#clip2002)" style="fill:#009af9; stroke:none; fill-opacity:1" cx="1076.22" cy="812.805" r="14"/>
<circle clip-path="url(#clip2002)" style="fill:#000000; stroke:none; fill-opacity:1" cx="1156.87" cy="666.068" r="18"/>
<circle clip-path="url(#clip2002)" style="fill:#009af9; stroke:none; fill-opacity:1" cx="1156.87" cy="666.068" r="14"/>
<circle clip-path="url(#clip2002)" style="fill:#000000; stroke:none; fill-opacity:1" cx="1225.06" cy="777.112" r="18"/>
<circle clip-path="url(#clip2002)" style="fill:#009af9; stroke:none; fill-opacity:1" cx="1225.06" cy="777.112" r="14"/>
<circle clip-path="url(#clip2002)" style="fill:#000000; stroke:none; fill-opacity:1" cx="1284.12" cy="904.765" r="18"/>
<circle clip-path="url(#clip2002)" style="fill:#009af9; stroke:none; fill-opacity:1" cx="1284.12" cy="904.765" r="14"/>
<circle clip-path="url(#clip2002)" style="fill:#000000; stroke:none; fill-opacity:1" cx="1336.22" cy="916.3" r="18"/>
<circle clip-path="url(#clip2002)" style="fill:#009af9; stroke:none; fill-opacity:1" cx="1336.22" cy="916.3" r="14"/>
<circle clip-path="url(#clip2002)" style="fill:#000000; stroke:none; fill-opacity:1" cx="1382.83" cy="892.536" r="18"/>
<circle clip-path="url(#clip2002)" style="fill:#009af9; stroke:none; fill-opacity:1" cx="1382.83" cy="892.536" r="14"/>
<circle clip-path="url(#clip2002)" style="fill:#000000; stroke:none; fill-opacity:1" cx="1424.99" cy="876.74" r="18"/>
<circle clip-path="url(#clip2002)" style="fill:#009af9; stroke:none; fill-opacity:1" cx="1424.99" cy="876.74" r="14"/>
<circle clip-path="url(#clip2002)" style="fill:#000000; stroke:none; fill-opacity:1" cx="1463.48" cy="975.795" r="18"/>
<circle clip-path="url(#clip2002)" style="fill:#009af9; stroke:none; fill-opacity:1" cx="1463.48" cy="975.795" r="14"/>
<circle clip-path="url(#clip2002)" style="fill:#000000; stroke:none; fill-opacity:1" cx="1498.88" cy="1145.34" r="18"/>
<circle clip-path="url(#clip2002)" style="fill:#009af9; stroke:none; fill-opacity:1" cx="1498.88" cy="1145.34" r="14"/>
<circle clip-path="url(#clip2002)" style="fill:#000000; stroke:none; fill-opacity:1" cx="1531.66" cy="1074.58" r="18"/>
<circle clip-path="url(#clip2002)" style="fill:#009af9; stroke:none; fill-opacity:1" cx="1531.66" cy="1074.58" r="14"/>
<circle clip-path="url(#clip2002)" style="fill:#000000; stroke:none; fill-opacity:1" cx="1562.18" cy="982.538" r="18"/>
<circle clip-path="url(#clip2002)" style="fill:#009af9; stroke:none; fill-opacity:1" cx="1562.18" cy="982.538" r="14"/>
<circle clip-path="url(#clip2002)" style="fill:#000000; stroke:none; fill-opacity:1" cx="1590.73" cy="1141.73" r="18"/>
<circle clip-path="url(#clip2002)" style="fill:#009af9; stroke:none; fill-opacity:1" cx="1590.73" cy="1141.73" r="14"/>
<circle clip-path="url(#clip2002)" style="fill:#000000; stroke:none; fill-opacity:1" cx="1617.55" cy="1157.19" r="18"/>
<circle clip-path="url(#clip2002)" style="fill:#009af9; stroke:none; fill-opacity:1" cx="1617.55" cy="1157.19" r="14"/>
<circle clip-path="url(#clip2002)" style="fill:#000000; stroke:none; fill-opacity:1" cx="1642.83" cy="1153.05" r="18"/>
<circle clip-path="url(#clip2002)" style="fill:#009af9; stroke:none; fill-opacity:1" cx="1642.83" cy="1153.05" r="14"/>
<circle clip-path="url(#clip2002)" style="fill:#000000; stroke:none; fill-opacity:1" cx="1666.74" cy="1131.75" r="18"/>
<circle clip-path="url(#clip2002)" style="fill:#009af9; stroke:none; fill-opacity:1" cx="1666.74" cy="1131.75" r="14"/>
<circle clip-path="url(#clip2002)" style="fill:#000000; stroke:none; fill-opacity:1" cx="1689.43" cy="1411.11" r="18"/>
<circle clip-path="url(#clip2002)" style="fill:#009af9; stroke:none; fill-opacity:1" cx="1689.43" cy="1411.11" r="14"/>
<circle clip-path="url(#clip2002)" style="fill:#000000; stroke:none; fill-opacity:1" cx="1711.02" cy="1293.6" r="18"/>
<circle clip-path="url(#clip2002)" style="fill:#009af9; stroke:none; fill-opacity:1" cx="1711.02" cy="1293.6" r="14"/>
<circle clip-path="url(#clip2002)" style="fill:#000000; stroke:none; fill-opacity:1" cx="1731.59" cy="1293.6" r="18"/>
<circle clip-path="url(#clip2002)" style="fill:#009af9; stroke:none; fill-opacity:1" cx="1731.59" cy="1293.6" r="14"/>
<circle clip-path="url(#clip2002)" style="fill:#000000; stroke:none; fill-opacity:1" cx="1751.26" cy="1246.17" r="18"/>
<circle clip-path="url(#clip2002)" style="fill:#009af9; stroke:none; fill-opacity:1" cx="1751.26" cy="1246.17" r="14"/>
<circle clip-path="url(#clip2002)" style="fill:#000000; stroke:none; fill-opacity:1" cx="1770.08" cy="1259.24" r="18"/>
<circle clip-path="url(#clip2002)" style="fill:#009af9; stroke:none; fill-opacity:1" cx="1770.08" cy="1259.24" r="14"/>
<circle clip-path="url(#clip2002)" style="fill:#000000; stroke:none; fill-opacity:1" cx="1788.14" cy="1181.57" r="18"/>
<circle clip-path="url(#clip2002)" style="fill:#009af9; stroke:none; fill-opacity:1" cx="1788.14" cy="1181.57" r="14"/>
<circle clip-path="url(#clip2002)" style="fill:#000000; stroke:none; fill-opacity:1" cx="1805.49" cy="1200.49" r="18"/>
<circle clip-path="url(#clip2002)" style="fill:#009af9; stroke:none; fill-opacity:1" cx="1805.49" cy="1200.49" r="14"/>
<circle clip-path="url(#clip2002)" style="fill:#000000; stroke:none; fill-opacity:1" cx="1822.18" cy="1411.11" r="18"/>
<circle clip-path="url(#clip2002)" style="fill:#009af9; stroke:none; fill-opacity:1" cx="1822.18" cy="1411.11" r="14"/>
<circle clip-path="url(#clip2002)" style="fill:#000000; stroke:none; fill-opacity:1" cx="1838.27" cy="1215.94" r="18"/>
<circle clip-path="url(#clip2002)" style="fill:#009af9; stroke:none; fill-opacity:1" cx="1838.27" cy="1215.94" r="14"/>
<circle clip-path="url(#clip2002)" style="fill:#000000; stroke:none; fill-opacity:1" cx="1853.79" cy="1128.67" r="18"/>
<circle clip-path="url(#clip2002)" style="fill:#009af9; stroke:none; fill-opacity:1" cx="1853.79" cy="1128.67" r="14"/>
<circle clip-path="url(#clip2002)" style="fill:#000000; stroke:none; fill-opacity:1" cx="1868.79" cy="1176.1" r="18"/>
<circle clip-path="url(#clip2002)" style="fill:#009af9; stroke:none; fill-opacity:1" cx="1868.79" cy="1176.1" r="14"/>
<circle clip-path="url(#clip2002)" style="fill:#000000; stroke:none; fill-opacity:1" cx="1883.29" cy="1207.86" r="18"/>
<circle clip-path="url(#clip2002)" style="fill:#009af9; stroke:none; fill-opacity:1" cx="1883.29" cy="1207.86" r="14"/>
<circle clip-path="url(#clip2002)" style="fill:#000000; stroke:none; fill-opacity:1" cx="1897.33" cy="1317.99" r="18"/>
<circle clip-path="url(#clip2002)" style="fill:#009af9; stroke:none; fill-opacity:1" cx="1897.33" cy="1317.99" r="14"/>
<circle clip-path="url(#clip2002)" style="fill:#000000; stroke:none; fill-opacity:1" cx="1924.15" cy="1246.17" r="18"/>
<circle clip-path="url(#clip2002)" style="fill:#009af9; stroke:none; fill-opacity:1" cx="1924.15" cy="1246.17" r="14"/>
<circle clip-path="url(#clip2002)" style="fill:#000000; stroke:none; fill-opacity:1" cx="1936.97" cy="1352.36" r="18"/>
<circle clip-path="url(#clip2002)" style="fill:#009af9; stroke:none; fill-opacity:1" cx="1936.97" cy="1352.36" r="14"/>
<circle clip-path="url(#clip2002)" style="fill:#000000; stroke:none; fill-opacity:1" cx="2167.96" cy="1411.11" r="18"/>
<circle clip-path="url(#clip2002)" style="fill:#009af9; stroke:none; fill-opacity:1" cx="2167.96" cy="1411.11" r="14"/>
<polyline clip-path="url(#clip2002)" style="stroke:#e26f46; stroke-width:4; stroke-opacity:1; fill:none" points="
  364.308,287.535 382.526,299.571 400.745,311.607 418.964,323.643 437.182,335.679 455.401,347.715 473.62,359.75 491.838,371.786 510.057,383.822 528.276,395.858 
  546.494,407.894 564.713,419.93 582.932,431.966 601.151,444.002 619.369,456.038 637.588,468.074 655.807,480.11 674.025,492.145 692.244,504.181 710.463,516.217 
  728.681,528.253 746.9,540.289 765.119,552.325 783.337,564.361 801.556,576.397 819.775,588.433 837.993,600.469 856.212,612.505 874.431,624.54 892.649,636.576 
  910.868,648.612 929.087,660.648 947.305,672.684 965.524,684.72 983.743,696.756 1001.96,708.792 1020.18,720.828 1038.4,732.864 1056.62,744.9 1074.84,756.935 
  1093.05,768.971 1111.27,781.007 1129.49,793.043 1147.71,805.079 1165.93,817.115 1184.15,829.151 1202.37,841.187 1220.59,853.223 1238.8,865.259 1257.02,877.295 
  1275.24,889.33 1293.46,901.366 1311.68,913.402 1329.9,925.438 1348.12,937.474 1366.34,949.51 1384.55,961.546 1402.77,973.582 1420.99,985.618 1439.21,997.654 
  1457.43,1009.69 1475.65,1021.73 1493.87,1033.76 1512.08,1045.8 1530.3,1057.83 1548.52,1069.87 1566.74,1081.91 1584.96,1093.94 1603.18,1105.98 1621.4,1118.01 
  1639.62,1130.05 1657.83,1142.08 1676.05,1154.12 1694.27,1166.16 1712.49,1178.19 1730.71,1190.23 1748.93,1202.26 1767.15,1214.3 1785.36,1226.34 1803.58,1238.37 
  1821.8,1250.41 1840.02,1262.44 1858.24,1274.48 1876.46,1286.52 1894.68,1298.55 1912.9,1310.59 1931.11,1322.62 1949.33,1334.66 1967.55,1346.7 1985.77,1358.73 
  2003.99,1370.77 2022.21,1382.8 2040.43,1394.84 2058.65,1406.87 2076.86,1418.91 2095.08,1430.95 2113.3,1442.98 2131.52,1455.02 2149.74,1467.05 2167.96,1479.09 
  
  "/>
<g clip-path="url(#clip2000)">
<text style="fill:#000000; fill-opacity:1; font-family:Arial,Helvetica Neue,Helvetica,sans-serif; font-size:59px; text-anchor:start;" transform="rotate(0, 364.308, 1373.86)" x="364.308" y="1373.86">r = -0.94</text>
</g>
</svg>
