<?xml version="1.0" encoding="utf-8"?>
<svg xmlns="http://www.w3.org/2000/svg" xmlns:xlink="http://www.w3.org/1999/xlink" width="600" height="400" viewBox="0 0 2400 1600">
<defs>
  <clipPath id="clip1300">
    <rect x="0" y="0" width="2400" height="1600"/>
  </clipPath>
</defs>
<polygon clip-path="url(#clip1300)" points="
0,1600 2400,1600 2400,0 0,0 
  " fill="#ffffff" fill-rule="evenodd" fill-opacity="1"/>
<defs>
  <clipPath id="clip1301">
    <rect x="480" y="0" width="1681" height="1600"/>
  </clipPath>
</defs>
<polygon clip-path="url(#clip1300)" points="
211.005,1440.48 2321.26,1440.48 2321.26,125.984 211.005,125.984 
  " fill="#ffffff" fill-rule="evenodd" fill-opacity="1"/>
<defs>
  <clipPath id="clip1302">
    <rect x="211" y="125" width="2111" height="1315"/>
  </clipPath>
</defs>
<polyline clip-path="url(#clip1302)" style="stroke:#000000; stroke-width:2; stroke-opacity:0.1; fill:none" points="
  359.436,1440.48 359.436,125.984 
  "/>
<polyline clip-path="url(#clip1302)" style="stroke:#000000; stroke-width:2; stroke-opacity:0.1; fill:none" points="
  656.299,1440.48 656.299,125.984 
  "/>
<polyline clip-path="url(#clip1302)" style="stroke:#000000; stroke-width:2; stroke-opacity:0.1; fill:none" points="
  953.161,1440.48 953.161,125.984 
  "/>
<polyline clip-path="url(#clip1302)" style="stroke:#000000; stroke-width:2; stroke-opacity:0.1; fill:none" points="
  1250.02,1440.48 1250.02,125.984 
  "/>
<polyline clip-path="url(#clip1302)" style="stroke:#000000; stroke-width:2; stroke-opacity:0.1; fill:none" points="
  1546.89,1440.48 1546.89,125.984 
  "/>
<polyline clip-path="url(#clip1302)" style="stroke:#000000; stroke-width:2; stroke-opacity:0.1; fill:none" points="
  1843.75,1440.48 1843.75,125.984 
  "/>
<polyline clip-path="url(#clip1302)" style="stroke:#000000; stroke-width:2; stroke-opacity:0.1; fill:none" points="
  2140.61,1440.48 2140.61,125.984 
  "/>
<polyline clip-path="url(#clip1302)" style="stroke:#000000; stroke-width:2; stroke-opacity:0.1; fill:none" points="
  211.005,1411.08 2321.26,1411.08 
  "/>
<polyline clip-path="url(#clip1302)" style="stroke:#000000; stroke-width:2; stroke-opacity:0.1; fill:none" points="
  211.005,1117.03 2321.26,1117.03 
  "/>
<polyline clip-path="url(#clip1302)" style="stroke:#000000; stroke-width:2; stroke-opacity:0.1; fill:none" points="
  211.005,822.99 2321.26,822.99 
  "/>
<polyline clip-path="url(#clip1302)" style="stroke:#000000; stroke-width:2; stroke-opacity:0.1; fill:none" points="
  211.005,528.946 2321.26,528.946 
  "/>
<polyline clip-path="url(#clip1302)" style="stroke:#000000; stroke-width:2; stroke-opacity:0.1; fill:none" points="
  211.005,234.901 2321.26,234.901 
  "/>
<polyline clip-path="url(#clip1300)" style="stroke:#000000; stroke-width:4; stroke-opacity:1; fill:none" points="
  211.005,1440.48 2321.26,1440.48 
  "/>
<polyline clip-path="url(#clip1300)" style="stroke:#000000; stroke-width:4; stroke-opacity:1; fill:none" points="
  211.005,1440.48 211.005,125.984 
  "/>
<polyline clip-path="url(#clip1300)" style="stroke:#000000; stroke-width:4; stroke-opacity:1; fill:none" points="
  359.436,1440.48 359.436,1420.77 
  "/>
<polyline clip-path="url(#clip1300)" style="stroke:#000000; stroke-width:4; stroke-opacity:1; fill:none" points="
  656.299,1440.48 656.299,1420.77 
  "/>
<polyline clip-path="url(#clip1300)" style="stroke:#000000; stroke-width:4; stroke-opacity:1; fill:none" points="
  953.161,1440.48 953.161,1420.77 
  "/>
<polyline clip-path="url(#clip1300)" style="stroke:#000000; stroke-width:4; stroke-opacity:1; fill:none" points="
  1250.02,1440.48 1250.02,1420.77 
  "/>
<polyline clip-path="url(#clip1300)" style="stroke:#000000; stroke-width:4; stroke-opacity:1; fill:none" points="
  1546.89,1440.48 1546.89,1420.77 
  "/>
<polyline clip-path="url(#clip1300)" style="stroke:#000000; stroke-width:4; stroke-opacity:1; fill:none" points="
  1843.75,1440.48 1843.75,1420.77 
  "/>
<polyline clip-path="url(#clip1300)" style="stroke:#000000; stroke-width:4; stroke-opacity:1; fill:none" points="
  2140.61,1440.48 2140.61,1420.77 
  "/>
<polyline clip-path="url(#clip1300)" style="stroke:#000000; stroke-width:4; stroke-opacity:1; fill:none" points="
  211.005,1411.08 242.659,1411.08 
  "/>
<polyline clip-path="url(#clip1300)" style="stroke:#000000; stroke-width:4; stroke-opacity:1; fill:none" points="
  211.005,1117.03 242.659,1117.03 
  "/>
<polyline clip-path="url(#clip1300)" style="stroke:#000000; stroke-width:4; stroke-opacity:1; fill:none" points="
  211.005,822.99 242.659,822.99 
  "/>
<polyline clip-path="url(#clip1300)" style="stroke:#000000; stroke-width:4; stroke-opacity:1; fill:none" points="
  211.005,528.946 242.659,528.946 
  "/>
<polyline clip-path="url(#clip1300)" style="stroke:#000000; stroke-width:4; stroke-opacity:1; fill:none" points="
  211.005,234.901 242.659,234.901 
  "/>
<g clip-path="url(#clip1300)">
<text style="fill:#000000; fill-opacity:1; font-family:Arial,Helvetica Neue,Helvetica,sans-serif; font-size:48px; text-anchor:middle;" transform="rotate(0, 359.436, 1494.48)" x="359.436" y="1494.48">0</text>
</g>
<g clip-path="url(#clip1300)">
<text style="fill:#000000; fill-opacity:1; font-family:Arial,Helvetica Neue,Helvetica,sans-serif; font-size:48px; text-anchor:middle;" transform="rotate(0, 656.299, 1494.48)" x="656.299" y="1494.48">1</text>
</g>
<g clip-path="url(#clip1300)">
<text style="fill:#000000; fill-opacity:1; font-family:Arial,Helvetica Neue,Helvetica,sans-serif; font-size:48px; text-anchor:middle;" transform="rotate(0, 953.161, 1494.48)" x="953.161" y="1494.48">2</text>
</g>
<g clip-path="url(#clip1300)">
<text style="fill:#000000; fill-opacity:1; font-family:Arial,Helvetica Neue,Helvetica,sans-serif; font-size:48px; text-anchor:middle;" transform="rotate(0, 1250.02, 1494.48)" x="1250.02" y="1494.48">3</text>
</g>
<g clip-path="url(#clip1300)">
<text style="fill:#000000; fill-opacity:1; font-family:Arial,Helvetica Neue,Helvetica,sans-serif; font-size:48px; text-anchor:middle;" transform="rotate(0, 1546.89, 1494.48)" x="1546.89" y="1494.48">4</text>
</g>
<g clip-path="url(#clip1300)">
<text style="fill:#000000; fill-opacity:1; font-family:Arial,Helvetica Neue,Helvetica,sans-serif; font-size:48px; text-anchor:middle;" transform="rotate(0, 1843.75, 1494.48)" x="1843.75" y="1494.48">5</text>
</g>
<g clip-path="url(#clip1300)">
<text style="fill:#000000; fill-opacity:1; font-family:Arial,Helvetica Neue,Helvetica,sans-serif; font-size:48px; text-anchor:middle;" transform="rotate(0, 2140.61, 1494.48)" x="2140.61" y="1494.48">6</text>
</g>
<g clip-path="url(#clip1300)">
<text style="fill:#000000; fill-opacity:1; font-family:Arial,Helvetica Neue,Helvetica,sans-serif; font-size:48px; text-anchor:end;" transform="rotate(0, 187.005, 1428.58)" x="187.005" y="1428.58">0</text>
</g>
<g clip-path="url(#clip1300)">
<text style="fill:#000000; fill-opacity:1; font-family:Arial,Helvetica Neue,Helvetica,sans-serif; font-size:48px; text-anchor:end;" transform="rotate(0, 187.005, 1134.53)" x="187.005" y="1134.53">5</text>
</g>
<g clip-path="url(#clip1300)">
<text style="fill:#000000; fill-opacity:1; font-family:Arial,Helvetica Neue,Helvetica,sans-serif; font-size:48px; text-anchor:end;" transform="rotate(0, 187.005, 840.49)" x="187.005" y="840.49">10</text>
</g>
<g clip-path="url(#clip1300)">
<text style="fill:#000000; fill-opacity:1; font-family:Arial,Helvetica Neue,Helvetica,sans-serif; font-size:48px; text-anchor:end;" transform="rotate(0, 187.005, 546.446)" x="187.005" y="546.446">15</text>
</g>
<g clip-path="url(#clip1300)">
<text style="fill:#000000; fill-opacity:1; font-family:Arial,Helvetica Neue,Helvetica,sans-serif; font-size:48px; text-anchor:end;" transform="rotate(0, 187.005, 252.401)" x="187.005" y="252.401">20</text>
</g>
<g clip-path="url(#clip1300)">
<text style="fill:#000000; fill-opacity:1; font-family:Arial,Helvetica Neue,Helvetica,sans-serif; font-size:66px; text-anchor:middle;" transform="rotate(0, 1266.13, 57.6)" x="1266.13" y="57.6">GCF_000064305.2_ASM6430v2_genomic.fna.K17.counts.histogram</text>
</g>
<g clip-path="url(#clip1300)">
<text style="fill:#000000; fill-opacity:1; font-family:Arial,Helvetica Neue,Helvetica,sans-serif; font-size:66px; text-anchor:middle;" transform="rotate(0, 1266.13, 1590.4)" x="1266.13" y="1590.4">log2(depth of coverage)</text>
</g>
<g clip-path="url(#clip1300)">
<text style="fill:#000000; fill-opacity:1; font-family:Arial,Helvetica Neue,Helvetica,sans-serif; font-size:66px; text-anchor:middle;" transform="rotate(-90, 57.6, 783.233)" x="57.6" y="783.233">log2(# kmers)</text>
</g>
<circle clip-path="url(#clip1302)" style="fill:#000000; stroke:none; fill-opacity:1" cx="359.436" cy="155.389" r="18"/>
<circle clip-path="url(#clip1302)" style="fill:#009af9; stroke:none; fill-opacity:1" cx="359.436" cy="155.389" r="14"/>
<circle clip-path="url(#clip1302)" style="fill:#000000; stroke:none; fill-opacity:1" cx="656.299" cy="541.479" r="18"/>
<circle clip-path="url(#clip1302)" style="fill:#009af9; stroke:none; fill-opacity:1" cx="656.299" cy="541.479" r="14"/>
<circle clip-path="url(#clip1302)" style="fill:#000000; stroke:none; fill-opacity:1" cx="829.952" cy="653.758" r="18"/>
<circle clip-path="url(#clip1302)" style="fill:#009af9; stroke:none; fill-opacity:1" cx="829.952" cy="653.758" r="14"/>
<circle clip-path="url(#clip1302)" style="fill:#000000; stroke:none; fill-opacity:1" cx="953.161" cy="782.566" r="18"/>
<circle clip-path="url(#clip1302)" style="fill:#009af9; stroke:none; fill-opacity:1" cx="953.161" cy="782.566" r="14"/>
<circle clip-path="url(#clip1302)" style="fill:#000000; stroke:none; fill-opacity:1" cx="1048.73" cy="813.736" r="18"/>
<circle clip-path="url(#clip1302)" style="fill:#009af9; stroke:none; fill-opacity:1" cx="1048.73" cy="813.736" r="14"/>
<circle clip-path="url(#clip1302)" style="fill:#000000; stroke:none; fill-opacity:1" cx="1126.81" cy="664.155" r="18"/>
<circle clip-path="url(#clip1302)" style="fill:#009af9; stroke:none; fill-opacity:1" cx="1126.81" cy="664.155" r="14"/>
<circle clip-path="url(#clip1302)" style="fill:#000000; stroke:none; fill-opacity:1" cx="1192.83" cy="772.442" r="18"/>
<circle clip-path="url(#clip1302)" style="fill:#009af9; stroke:none; fill-opacity:1" cx="1192.83" cy="772.442" r="14"/>
<circle clip-path="url(#clip1302)" style="fill:#000000; stroke:none; fill-opacity:1" cx="1250.02" cy="893.318" r="18"/>
<circle clip-path="url(#clip1302)" style="fill:#009af9; stroke:none; fill-opacity:1" cx="1250.02" cy="893.318" r="14"/>
<circle clip-path="url(#clip1302)" style="fill:#000000; stroke:none; fill-opacity:1" cx="1300.47" cy="893.889" r="18"/>
<circle clip-path="url(#clip1302)" style="fill:#009af9; stroke:none; fill-opacity:1" cx="1300.47" cy="893.889" r="14"/>
<circle clip-path="url(#clip1302)" style="fill:#000000; stroke:none; fill-opacity:1" cx="1345.59" cy="865.697" r="18"/>
<circle clip-path="url(#clip1302)" style="fill:#009af9; stroke:none; fill-opacity:1" cx="1345.59" cy="865.697" r="14"/>
<circle clip-path="url(#clip1302)" style="fill:#000000; stroke:none; fill-opacity:1" cx="1386.41" cy="848.286" r="18"/>
<circle clip-path="url(#clip1302)" style="fill:#009af9; stroke:none; fill-opacity:1" cx="1386.41" cy="848.286" r="14"/>
<circle clip-path="url(#clip1302)" style="fill:#000000; stroke:none; fill-opacity:1" cx="1423.68" cy="921.147" r="18"/>
<circle clip-path="url(#clip1302)" style="fill:#009af9; stroke:none; fill-opacity:1" cx="1423.68" cy="921.147" r="14"/>
<circle clip-path="url(#clip1302)" style="fill:#000000; stroke:none; fill-opacity:1" cx="1457.96" cy="1090.02" r="18"/>
<circle clip-path="url(#clip1302)" style="fill:#009af9; stroke:none; fill-opacity:1" cx="1457.96" cy="1090.02" r="14"/>
<circle clip-path="url(#clip1302)" style="fill:#000000; stroke:none; fill-opacity:1" cx="1489.7" cy="1059.56" r="18"/>
<circle clip-path="url(#clip1302)" style="fill:#009af9; stroke:none; fill-opacity:1" cx="1489.7" cy="1059.56" r="14"/>
<circle clip-path="url(#clip1302)" style="fill:#000000; stroke:none; fill-opacity:1" cx="1519.25" cy="963.7" r="18"/>
<circle clip-path="url(#clip1302)" style="fill:#009af9; stroke:none; fill-opacity:1" cx="1519.25" cy="963.7" r="14"/>
<circle clip-path="url(#clip1302)" style="fill:#000000; stroke:none; fill-opacity:1" cx="1546.89" cy="1111.89" r="18"/>
<circle clip-path="url(#clip1302)" style="fill:#009af9; stroke:none; fill-opacity:1" cx="1546.89" cy="1111.89" r="14"/>
<circle clip-path="url(#clip1302)" style="fill:#000000; stroke:none; fill-opacity:1" cx="1572.85" cy="1119.73" r="18"/>
<circle clip-path="url(#clip1302)" style="fill:#009af9; stroke:none; fill-opacity:1" cx="1572.85" cy="1119.73" r="14"/>
<circle clip-path="url(#clip1302)" style="fill:#000000; stroke:none; fill-opacity:1" cx="1597.33" cy="1093.96" r="18"/>
<circle clip-path="url(#clip1302)" style="fill:#009af9; stroke:none; fill-opacity:1" cx="1597.33" cy="1093.96" r="14"/>
<circle clip-path="url(#clip1302)" style="fill:#000000; stroke:none; fill-opacity:1" cx="1620.49" cy="1084.42" r="18"/>
<circle clip-path="url(#clip1302)" style="fill:#009af9; stroke:none; fill-opacity:1" cx="1620.49" cy="1084.42" r="14"/>
<circle clip-path="url(#clip1302)" style="fill:#000000; stroke:none; fill-opacity:1" cx="1642.45" cy="1131.45" r="18"/>
<circle clip-path="url(#clip1302)" style="fill:#009af9; stroke:none; fill-opacity:1" cx="1642.45" cy="1131.45" r="14"/>
<circle clip-path="url(#clip1302)" style="fill:#000000; stroke:none; fill-opacity:1" cx="1663.35" cy="1215.72" r="18"/>
<circle clip-path="url(#clip1302)" style="fill:#009af9; stroke:none; fill-opacity:1" cx="1663.35" cy="1215.72" r="14"/>
<circle clip-path="url(#clip1302)" style="fill:#000000; stroke:none; fill-opacity:1" cx="1683.27" cy="1274.53" r="18"/>
<circle clip-path="url(#clip1302)" style="fill:#009af9; stroke:none; fill-opacity:1" cx="1683.27" cy="1274.53" r="14"/>
<circle clip-path="url(#clip1302)" style="fill:#000000; stroke:none; fill-opacity:1" cx="1720.54" cy="1245.98" r="18"/>
<circle clip-path="url(#clip1302)" style="fill:#009af9; stroke:none; fill-opacity:1" cx="1720.54" cy="1245.98" r="14"/>
<circle clip-path="url(#clip1302)" style="fill:#000000; stroke:none; fill-opacity:1" cx="1738.02" cy="1274.53" r="18"/>
<circle clip-path="url(#clip1302)" style="fill:#009af9; stroke:none; fill-opacity:1" cx="1738.02" cy="1274.53" r="14"/>
<circle clip-path="url(#clip1302)" style="fill:#000000; stroke:none; fill-opacity:1" cx="1754.82" cy="1352.27" r="18"/>
<circle clip-path="url(#clip1302)" style="fill:#009af9; stroke:none; fill-opacity:1" cx="1754.82" cy="1352.27" r="14"/>
<circle clip-path="url(#clip1302)" style="fill:#000000; stroke:none; fill-opacity:1" cx="1770.98" cy="1245.98" r="18"/>
<circle clip-path="url(#clip1302)" style="fill:#009af9; stroke:none; fill-opacity:1" cx="1770.98" cy="1245.98" r="14"/>
<circle clip-path="url(#clip1302)" style="fill:#000000; stroke:none; fill-opacity:1" cx="1786.56" cy="1274.53" r="18"/>
<circle clip-path="url(#clip1302)" style="fill:#009af9; stroke:none; fill-opacity:1" cx="1786.56" cy="1274.53" r="14"/>
<circle clip-path="url(#clip1302)" style="fill:#000000; stroke:none; fill-opacity:1" cx="1801.59" cy="1181.32" r="18"/>
<circle clip-path="url(#clip1302)" style="fill:#009af9; stroke:none; fill-opacity:1" cx="1801.59" cy="1181.32" r="14"/>
<circle clip-path="url(#clip1302)" style="fill:#000000; stroke:none; fill-opacity:1" cx="1816.11" cy="1259.06" r="18"/>
<circle clip-path="url(#clip1302)" style="fill:#009af9; stroke:none; fill-opacity:1" cx="1816.11" cy="1259.06" r="14"/>
<circle clip-path="url(#clip1302)" style="fill:#000000; stroke:none; fill-opacity:1" cx="1830.15" cy="1181.32" r="18"/>
<circle clip-path="url(#clip1302)" style="fill:#009af9; stroke:none; fill-opacity:1" cx="1830.15" cy="1181.32" r="14"/>
<circle clip-path="url(#clip1302)" style="fill:#000000; stroke:none; fill-opacity:1" cx="1843.75" cy="1234.65" r="18"/>
<circle clip-path="url(#clip1302)" style="fill:#009af9; stroke:none; fill-opacity:1" cx="1843.75" cy="1234.65" r="14"/>
<circle clip-path="url(#clip1302)" style="fill:#000000; stroke:none; fill-opacity:1" cx="1856.93" cy="1259.06" r="18"/>
<circle clip-path="url(#clip1302)" style="fill:#009af9; stroke:none; fill-opacity:1" cx="1856.93" cy="1259.06" r="14"/>
<circle clip-path="url(#clip1302)" style="fill:#000000; stroke:none; fill-opacity:1" cx="1869.71" cy="1187.17" r="18"/>
<circle clip-path="url(#clip1302)" style="fill:#009af9; stroke:none; fill-opacity:1" cx="1869.71" cy="1187.17" r="14"/>
<circle clip-path="url(#clip1302)" style="fill:#000000; stroke:none; fill-opacity:1" cx="1882.13" cy="1181.32" r="18"/>
<circle clip-path="url(#clip1302)" style="fill:#009af9; stroke:none; fill-opacity:1" cx="1882.13" cy="1181.32" r="14"/>
<circle clip-path="url(#clip1302)" style="fill:#000000; stroke:none; fill-opacity:1" cx="1894.19" cy="1224.66" r="18"/>
<circle clip-path="url(#clip1302)" style="fill:#009af9; stroke:none; fill-opacity:1" cx="1894.19" cy="1224.66" r="14"/>
<circle clip-path="url(#clip1302)" style="fill:#000000; stroke:none; fill-opacity:1" cx="1905.93" cy="1224.66" r="18"/>
<circle clip-path="url(#clip1302)" style="fill:#009af9; stroke:none; fill-opacity:1" cx="1905.93" cy="1224.66" r="14"/>
<circle clip-path="url(#clip1302)" style="fill:#000000; stroke:none; fill-opacity:1" cx="1917.35" cy="1224.66" r="18"/>
<circle clip-path="url(#clip1302)" style="fill:#009af9; stroke:none; fill-opacity:1" cx="1917.35" cy="1224.66" r="14"/>
<circle clip-path="url(#clip1302)" style="fill:#000000; stroke:none; fill-opacity:1" cx="1928.47" cy="1411.08" r="18"/>
<circle clip-path="url(#clip1302)" style="fill:#009af9; stroke:none; fill-opacity:1" cx="1928.47" cy="1411.08" r="14"/>
<circle clip-path="url(#clip1302)" style="fill:#000000; stroke:none; fill-opacity:1" cx="1939.32" cy="1317.87" r="18"/>
<circle clip-path="url(#clip1302)" style="fill:#009af9; stroke:none; fill-opacity:1" cx="1939.32" cy="1317.87" r="14"/>
<circle clip-path="url(#clip1302)" style="fill:#000000; stroke:none; fill-opacity:1" cx="1989.76" cy="1411.08" r="18"/>
<circle clip-path="url(#clip1302)" style="fill:#009af9; stroke:none; fill-opacity:1" cx="1989.76" cy="1411.08" r="14"/>
<circle clip-path="url(#clip1302)" style="fill:#000000; stroke:none; fill-opacity:1" cx="2153.79" cy="1317.87" r="18"/>
<circle clip-path="url(#clip1302)" style="fill:#009af9; stroke:none; fill-opacity:1" cx="2153.79" cy="1317.87" r="14"/>
<circle clip-path="url(#clip1302)" style="fill:#000000; stroke:none; fill-opacity:1" cx="2160.23" cy="1293.46" r="18"/>
<circle clip-path="url(#clip1302)" style="fill:#009af9; stroke:none; fill-opacity:1" cx="2160.23" cy="1293.46" r="14"/>
<circle clip-path="url(#clip1302)" style="fill:#000000; stroke:none; fill-opacity:1" cx="2166.58" cy="1293.46" r="18"/>
<circle clip-path="url(#clip1302)" style="fill:#009af9; stroke:none; fill-opacity:1" cx="2166.58" cy="1293.46" r="14"/>
<circle clip-path="url(#clip1302)" style="fill:#000000; stroke:none; fill-opacity:1" cx="2172.83" cy="1352.27" r="18"/>
<circle clip-path="url(#clip1302)" style="fill:#009af9; stroke:none; fill-opacity:1" cx="2172.83" cy="1352.27" r="14"/>
<polyline clip-path="url(#clip1302)" style="stroke:#e26f46; stroke-width:4; stroke-opacity:1; fill:none" points="
  359.436,327.341 377.753,338.547 396.07,349.753 414.388,360.959 432.705,372.165 451.022,383.371 469.339,394.578 487.656,405.784 505.973,416.99 524.29,428.196 
  542.607,439.402 560.924,450.608 579.241,461.814 597.558,473.02 615.876,484.226 634.193,495.432 652.51,506.639 670.827,517.845 689.144,529.051 707.461,540.257 
  725.778,551.463 744.095,562.669 762.412,573.875 780.729,585.081 799.047,596.287 817.364,607.493 835.681,618.7 853.998,629.906 872.315,641.112 890.632,652.318 
  908.949,663.524 927.266,674.73 945.583,685.936 963.9,697.142 982.217,708.348 1000.53,719.555 1018.85,730.761 1037.17,741.967 1055.49,753.173 1073.8,764.379 
  1092.12,775.585 1110.44,786.791 1128.75,797.997 1147.07,809.203 1165.39,820.409 1183.71,831.616 1202.02,842.822 1220.34,854.028 1238.66,865.234 1256.97,876.44 
  1275.29,887.646 1293.61,898.852 1311.93,910.058 1330.24,921.264 1348.56,932.47 1366.88,943.677 1385.19,954.883 1403.51,966.089 1421.83,977.295 1440.14,988.501 
  1458.46,999.707 1476.78,1010.91 1495.1,1022.12 1513.41,1033.33 1531.73,1044.53 1550.05,1055.74 1568.36,1066.94 1586.68,1078.15 1605,1089.36 1623.32,1100.56 
  1641.63,1111.77 1659.95,1122.97 1678.27,1134.18 1696.58,1145.39 1714.9,1156.59 1733.22,1167.8 1751.54,1179 1769.85,1190.21 1788.17,1201.42 1806.49,1212.62 
  1824.8,1223.83 1843.12,1235.04 1861.44,1246.24 1879.76,1257.45 1898.07,1268.65 1916.39,1279.86 1934.71,1291.07 1953.02,1302.27 1971.34,1313.48 1989.66,1324.68 
  2007.97,1335.89 2026.29,1347.1 2044.61,1358.3 2062.93,1369.51 2081.24,1380.71 2099.56,1391.92 2117.88,1403.13 2136.19,1414.33 2154.51,1425.54 2172.83,1436.74 
  
  "/>
<g clip-path="url(#clip1300)">
<text style="fill:#000000; fill-opacity:1; font-family:Arial,Helvetica Neue,Helvetica,sans-serif; font-size:59px; text-anchor:start;" transform="rotate(0, 359.436, 1373.77)" x="359.436" y="1373.77">r = -0.95</text>
</g>
</svg>
