<?xml version="1.0" encoding="utf-8"?>
<svg xmlns="http://www.w3.org/2000/svg" xmlns:xlink="http://www.w3.org/1999/xlink" width="600" height="400" viewBox="0 0 2400 1600">
<defs>
  <clipPath id="clip0200">
    <rect x="0" y="0" width="2400" height="1600"/>
  </clipPath>
</defs>
<polygon clip-path="url(#clip0200)" points="
0,1600 2400,1600 2400,0 0,0 
  " fill="#ffffff" fill-rule="evenodd" fill-opacity="1"/>
<defs>
  <clipPath id="clip0201">
    <rect x="480" y="0" width="1681" height="1600"/>
  </clipPath>
</defs>
<polygon clip-path="url(#clip0200)" points="
211.005,1440.48 2321.26,1440.48 2321.26,125.984 211.005,125.984 
  " fill="#ffffff" fill-rule="evenodd" fill-opacity="1"/>
<defs>
  <clipPath id="clip0202">
    <rect x="211" y="125" width="2111" height="1315"/>
  </clipPath>
</defs>
<polyline clip-path="url(#clip0202)" style="stroke:#000000; stroke-width:2; stroke-opacity:0.1; fill:none" points="
  303.238,1440.48 303.238,125.984 
  "/>
<polyline clip-path="url(#clip0202)" style="stroke:#000000; stroke-width:2; stroke-opacity:0.1; fill:none" points="
  764.402,1440.48 764.402,125.984 
  "/>
<polyline clip-path="url(#clip0202)" style="stroke:#000000; stroke-width:2; stroke-opacity:0.1; fill:none" points="
  1225.57,1440.48 1225.57,125.984 
  "/>
<polyline clip-path="url(#clip0202)" style="stroke:#000000; stroke-width:2; stroke-opacity:0.1; fill:none" points="
  1686.73,1440.48 1686.73,125.984 
  "/>
<polyline clip-path="url(#clip0202)" style="stroke:#000000; stroke-width:2; stroke-opacity:0.1; fill:none" points="
  2147.89,1440.48 2147.89,125.984 
  "/>
<polyline clip-path="url(#clip0202)" style="stroke:#000000; stroke-width:2; stroke-opacity:0.1; fill:none" points="
  211.005,1413.56 2321.26,1413.56 
  "/>
<polyline clip-path="url(#clip0202)" style="stroke:#000000; stroke-width:2; stroke-opacity:0.1; fill:none" points="
  211.005,1144.31 2321.26,1144.31 
  "/>
<polyline clip-path="url(#clip0202)" style="stroke:#000000; stroke-width:2; stroke-opacity:0.1; fill:none" points="
  211.005,875.067 2321.26,875.067 
  "/>
<polyline clip-path="url(#clip0202)" style="stroke:#000000; stroke-width:2; stroke-opacity:0.1; fill:none" points="
  211.005,605.822 2321.26,605.822 
  "/>
<polyline clip-path="url(#clip0202)" style="stroke:#000000; stroke-width:2; stroke-opacity:0.1; fill:none" points="
  211.005,336.577 2321.26,336.577 
  "/>
<polyline clip-path="url(#clip0200)" style="stroke:#000000; stroke-width:4; stroke-opacity:1; fill:none" points="
  211.005,1440.48 2321.26,1440.48 
  "/>
<polyline clip-path="url(#clip0200)" style="stroke:#000000; stroke-width:4; stroke-opacity:1; fill:none" points="
  211.005,1440.48 211.005,125.984 
  "/>
<polyline clip-path="url(#clip0200)" style="stroke:#000000; stroke-width:4; stroke-opacity:1; fill:none" points="
  303.238,1440.48 303.238,1420.77 
  "/>
<polyline clip-path="url(#clip0200)" style="stroke:#000000; stroke-width:4; stroke-opacity:1; fill:none" points="
  764.402,1440.48 764.402,1420.77 
  "/>
<polyline clip-path="url(#clip0200)" style="stroke:#000000; stroke-width:4; stroke-opacity:1; fill:none" points="
  1225.57,1440.48 1225.57,1420.77 
  "/>
<polyline clip-path="url(#clip0200)" style="stroke:#000000; stroke-width:4; stroke-opacity:1; fill:none" points="
  1686.73,1440.48 1686.73,1420.77 
  "/>
<polyline clip-path="url(#clip0200)" style="stroke:#000000; stroke-width:4; stroke-opacity:1; fill:none" points="
  2147.89,1440.48 2147.89,1420.77 
  "/>
<polyline clip-path="url(#clip0200)" style="stroke:#000000; stroke-width:4; stroke-opacity:1; fill:none" points="
  211.005,1413.56 242.659,1413.56 
  "/>
<polyline clip-path="url(#clip0200)" style="stroke:#000000; stroke-width:4; stroke-opacity:1; fill:none" points="
  211.005,1144.31 242.659,1144.31 
  "/>
<polyline clip-path="url(#clip0200)" style="stroke:#000000; stroke-width:4; stroke-opacity:1; fill:none" points="
  211.005,875.067 242.659,875.067 
  "/>
<polyline clip-path="url(#clip0200)" style="stroke:#000000; stroke-width:4; stroke-opacity:1; fill:none" points="
  211.005,605.822 242.659,605.822 
  "/>
<polyline clip-path="url(#clip0200)" style="stroke:#000000; stroke-width:4; stroke-opacity:1; fill:none" points="
  211.005,336.577 242.659,336.577 
  "/>
<g clip-path="url(#clip0200)">
<text style="fill:#000000; fill-opacity:1; font-family:Arial,Helvetica Neue,Helvetica,sans-serif; font-size:48px; text-anchor:middle;" transform="rotate(0, 303.238, 1494.48)" x="303.238" y="1494.48">0.0</text>
</g>
<g clip-path="url(#clip0200)">
<text style="fill:#000000; fill-opacity:1; font-family:Arial,Helvetica Neue,Helvetica,sans-serif; font-size:48px; text-anchor:middle;" transform="rotate(0, 764.402, 1494.48)" x="764.402" y="1494.48">2.5</text>
</g>
<g clip-path="url(#clip0200)">
<text style="fill:#000000; fill-opacity:1; font-family:Arial,Helvetica Neue,Helvetica,sans-serif; font-size:48px; text-anchor:middle;" transform="rotate(0, 1225.57, 1494.48)" x="1225.57" y="1494.48">5.0</text>
</g>
<g clip-path="url(#clip0200)">
<text style="fill:#000000; fill-opacity:1; font-family:Arial,Helvetica Neue,Helvetica,sans-serif; font-size:48px; text-anchor:middle;" transform="rotate(0, 1686.73, 1494.48)" x="1686.73" y="1494.48">7.5</text>
</g>
<g clip-path="url(#clip0200)">
<text style="fill:#000000; fill-opacity:1; font-family:Arial,Helvetica Neue,Helvetica,sans-serif; font-size:48px; text-anchor:middle;" transform="rotate(0, 2147.89, 1494.48)" x="2147.89" y="1494.48">10.0</text>
</g>
<g clip-path="url(#clip0200)">
<text style="fill:#000000; fill-opacity:1; font-family:Arial,Helvetica Neue,Helvetica,sans-serif; font-size:48px; text-anchor:end;" transform="rotate(0, 187.005, 1431.06)" x="187.005" y="1431.06">0</text>
</g>
<g clip-path="url(#clip0200)">
<text style="fill:#000000; fill-opacity:1; font-family:Arial,Helvetica Neue,Helvetica,sans-serif; font-size:48px; text-anchor:end;" transform="rotate(0, 187.005, 1161.81)" x="187.005" y="1161.81">5</text>
</g>
<g clip-path="url(#clip0200)">
<text style="fill:#000000; fill-opacity:1; font-family:Arial,Helvetica Neue,Helvetica,sans-serif; font-size:48px; text-anchor:end;" transform="rotate(0, 187.005, 892.567)" x="187.005" y="892.567">10</text>
</g>
<g clip-path="url(#clip0200)">
<text style="fill:#000000; fill-opacity:1; font-family:Arial,Helvetica Neue,Helvetica,sans-serif; font-size:48px; text-anchor:end;" transform="rotate(0, 187.005, 623.322)" x="187.005" y="623.322">15</text>
</g>
<g clip-path="url(#clip0200)">
<text style="fill:#000000; fill-opacity:1; font-family:Arial,Helvetica Neue,Helvetica,sans-serif; font-size:48px; text-anchor:end;" transform="rotate(0, 187.005, 354.077)" x="187.005" y="354.077">20</text>
</g>
<g clip-path="url(#clip0200)">
<text style="fill:#000000; fill-opacity:1; font-family:Arial,Helvetica Neue,Helvetica,sans-serif; font-size:66px; text-anchor:middle;" transform="rotate(0, 1266.13, 57.6)" x="1266.13" y="57.6">GCF_000146045.2_R64_genomic.fna.K17.counts.histogram</text>
</g>
<g clip-path="url(#clip0200)">
<text style="fill:#000000; fill-opacity:1; font-family:Arial,Helvetica Neue,Helvetica,sans-serif; font-size:66px; text-anchor:middle;" transform="rotate(0, 1266.13, 1590.4)" x="1266.13" y="1590.4">log2(depth of coverage)</text>
</g>
<g clip-path="url(#clip0200)">
<text style="fill:#000000; fill-opacity:1; font-family:Arial,Helvetica Neue,Helvetica,sans-serif; font-size:66px; text-anchor:middle;" transform="rotate(-90, 57.6, 783.233)" x="57.6" y="783.233">log2(# kmers)</text>
</g>
<circle clip-path="url(#clip0202)" style="fill:#000000; stroke:none; fill-opacity:1" cx="303.238" cy="152.909" r="18"/>
<circle clip-path="url(#clip0202)" style="fill:#009af9; stroke:none; fill-opacity:1" cx="303.238" cy="152.909" r="14"/>
<circle clip-path="url(#clip0202)" style="fill:#000000; stroke:none; fill-opacity:1" cx="487.703" cy="474.849" r="18"/>
<circle clip-path="url(#clip0202)" style="fill:#009af9; stroke:none; fill-opacity:1" cx="487.703" cy="474.849" r="14"/>
<circle clip-path="url(#clip0202)" style="fill:#000000; stroke:none; fill-opacity:1" cx="595.609" cy="596.497" r="18"/>
<circle clip-path="url(#clip0202)" style="fill:#009af9; stroke:none; fill-opacity:1" cx="595.609" cy="596.497" r="14"/>
<circle clip-path="url(#clip0202)" style="fill:#000000; stroke:none; fill-opacity:1" cx="672.169" cy="683.701" r="18"/>
<circle clip-path="url(#clip0202)" style="fill:#009af9; stroke:none; fill-opacity:1" cx="672.169" cy="683.701" r="14"/>
<circle clip-path="url(#clip0202)" style="fill:#000000; stroke:none; fill-opacity:1" cx="731.554" cy="774.371" r="18"/>
<circle clip-path="url(#clip0202)" style="fill:#009af9; stroke:none; fill-opacity:1" cx="731.554" cy="774.371" r="14"/>
<circle clip-path="url(#clip0202)" style="fill:#000000; stroke:none; fill-opacity:1" cx="780.074" cy="799.03" r="18"/>
<circle clip-path="url(#clip0202)" style="fill:#009af9; stroke:none; fill-opacity:1" cx="780.074" cy="799.03" r="14"/>
<circle clip-path="url(#clip0202)" style="fill:#000000; stroke:none; fill-opacity:1" cx="821.098" cy="817.515" r="18"/>
<circle clip-path="url(#clip0202)" style="fill:#009af9; stroke:none; fill-opacity:1" cx="821.098" cy="817.515" r="14"/>
<circle clip-path="url(#clip0202)" style="fill:#000000; stroke:none; fill-opacity:1" cx="856.634" cy="830.858" r="18"/>
<circle clip-path="url(#clip0202)" style="fill:#009af9; stroke:none; fill-opacity:1" cx="856.634" cy="830.858" r="14"/>
<circle clip-path="url(#clip0202)" style="fill:#000000; stroke:none; fill-opacity:1" cx="887.98" cy="853.423" r="18"/>
<circle clip-path="url(#clip0202)" style="fill:#009af9; stroke:none; fill-opacity:1" cx="887.98" cy="853.423" r="14"/>
<circle clip-path="url(#clip0202)" style="fill:#000000; stroke:none; fill-opacity:1" cx="916.019" cy="878.717" r="18"/>
<circle clip-path="url(#clip0202)" style="fill:#009af9; stroke:none; fill-opacity:1" cx="916.019" cy="878.717" r="14"/>
<circle clip-path="url(#clip0202)" style="fill:#000000; stroke:none; fill-opacity:1" cx="941.384" cy="823.022" r="18"/>
<circle clip-path="url(#clip0202)" style="fill:#009af9; stroke:none; fill-opacity:1" cx="941.384" cy="823.022" r="14"/>
<circle clip-path="url(#clip0202)" style="fill:#000000; stroke:none; fill-opacity:1" cx="964.54" cy="869.718" r="18"/>
<circle clip-path="url(#clip0202)" style="fill:#009af9; stroke:none; fill-opacity:1" cx="964.54" cy="869.718" r="14"/>
<circle clip-path="url(#clip0202)" style="fill:#000000; stroke:none; fill-opacity:1" cx="985.841" cy="789.997" r="18"/>
<circle clip-path="url(#clip0202)" style="fill:#009af9; stroke:none; fill-opacity:1" cx="985.841" cy="789.997" r="14"/>
<circle clip-path="url(#clip0202)" style="fill:#000000; stroke:none; fill-opacity:1" cx="1005.56" cy="905.512" r="18"/>
<circle clip-path="url(#clip0202)" style="fill:#009af9; stroke:none; fill-opacity:1" cx="1005.56" cy="905.512" r="14"/>
<circle clip-path="url(#clip0202)" style="fill:#000000; stroke:none; fill-opacity:1" cx="1023.92" cy="899.675" r="18"/>
<circle clip-path="url(#clip0202)" style="fill:#009af9; stroke:none; fill-opacity:1" cx="1023.92" cy="899.675" r="14"/>
<circle clip-path="url(#clip0202)" style="fill:#000000; stroke:none; fill-opacity:1" cx="1041.1" cy="883.472" r="18"/>
<circle clip-path="url(#clip0202)" style="fill:#009af9; stroke:none; fill-opacity:1" cx="1041.1" cy="883.472" r="14"/>
<circle clip-path="url(#clip0202)" style="fill:#000000; stroke:none; fill-opacity:1" cx="1057.23" cy="916.854" r="18"/>
<circle clip-path="url(#clip0202)" style="fill:#009af9; stroke:none; fill-opacity:1" cx="1057.23" cy="916.854" r="14"/>
<circle clip-path="url(#clip0202)" style="fill:#000000; stroke:none; fill-opacity:1" cx="1072.45" cy="883.896" r="18"/>
<circle clip-path="url(#clip0202)" style="fill:#009af9; stroke:none; fill-opacity:1" cx="1072.45" cy="883.896" r="14"/>
<circle clip-path="url(#clip0202)" style="fill:#000000; stroke:none; fill-opacity:1" cx="1086.83" cy="807.105" r="18"/>
<circle clip-path="url(#clip0202)" style="fill:#009af9; stroke:none; fill-opacity:1" cx="1086.83" cy="807.105" r="14"/>
<circle clip-path="url(#clip0202)" style="fill:#000000; stroke:none; fill-opacity:1" cx="1100.48" cy="975.251" r="18"/>
<circle clip-path="url(#clip0202)" style="fill:#009af9; stroke:none; fill-opacity:1" cx="1100.48" cy="975.251" r="14"/>
<circle clip-path="url(#clip0202)" style="fill:#000000; stroke:none; fill-opacity:1" cx="1113.47" cy="974.976" r="18"/>
<circle clip-path="url(#clip0202)" style="fill:#009af9; stroke:none; fill-opacity:1" cx="1113.47" cy="974.976" r="14"/>
<circle clip-path="url(#clip0202)" style="fill:#000000; stroke:none; fill-opacity:1" cx="1125.85" cy="1020.75" r="18"/>
<circle clip-path="url(#clip0202)" style="fill:#009af9; stroke:none; fill-opacity:1" cx="1125.85" cy="1020.75" r="14"/>
<circle clip-path="url(#clip0202)" style="fill:#000000; stroke:none; fill-opacity:1" cx="1137.68" cy="976.922" r="18"/>
<circle clip-path="url(#clip0202)" style="fill:#009af9; stroke:none; fill-opacity:1" cx="1137.68" cy="976.922" r="14"/>
<circle clip-path="url(#clip0202)" style="fill:#000000; stroke:none; fill-opacity:1" cx="1149.01" cy="1016.42" r="18"/>
<circle clip-path="url(#clip0202)" style="fill:#009af9; stroke:none; fill-opacity:1" cx="1149.01" cy="1016.42" r="14"/>
<circle clip-path="url(#clip0202)" style="fill:#000000; stroke:none; fill-opacity:1" cx="1159.87" cy="991.086" r="18"/>
<circle clip-path="url(#clip0202)" style="fill:#009af9; stroke:none; fill-opacity:1" cx="1159.87" cy="991.086" r="14"/>
<circle clip-path="url(#clip0202)" style="fill:#000000; stroke:none; fill-opacity:1" cx="1170.31" cy="982.463" r="18"/>
<circle clip-path="url(#clip0202)" style="fill:#009af9; stroke:none; fill-opacity:1" cx="1170.31" cy="982.463" r="14"/>
<circle clip-path="url(#clip0202)" style="fill:#000000; stroke:none; fill-opacity:1" cx="1180.35" cy="1008.42" r="18"/>
<circle clip-path="url(#clip0202)" style="fill:#009af9; stroke:none; fill-opacity:1" cx="1180.35" cy="1008.42" r="14"/>
<circle clip-path="url(#clip0202)" style="fill:#000000; stroke:none; fill-opacity:1" cx="1190.03" cy="953.316" r="18"/>
<circle clip-path="url(#clip0202)" style="fill:#009af9; stroke:none; fill-opacity:1" cx="1190.03" cy="953.316" r="14"/>
<circle clip-path="url(#clip0202)" style="fill:#000000; stroke:none; fill-opacity:1" cx="1199.37" cy="910.496" r="18"/>
<circle clip-path="url(#clip0202)" style="fill:#009af9; stroke:none; fill-opacity:1" cx="1199.37" cy="910.496" r="14"/>
<circle clip-path="url(#clip0202)" style="fill:#000000; stroke:none; fill-opacity:1" cx="1208.39" cy="920.036" r="18"/>
<circle clip-path="url(#clip0202)" style="fill:#009af9; stroke:none; fill-opacity:1" cx="1208.39" cy="920.036" r="14"/>
<circle clip-path="url(#clip0202)" style="fill:#000000; stroke:none; fill-opacity:1" cx="1217.12" cy="986.814" r="18"/>
<circle clip-path="url(#clip0202)" style="fill:#009af9; stroke:none; fill-opacity:1" cx="1217.12" cy="986.814" r="14"/>
<circle clip-path="url(#clip0202)" style="fill:#000000; stroke:none; fill-opacity:1" cx="1225.57" cy="883.303" r="18"/>
<circle clip-path="url(#clip0202)" style="fill:#009af9; stroke:none; fill-opacity:1" cx="1225.57" cy="883.303" r="14"/>
<circle clip-path="url(#clip0202)" style="fill:#000000; stroke:none; fill-opacity:1" cx="1233.75" cy="890.455" r="18"/>
<circle clip-path="url(#clip0202)" style="fill:#009af9; stroke:none; fill-opacity:1" cx="1233.75" cy="890.455" r="14"/>
<circle clip-path="url(#clip0202)" style="fill:#000000; stroke:none; fill-opacity:1" cx="1241.7" cy="1056.57" r="18"/>
<circle clip-path="url(#clip0202)" style="fill:#009af9; stroke:none; fill-opacity:1" cx="1241.7" cy="1056.57" r="14"/>
<circle clip-path="url(#clip0202)" style="fill:#000000; stroke:none; fill-opacity:1" cx="1249.41" cy="1154.69" r="18"/>
<circle clip-path="url(#clip0202)" style="fill:#009af9; stroke:none; fill-opacity:1" cx="1249.41" cy="1154.69" r="14"/>
<circle clip-path="url(#clip0202)" style="fill:#000000; stroke:none; fill-opacity:1" cx="1256.91" cy="1103.66" r="18"/>
<circle clip-path="url(#clip0202)" style="fill:#009af9; stroke:none; fill-opacity:1" cx="1256.91" cy="1103.66" r="14"/>
<circle clip-path="url(#clip0202)" style="fill:#000000; stroke:none; fill-opacity:1" cx="1264.2" cy="1157.51" r="18"/>
<circle clip-path="url(#clip0202)" style="fill:#009af9; stroke:none; fill-opacity:1" cx="1264.2" cy="1157.51" r="14"/>
<circle clip-path="url(#clip0202)" style="fill:#000000; stroke:none; fill-opacity:1" cx="1271.3" cy="1180.83" r="18"/>
<circle clip-path="url(#clip0202)" style="fill:#009af9; stroke:none; fill-opacity:1" cx="1271.3" cy="1180.83" r="14"/>
<circle clip-path="url(#clip0202)" style="fill:#000000; stroke:none; fill-opacity:1" cx="1278.21" cy="1157.51" r="18"/>
<circle clip-path="url(#clip0202)" style="fill:#009af9; stroke:none; fill-opacity:1" cx="1278.21" cy="1157.51" r="14"/>
<circle clip-path="url(#clip0202)" style="fill:#000000; stroke:none; fill-opacity:1" cx="1284.95" cy="1169.97" r="18"/>
<circle clip-path="url(#clip0202)" style="fill:#009af9; stroke:none; fill-opacity:1" cx="1284.95" cy="1169.97" r="14"/>
<circle clip-path="url(#clip0202)" style="fill:#000000; stroke:none; fill-opacity:1" cx="1291.52" cy="1111.21" r="18"/>
<circle clip-path="url(#clip0202)" style="fill:#009af9; stroke:none; fill-opacity:1" cx="1291.52" cy="1111.21" r="14"/>
<circle clip-path="url(#clip0202)" style="fill:#000000; stroke:none; fill-opacity:1" cx="1297.93" cy="1177.04" r="18"/>
<circle clip-path="url(#clip0202)" style="fill:#009af9; stroke:none; fill-opacity:1" cx="1297.93" cy="1177.04" r="14"/>
<circle clip-path="url(#clip0202)" style="fill:#000000; stroke:none; fill-opacity:1" cx="1304.2" cy="1128.94" r="18"/>
<circle clip-path="url(#clip0202)" style="fill:#009af9; stroke:none; fill-opacity:1" cx="1304.2" cy="1128.94" r="14"/>
<circle clip-path="url(#clip0202)" style="fill:#000000; stroke:none; fill-opacity:1" cx="1310.31" cy="1157.51" r="18"/>
<circle clip-path="url(#clip0202)" style="fill:#009af9; stroke:none; fill-opacity:1" cx="1310.31" cy="1157.51" r="14"/>
<circle clip-path="url(#clip0202)" style="fill:#000000; stroke:none; fill-opacity:1" cx="1316.3" cy="1060.6" r="18"/>
<circle clip-path="url(#clip0202)" style="fill:#009af9; stroke:none; fill-opacity:1" cx="1316.3" cy="1060.6" r="14"/>
<circle clip-path="url(#clip0202)" style="fill:#000000; stroke:none; fill-opacity:1" cx="1322.14" cy="1262.38" r="18"/>
<circle clip-path="url(#clip0202)" style="fill:#009af9; stroke:none; fill-opacity:1" cx="1322.14" cy="1262.38" r="14"/>
<circle clip-path="url(#clip0202)" style="fill:#000000; stroke:none; fill-opacity:1" cx="1327.87" cy="1252.01" r="18"/>
<circle clip-path="url(#clip0202)" style="fill:#009af9; stroke:none; fill-opacity:1" cx="1327.87" cy="1252.01" r="14"/>
<circle clip-path="url(#clip0202)" style="fill:#000000; stroke:none; fill-opacity:1" cx="1333.47" cy="1184.81" r="18"/>
<circle clip-path="url(#clip0202)" style="fill:#009af9; stroke:none; fill-opacity:1" cx="1333.47" cy="1184.81" r="14"/>
<circle clip-path="url(#clip0202)" style="fill:#000000; stroke:none; fill-opacity:1" cx="1338.96" cy="1203.18" r="18"/>
<circle clip-path="url(#clip0202)" style="fill:#009af9; stroke:none; fill-opacity:1" cx="1338.96" cy="1203.18" r="14"/>
<circle clip-path="url(#clip0202)" style="fill:#000000; stroke:none; fill-opacity:1" cx="1344.33" cy="1180.83" r="18"/>
<circle clip-path="url(#clip0202)" style="fill:#009af9; stroke:none; fill-opacity:1" cx="1344.33" cy="1180.83" r="14"/>
<circle clip-path="url(#clip0202)" style="fill:#000000; stroke:none; fill-opacity:1" cx="1349.6" cy="1274.36" r="18"/>
<circle clip-path="url(#clip0202)" style="fill:#009af9; stroke:none; fill-opacity:1" cx="1349.6" cy="1274.36" r="14"/>
<circle clip-path="url(#clip0202)" style="fill:#000000; stroke:none; fill-opacity:1" cx="1354.77" cy="1198.16" r="18"/>
<circle clip-path="url(#clip0202)" style="fill:#009af9; stroke:none; fill-opacity:1" cx="1354.77" cy="1198.16" r="14"/>
<circle clip-path="url(#clip0202)" style="fill:#000000; stroke:none; fill-opacity:1" cx="1359.84" cy="1203.18" r="18"/>
<circle clip-path="url(#clip0202)" style="fill:#009af9; stroke:none; fill-opacity:1" cx="1359.84" cy="1203.18" r="14"/>
<circle clip-path="url(#clip0202)" style="fill:#000000; stroke:none; fill-opacity:1" cx="1364.82" cy="1242.86" r="18"/>
<circle clip-path="url(#clip0202)" style="fill:#009af9; stroke:none; fill-opacity:1" cx="1364.82" cy="1242.86" r="14"/>
<circle clip-path="url(#clip0202)" style="fill:#000000; stroke:none; fill-opacity:1" cx="1369.7" cy="1227.27" r="18"/>
<circle clip-path="url(#clip0202)" style="fill:#009af9; stroke:none; fill-opacity:1" cx="1369.7" cy="1227.27" r="14"/>
<circle clip-path="url(#clip0202)" style="fill:#000000; stroke:none; fill-opacity:1" cx="1374.49" cy="1208.54" r="18"/>
<circle clip-path="url(#clip0202)" style="fill:#009af9; stroke:none; fill-opacity:1" cx="1374.49" cy="1208.54" r="14"/>
<circle clip-path="url(#clip0202)" style="fill:#000000; stroke:none; fill-opacity:1" cx="1379.21" cy="1220.51" r="18"/>
<circle clip-path="url(#clip0202)" style="fill:#009af9; stroke:none; fill-opacity:1" cx="1379.21" cy="1220.51" r="14"/>
<circle clip-path="url(#clip0202)" style="fill:#000000; stroke:none; fill-opacity:1" cx="1383.83" cy="1177.04" r="18"/>
<circle clip-path="url(#clip0202)" style="fill:#009af9; stroke:none; fill-opacity:1" cx="1383.83" cy="1177.04" r="14"/>
<circle clip-path="url(#clip0202)" style="fill:#000000; stroke:none; fill-opacity:1" cx="1388.38" cy="1184.81" r="18"/>
<circle clip-path="url(#clip0202)" style="fill:#009af9; stroke:none; fill-opacity:1" cx="1388.38" cy="1184.81" r="14"/>
<circle clip-path="url(#clip0202)" style="fill:#000000; stroke:none; fill-opacity:1" cx="1392.86" cy="1234.68" r="18"/>
<circle clip-path="url(#clip0202)" style="fill:#009af9; stroke:none; fill-opacity:1" cx="1392.86" cy="1234.68" r="14"/>
<circle clip-path="url(#clip0202)" style="fill:#000000; stroke:none; fill-opacity:1" cx="1397.25" cy="1180.83" r="18"/>
<circle clip-path="url(#clip0202)" style="fill:#009af9; stroke:none; fill-opacity:1" cx="1397.25" cy="1180.83" r="14"/>
<circle clip-path="url(#clip0202)" style="fill:#000000; stroke:none; fill-opacity:1" cx="1401.58" cy="1180.83" r="18"/>
<circle clip-path="url(#clip0202)" style="fill:#009af9; stroke:none; fill-opacity:1" cx="1401.58" cy="1180.83" r="14"/>
<circle clip-path="url(#clip0202)" style="fill:#000000; stroke:none; fill-opacity:1" cx="1405.84" cy="1193.45" r="18"/>
<circle clip-path="url(#clip0202)" style="fill:#009af9; stroke:none; fill-opacity:1" cx="1405.84" cy="1193.45" r="14"/>
<circle clip-path="url(#clip0202)" style="fill:#000000; stroke:none; fill-opacity:1" cx="1410.03" cy="1157.51" r="18"/>
<circle clip-path="url(#clip0202)" style="fill:#009af9; stroke:none; fill-opacity:1" cx="1410.03" cy="1157.51" r="14"/>
<circle clip-path="url(#clip0202)" style="fill:#000000; stroke:none; fill-opacity:1" cx="1414.16" cy="1214.29" r="18"/>
<circle clip-path="url(#clip0202)" style="fill:#009af9; stroke:none; fill-opacity:1" cx="1414.16" cy="1214.29" r="14"/>
<circle clip-path="url(#clip0202)" style="fill:#000000; stroke:none; fill-opacity:1" cx="1422.22" cy="1208.54" r="18"/>
<circle clip-path="url(#clip0202)" style="fill:#009af9; stroke:none; fill-opacity:1" cx="1422.22" cy="1208.54" r="14"/>
<circle clip-path="url(#clip0202)" style="fill:#000000; stroke:none; fill-opacity:1" cx="1426.17" cy="1203.18" r="18"/>
<circle clip-path="url(#clip0202)" style="fill:#009af9; stroke:none; fill-opacity:1" cx="1426.17" cy="1203.18" r="14"/>
<circle clip-path="url(#clip0202)" style="fill:#000000; stroke:none; fill-opacity:1" cx="1430.05" cy="1262.38" r="18"/>
<circle clip-path="url(#clip0202)" style="fill:#009af9; stroke:none; fill-opacity:1" cx="1430.05" cy="1262.38" r="14"/>
<circle clip-path="url(#clip0202)" style="fill:#000000; stroke:none; fill-opacity:1" cx="1433.88" cy="1413.56" r="18"/>
<circle clip-path="url(#clip0202)" style="fill:#009af9; stroke:none; fill-opacity:1" cx="1433.88" cy="1413.56" r="14"/>
<circle clip-path="url(#clip0202)" style="fill:#000000; stroke:none; fill-opacity:1" cx="1437.65" cy="1262.38" r="18"/>
<circle clip-path="url(#clip0202)" style="fill:#009af9; stroke:none; fill-opacity:1" cx="1437.65" cy="1262.38" r="14"/>
<circle clip-path="url(#clip0202)" style="fill:#000000; stroke:none; fill-opacity:1" cx="1441.38" cy="1234.68" r="18"/>
<circle clip-path="url(#clip0202)" style="fill:#009af9; stroke:none; fill-opacity:1" cx="1441.38" cy="1234.68" r="14"/>
<circle clip-path="url(#clip0202)" style="fill:#000000; stroke:none; fill-opacity:1" cx="1445.05" cy="1208.54" r="18"/>
<circle clip-path="url(#clip0202)" style="fill:#009af9; stroke:none; fill-opacity:1" cx="1445.05" cy="1208.54" r="14"/>
<circle clip-path="url(#clip0202)" style="fill:#000000; stroke:none; fill-opacity:1" cx="1448.67" cy="1227.27" r="18"/>
<circle clip-path="url(#clip0202)" style="fill:#009af9; stroke:none; fill-opacity:1" cx="1448.67" cy="1227.27" r="14"/>
<circle clip-path="url(#clip0202)" style="fill:#000000; stroke:none; fill-opacity:1" cx="1452.24" cy="1359.71" r="18"/>
<circle clip-path="url(#clip0202)" style="fill:#009af9; stroke:none; fill-opacity:1" cx="1452.24" cy="1359.71" r="14"/>
<circle clip-path="url(#clip0202)" style="fill:#000000; stroke:none; fill-opacity:1" cx="1455.77" cy="1305.86" r="18"/>
<circle clip-path="url(#clip0202)" style="fill:#009af9; stroke:none; fill-opacity:1" cx="1455.77" cy="1305.86" r="14"/>
<circle clip-path="url(#clip0202)" style="fill:#000000; stroke:none; fill-opacity:1" cx="1459.24" cy="1413.56" r="18"/>
<circle clip-path="url(#clip0202)" style="fill:#009af9; stroke:none; fill-opacity:1" cx="1459.24" cy="1413.56" r="14"/>
<circle clip-path="url(#clip0202)" style="fill:#000000; stroke:none; fill-opacity:1" cx="1462.68" cy="1274.36" r="18"/>
<circle clip-path="url(#clip0202)" style="fill:#009af9; stroke:none; fill-opacity:1" cx="1462.68" cy="1274.36" r="14"/>
<circle clip-path="url(#clip0202)" style="fill:#000000; stroke:none; fill-opacity:1" cx="1466.07" cy="1198.16" r="18"/>
<circle clip-path="url(#clip0202)" style="fill:#009af9; stroke:none; fill-opacity:1" cx="1466.07" cy="1198.16" r="14"/>
<circle clip-path="url(#clip0202)" style="fill:#000000; stroke:none; fill-opacity:1" cx="1469.42" cy="1234.68" r="18"/>
<circle clip-path="url(#clip0202)" style="fill:#009af9; stroke:none; fill-opacity:1" cx="1469.42" cy="1234.68" r="14"/>
<circle clip-path="url(#clip0202)" style="fill:#000000; stroke:none; fill-opacity:1" cx="1472.72" cy="1288.52" r="18"/>
<circle clip-path="url(#clip0202)" style="fill:#009af9; stroke:none; fill-opacity:1" cx="1472.72" cy="1288.52" r="14"/>
<circle clip-path="url(#clip0202)" style="fill:#000000; stroke:none; fill-opacity:1" cx="1475.99" cy="1189.01" r="18"/>
<circle clip-path="url(#clip0202)" style="fill:#009af9; stroke:none; fill-opacity:1" cx="1475.99" cy="1189.01" r="14"/>
<circle clip-path="url(#clip0202)" style="fill:#000000; stroke:none; fill-opacity:1" cx="1479.21" cy="1234.68" r="18"/>
<circle clip-path="url(#clip0202)" style="fill:#009af9; stroke:none; fill-opacity:1" cx="1479.21" cy="1234.68" r="14"/>
<circle clip-path="url(#clip0202)" style="fill:#000000; stroke:none; fill-opacity:1" cx="1482.4" cy="1242.86" r="18"/>
<circle clip-path="url(#clip0202)" style="fill:#009af9; stroke:none; fill-opacity:1" cx="1482.4" cy="1242.86" r="14"/>
<circle clip-path="url(#clip0202)" style="fill:#000000; stroke:none; fill-opacity:1" cx="1485.55" cy="1193.45" r="18"/>
<circle clip-path="url(#clip0202)" style="fill:#009af9; stroke:none; fill-opacity:1" cx="1485.55" cy="1193.45" r="14"/>
<circle clip-path="url(#clip0202)" style="fill:#000000; stroke:none; fill-opacity:1" cx="1488.66" cy="1193.45" r="18"/>
<circle clip-path="url(#clip0202)" style="fill:#009af9; stroke:none; fill-opacity:1" cx="1488.66" cy="1193.45" r="14"/>
<circle clip-path="url(#clip0202)" style="fill:#000000; stroke:none; fill-opacity:1" cx="1491.74" cy="1262.38" r="18"/>
<circle clip-path="url(#clip0202)" style="fill:#009af9; stroke:none; fill-opacity:1" cx="1491.74" cy="1262.38" r="14"/>
<circle clip-path="url(#clip0202)" style="fill:#000000; stroke:none; fill-opacity:1" cx="1494.78" cy="1328.21" r="18"/>
<circle clip-path="url(#clip0202)" style="fill:#009af9; stroke:none; fill-opacity:1" cx="1494.78" cy="1328.21" r="14"/>
<circle clip-path="url(#clip0202)" style="fill:#000000; stroke:none; fill-opacity:1" cx="1497.79" cy="1288.52" r="18"/>
<circle clip-path="url(#clip0202)" style="fill:#009af9; stroke:none; fill-opacity:1" cx="1497.79" cy="1288.52" r="14"/>
<circle clip-path="url(#clip0202)" style="fill:#000000; stroke:none; fill-opacity:1" cx="1500.76" cy="1328.21" r="18"/>
<circle clip-path="url(#clip0202)" style="fill:#009af9; stroke:none; fill-opacity:1" cx="1500.76" cy="1328.21" r="14"/>
<circle clip-path="url(#clip0202)" style="fill:#000000; stroke:none; fill-opacity:1" cx="1503.7" cy="1305.86" r="18"/>
<circle clip-path="url(#clip0202)" style="fill:#009af9; stroke:none; fill-opacity:1" cx="1503.7" cy="1305.86" r="14"/>
<circle clip-path="url(#clip0202)" style="fill:#000000; stroke:none; fill-opacity:1" cx="1506.61" cy="1413.56" r="18"/>
<circle clip-path="url(#clip0202)" style="fill:#009af9; stroke:none; fill-opacity:1" cx="1506.61" cy="1413.56" r="14"/>
<circle clip-path="url(#clip0202)" style="fill:#000000; stroke:none; fill-opacity:1" cx="1509.49" cy="1328.21" r="18"/>
<circle clip-path="url(#clip0202)" style="fill:#009af9; stroke:none; fill-opacity:1" cx="1509.49" cy="1328.21" r="14"/>
<circle clip-path="url(#clip0202)" style="fill:#000000; stroke:none; fill-opacity:1" cx="1512.33" cy="1413.56" r="18"/>
<circle clip-path="url(#clip0202)" style="fill:#009af9; stroke:none; fill-opacity:1" cx="1512.33" cy="1413.56" r="14"/>
<circle clip-path="url(#clip0202)" style="fill:#000000; stroke:none; fill-opacity:1" cx="1515.15" cy="1288.52" r="18"/>
<circle clip-path="url(#clip0202)" style="fill:#009af9; stroke:none; fill-opacity:1" cx="1515.15" cy="1288.52" r="14"/>
<circle clip-path="url(#clip0202)" style="fill:#000000; stroke:none; fill-opacity:1" cx="1517.94" cy="1413.56" r="18"/>
<circle clip-path="url(#clip0202)" style="fill:#009af9; stroke:none; fill-opacity:1" cx="1517.94" cy="1413.56" r="14"/>
<circle clip-path="url(#clip0202)" style="fill:#000000; stroke:none; fill-opacity:1" cx="1526.13" cy="1359.71" r="18"/>
<circle clip-path="url(#clip0202)" style="fill:#009af9; stroke:none; fill-opacity:1" cx="1526.13" cy="1359.71" r="14"/>
<circle clip-path="url(#clip0202)" style="fill:#000000; stroke:none; fill-opacity:1" cx="1528.8" cy="1413.56" r="18"/>
<circle clip-path="url(#clip0202)" style="fill:#009af9; stroke:none; fill-opacity:1" cx="1528.8" cy="1413.56" r="14"/>
<circle clip-path="url(#clip0202)" style="fill:#000000; stroke:none; fill-opacity:1" cx="1531.45" cy="1208.54" r="18"/>
<circle clip-path="url(#clip0202)" style="fill:#009af9; stroke:none; fill-opacity:1" cx="1531.45" cy="1208.54" r="14"/>
<circle clip-path="url(#clip0202)" style="fill:#000000; stroke:none; fill-opacity:1" cx="1534.07" cy="1242.86" r="18"/>
<circle clip-path="url(#clip0202)" style="fill:#009af9; stroke:none; fill-opacity:1" cx="1534.07" cy="1242.86" r="14"/>
<circle clip-path="url(#clip0202)" style="fill:#000000; stroke:none; fill-opacity:1" cx="1536.67" cy="1413.56" r="18"/>
<circle clip-path="url(#clip0202)" style="fill:#009af9; stroke:none; fill-opacity:1" cx="1536.67" cy="1413.56" r="14"/>
<circle clip-path="url(#clip0202)" style="fill:#000000; stroke:none; fill-opacity:1" cx="1541.78" cy="1413.56" r="18"/>
<circle clip-path="url(#clip0202)" style="fill:#009af9; stroke:none; fill-opacity:1" cx="1541.78" cy="1413.56" r="14"/>
<circle clip-path="url(#clip0202)" style="fill:#000000; stroke:none; fill-opacity:1" cx="1544.31" cy="1413.56" r="18"/>
<circle clip-path="url(#clip0202)" style="fill:#009af9; stroke:none; fill-opacity:1" cx="1544.31" cy="1413.56" r="14"/>
<circle clip-path="url(#clip0202)" style="fill:#000000; stroke:none; fill-opacity:1" cx="1549.28" cy="1359.71" r="18"/>
<circle clip-path="url(#clip0202)" style="fill:#009af9; stroke:none; fill-opacity:1" cx="1549.28" cy="1359.71" r="14"/>
<circle clip-path="url(#clip0202)" style="fill:#000000; stroke:none; fill-opacity:1" cx="1551.73" cy="1328.21" r="18"/>
<circle clip-path="url(#clip0202)" style="fill:#009af9; stroke:none; fill-opacity:1" cx="1551.73" cy="1328.21" r="14"/>
<circle clip-path="url(#clip0202)" style="fill:#000000; stroke:none; fill-opacity:1" cx="1554.17" cy="1359.71" r="18"/>
<circle clip-path="url(#clip0202)" style="fill:#009af9; stroke:none; fill-opacity:1" cx="1554.17" cy="1359.71" r="14"/>
<circle clip-path="url(#clip0202)" style="fill:#000000; stroke:none; fill-opacity:1" cx="1561.33" cy="1413.56" r="18"/>
<circle clip-path="url(#clip0202)" style="fill:#009af9; stroke:none; fill-opacity:1" cx="1561.33" cy="1413.56" r="14"/>
<circle clip-path="url(#clip0202)" style="fill:#000000; stroke:none; fill-opacity:1" cx="1565.99" cy="1359.71" r="18"/>
<circle clip-path="url(#clip0202)" style="fill:#009af9; stroke:none; fill-opacity:1" cx="1565.99" cy="1359.71" r="14"/>
<circle clip-path="url(#clip0202)" style="fill:#000000; stroke:none; fill-opacity:1" cx="1568.3" cy="1413.56" r="18"/>
<circle clip-path="url(#clip0202)" style="fill:#009af9; stroke:none; fill-opacity:1" cx="1568.3" cy="1413.56" r="14"/>
<circle clip-path="url(#clip0202)" style="fill:#000000; stroke:none; fill-opacity:1" cx="1572.85" cy="1413.56" r="18"/>
<circle clip-path="url(#clip0202)" style="fill:#009af9; stroke:none; fill-opacity:1" cx="1572.85" cy="1413.56" r="14"/>
<circle clip-path="url(#clip0202)" style="fill:#000000; stroke:none; fill-opacity:1" cx="1577.32" cy="1413.56" r="18"/>
<circle clip-path="url(#clip0202)" style="fill:#009af9; stroke:none; fill-opacity:1" cx="1577.32" cy="1413.56" r="14"/>
<circle clip-path="url(#clip0202)" style="fill:#000000; stroke:none; fill-opacity:1" cx="1579.53" cy="1359.71" r="18"/>
<circle clip-path="url(#clip0202)" style="fill:#009af9; stroke:none; fill-opacity:1" cx="1579.53" cy="1359.71" r="14"/>
<circle clip-path="url(#clip0202)" style="fill:#000000; stroke:none; fill-opacity:1" cx="1581.72" cy="1328.21" r="18"/>
<circle clip-path="url(#clip0202)" style="fill:#009af9; stroke:none; fill-opacity:1" cx="1581.72" cy="1328.21" r="14"/>
<circle clip-path="url(#clip0202)" style="fill:#000000; stroke:none; fill-opacity:1" cx="1583.89" cy="1413.56" r="18"/>
<circle clip-path="url(#clip0202)" style="fill:#009af9; stroke:none; fill-opacity:1" cx="1583.89" cy="1413.56" r="14"/>
<circle clip-path="url(#clip0202)" style="fill:#000000; stroke:none; fill-opacity:1" cx="1586.05" cy="1413.56" r="18"/>
<circle clip-path="url(#clip0202)" style="fill:#009af9; stroke:none; fill-opacity:1" cx="1586.05" cy="1413.56" r="14"/>
<circle clip-path="url(#clip0202)" style="fill:#000000; stroke:none; fill-opacity:1" cx="1598.62" cy="1413.56" r="18"/>
<circle clip-path="url(#clip0202)" style="fill:#009af9; stroke:none; fill-opacity:1" cx="1598.62" cy="1413.56" r="14"/>
<circle clip-path="url(#clip0202)" style="fill:#000000; stroke:none; fill-opacity:1" cx="1608.67" cy="1413.56" r="18"/>
<circle clip-path="url(#clip0202)" style="fill:#009af9; stroke:none; fill-opacity:1" cx="1608.67" cy="1413.56" r="14"/>
<circle clip-path="url(#clip0202)" style="fill:#000000; stroke:none; fill-opacity:1" cx="1610.63" cy="1413.56" r="18"/>
<circle clip-path="url(#clip0202)" style="fill:#009af9; stroke:none; fill-opacity:1" cx="1610.63" cy="1413.56" r="14"/>
<circle clip-path="url(#clip0202)" style="fill:#000000; stroke:none; fill-opacity:1" cx="1620.24" cy="1413.56" r="18"/>
<circle clip-path="url(#clip0202)" style="fill:#009af9; stroke:none; fill-opacity:1" cx="1620.24" cy="1413.56" r="14"/>
<circle clip-path="url(#clip0202)" style="fill:#000000; stroke:none; fill-opacity:1" cx="1629.51" cy="1359.71" r="18"/>
<circle clip-path="url(#clip0202)" style="fill:#009af9; stroke:none; fill-opacity:1" cx="1629.51" cy="1359.71" r="14"/>
<circle clip-path="url(#clip0202)" style="fill:#000000; stroke:none; fill-opacity:1" cx="1631.33" cy="1413.56" r="18"/>
<circle clip-path="url(#clip0202)" style="fill:#009af9; stroke:none; fill-opacity:1" cx="1631.33" cy="1413.56" r="14"/>
<circle clip-path="url(#clip0202)" style="fill:#000000; stroke:none; fill-opacity:1" cx="1636.71" cy="1413.56" r="18"/>
<circle clip-path="url(#clip0202)" style="fill:#009af9; stroke:none; fill-opacity:1" cx="1636.71" cy="1413.56" r="14"/>
<circle clip-path="url(#clip0202)" style="fill:#000000; stroke:none; fill-opacity:1" cx="1638.47" cy="1413.56" r="18"/>
<circle clip-path="url(#clip0202)" style="fill:#009af9; stroke:none; fill-opacity:1" cx="1638.47" cy="1413.56" r="14"/>
<circle clip-path="url(#clip0202)" style="fill:#000000; stroke:none; fill-opacity:1" cx="1640.23" cy="1413.56" r="18"/>
<circle clip-path="url(#clip0202)" style="fill:#009af9; stroke:none; fill-opacity:1" cx="1640.23" cy="1413.56" r="14"/>
<circle clip-path="url(#clip0202)" style="fill:#000000; stroke:none; fill-opacity:1" cx="1641.98" cy="1413.56" r="18"/>
<circle clip-path="url(#clip0202)" style="fill:#009af9; stroke:none; fill-opacity:1" cx="1641.98" cy="1413.56" r="14"/>
<circle clip-path="url(#clip0202)" style="fill:#000000; stroke:none; fill-opacity:1" cx="1643.71" cy="1413.56" r="18"/>
<circle clip-path="url(#clip0202)" style="fill:#009af9; stroke:none; fill-opacity:1" cx="1643.71" cy="1413.56" r="14"/>
<circle clip-path="url(#clip0202)" style="fill:#000000; stroke:none; fill-opacity:1" cx="1645.43" cy="1328.21" r="18"/>
<circle clip-path="url(#clip0202)" style="fill:#009af9; stroke:none; fill-opacity:1" cx="1645.43" cy="1328.21" r="14"/>
<circle clip-path="url(#clip0202)" style="fill:#000000; stroke:none; fill-opacity:1" cx="1647.14" cy="1328.21" r="18"/>
<circle clip-path="url(#clip0202)" style="fill:#009af9; stroke:none; fill-opacity:1" cx="1647.14" cy="1328.21" r="14"/>
<circle clip-path="url(#clip0202)" style="fill:#000000; stroke:none; fill-opacity:1" cx="1648.84" cy="1328.21" r="18"/>
<circle clip-path="url(#clip0202)" style="fill:#009af9; stroke:none; fill-opacity:1" cx="1648.84" cy="1328.21" r="14"/>
<circle clip-path="url(#clip0202)" style="fill:#000000; stroke:none; fill-opacity:1" cx="1650.53" cy="1359.71" r="18"/>
<circle clip-path="url(#clip0202)" style="fill:#009af9; stroke:none; fill-opacity:1" cx="1650.53" cy="1359.71" r="14"/>
<circle clip-path="url(#clip0202)" style="fill:#000000; stroke:none; fill-opacity:1" cx="1652.21" cy="1328.21" r="18"/>
<circle clip-path="url(#clip0202)" style="fill:#009af9; stroke:none; fill-opacity:1" cx="1652.21" cy="1328.21" r="14"/>
<circle clip-path="url(#clip0202)" style="fill:#000000; stroke:none; fill-opacity:1" cx="1653.88" cy="1359.71" r="18"/>
<circle clip-path="url(#clip0202)" style="fill:#009af9; stroke:none; fill-opacity:1" cx="1653.88" cy="1359.71" r="14"/>
<circle clip-path="url(#clip0202)" style="fill:#000000; stroke:none; fill-opacity:1" cx="1808.45" cy="1413.56" r="18"/>
<circle clip-path="url(#clip0202)" style="fill:#009af9; stroke:none; fill-opacity:1" cx="1808.45" cy="1413.56" r="14"/>
<circle clip-path="url(#clip0202)" style="fill:#000000; stroke:none; fill-opacity:1" cx="1814.89" cy="1413.56" r="18"/>
<circle clip-path="url(#clip0202)" style="fill:#009af9; stroke:none; fill-opacity:1" cx="1814.89" cy="1413.56" r="14"/>
<circle clip-path="url(#clip0202)" style="fill:#000000; stroke:none; fill-opacity:1" cx="1817.6" cy="1413.56" r="18"/>
<circle clip-path="url(#clip0202)" style="fill:#009af9; stroke:none; fill-opacity:1" cx="1817.6" cy="1413.56" r="14"/>
<circle clip-path="url(#clip0202)" style="fill:#000000; stroke:none; fill-opacity:1" cx="2202.45" cy="1413.56" r="18"/>
<circle clip-path="url(#clip0202)" style="fill:#009af9; stroke:none; fill-opacity:1" cx="2202.45" cy="1413.56" r="14"/>
<circle clip-path="url(#clip0202)" style="fill:#000000; stroke:none; fill-opacity:1" cx="2229.03" cy="1413.56" r="18"/>
<circle clip-path="url(#clip0202)" style="fill:#009af9; stroke:none; fill-opacity:1" cx="2229.03" cy="1413.56" r="14"/>
<polyline clip-path="url(#clip0202)" style="stroke:#e26f46; stroke-width:4; stroke-opacity:1; fill:none" points="
  303.238,397.673 322.69,411.968 342.143,426.262 361.595,440.556 381.047,454.851 400.5,469.145 419.952,483.44 439.405,497.734 458.857,512.029 478.31,526.323 
  497.762,540.617 517.214,554.912 536.667,569.206 556.119,583.501 575.572,597.795 595.024,612.09 614.476,626.384 633.929,640.678 653.381,654.973 672.834,669.267 
  692.286,683.562 711.739,697.856 731.191,712.151 750.643,726.445 770.096,740.74 789.548,755.034 809.001,769.328 828.453,783.623 847.905,797.917 867.358,812.212 
  886.81,826.506 906.263,840.801 925.715,855.095 945.168,869.389 964.62,883.684 984.072,897.978 1003.52,912.273 1022.98,926.567 1042.43,940.862 1061.88,955.156 
  1081.33,969.45 1100.79,983.745 1120.24,998.039 1139.69,1012.33 1159.14,1026.63 1178.6,1040.92 1198.05,1055.22 1217.5,1069.51 1236.95,1083.81 1256.41,1098.1 
  1275.86,1112.39 1295.31,1126.69 1314.76,1140.98 1334.22,1155.28 1353.67,1169.57 1373.12,1183.87 1392.57,1198.16 1412.03,1212.46 1431.48,1226.75 1450.93,1241.04 
  1470.38,1255.34 1489.84,1269.63 1509.29,1283.93 1528.74,1298.22 1548.19,1312.52 1567.64,1326.81 1587.1,1341.11 1606.55,1355.4 1626,1369.69 1645.45,1383.99 
  1664.91,1398.28 1684.36,1412.58 1703.81,1426.87 1723.26,1441.17 1742.72,1455.46 1762.17,1469.76 1781.62,1484.05 1801.07,1498.34 1820.53,1512.64 1839.98,1526.93 
  1859.43,1541.23 1878.88,1555.52 1898.34,1569.82 1917.79,1584.11 1937.24,1598.41 1956.69,1612.7 1976.15,1626.99 1995.6,1641.29 2015.05,1655.58 2034.5,1669.88 
  2053.96,1684.17 2073.41,1698.47 2092.86,1712.76 2112.31,1727.06 2131.76,1741.35 2151.22,1755.64 2170.67,1769.94 2190.12,1784.23 2209.57,1798.53 2229.03,1812.82 
  
  "/>
<g clip-path="url(#clip0200)">
<text style="fill:#000000; fill-opacity:1; font-family:Arial,Helvetica Neue,Helvetica,sans-serif; font-size:59px; text-anchor:start;" transform="rotate(0, 303.238, 1381.21)" x="303.238" y="1381.21">r = -0.93</text>
</g>
</svg>
