<?xml version="1.0" encoding="utf-8"?>
<svg xmlns="http://www.w3.org/2000/svg" xmlns:xlink="http://www.w3.org/1999/xlink" width="600" height="400" viewBox="0 0 2400 1600">
<defs>
  <clipPath id="clip3000">
    <rect x="0" y="0" width="2400" height="1600"/>
  </clipPath>
</defs>
<polygon clip-path="url(#clip3000)" points="
0,1600 2400,1600 2400,0 0,0 
  " fill="#ffffff" fill-rule="evenodd" fill-opacity="1"/>
<defs>
  <clipPath id="clip3001">
    <rect x="480" y="0" width="1681" height="1600"/>
  </clipPath>
</defs>
<polygon clip-path="url(#clip3000)" points="
211.005,1440.48 2321.26,1440.48 2321.26,125.984 211.005,125.984 
  " fill="#ffffff" fill-rule="evenodd" fill-opacity="1"/>
<defs>
  <clipPath id="clip3002">
    <rect x="211" y="125" width="2111" height="1315"/>
  </clipPath>
</defs>
<polyline clip-path="url(#clip3002)" style="stroke:#000000; stroke-width:2; stroke-opacity:0.1; fill:none" points="
  348.782,1440.48 348.782,125.984 
  "/>
<polyline clip-path="url(#clip3002)" style="stroke:#000000; stroke-width:2; stroke-opacity:0.1; fill:none" points="
  899.891,1440.48 899.891,125.984 
  "/>
<polyline clip-path="url(#clip3002)" style="stroke:#000000; stroke-width:2; stroke-opacity:0.1; fill:none" points="
  1451,1440.48 1451,125.984 
  "/>
<polyline clip-path="url(#clip3002)" style="stroke:#000000; stroke-width:2; stroke-opacity:0.1; fill:none" points="
  2002.11,1440.48 2002.11,125.984 
  "/>
<polyline clip-path="url(#clip3002)" style="stroke:#000000; stroke-width:2; stroke-opacity:0.1; fill:none" points="
  211.005,1413.59 2321.26,1413.59 
  "/>
<polyline clip-path="url(#clip3002)" style="stroke:#000000; stroke-width:2; stroke-opacity:0.1; fill:none" points="
  211.005,1144.66 2321.26,1144.66 
  "/>
<polyline clip-path="url(#clip3002)" style="stroke:#000000; stroke-width:2; stroke-opacity:0.1; fill:none" points="
  211.005,875.734 2321.26,875.734 
  "/>
<polyline clip-path="url(#clip3002)" style="stroke:#000000; stroke-width:2; stroke-opacity:0.1; fill:none" points="
  211.005,606.806 2321.26,606.806 
  "/>
<polyline clip-path="url(#clip3002)" style="stroke:#000000; stroke-width:2; stroke-opacity:0.1; fill:none" points="
  211.005,337.878 2321.26,337.878 
  "/>
<polyline clip-path="url(#clip3000)" style="stroke:#000000; stroke-width:4; stroke-opacity:1; fill:none" points="
  211.005,1440.48 2321.26,1440.48 
  "/>
<polyline clip-path="url(#clip3000)" style="stroke:#000000; stroke-width:4; stroke-opacity:1; fill:none" points="
  211.005,1440.48 211.005,125.984 
  "/>
<polyline clip-path="url(#clip3000)" style="stroke:#000000; stroke-width:4; stroke-opacity:1; fill:none" points="
  348.782,1440.48 348.782,1420.77 
  "/>
<polyline clip-path="url(#clip3000)" style="stroke:#000000; stroke-width:4; stroke-opacity:1; fill:none" points="
  899.891,1440.48 899.891,1420.77 
  "/>
<polyline clip-path="url(#clip3000)" style="stroke:#000000; stroke-width:4; stroke-opacity:1; fill:none" points="
  1451,1440.48 1451,1420.77 
  "/>
<polyline clip-path="url(#clip3000)" style="stroke:#000000; stroke-width:4; stroke-opacity:1; fill:none" points="
  2002.11,1440.48 2002.11,1420.77 
  "/>
<polyline clip-path="url(#clip3000)" style="stroke:#000000; stroke-width:4; stroke-opacity:1; fill:none" points="
  211.005,1413.59 242.659,1413.59 
  "/>
<polyline clip-path="url(#clip3000)" style="stroke:#000000; stroke-width:4; stroke-opacity:1; fill:none" points="
  211.005,1144.66 242.659,1144.66 
  "/>
<polyline clip-path="url(#clip3000)" style="stroke:#000000; stroke-width:4; stroke-opacity:1; fill:none" points="
  211.005,875.734 242.659,875.734 
  "/>
<polyline clip-path="url(#clip3000)" style="stroke:#000000; stroke-width:4; stroke-opacity:1; fill:none" points="
  211.005,606.806 242.659,606.806 
  "/>
<polyline clip-path="url(#clip3000)" style="stroke:#000000; stroke-width:4; stroke-opacity:1; fill:none" points="
  211.005,337.878 242.659,337.878 
  "/>
<g clip-path="url(#clip3000)">
<text style="fill:#000000; fill-opacity:1; font-family:Arial,Helvetica Neue,Helvetica,sans-serif; font-size:48px; text-anchor:middle;" transform="rotate(0, 348.782, 1494.48)" x="348.782" y="1494.48">0</text>
</g>
<g clip-path="url(#clip3000)">
<text style="fill:#000000; fill-opacity:1; font-family:Arial,Helvetica Neue,Helvetica,sans-serif; font-size:48px; text-anchor:middle;" transform="rotate(0, 899.891, 1494.48)" x="899.891" y="1494.48">2</text>
</g>
<g clip-path="url(#clip3000)">
<text style="fill:#000000; fill-opacity:1; font-family:Arial,Helvetica Neue,Helvetica,sans-serif; font-size:48px; text-anchor:middle;" transform="rotate(0, 1451, 1494.48)" x="1451" y="1494.48">4</text>
</g>
<g clip-path="url(#clip3000)">
<text style="fill:#000000; fill-opacity:1; font-family:Arial,Helvetica Neue,Helvetica,sans-serif; font-size:48px; text-anchor:middle;" transform="rotate(0, 2002.11, 1494.48)" x="2002.11" y="1494.48">6</text>
</g>
<g clip-path="url(#clip3000)">
<text style="fill:#000000; fill-opacity:1; font-family:Arial,Helvetica Neue,Helvetica,sans-serif; font-size:48px; text-anchor:end;" transform="rotate(0, 187.005, 1431.09)" x="187.005" y="1431.09">0</text>
</g>
<g clip-path="url(#clip3000)">
<text style="fill:#000000; fill-opacity:1; font-family:Arial,Helvetica Neue,Helvetica,sans-serif; font-size:48px; text-anchor:end;" transform="rotate(0, 187.005, 1162.16)" x="187.005" y="1162.16">5</text>
</g>
<g clip-path="url(#clip3000)">
<text style="fill:#000000; fill-opacity:1; font-family:Arial,Helvetica Neue,Helvetica,sans-serif; font-size:48px; text-anchor:end;" transform="rotate(0, 187.005, 893.234)" x="187.005" y="893.234">10</text>
</g>
<g clip-path="url(#clip3000)">
<text style="fill:#000000; fill-opacity:1; font-family:Arial,Helvetica Neue,Helvetica,sans-serif; font-size:48px; text-anchor:end;" transform="rotate(0, 187.005, 624.306)" x="187.005" y="624.306">15</text>
</g>
<g clip-path="url(#clip3000)">
<text style="fill:#000000; fill-opacity:1; font-family:Arial,Helvetica Neue,Helvetica,sans-serif; font-size:48px; text-anchor:end;" transform="rotate(0, 187.005, 355.378)" x="187.005" y="355.378">20</text>
</g>
<g clip-path="url(#clip3000)">
<text style="fill:#000000; fill-opacity:1; font-family:Arial,Helvetica Neue,Helvetica,sans-serif; font-size:66px; text-anchor:middle;" transform="rotate(0, 1266.13, 57.6)" x="1266.13" y="57.6">GCF_000146045.2_R64_genomic.fna.K31.counts.histogram</text>
</g>
<g clip-path="url(#clip3000)">
<text style="fill:#000000; fill-opacity:1; font-family:Arial,Helvetica Neue,Helvetica,sans-serif; font-size:66px; text-anchor:middle;" transform="rotate(0, 1266.13, 1590.4)" x="1266.13" y="1590.4">log2(depth of coverage)</text>
</g>
<g clip-path="url(#clip3000)">
<text style="fill:#000000; fill-opacity:1; font-family:Arial,Helvetica Neue,Helvetica,sans-serif; font-size:66px; text-anchor:middle;" transform="rotate(-90, 57.6, 783.233)" x="57.6" y="783.233">log2(# kmers)</text>
</g>
<circle clip-path="url(#clip3002)" style="fill:#000000; stroke:none; fill-opacity:1" cx="348.782" cy="152.877" r="18"/>
<circle clip-path="url(#clip3002)" style="fill:#009af9; stroke:none; fill-opacity:1" cx="348.782" cy="152.877" r="14"/>
<circle clip-path="url(#clip3002)" style="fill:#000000; stroke:none; fill-opacity:1" cx="624.337" cy="505.159" r="18"/>
<circle clip-path="url(#clip3002)" style="fill:#009af9; stroke:none; fill-opacity:1" cx="624.337" cy="505.159" r="14"/>
<circle clip-path="url(#clip3002)" style="fill:#000000; stroke:none; fill-opacity:1" cx="785.526" cy="619.973" r="18"/>
<circle clip-path="url(#clip3002)" style="fill:#009af9; stroke:none; fill-opacity:1" cx="785.526" cy="619.973" r="14"/>
<circle clip-path="url(#clip3002)" style="fill:#000000; stroke:none; fill-opacity:1" cx="899.891" cy="698.779" r="18"/>
<circle clip-path="url(#clip3002)" style="fill:#009af9; stroke:none; fill-opacity:1" cx="899.891" cy="698.779" r="14"/>
<circle clip-path="url(#clip3002)" style="fill:#000000; stroke:none; fill-opacity:1" cx="988.6" cy="791.708" r="18"/>
<circle clip-path="url(#clip3002)" style="fill:#009af9; stroke:none; fill-opacity:1" cx="988.6" cy="791.708" r="14"/>
<circle clip-path="url(#clip3002)" style="fill:#000000; stroke:none; fill-opacity:1" cx="1061.08" cy="814.065" r="18"/>
<circle clip-path="url(#clip3002)" style="fill:#009af9; stroke:none; fill-opacity:1" cx="1061.08" cy="814.065" r="14"/>
<circle clip-path="url(#clip3002)" style="fill:#000000; stroke:none; fill-opacity:1" cx="1122.36" cy="818.939" r="18"/>
<circle clip-path="url(#clip3002)" style="fill:#009af9; stroke:none; fill-opacity:1" cx="1122.36" cy="818.939" r="14"/>
<circle clip-path="url(#clip3002)" style="fill:#000000; stroke:none; fill-opacity:1" cx="1175.45" cy="838.061" r="18"/>
<circle clip-path="url(#clip3002)" style="fill:#009af9; stroke:none; fill-opacity:1" cx="1175.45" cy="838.061" r="14"/>
<circle clip-path="url(#clip3002)" style="fill:#000000; stroke:none; fill-opacity:1" cx="1222.27" cy="864.929" r="18"/>
<circle clip-path="url(#clip3002)" style="fill:#009af9; stroke:none; fill-opacity:1" cx="1222.27" cy="864.929" r="14"/>
<circle clip-path="url(#clip3002)" style="fill:#000000; stroke:none; fill-opacity:1" cx="1264.15" cy="891.289" r="18"/>
<circle clip-path="url(#clip3002)" style="fill:#009af9; stroke:none; fill-opacity:1" cx="1264.15" cy="891.289" r="14"/>
<circle clip-path="url(#clip3002)" style="fill:#000000; stroke:none; fill-opacity:1" cx="1302.04" cy="825.04" r="18"/>
<circle clip-path="url(#clip3002)" style="fill:#009af9; stroke:none; fill-opacity:1" cx="1302.04" cy="825.04" r="14"/>
<circle clip-path="url(#clip3002)" style="fill:#000000; stroke:none; fill-opacity:1" cx="1336.63" cy="868.919" r="18"/>
<circle clip-path="url(#clip3002)" style="fill:#009af9; stroke:none; fill-opacity:1" cx="1336.63" cy="868.919" r="14"/>
<circle clip-path="url(#clip3002)" style="fill:#000000; stroke:none; fill-opacity:1" cx="1368.46" cy="806.01" r="18"/>
<circle clip-path="url(#clip3002)" style="fill:#009af9; stroke:none; fill-opacity:1" cx="1368.46" cy="806.01" r="14"/>
<circle clip-path="url(#clip3002)" style="fill:#000000; stroke:none; fill-opacity:1" cx="1397.92" cy="902.101" r="18"/>
<circle clip-path="url(#clip3002)" style="fill:#009af9; stroke:none; fill-opacity:1" cx="1397.92" cy="902.101" r="14"/>
<circle clip-path="url(#clip3002)" style="fill:#000000; stroke:none; fill-opacity:1" cx="1425.34" cy="885.492" r="18"/>
<circle clip-path="url(#clip3002)" style="fill:#009af9; stroke:none; fill-opacity:1" cx="1425.34" cy="885.492" r="14"/>
<circle clip-path="url(#clip3002)" style="fill:#000000; stroke:none; fill-opacity:1" cx="1451" cy="883.456" r="18"/>
<circle clip-path="url(#clip3002)" style="fill:#009af9; stroke:none; fill-opacity:1" cx="1451" cy="883.456" r="14"/>
<circle clip-path="url(#clip3002)" style="fill:#000000; stroke:none; fill-opacity:1" cx="1475.1" cy="917.342" r="18"/>
<circle clip-path="url(#clip3002)" style="fill:#009af9; stroke:none; fill-opacity:1" cx="1475.1" cy="917.342" r="14"/>
<circle clip-path="url(#clip3002)" style="fill:#000000; stroke:none; fill-opacity:1" cx="1497.82" cy="894.89" r="18"/>
<circle clip-path="url(#clip3002)" style="fill:#009af9; stroke:none; fill-opacity:1" cx="1497.82" cy="894.89" r="14"/>
<circle clip-path="url(#clip3002)" style="fill:#000000; stroke:none; fill-opacity:1" cx="1519.32" cy="836.766" r="18"/>
<circle clip-path="url(#clip3002)" style="fill:#009af9; stroke:none; fill-opacity:1" cx="1519.32" cy="836.766" r="14"/>
<circle clip-path="url(#clip3002)" style="fill:#000000; stroke:none; fill-opacity:1" cx="1539.71" cy="968.956" r="18"/>
<circle clip-path="url(#clip3002)" style="fill:#009af9; stroke:none; fill-opacity:1" cx="1539.71" cy="968.956" r="14"/>
<circle clip-path="url(#clip3002)" style="fill:#000000; stroke:none; fill-opacity:1" cx="1559.11" cy="974.978" r="18"/>
<circle clip-path="url(#clip3002)" style="fill:#009af9; stroke:none; fill-opacity:1" cx="1559.11" cy="974.978" r="14"/>
<circle clip-path="url(#clip3002)" style="fill:#000000; stroke:none; fill-opacity:1" cx="1577.6" cy="1012.38" r="18"/>
<circle clip-path="url(#clip3002)" style="fill:#009af9; stroke:none; fill-opacity:1" cx="1577.6" cy="1012.38" r="14"/>
<circle clip-path="url(#clip3002)" style="fill:#000000; stroke:none; fill-opacity:1" cx="1595.27" cy="968.204" r="18"/>
<circle clip-path="url(#clip3002)" style="fill:#009af9; stroke:none; fill-opacity:1" cx="1595.27" cy="968.204" r="14"/>
<circle clip-path="url(#clip3002)" style="fill:#000000; stroke:none; fill-opacity:1" cx="1612.19" cy="1018.81" r="18"/>
<circle clip-path="url(#clip3002)" style="fill:#009af9; stroke:none; fill-opacity:1" cx="1612.19" cy="1018.81" r="14"/>
<circle clip-path="url(#clip3002)" style="fill:#000000; stroke:none; fill-opacity:1" cx="1628.42" cy="995.065" r="18"/>
<circle clip-path="url(#clip3002)" style="fill:#009af9; stroke:none; fill-opacity:1" cx="1628.42" cy="995.065" r="14"/>
<circle clip-path="url(#clip3002)" style="fill:#000000; stroke:none; fill-opacity:1" cx="1644.01" cy="954.515" r="18"/>
<circle clip-path="url(#clip3002)" style="fill:#009af9; stroke:none; fill-opacity:1" cx="1644.01" cy="954.515" r="14"/>
<circle clip-path="url(#clip3002)" style="fill:#000000; stroke:none; fill-opacity:1" cx="1659.01" cy="1028.49" r="18"/>
<circle clip-path="url(#clip3002)" style="fill:#009af9; stroke:none; fill-opacity:1" cx="1659.01" cy="1028.49" r="14"/>
<circle clip-path="url(#clip3002)" style="fill:#000000; stroke:none; fill-opacity:1" cx="1673.47" cy="947.329" r="18"/>
<circle clip-path="url(#clip3002)" style="fill:#009af9; stroke:none; fill-opacity:1" cx="1673.47" cy="947.329" r="14"/>
<circle clip-path="url(#clip3002)" style="fill:#000000; stroke:none; fill-opacity:1" cx="1687.42" cy="909.817" r="18"/>
<circle clip-path="url(#clip3002)" style="fill:#009af9; stroke:none; fill-opacity:1" cx="1687.42" cy="909.817" r="14"/>
<circle clip-path="url(#clip3002)" style="fill:#000000; stroke:none; fill-opacity:1" cx="1700.9" cy="923.122" r="18"/>
<circle clip-path="url(#clip3002)" style="fill:#009af9; stroke:none; fill-opacity:1" cx="1700.9" cy="923.122" r="14"/>
<circle clip-path="url(#clip3002)" style="fill:#000000; stroke:none; fill-opacity:1" cx="1713.93" cy="993.321" r="18"/>
<circle clip-path="url(#clip3002)" style="fill:#009af9; stroke:none; fill-opacity:1" cx="1713.93" cy="993.321" r="14"/>
<circle clip-path="url(#clip3002)" style="fill:#000000; stroke:none; fill-opacity:1" cx="1726.55" cy="904.26" r="18"/>
<circle clip-path="url(#clip3002)" style="fill:#009af9; stroke:none; fill-opacity:1" cx="1726.55" cy="904.26" r="14"/>
<circle clip-path="url(#clip3002)" style="fill:#000000; stroke:none; fill-opacity:1" cx="1738.79" cy="929.368" r="18"/>
<circle clip-path="url(#clip3002)" style="fill:#009af9; stroke:none; fill-opacity:1" cx="1738.79" cy="929.368" r="14"/>
<circle clip-path="url(#clip3002)" style="fill:#000000; stroke:none; fill-opacity:1" cx="1750.66" cy="1133.4" r="18"/>
<circle clip-path="url(#clip3002)" style="fill:#009af9; stroke:none; fill-opacity:1" cx="1750.66" cy="1133.4" r="14"/>
<circle clip-path="url(#clip3002)" style="fill:#000000; stroke:none; fill-opacity:1" cx="1762.18" cy="1160.77" r="18"/>
<circle clip-path="url(#clip3002)" style="fill:#009af9; stroke:none; fill-opacity:1" cx="1762.18" cy="1160.77" r="14"/>
<circle clip-path="url(#clip3002)" style="fill:#000000; stroke:none; fill-opacity:1" cx="1773.38" cy="1121.74" r="18"/>
<circle clip-path="url(#clip3002)" style="fill:#009af9; stroke:none; fill-opacity:1" cx="1773.38" cy="1121.74" r="14"/>
<circle clip-path="url(#clip3002)" style="fill:#000000; stroke:none; fill-opacity:1" cx="1784.27" cy="1166.99" r="18"/>
<circle clip-path="url(#clip3002)" style="fill:#009af9; stroke:none; fill-opacity:1" cx="1784.27" cy="1166.99" r="14"/>
<circle clip-path="url(#clip3002)" style="fill:#000000; stroke:none; fill-opacity:1" cx="1794.87" cy="1328.34" r="18"/>
<circle clip-path="url(#clip3002)" style="fill:#009af9; stroke:none; fill-opacity:1" cx="1794.87" cy="1328.34" r="14"/>
<circle clip-path="url(#clip3002)" style="fill:#000000; stroke:none; fill-opacity:1" cx="1805.2" cy="1220.77" r="18"/>
<circle clip-path="url(#clip3002)" style="fill:#009af9; stroke:none; fill-opacity:1" cx="1805.2" cy="1220.77" r="14"/>
<circle clip-path="url(#clip3002)" style="fill:#000000; stroke:none; fill-opacity:1" cx="1815.26" cy="1306.02" r="18"/>
<circle clip-path="url(#clip3002)" style="fill:#009af9; stroke:none; fill-opacity:1" cx="1815.26" cy="1306.02" r="14"/>
<circle clip-path="url(#clip3002)" style="fill:#000000; stroke:none; fill-opacity:1" cx="1825.08" cy="1170.29" r="18"/>
<circle clip-path="url(#clip3002)" style="fill:#009af9; stroke:none; fill-opacity:1" cx="1825.08" cy="1170.29" r="14"/>
<circle clip-path="url(#clip3002)" style="fill:#000000; stroke:none; fill-opacity:1" cx="1834.66" cy="1252.23" r="18"/>
<circle clip-path="url(#clip3002)" style="fill:#009af9; stroke:none; fill-opacity:1" cx="1834.66" cy="1252.23" r="14"/>
<circle clip-path="url(#clip3002)" style="fill:#000000; stroke:none; fill-opacity:1" cx="1844.01" cy="1214.56" r="18"/>
<circle clip-path="url(#clip3002)" style="fill:#009af9; stroke:none; fill-opacity:1" cx="1844.01" cy="1214.56" r="14"/>
<circle clip-path="url(#clip3002)" style="fill:#000000; stroke:none; fill-opacity:1" cx="1853.15" cy="1328.34" r="18"/>
<circle clip-path="url(#clip3002)" style="fill:#009af9; stroke:none; fill-opacity:1" cx="1853.15" cy="1328.34" r="14"/>
<circle clip-path="url(#clip3002)" style="fill:#000000; stroke:none; fill-opacity:1" cx="1862.09" cy="1139.96" r="18"/>
<circle clip-path="url(#clip3002)" style="fill:#009af9; stroke:none; fill-opacity:1" cx="1862.09" cy="1139.96" r="14"/>
<circle clip-path="url(#clip3002)" style="fill:#000000; stroke:none; fill-opacity:1" cx="1870.82" cy="1203.46" r="18"/>
<circle clip-path="url(#clip3002)" style="fill:#009af9; stroke:none; fill-opacity:1" cx="1870.82" cy="1203.46" r="14"/>
<circle clip-path="url(#clip3002)" style="fill:#000000; stroke:none; fill-opacity:1" cx="1879.37" cy="1166.99" r="18"/>
<circle clip-path="url(#clip3002)" style="fill:#009af9; stroke:none; fill-opacity:1" cx="1879.37" cy="1166.99" r="14"/>
<circle clip-path="url(#clip3002)" style="fill:#000000; stroke:none; fill-opacity:1" cx="1887.74" cy="1198.45" r="18"/>
<circle clip-path="url(#clip3002)" style="fill:#009af9; stroke:none; fill-opacity:1" cx="1887.74" cy="1198.45" r="14"/>
<circle clip-path="url(#clip3002)" style="fill:#000000; stroke:none; fill-opacity:1" cx="1895.94" cy="1252.23" r="18"/>
<circle clip-path="url(#clip3002)" style="fill:#009af9; stroke:none; fill-opacity:1" cx="1895.94" cy="1252.23" r="14"/>
<circle clip-path="url(#clip3002)" style="fill:#000000; stroke:none; fill-opacity:1" cx="1903.97" cy="1306.02" r="18"/>
<circle clip-path="url(#clip3002)" style="fill:#009af9; stroke:none; fill-opacity:1" cx="1903.97" cy="1306.02" r="14"/>
<circle clip-path="url(#clip3002)" style="fill:#000000; stroke:none; fill-opacity:1" cx="1911.84" cy="1121.74" r="18"/>
<circle clip-path="url(#clip3002)" style="fill:#009af9; stroke:none; fill-opacity:1" cx="1911.84" cy="1121.74" r="14"/>
<circle clip-path="url(#clip3002)" style="fill:#000000; stroke:none; fill-opacity:1" cx="1919.56" cy="1193.74" r="18"/>
<circle clip-path="url(#clip3002)" style="fill:#009af9; stroke:none; fill-opacity:1" cx="1919.56" cy="1193.74" r="14"/>
<circle clip-path="url(#clip3002)" style="fill:#000000; stroke:none; fill-opacity:1" cx="1927.14" cy="1181.13" r="18"/>
<circle clip-path="url(#clip3002)" style="fill:#009af9; stroke:none; fill-opacity:1" cx="1927.14" cy="1181.13" r="14"/>
<circle clip-path="url(#clip3002)" style="fill:#000000; stroke:none; fill-opacity:1" cx="1934.57" cy="1227.52" r="18"/>
<circle clip-path="url(#clip3002)" style="fill:#009af9; stroke:none; fill-opacity:1" cx="1934.57" cy="1227.52" r="14"/>
<circle clip-path="url(#clip3002)" style="fill:#000000; stroke:none; fill-opacity:1" cx="1941.86" cy="1227.52" r="18"/>
<circle clip-path="url(#clip3002)" style="fill:#009af9; stroke:none; fill-opacity:1" cx="1941.86" cy="1227.52" r="14"/>
<circle clip-path="url(#clip3002)" style="fill:#000000; stroke:none; fill-opacity:1" cx="1949.03" cy="1306.02" r="18"/>
<circle clip-path="url(#clip3002)" style="fill:#009af9; stroke:none; fill-opacity:1" cx="1949.03" cy="1306.02" r="14"/>
<circle clip-path="url(#clip3002)" style="fill:#000000; stroke:none; fill-opacity:1" cx="1956.06" cy="1306.02" r="18"/>
<circle clip-path="url(#clip3002)" style="fill:#009af9; stroke:none; fill-opacity:1" cx="1956.06" cy="1306.02" r="14"/>
<circle clip-path="url(#clip3002)" style="fill:#000000; stroke:none; fill-opacity:1" cx="1962.98" cy="1413.59" r="18"/>
<circle clip-path="url(#clip3002)" style="fill:#009af9; stroke:none; fill-opacity:1" cx="1962.98" cy="1413.59" r="14"/>
<circle clip-path="url(#clip3002)" style="fill:#000000; stroke:none; fill-opacity:1" cx="1969.77" cy="1413.59" r="18"/>
<circle clip-path="url(#clip3002)" style="fill:#009af9; stroke:none; fill-opacity:1" cx="1969.77" cy="1413.59" r="14"/>
<circle clip-path="url(#clip3002)" style="fill:#000000; stroke:none; fill-opacity:1" cx="1976.45" cy="1220.77" r="18"/>
<circle clip-path="url(#clip3002)" style="fill:#009af9; stroke:none; fill-opacity:1" cx="1976.45" cy="1220.77" r="14"/>
<circle clip-path="url(#clip3002)" style="fill:#000000; stroke:none; fill-opacity:1" cx="1983.02" cy="1147.13" r="18"/>
<circle clip-path="url(#clip3002)" style="fill:#009af9; stroke:none; fill-opacity:1" cx="1983.02" cy="1147.13" r="14"/>
<circle clip-path="url(#clip3002)" style="fill:#000000; stroke:none; fill-opacity:1" cx="1989.49" cy="1262.59" r="18"/>
<circle clip-path="url(#clip3002)" style="fill:#009af9; stroke:none; fill-opacity:1" cx="1989.49" cy="1262.59" r="14"/>
<circle clip-path="url(#clip3002)" style="fill:#000000; stroke:none; fill-opacity:1" cx="1995.85" cy="1166.99" r="18"/>
<circle clip-path="url(#clip3002)" style="fill:#009af9; stroke:none; fill-opacity:1" cx="1995.85" cy="1166.99" r="14"/>
<circle clip-path="url(#clip3002)" style="fill:#000000; stroke:none; fill-opacity:1" cx="2002.11" cy="1252.23" r="18"/>
<circle clip-path="url(#clip3002)" style="fill:#009af9; stroke:none; fill-opacity:1" cx="2002.11" cy="1252.23" r="14"/>
<circle clip-path="url(#clip3002)" style="fill:#000000; stroke:none; fill-opacity:1" cx="2008.27" cy="1359.8" r="18"/>
<circle clip-path="url(#clip3002)" style="fill:#009af9; stroke:none; fill-opacity:1" cx="2008.27" cy="1359.8" r="14"/>
<circle clip-path="url(#clip3002)" style="fill:#000000; stroke:none; fill-opacity:1" cx="2014.34" cy="1359.8" r="18"/>
<circle clip-path="url(#clip3002)" style="fill:#009af9; stroke:none; fill-opacity:1" cx="2014.34" cy="1359.8" r="14"/>
<circle clip-path="url(#clip3002)" style="fill:#000000; stroke:none; fill-opacity:1" cx="2020.32" cy="1288.7" r="18"/>
<circle clip-path="url(#clip3002)" style="fill:#009af9; stroke:none; fill-opacity:1" cx="2020.32" cy="1288.7" r="14"/>
<circle clip-path="url(#clip3002)" style="fill:#000000; stroke:none; fill-opacity:1" cx="2026.21" cy="1359.8" r="18"/>
<circle clip-path="url(#clip3002)" style="fill:#009af9; stroke:none; fill-opacity:1" cx="2026.21" cy="1359.8" r="14"/>
<circle clip-path="url(#clip3002)" style="fill:#000000; stroke:none; fill-opacity:1" cx="2048.93" cy="1413.59" r="18"/>
<circle clip-path="url(#clip3002)" style="fill:#009af9; stroke:none; fill-opacity:1" cx="2048.93" cy="1413.59" r="14"/>
<circle clip-path="url(#clip3002)" style="fill:#000000; stroke:none; fill-opacity:1" cx="2054.42" cy="1306.02" r="18"/>
<circle clip-path="url(#clip3002)" style="fill:#009af9; stroke:none; fill-opacity:1" cx="2054.42" cy="1306.02" r="14"/>
<circle clip-path="url(#clip3002)" style="fill:#000000; stroke:none; fill-opacity:1" cx="2059.83" cy="1413.59" r="18"/>
<circle clip-path="url(#clip3002)" style="fill:#009af9; stroke:none; fill-opacity:1" cx="2059.83" cy="1413.59" r="14"/>
<circle clip-path="url(#clip3002)" style="fill:#000000; stroke:none; fill-opacity:1" cx="2065.16" cy="1359.8" r="18"/>
<circle clip-path="url(#clip3002)" style="fill:#009af9; stroke:none; fill-opacity:1" cx="2065.16" cy="1359.8" r="14"/>
<circle clip-path="url(#clip3002)" style="fill:#000000; stroke:none; fill-opacity:1" cx="2070.43" cy="1160.77" r="18"/>
<circle clip-path="url(#clip3002)" style="fill:#009af9; stroke:none; fill-opacity:1" cx="2070.43" cy="1160.77" r="14"/>
<circle clip-path="url(#clip3002)" style="fill:#000000; stroke:none; fill-opacity:1" cx="2075.62" cy="1189.31" r="18"/>
<circle clip-path="url(#clip3002)" style="fill:#009af9; stroke:none; fill-opacity:1" cx="2075.62" cy="1189.31" r="14"/>
<circle clip-path="url(#clip3002)" style="fill:#000000; stroke:none; fill-opacity:1" cx="2080.75" cy="1173.74" r="18"/>
<circle clip-path="url(#clip3002)" style="fill:#009af9; stroke:none; fill-opacity:1" cx="2080.75" cy="1173.74" r="14"/>
<circle clip-path="url(#clip3002)" style="fill:#000000; stroke:none; fill-opacity:1" cx="2085.82" cy="1413.59" r="18"/>
<circle clip-path="url(#clip3002)" style="fill:#009af9; stroke:none; fill-opacity:1" cx="2085.82" cy="1413.59" r="14"/>
<circle clip-path="url(#clip3002)" style="fill:#000000; stroke:none; fill-opacity:1" cx="2095.76" cy="1166.99" r="18"/>
<circle clip-path="url(#clip3002)" style="fill:#009af9; stroke:none; fill-opacity:1" cx="2095.76" cy="1166.99" r="14"/>
<circle clip-path="url(#clip3002)" style="fill:#000000; stroke:none; fill-opacity:1" cx="2100.63" cy="1220.77" r="18"/>
<circle clip-path="url(#clip3002)" style="fill:#009af9; stroke:none; fill-opacity:1" cx="2100.63" cy="1220.77" r="14"/>
<circle clip-path="url(#clip3002)" style="fill:#000000; stroke:none; fill-opacity:1" cx="2105.45" cy="1306.02" r="18"/>
<circle clip-path="url(#clip3002)" style="fill:#009af9; stroke:none; fill-opacity:1" cx="2105.45" cy="1306.02" r="14"/>
<circle clip-path="url(#clip3002)" style="fill:#000000; stroke:none; fill-opacity:1" cx="2110.21" cy="1413.59" r="18"/>
<circle clip-path="url(#clip3002)" style="fill:#009af9; stroke:none; fill-opacity:1" cx="2110.21" cy="1413.59" r="14"/>
<circle clip-path="url(#clip3002)" style="fill:#000000; stroke:none; fill-opacity:1" cx="2137.64" cy="1359.8" r="18"/>
<circle clip-path="url(#clip3002)" style="fill:#009af9; stroke:none; fill-opacity:1" cx="2137.64" cy="1359.8" r="14"/>
<circle clip-path="url(#clip3002)" style="fill:#000000; stroke:none; fill-opacity:1" cx="2150.68" cy="1413.59" r="18"/>
<circle clip-path="url(#clip3002)" style="fill:#009af9; stroke:none; fill-opacity:1" cx="2150.68" cy="1413.59" r="14"/>
<circle clip-path="url(#clip3002)" style="fill:#000000; stroke:none; fill-opacity:1" cx="2154.93" cy="1413.59" r="18"/>
<circle clip-path="url(#clip3002)" style="fill:#009af9; stroke:none; fill-opacity:1" cx="2154.93" cy="1413.59" r="14"/>
<circle clip-path="url(#clip3002)" style="fill:#000000; stroke:none; fill-opacity:1" cx="2175.53" cy="1274.56" r="18"/>
<circle clip-path="url(#clip3002)" style="fill:#009af9; stroke:none; fill-opacity:1" cx="2175.53" cy="1274.56" r="14"/>
<circle clip-path="url(#clip3002)" style="fill:#000000; stroke:none; fill-opacity:1" cx="2179.53" cy="1252.23" r="18"/>
<circle clip-path="url(#clip3002)" style="fill:#009af9; stroke:none; fill-opacity:1" cx="2179.53" cy="1252.23" r="14"/>
<circle clip-path="url(#clip3002)" style="fill:#000000; stroke:none; fill-opacity:1" cx="2183.48" cy="1328.34" r="18"/>
<circle clip-path="url(#clip3002)" style="fill:#009af9; stroke:none; fill-opacity:1" cx="2183.48" cy="1328.34" r="14"/>
<polyline clip-path="url(#clip3002)" style="stroke:#e26f46; stroke-width:4; stroke-opacity:1; fill:none" points="
  348.782,294.673 367.315,305.503 385.847,316.332 404.379,327.162 422.912,337.991 441.444,348.821 459.976,359.651 478.509,370.48 497.041,381.31 515.573,392.14 
  534.106,402.969 552.638,413.799 571.17,424.629 589.703,435.458 608.235,446.288 626.767,457.118 645.299,467.947 663.832,478.777 682.364,489.607 700.896,500.436 
  719.429,511.266 737.961,522.096 756.493,532.925 775.026,543.755 793.558,554.585 812.09,565.414 830.623,576.244 849.155,587.074 867.687,597.903 886.22,608.733 
  904.752,619.563 923.284,630.392 941.817,641.222 960.349,652.052 978.881,662.881 997.414,673.711 1015.95,684.54 1034.48,695.37 1053.01,706.2 1071.54,717.029 
  1090.08,727.859 1108.61,738.689 1127.14,749.518 1145.67,760.348 1164.2,771.178 1182.74,782.007 1201.27,792.837 1219.8,803.667 1238.33,814.496 1256.87,825.326 
  1275.4,836.156 1293.93,846.985 1312.46,857.815 1331,868.645 1349.53,879.474 1368.06,890.304 1386.59,901.134 1405.12,911.963 1423.66,922.793 1442.19,933.623 
  1460.72,944.452 1479.25,955.282 1497.79,966.112 1516.32,976.941 1534.85,987.771 1553.38,998.601 1571.92,1009.43 1590.45,1020.26 1608.98,1031.09 1627.51,1041.92 
  1646.05,1052.75 1664.58,1063.58 1683.11,1074.41 1701.64,1085.24 1720.17,1096.07 1738.71,1106.9 1757.24,1117.73 1775.77,1128.56 1794.3,1139.39 1812.84,1150.22 
  1831.37,1161.05 1849.9,1171.88 1868.43,1182.7 1886.97,1193.53 1905.5,1204.36 1924.03,1215.19 1942.56,1226.02 1961.09,1236.85 1979.63,1247.68 1998.16,1258.51 
  2016.69,1269.34 2035.22,1280.17 2053.76,1291 2072.29,1301.83 2090.82,1312.66 2109.35,1323.49 2127.89,1334.32 2146.42,1345.15 2164.95,1355.98 2183.48,1366.81 
  
  "/>
<g clip-path="url(#clip3000)">
<text style="fill:#000000; fill-opacity:1; font-family:Arial,Helvetica Neue,Helvetica,sans-serif; font-size:59px; text-anchor:start;" transform="rotate(0, 348.782, 1381.3)" x="348.782" y="1381.3">r = -0.92</text>
</g>
</svg>
