<?xml version="1.0" encoding="utf-8"?>
<svg xmlns="http://www.w3.org/2000/svg" xmlns:xlink="http://www.w3.org/1999/xlink" width="600" height="400" viewBox="0 0 2400 1600">
<defs>
  <clipPath id="clip0200">
    <rect x="0" y="0" width="2400" height="1600"/>
  </clipPath>
</defs>
<polygon clip-path="url(#clip0200)" points="
0,1600 2400,1600 2400,0 0,0 
  " fill="#ffffff" fill-rule="evenodd" fill-opacity="1"/>
<defs>
  <clipPath id="clip0201">
    <rect x="480" y="0" width="1681" height="1600"/>
  </clipPath>
</defs>
<polygon clip-path="url(#clip0200)" points="
211.005,1440.48 2321.26,1440.48 2321.26,125.984 211.005,125.984 
  " fill="#ffffff" fill-rule="evenodd" fill-opacity="1"/>
<defs>
  <clipPath id="clip0202">
    <rect x="211" y="125" width="2111" height="1315"/>
  </clipPath>
</defs>
<polyline clip-path="url(#clip0202)" style="stroke:#000000; stroke-width:2; stroke-opacity:0.1; fill:none" points="
  317.542,1440.48 317.542,125.984 
  "/>
<polyline clip-path="url(#clip0202)" style="stroke:#000000; stroke-width:2; stroke-opacity:0.1; fill:none" points="
  743.689,1440.48 743.689,125.984 
  "/>
<polyline clip-path="url(#clip0202)" style="stroke:#000000; stroke-width:2; stroke-opacity:0.1; fill:none" points="
  1169.84,1440.48 1169.84,125.984 
  "/>
<polyline clip-path="url(#clip0202)" style="stroke:#000000; stroke-width:2; stroke-opacity:0.1; fill:none" points="
  1595.98,1440.48 1595.98,125.984 
  "/>
<polyline clip-path="url(#clip0202)" style="stroke:#000000; stroke-width:2; stroke-opacity:0.1; fill:none" points="
  2022.13,1440.48 2022.13,125.984 
  "/>
<polyline clip-path="url(#clip0202)" style="stroke:#000000; stroke-width:2; stroke-opacity:0.1; fill:none" points="
  211.005,1413.58 2321.26,1413.58 
  "/>
<polyline clip-path="url(#clip0202)" style="stroke:#000000; stroke-width:2; stroke-opacity:0.1; fill:none" points="
  211.005,1144.58 2321.26,1144.58 
  "/>
<polyline clip-path="url(#clip0202)" style="stroke:#000000; stroke-width:2; stroke-opacity:0.1; fill:none" points="
  211.005,875.577 2321.26,875.577 
  "/>
<polyline clip-path="url(#clip0202)" style="stroke:#000000; stroke-width:2; stroke-opacity:0.1; fill:none" points="
  211.005,606.575 2321.26,606.575 
  "/>
<polyline clip-path="url(#clip0202)" style="stroke:#000000; stroke-width:2; stroke-opacity:0.1; fill:none" points="
  211.005,337.573 2321.26,337.573 
  "/>
<polyline clip-path="url(#clip0200)" style="stroke:#000000; stroke-width:4; stroke-opacity:1; fill:none" points="
  211.005,1440.48 2321.26,1440.48 
  "/>
<polyline clip-path="url(#clip0200)" style="stroke:#000000; stroke-width:4; stroke-opacity:1; fill:none" points="
  211.005,1440.48 211.005,125.984 
  "/>
<polyline clip-path="url(#clip0200)" style="stroke:#000000; stroke-width:4; stroke-opacity:1; fill:none" points="
  317.542,1440.48 317.542,1420.77 
  "/>
<polyline clip-path="url(#clip0200)" style="stroke:#000000; stroke-width:4; stroke-opacity:1; fill:none" points="
  743.689,1440.48 743.689,1420.77 
  "/>
<polyline clip-path="url(#clip0200)" style="stroke:#000000; stroke-width:4; stroke-opacity:1; fill:none" points="
  1169.84,1440.48 1169.84,1420.77 
  "/>
<polyline clip-path="url(#clip0200)" style="stroke:#000000; stroke-width:4; stroke-opacity:1; fill:none" points="
  1595.98,1440.48 1595.98,1420.77 
  "/>
<polyline clip-path="url(#clip0200)" style="stroke:#000000; stroke-width:4; stroke-opacity:1; fill:none" points="
  2022.13,1440.48 2022.13,1420.77 
  "/>
<polyline clip-path="url(#clip0200)" style="stroke:#000000; stroke-width:4; stroke-opacity:1; fill:none" points="
  211.005,1413.58 242.659,1413.58 
  "/>
<polyline clip-path="url(#clip0200)" style="stroke:#000000; stroke-width:4; stroke-opacity:1; fill:none" points="
  211.005,1144.58 242.659,1144.58 
  "/>
<polyline clip-path="url(#clip0200)" style="stroke:#000000; stroke-width:4; stroke-opacity:1; fill:none" points="
  211.005,875.577 242.659,875.577 
  "/>
<polyline clip-path="url(#clip0200)" style="stroke:#000000; stroke-width:4; stroke-opacity:1; fill:none" points="
  211.005,606.575 242.659,606.575 
  "/>
<polyline clip-path="url(#clip0200)" style="stroke:#000000; stroke-width:4; stroke-opacity:1; fill:none" points="
  211.005,337.573 242.659,337.573 
  "/>
<g clip-path="url(#clip0200)">
<text style="fill:#000000; fill-opacity:1; font-family:Arial,Helvetica Neue,Helvetica,sans-serif; font-size:48px; text-anchor:middle;" transform="rotate(0, 317.542, 1494.48)" x="317.542" y="1494.48">0</text>
</g>
<g clip-path="url(#clip0200)">
<text style="fill:#000000; fill-opacity:1; font-family:Arial,Helvetica Neue,Helvetica,sans-serif; font-size:48px; text-anchor:middle;" transform="rotate(0, 743.689, 1494.48)" x="743.689" y="1494.48">2</text>
</g>
<g clip-path="url(#clip0200)">
<text style="fill:#000000; fill-opacity:1; font-family:Arial,Helvetica Neue,Helvetica,sans-serif; font-size:48px; text-anchor:middle;" transform="rotate(0, 1169.84, 1494.48)" x="1169.84" y="1494.48">4</text>
</g>
<g clip-path="url(#clip0200)">
<text style="fill:#000000; fill-opacity:1; font-family:Arial,Helvetica Neue,Helvetica,sans-serif; font-size:48px; text-anchor:middle;" transform="rotate(0, 1595.98, 1494.48)" x="1595.98" y="1494.48">6</text>
</g>
<g clip-path="url(#clip0200)">
<text style="fill:#000000; fill-opacity:1; font-family:Arial,Helvetica Neue,Helvetica,sans-serif; font-size:48px; text-anchor:middle;" transform="rotate(0, 2022.13, 1494.48)" x="2022.13" y="1494.48">8</text>
</g>
<g clip-path="url(#clip0200)">
<text style="fill:#000000; fill-opacity:1; font-family:Arial,Helvetica Neue,Helvetica,sans-serif; font-size:48px; text-anchor:end;" transform="rotate(0, 187.005, 1431.08)" x="187.005" y="1431.08">0</text>
</g>
<g clip-path="url(#clip0200)">
<text style="fill:#000000; fill-opacity:1; font-family:Arial,Helvetica Neue,Helvetica,sans-serif; font-size:48px; text-anchor:end;" transform="rotate(0, 187.005, 1162.08)" x="187.005" y="1162.08">5</text>
</g>
<g clip-path="url(#clip0200)">
<text style="fill:#000000; fill-opacity:1; font-family:Arial,Helvetica Neue,Helvetica,sans-serif; font-size:48px; text-anchor:end;" transform="rotate(0, 187.005, 893.077)" x="187.005" y="893.077">10</text>
</g>
<g clip-path="url(#clip0200)">
<text style="fill:#000000; fill-opacity:1; font-family:Arial,Helvetica Neue,Helvetica,sans-serif; font-size:48px; text-anchor:end;" transform="rotate(0, 187.005, 624.075)" x="187.005" y="624.075">15</text>
</g>
<g clip-path="url(#clip0200)">
<text style="fill:#000000; fill-opacity:1; font-family:Arial,Helvetica Neue,Helvetica,sans-serif; font-size:48px; text-anchor:end;" transform="rotate(0, 187.005, 355.073)" x="187.005" y="355.073">20</text>
</g>
<g clip-path="url(#clip0200)">
<text style="fill:#000000; fill-opacity:1; font-family:Arial,Helvetica Neue,Helvetica,sans-serif; font-size:66px; text-anchor:middle;" transform="rotate(0, 1266.13, 57.6)" x="1266.13" y="57.6">GCF_000146045.2_R64_genomic.fna.K23.counts.histogram</text>
</g>
<g clip-path="url(#clip0200)">
<text style="fill:#000000; fill-opacity:1; font-family:Arial,Helvetica Neue,Helvetica,sans-serif; font-size:66px; text-anchor:middle;" transform="rotate(0, 1266.13, 1590.4)" x="1266.13" y="1590.4">log2(depth of coverage)</text>
</g>
<g clip-path="url(#clip0200)">
<text style="fill:#000000; fill-opacity:1; font-family:Arial,Helvetica Neue,Helvetica,sans-serif; font-size:66px; text-anchor:middle;" transform="rotate(-90, 57.6, 783.233)" x="57.6" y="783.233">log2(# kmers)</text>
</g>
<circle clip-path="url(#clip0202)" style="fill:#000000; stroke:none; fill-opacity:1" cx="317.542" cy="152.884" r="18"/>
<circle clip-path="url(#clip0202)" style="fill:#009af9; stroke:none; fill-opacity:1" cx="317.542" cy="152.884" r="14"/>
<circle clip-path="url(#clip0202)" style="fill:#000000; stroke:none; fill-opacity:1" cx="530.615" cy="500.998" r="18"/>
<circle clip-path="url(#clip0202)" style="fill:#009af9; stroke:none; fill-opacity:1" cx="530.615" cy="500.998" r="14"/>
<circle clip-path="url(#clip0202)" style="fill:#000000; stroke:none; fill-opacity:1" cx="655.255" cy="611.799" r="18"/>
<circle clip-path="url(#clip0202)" style="fill:#009af9; stroke:none; fill-opacity:1" cx="655.255" cy="611.799" r="14"/>
<circle clip-path="url(#clip0202)" style="fill:#000000; stroke:none; fill-opacity:1" cx="743.689" cy="695.355" r="18"/>
<circle clip-path="url(#clip0202)" style="fill:#009af9; stroke:none; fill-opacity:1" cx="743.689" cy="695.355" r="14"/>
<circle clip-path="url(#clip0202)" style="fill:#000000; stroke:none; fill-opacity:1" cx="812.283" cy="788.681" r="18"/>
<circle clip-path="url(#clip0202)" style="fill:#009af9; stroke:none; fill-opacity:1" cx="812.283" cy="788.681" r="14"/>
<circle clip-path="url(#clip0202)" style="fill:#000000; stroke:none; fill-opacity:1" cx="868.329" cy="809.273" r="18"/>
<circle clip-path="url(#clip0202)" style="fill:#009af9; stroke:none; fill-opacity:1" cx="868.329" cy="809.273" r="14"/>
<circle clip-path="url(#clip0202)" style="fill:#000000; stroke:none; fill-opacity:1" cx="915.715" cy="821.929" r="18"/>
<circle clip-path="url(#clip0202)" style="fill:#009af9; stroke:none; fill-opacity:1" cx="915.715" cy="821.929" r="14"/>
<circle clip-path="url(#clip0202)" style="fill:#000000; stroke:none; fill-opacity:1" cx="956.762" cy="836.05" r="18"/>
<circle clip-path="url(#clip0202)" style="fill:#009af9; stroke:none; fill-opacity:1" cx="956.762" cy="836.05" r="14"/>
<circle clip-path="url(#clip0202)" style="fill:#000000; stroke:none; fill-opacity:1" cx="992.969" cy="865.898" r="18"/>
<circle clip-path="url(#clip0202)" style="fill:#009af9; stroke:none; fill-opacity:1" cx="992.969" cy="865.898" r="14"/>
<circle clip-path="url(#clip0202)" style="fill:#000000; stroke:none; fill-opacity:1" cx="1025.36" cy="887.076" r="18"/>
<circle clip-path="url(#clip0202)" style="fill:#009af9; stroke:none; fill-opacity:1" cx="1025.36" cy="887.076" r="14"/>
<circle clip-path="url(#clip0202)" style="fill:#000000; stroke:none; fill-opacity:1" cx="1054.65" cy="825.305" r="18"/>
<circle clip-path="url(#clip0202)" style="fill:#009af9; stroke:none; fill-opacity:1" cx="1054.65" cy="825.305" r="14"/>
<circle clip-path="url(#clip0202)" style="fill:#000000; stroke:none; fill-opacity:1" cx="1081.4" cy="871.805" r="18"/>
<circle clip-path="url(#clip0202)" style="fill:#009af9; stroke:none; fill-opacity:1" cx="1081.4" cy="871.805" r="14"/>
<circle clip-path="url(#clip0202)" style="fill:#000000; stroke:none; fill-opacity:1" cx="1106.01" cy="797.946" r="18"/>
<circle clip-path="url(#clip0202)" style="fill:#009af9; stroke:none; fill-opacity:1" cx="1106.01" cy="797.946" r="14"/>
<circle clip-path="url(#clip0202)" style="fill:#000000; stroke:none; fill-opacity:1" cx="1128.79" cy="906.558" r="18"/>
<circle clip-path="url(#clip0202)" style="fill:#009af9; stroke:none; fill-opacity:1" cx="1128.79" cy="906.558" r="14"/>
<circle clip-path="url(#clip0202)" style="fill:#000000; stroke:none; fill-opacity:1" cx="1150" cy="893.392" r="18"/>
<circle clip-path="url(#clip0202)" style="fill:#009af9; stroke:none; fill-opacity:1" cx="1150" cy="893.392" r="14"/>
<circle clip-path="url(#clip0202)" style="fill:#000000; stroke:none; fill-opacity:1" cx="1169.84" cy="882.469" r="18"/>
<circle clip-path="url(#clip0202)" style="fill:#009af9; stroke:none; fill-opacity:1" cx="1169.84" cy="882.469" r="14"/>
<circle clip-path="url(#clip0202)" style="fill:#000000; stroke:none; fill-opacity:1" cx="1188.47" cy="915.912" r="18"/>
<circle clip-path="url(#clip0202)" style="fill:#009af9; stroke:none; fill-opacity:1" cx="1188.47" cy="915.912" r="14"/>
<circle clip-path="url(#clip0202)" style="fill:#000000; stroke:none; fill-opacity:1" cx="1206.04" cy="888.317" r="18"/>
<circle clip-path="url(#clip0202)" style="fill:#009af9; stroke:none; fill-opacity:1" cx="1206.04" cy="888.317" r="14"/>
<circle clip-path="url(#clip0202)" style="fill:#000000; stroke:none; fill-opacity:1" cx="1222.66" cy="821.361" r="18"/>
<circle clip-path="url(#clip0202)" style="fill:#009af9; stroke:none; fill-opacity:1" cx="1222.66" cy="821.361" r="14"/>
<circle clip-path="url(#clip0202)" style="fill:#000000; stroke:none; fill-opacity:1" cx="1238.43" cy="977.622" r="18"/>
<circle clip-path="url(#clip0202)" style="fill:#009af9; stroke:none; fill-opacity:1" cx="1238.43" cy="977.622" r="14"/>
<circle clip-path="url(#clip0202)" style="fill:#000000; stroke:none; fill-opacity:1" cx="1253.43" cy="981.677" r="18"/>
<circle clip-path="url(#clip0202)" style="fill:#009af9; stroke:none; fill-opacity:1" cx="1253.43" cy="981.677" r="14"/>
<circle clip-path="url(#clip0202)" style="fill:#000000; stroke:none; fill-opacity:1" cx="1267.73" cy="1014.95" r="18"/>
<circle clip-path="url(#clip0202)" style="fill:#009af9; stroke:none; fill-opacity:1" cx="1267.73" cy="1014.95" r="14"/>
<circle clip-path="url(#clip0202)" style="fill:#000000; stroke:none; fill-opacity:1" cx="1281.39" cy="968.073" r="18"/>
<circle clip-path="url(#clip0202)" style="fill:#009af9; stroke:none; fill-opacity:1" cx="1281.39" cy="968.073" r="14"/>
<circle clip-path="url(#clip0202)" style="fill:#000000; stroke:none; fill-opacity:1" cx="1294.48" cy="1021.13" r="18"/>
<circle clip-path="url(#clip0202)" style="fill:#009af9; stroke:none; fill-opacity:1" cx="1294.48" cy="1021.13" r="14"/>
<circle clip-path="url(#clip0202)" style="fill:#000000; stroke:none; fill-opacity:1" cx="1307.02" cy="987.544" r="18"/>
<circle clip-path="url(#clip0202)" style="fill:#009af9; stroke:none; fill-opacity:1" cx="1307.02" cy="987.544" r="14"/>
<circle clip-path="url(#clip0202)" style="fill:#000000; stroke:none; fill-opacity:1" cx="1319.08" cy="966.345" r="18"/>
<circle clip-path="url(#clip0202)" style="fill:#009af9; stroke:none; fill-opacity:1" cx="1319.08" cy="966.345" r="14"/>
<circle clip-path="url(#clip0202)" style="fill:#000000; stroke:none; fill-opacity:1" cx="1330.68" cy="1021.62" r="18"/>
<circle clip-path="url(#clip0202)" style="fill:#009af9; stroke:none; fill-opacity:1" cx="1330.68" cy="1021.62" r="14"/>
<circle clip-path="url(#clip0202)" style="fill:#000000; stroke:none; fill-opacity:1" cx="1341.86" cy="952.52" r="18"/>
<circle clip-path="url(#clip0202)" style="fill:#009af9; stroke:none; fill-opacity:1" cx="1341.86" cy="952.52" r="14"/>
<circle clip-path="url(#clip0202)" style="fill:#000000; stroke:none; fill-opacity:1" cx="1352.65" cy="909.318" r="18"/>
<circle clip-path="url(#clip0202)" style="fill:#009af9; stroke:none; fill-opacity:1" cx="1352.65" cy="909.318" r="14"/>
<circle clip-path="url(#clip0202)" style="fill:#000000; stroke:none; fill-opacity:1" cx="1363.07" cy="922.008" r="18"/>
<circle clip-path="url(#clip0202)" style="fill:#009af9; stroke:none; fill-opacity:1" cx="1363.07" cy="922.008" r="14"/>
<circle clip-path="url(#clip0202)" style="fill:#000000; stroke:none; fill-opacity:1" cx="1373.15" cy="993.543" r="18"/>
<circle clip-path="url(#clip0202)" style="fill:#009af9; stroke:none; fill-opacity:1" cx="1373.15" cy="993.543" r="14"/>
<circle clip-path="url(#clip0202)" style="fill:#000000; stroke:none; fill-opacity:1" cx="1382.91" cy="891.044" r="18"/>
<circle clip-path="url(#clip0202)" style="fill:#009af9; stroke:none; fill-opacity:1" cx="1382.91" cy="891.044" r="14"/>
<circle clip-path="url(#clip0202)" style="fill:#000000; stroke:none; fill-opacity:1" cx="1392.37" cy="908.04" r="18"/>
<circle clip-path="url(#clip0202)" style="fill:#009af9; stroke:none; fill-opacity:1" cx="1392.37" cy="908.04" r="14"/>
<circle clip-path="url(#clip0202)" style="fill:#000000; stroke:none; fill-opacity:1" cx="1401.55" cy="1088.39" r="18"/>
<circle clip-path="url(#clip0202)" style="fill:#009af9; stroke:none; fill-opacity:1" cx="1401.55" cy="1088.39" r="14"/>
<circle clip-path="url(#clip0202)" style="fill:#000000; stroke:none; fill-opacity:1" cx="1410.46" cy="1170.21" r="18"/>
<circle clip-path="url(#clip0202)" style="fill:#009af9; stroke:none; fill-opacity:1" cx="1410.46" cy="1170.21" r="14"/>
<circle clip-path="url(#clip0202)" style="fill:#000000; stroke:none; fill-opacity:1" cx="1419.12" cy="1121.65" r="18"/>
<circle clip-path="url(#clip0202)" style="fill:#009af9; stroke:none; fill-opacity:1" cx="1419.12" cy="1121.65" r="14"/>
<circle clip-path="url(#clip0202)" style="fill:#000000; stroke:none; fill-opacity:1" cx="1427.54" cy="1163.74" r="18"/>
<circle clip-path="url(#clip0202)" style="fill:#009af9; stroke:none; fill-opacity:1" cx="1427.54" cy="1163.74" r="14"/>
<circle clip-path="url(#clip0202)" style="fill:#000000; stroke:none; fill-opacity:1" cx="1435.74" cy="1227.46" r="18"/>
<circle clip-path="url(#clip0202)" style="fill:#009af9; stroke:none; fill-opacity:1" cx="1435.74" cy="1227.46" r="14"/>
<circle clip-path="url(#clip0202)" style="fill:#000000; stroke:none; fill-opacity:1" cx="1443.72" cy="1177.27" r="18"/>
<circle clip-path="url(#clip0202)" style="fill:#009af9; stroke:none; fill-opacity:1" cx="1443.72" cy="1177.27" r="14"/>
<circle clip-path="url(#clip0202)" style="fill:#000000; stroke:none; fill-opacity:1" cx="1451.5" cy="1243.04" r="18"/>
<circle clip-path="url(#clip0202)" style="fill:#009af9; stroke:none; fill-opacity:1" cx="1451.5" cy="1243.04" r="14"/>
<circle clip-path="url(#clip0202)" style="fill:#000000; stroke:none; fill-opacity:1" cx="1459.09" cy="1123.47" r="18"/>
<circle clip-path="url(#clip0202)" style="fill:#009af9; stroke:none; fill-opacity:1" cx="1459.09" cy="1123.47" r="14"/>
<circle clip-path="url(#clip0202)" style="fill:#000000; stroke:none; fill-opacity:1" cx="1466.5" cy="1234.86" r="18"/>
<circle clip-path="url(#clip0202)" style="fill:#009af9; stroke:none; fill-opacity:1" cx="1466.5" cy="1234.86" r="14"/>
<circle clip-path="url(#clip0202)" style="fill:#000000; stroke:none; fill-opacity:1" cx="1473.74" cy="1170.21" r="18"/>
<circle clip-path="url(#clip0202)" style="fill:#009af9; stroke:none; fill-opacity:1" cx="1473.74" cy="1170.21" r="14"/>
<circle clip-path="url(#clip0202)" style="fill:#000000; stroke:none; fill-opacity:1" cx="1480.8" cy="1220.71" r="18"/>
<circle clip-path="url(#clip0202)" style="fill:#009af9; stroke:none; fill-opacity:1" cx="1480.8" cy="1220.71" r="14"/>
<circle clip-path="url(#clip0202)" style="fill:#000000; stroke:none; fill-opacity:1" cx="1487.71" cy="1099.77" r="18"/>
<circle clip-path="url(#clip0202)" style="fill:#009af9; stroke:none; fill-opacity:1" cx="1487.71" cy="1099.77" r="14"/>
<circle clip-path="url(#clip0202)" style="fill:#000000; stroke:none; fill-opacity:1" cx="1494.47" cy="1359.78" r="18"/>
<circle clip-path="url(#clip0202)" style="fill:#009af9; stroke:none; fill-opacity:1" cx="1494.47" cy="1359.78" r="14"/>
<circle clip-path="url(#clip0202)" style="fill:#000000; stroke:none; fill-opacity:1" cx="1501.08" cy="1142.19" r="18"/>
<circle clip-path="url(#clip0202)" style="fill:#009af9; stroke:none; fill-opacity:1" cx="1501.08" cy="1142.19" r="14"/>
<circle clip-path="url(#clip0202)" style="fill:#000000; stroke:none; fill-opacity:1" cx="1507.55" cy="1214.5" r="18"/>
<circle clip-path="url(#clip0202)" style="fill:#009af9; stroke:none; fill-opacity:1" cx="1507.55" cy="1214.5" r="14"/>
<circle clip-path="url(#clip0202)" style="fill:#000000; stroke:none; fill-opacity:1" cx="1513.89" cy="1166.91" r="18"/>
<circle clip-path="url(#clip0202)" style="fill:#009af9; stroke:none; fill-opacity:1" cx="1513.89" cy="1166.91" r="14"/>
<circle clip-path="url(#clip0202)" style="fill:#000000; stroke:none; fill-opacity:1" cx="1520.1" cy="1252.18" r="18"/>
<circle clip-path="url(#clip0202)" style="fill:#009af9; stroke:none; fill-opacity:1" cx="1520.1" cy="1252.18" r="14"/>
<circle clip-path="url(#clip0202)" style="fill:#000000; stroke:none; fill-opacity:1" cx="1526.19" cy="1208.74" r="18"/>
<circle clip-path="url(#clip0202)" style="fill:#009af9; stroke:none; fill-opacity:1" cx="1526.19" cy="1208.74" r="14"/>
<circle clip-path="url(#clip0202)" style="fill:#000000; stroke:none; fill-opacity:1" cx="1532.15" cy="1208.74" r="18"/>
<circle clip-path="url(#clip0202)" style="fill:#009af9; stroke:none; fill-opacity:1" cx="1532.15" cy="1208.74" r="14"/>
<circle clip-path="url(#clip0202)" style="fill:#000000; stroke:none; fill-opacity:1" cx="1538.01" cy="1166.91" r="18"/>
<circle clip-path="url(#clip0202)" style="fill:#009af9; stroke:none; fill-opacity:1" cx="1538.01" cy="1166.91" r="14"/>
<circle clip-path="url(#clip0202)" style="fill:#000000; stroke:none; fill-opacity:1" cx="1543.76" cy="1220.71" r="18"/>
<circle clip-path="url(#clip0202)" style="fill:#009af9; stroke:none; fill-opacity:1" cx="1543.76" cy="1220.71" r="14"/>
<circle clip-path="url(#clip0202)" style="fill:#000000; stroke:none; fill-opacity:1" cx="1549.4" cy="1189.24" r="18"/>
<circle clip-path="url(#clip0202)" style="fill:#009af9; stroke:none; fill-opacity:1" cx="1549.4" cy="1189.24" r="14"/>
<circle clip-path="url(#clip0202)" style="fill:#000000; stroke:none; fill-opacity:1" cx="1554.94" cy="1189.24" r="18"/>
<circle clip-path="url(#clip0202)" style="fill:#009af9; stroke:none; fill-opacity:1" cx="1554.94" cy="1189.24" r="14"/>
<circle clip-path="url(#clip0202)" style="fill:#000000; stroke:none; fill-opacity:1" cx="1560.38" cy="1170.21" r="18"/>
<circle clip-path="url(#clip0202)" style="fill:#009af9; stroke:none; fill-opacity:1" cx="1560.38" cy="1170.21" r="14"/>
<circle clip-path="url(#clip0202)" style="fill:#000000; stroke:none; fill-opacity:1" cx="1565.72" cy="1243.04" r="18"/>
<circle clip-path="url(#clip0202)" style="fill:#009af9; stroke:none; fill-opacity:1" cx="1565.72" cy="1243.04" r="14"/>
<circle clip-path="url(#clip0202)" style="fill:#000000; stroke:none; fill-opacity:1" cx="1570.98" cy="1413.58" r="18"/>
<circle clip-path="url(#clip0202)" style="fill:#009af9; stroke:none; fill-opacity:1" cx="1570.98" cy="1413.58" r="14"/>
<circle clip-path="url(#clip0202)" style="fill:#000000; stroke:none; fill-opacity:1" cx="1576.14" cy="1288.66" r="18"/>
<circle clip-path="url(#clip0202)" style="fill:#009af9; stroke:none; fill-opacity:1" cx="1576.14" cy="1288.66" r="14"/>
<circle clip-path="url(#clip0202)" style="fill:#000000; stroke:none; fill-opacity:1" cx="1581.22" cy="1160.7" r="18"/>
<circle clip-path="url(#clip0202)" style="fill:#009af9; stroke:none; fill-opacity:1" cx="1581.22" cy="1160.7" r="14"/>
<circle clip-path="url(#clip0202)" style="fill:#000000; stroke:none; fill-opacity:1" cx="1586.22" cy="1243.04" r="18"/>
<circle clip-path="url(#clip0202)" style="fill:#009af9; stroke:none; fill-opacity:1" cx="1586.22" cy="1243.04" r="14"/>
<circle clip-path="url(#clip0202)" style="fill:#000000; stroke:none; fill-opacity:1" cx="1591.14" cy="1214.5" r="18"/>
<circle clip-path="url(#clip0202)" style="fill:#009af9; stroke:none; fill-opacity:1" cx="1591.14" cy="1214.5" r="14"/>
<circle clip-path="url(#clip0202)" style="fill:#000000; stroke:none; fill-opacity:1" cx="1595.98" cy="1152.22" r="18"/>
<circle clip-path="url(#clip0202)" style="fill:#009af9; stroke:none; fill-opacity:1" cx="1595.98" cy="1152.22" r="14"/>
<circle clip-path="url(#clip0202)" style="fill:#000000; stroke:none; fill-opacity:1" cx="1600.75" cy="1359.78" r="18"/>
<circle clip-path="url(#clip0202)" style="fill:#009af9; stroke:none; fill-opacity:1" cx="1600.75" cy="1359.78" r="14"/>
<circle clip-path="url(#clip0202)" style="fill:#000000; stroke:none; fill-opacity:1" cx="1605.44" cy="1328.31" r="18"/>
<circle clip-path="url(#clip0202)" style="fill:#009af9; stroke:none; fill-opacity:1" cx="1605.44" cy="1328.31" r="14"/>
<circle clip-path="url(#clip0202)" style="fill:#000000; stroke:none; fill-opacity:1" cx="1610.06" cy="1274.51" r="18"/>
<circle clip-path="url(#clip0202)" style="fill:#009af9; stroke:none; fill-opacity:1" cx="1610.06" cy="1274.51" r="14"/>
<circle clip-path="url(#clip0202)" style="fill:#000000; stroke:none; fill-opacity:1" cx="1614.62" cy="1262.55" r="18"/>
<circle clip-path="url(#clip0202)" style="fill:#009af9; stroke:none; fill-opacity:1" cx="1614.62" cy="1262.55" r="14"/>
<circle clip-path="url(#clip0202)" style="fill:#000000; stroke:none; fill-opacity:1" cx="1619.11" cy="1359.78" r="18"/>
<circle clip-path="url(#clip0202)" style="fill:#009af9; stroke:none; fill-opacity:1" cx="1619.11" cy="1359.78" r="14"/>
<circle clip-path="url(#clip0202)" style="fill:#000000; stroke:none; fill-opacity:1" cx="1623.53" cy="1328.31" r="18"/>
<circle clip-path="url(#clip0202)" style="fill:#009af9; stroke:none; fill-opacity:1" cx="1623.53" cy="1328.31" r="14"/>
<circle clip-path="url(#clip0202)" style="fill:#000000; stroke:none; fill-opacity:1" cx="1627.89" cy="1288.66" r="18"/>
<circle clip-path="url(#clip0202)" style="fill:#009af9; stroke:none; fill-opacity:1" cx="1627.89" cy="1288.66" r="14"/>
<circle clip-path="url(#clip0202)" style="fill:#000000; stroke:none; fill-opacity:1" cx="1632.19" cy="1413.58" r="18"/>
<circle clip-path="url(#clip0202)" style="fill:#009af9; stroke:none; fill-opacity:1" cx="1632.19" cy="1413.58" r="14"/>
<circle clip-path="url(#clip0202)" style="fill:#000000; stroke:none; fill-opacity:1" cx="1636.43" cy="1305.98" r="18"/>
<circle clip-path="url(#clip0202)" style="fill:#009af9; stroke:none; fill-opacity:1" cx="1636.43" cy="1305.98" r="14"/>
<circle clip-path="url(#clip0202)" style="fill:#000000; stroke:none; fill-opacity:1" cx="1652.83" cy="1305.98" r="18"/>
<circle clip-path="url(#clip0202)" style="fill:#009af9; stroke:none; fill-opacity:1" cx="1652.83" cy="1305.98" r="14"/>
<circle clip-path="url(#clip0202)" style="fill:#000000; stroke:none; fill-opacity:1" cx="1656.79" cy="1170.21" r="18"/>
<circle clip-path="url(#clip0202)" style="fill:#009af9; stroke:none; fill-opacity:1" cx="1656.79" cy="1170.21" r="14"/>
<circle clip-path="url(#clip0202)" style="fill:#000000; stroke:none; fill-opacity:1" cx="1660.71" cy="1234.86" r="18"/>
<circle clip-path="url(#clip0202)" style="fill:#009af9; stroke:none; fill-opacity:1" cx="1660.71" cy="1234.86" r="14"/>
<circle clip-path="url(#clip0202)" style="fill:#000000; stroke:none; fill-opacity:1" cx="1664.58" cy="1214.5" r="18"/>
<circle clip-path="url(#clip0202)" style="fill:#009af9; stroke:none; fill-opacity:1" cx="1664.58" cy="1214.5" r="14"/>
<circle clip-path="url(#clip0202)" style="fill:#000000; stroke:none; fill-opacity:1" cx="1668.4" cy="1193.67" r="18"/>
<circle clip-path="url(#clip0202)" style="fill:#009af9; stroke:none; fill-opacity:1" cx="1668.4" cy="1193.67" r="14"/>
<circle clip-path="url(#clip0202)" style="fill:#000000; stroke:none; fill-opacity:1" cx="1672.17" cy="1163.74" r="18"/>
<circle clip-path="url(#clip0202)" style="fill:#009af9; stroke:none; fill-opacity:1" cx="1672.17" cy="1163.74" r="14"/>
<circle clip-path="url(#clip0202)" style="fill:#000000; stroke:none; fill-opacity:1" cx="1675.89" cy="1288.66" r="18"/>
<circle clip-path="url(#clip0202)" style="fill:#009af9; stroke:none; fill-opacity:1" cx="1675.89" cy="1288.66" r="14"/>
<circle clip-path="url(#clip0202)" style="fill:#000000; stroke:none; fill-opacity:1" cx="1679.58" cy="1198.38" r="18"/>
<circle clip-path="url(#clip0202)" style="fill:#009af9; stroke:none; fill-opacity:1" cx="1679.58" cy="1198.38" r="14"/>
<circle clip-path="url(#clip0202)" style="fill:#000000; stroke:none; fill-opacity:1" cx="1683.21" cy="1227.46" r="18"/>
<circle clip-path="url(#clip0202)" style="fill:#009af9; stroke:none; fill-opacity:1" cx="1683.21" cy="1227.46" r="14"/>
<circle clip-path="url(#clip0202)" style="fill:#000000; stroke:none; fill-opacity:1" cx="1686.81" cy="1328.31" r="18"/>
<circle clip-path="url(#clip0202)" style="fill:#009af9; stroke:none; fill-opacity:1" cx="1686.81" cy="1328.31" r="14"/>
<circle clip-path="url(#clip0202)" style="fill:#000000; stroke:none; fill-opacity:1" cx="1690.36" cy="1413.58" r="18"/>
<circle clip-path="url(#clip0202)" style="fill:#009af9; stroke:none; fill-opacity:1" cx="1690.36" cy="1413.58" r="14"/>
<circle clip-path="url(#clip0202)" style="fill:#000000; stroke:none; fill-opacity:1" cx="1697.35" cy="1413.58" r="18"/>
<circle clip-path="url(#clip0202)" style="fill:#009af9; stroke:none; fill-opacity:1" cx="1697.35" cy="1413.58" r="14"/>
<circle clip-path="url(#clip0202)" style="fill:#000000; stroke:none; fill-opacity:1" cx="1700.78" cy="1413.58" r="18"/>
<circle clip-path="url(#clip0202)" style="fill:#009af9; stroke:none; fill-opacity:1" cx="1700.78" cy="1413.58" r="14"/>
<circle clip-path="url(#clip0202)" style="fill:#000000; stroke:none; fill-opacity:1" cx="1704.18" cy="1359.78" r="18"/>
<circle clip-path="url(#clip0202)" style="fill:#009af9; stroke:none; fill-opacity:1" cx="1704.18" cy="1359.78" r="14"/>
<circle clip-path="url(#clip0202)" style="fill:#000000; stroke:none; fill-opacity:1" cx="1723.81" cy="1359.78" r="18"/>
<circle clip-path="url(#clip0202)" style="fill:#009af9; stroke:none; fill-opacity:1" cx="1723.81" cy="1359.78" r="14"/>
<circle clip-path="url(#clip0202)" style="fill:#000000; stroke:none; fill-opacity:1" cx="1733.17" cy="1274.51" r="18"/>
<circle clip-path="url(#clip0202)" style="fill:#009af9; stroke:none; fill-opacity:1" cx="1733.17" cy="1274.51" r="14"/>
<circle clip-path="url(#clip0202)" style="fill:#000000; stroke:none; fill-opacity:1" cx="1736.23" cy="1198.38" r="18"/>
<circle clip-path="url(#clip0202)" style="fill:#009af9; stroke:none; fill-opacity:1" cx="1736.23" cy="1198.38" r="14"/>
<circle clip-path="url(#clip0202)" style="fill:#000000; stroke:none; fill-opacity:1" cx="1745.23" cy="1413.58" r="18"/>
<circle clip-path="url(#clip0202)" style="fill:#009af9; stroke:none; fill-opacity:1" cx="1745.23" cy="1413.58" r="14"/>
<circle clip-path="url(#clip0202)" style="fill:#000000; stroke:none; fill-opacity:1" cx="1756.83" cy="1413.58" r="18"/>
<circle clip-path="url(#clip0202)" style="fill:#009af9; stroke:none; fill-opacity:1" cx="1756.83" cy="1413.58" r="14"/>
<circle clip-path="url(#clip0202)" style="fill:#000000; stroke:none; fill-opacity:1" cx="1759.66" cy="1359.78" r="18"/>
<circle clip-path="url(#clip0202)" style="fill:#009af9; stroke:none; fill-opacity:1" cx="1759.66" cy="1359.78" r="14"/>
<circle clip-path="url(#clip0202)" style="fill:#000000; stroke:none; fill-opacity:1" cx="1853.69" cy="1413.58" r="18"/>
<circle clip-path="url(#clip0202)" style="fill:#009af9; stroke:none; fill-opacity:1" cx="1853.69" cy="1413.58" r="14"/>
<circle clip-path="url(#clip0202)" style="fill:#000000; stroke:none; fill-opacity:1" cx="1857.81" cy="1359.78" r="18"/>
<circle clip-path="url(#clip0202)" style="fill:#009af9; stroke:none; fill-opacity:1" cx="1857.81" cy="1359.78" r="14"/>
<circle clip-path="url(#clip0202)" style="fill:#000000; stroke:none; fill-opacity:1" cx="1875.72" cy="1413.58" r="18"/>
<circle clip-path="url(#clip0202)" style="fill:#009af9; stroke:none; fill-opacity:1" cx="1875.72" cy="1413.58" r="14"/>
<circle clip-path="url(#clip0202)" style="fill:#000000; stroke:none; fill-opacity:1" cx="1888.97" cy="1413.58" r="18"/>
<circle clip-path="url(#clip0202)" style="fill:#009af9; stroke:none; fill-opacity:1" cx="1888.97" cy="1413.58" r="14"/>
<circle clip-path="url(#clip0202)" style="fill:#000000; stroke:none; fill-opacity:1" cx="1890.81" cy="1413.58" r="18"/>
<circle clip-path="url(#clip0202)" style="fill:#009af9; stroke:none; fill-opacity:1" cx="1890.81" cy="1413.58" r="14"/>
<circle clip-path="url(#clip0202)" style="fill:#000000; stroke:none; fill-opacity:1" cx="2109.36" cy="1413.58" r="18"/>
<circle clip-path="url(#clip0202)" style="fill:#009af9; stroke:none; fill-opacity:1" cx="2109.36" cy="1413.58" r="14"/>
<circle clip-path="url(#clip0202)" style="fill:#000000; stroke:none; fill-opacity:1" cx="2214.72" cy="1413.58" r="18"/>
<circle clip-path="url(#clip0202)" style="fill:#009af9; stroke:none; fill-opacity:1" cx="2214.72" cy="1413.58" r="14"/>
<polyline clip-path="url(#clip0202)" style="stroke:#e26f46; stroke-width:4; stroke-opacity:1; fill:none" points="
  317.542,348.932 336.705,362.121 355.869,375.309 375.032,388.497 394.196,401.686 413.359,414.874 432.522,428.062 451.686,441.251 470.849,454.439 490.013,467.627 
  509.176,480.816 528.34,494.004 547.503,507.193 566.667,520.381 585.83,533.569 604.993,546.758 624.157,559.946 643.32,573.134 662.484,586.323 681.647,599.511 
  700.811,612.699 719.974,625.888 739.138,639.076 758.301,652.264 777.464,665.453 796.628,678.641 815.791,691.829 834.955,705.018 854.118,718.206 873.282,731.394 
  892.445,744.583 911.609,757.771 930.772,770.959 949.936,784.148 969.099,797.336 988.262,810.524 1007.43,823.713 1026.59,836.901 1045.75,850.089 1064.92,863.278 
  1084.08,876.466 1103.24,889.654 1122.41,902.843 1141.57,916.031 1160.73,929.219 1179.9,942.408 1199.06,955.596 1218.22,968.784 1237.39,981.973 1256.55,995.161 
  1275.71,1008.35 1294.88,1021.54 1314.04,1034.73 1333.2,1047.91 1352.37,1061.1 1371.53,1074.29 1390.69,1087.48 1409.86,1100.67 1429.02,1113.86 1448.19,1127.04 
  1467.35,1140.23 1486.51,1153.42 1505.68,1166.61 1524.84,1179.8 1544,1192.99 1563.17,1206.17 1582.33,1219.36 1601.49,1232.55 1620.66,1245.74 1639.82,1258.93 
  1658.98,1272.12 1678.15,1285.3 1697.31,1298.49 1716.47,1311.68 1735.64,1324.87 1754.8,1338.06 1773.96,1351.25 1793.13,1364.43 1812.29,1377.62 1831.45,1390.81 
  1850.62,1404 1869.78,1417.19 1888.94,1430.38 1908.11,1443.56 1927.27,1456.75 1946.43,1469.94 1965.6,1483.13 1984.76,1496.32 2003.93,1509.51 2023.09,1522.69 
  2042.25,1535.88 2061.42,1549.07 2080.58,1562.26 2099.74,1575.45 2118.91,1588.64 2138.07,1601.82 2157.23,1615.01 2176.4,1628.2 2195.56,1641.39 2214.72,1654.58 
  
  "/>
<g clip-path="url(#clip0200)">
<text style="fill:#000000; fill-opacity:1; font-family:Arial,Helvetica Neue,Helvetica,sans-serif; font-size:59px; text-anchor:start;" transform="rotate(0, 317.542, 1381.28)" x="317.542" y="1381.28">r = -0.93</text>
</g>
</svg>
