<?xml version="1.0" encoding="utf-8"?>
<svg xmlns="http://www.w3.org/2000/svg" xmlns:xlink="http://www.w3.org/1999/xlink" width="600" height="400" viewBox="0 0 2400 1600">
<defs>
  <clipPath id="clip7500">
    <rect x="0" y="0" width="2400" height="1600"/>
  </clipPath>
</defs>
<polygon clip-path="url(#clip7500)" points="
0,1600 2400,1600 2400,0 0,0 
  " fill="#ffffff" fill-rule="evenodd" fill-opacity="1"/>
<defs>
  <clipPath id="clip7501">
    <rect x="480" y="0" width="1681" height="1600"/>
  </clipPath>
</defs>
<polygon clip-path="url(#clip7500)" points="
211.005,1440.48 2321.26,1440.48 2321.26,125.984 211.005,125.984 
  " fill="#ffffff" fill-rule="evenodd" fill-opacity="1"/>
<defs>
  <clipPath id="clip7502">
    <rect x="211" y="125" width="2111" height="1315"/>
  </clipPath>
</defs>
<polyline clip-path="url(#clip7502)" style="stroke:#000000; stroke-width:2; stroke-opacity:0.1; fill:none" points="
  211.005,1440.48 211.005,125.984 
  "/>
<polyline clip-path="url(#clip7502)" style="stroke:#000000; stroke-width:2; stroke-opacity:0.1; fill:none" points="
  619.184,1440.48 619.184,125.984 
  "/>
<polyline clip-path="url(#clip7502)" style="stroke:#000000; stroke-width:2; stroke-opacity:0.1; fill:none" points="
  1027.36,1440.48 1027.36,125.984 
  "/>
<polyline clip-path="url(#clip7502)" style="stroke:#000000; stroke-width:2; stroke-opacity:0.1; fill:none" points="
  1435.54,1440.48 1435.54,125.984 
  "/>
<polyline clip-path="url(#clip7502)" style="stroke:#000000; stroke-width:2; stroke-opacity:0.1; fill:none" points="
  1843.72,1440.48 1843.72,125.984 
  "/>
<polyline clip-path="url(#clip7502)" style="stroke:#000000; stroke-width:2; stroke-opacity:0.1; fill:none" points="
  2251.9,1440.48 2251.9,125.984 
  "/>
<polyline clip-path="url(#clip7502)" style="stroke:#000000; stroke-width:2; stroke-opacity:0.1; fill:none" points="
  211.005,1390.44 2321.26,1390.44 
  "/>
<polyline clip-path="url(#clip7502)" style="stroke:#000000; stroke-width:2; stroke-opacity:0.1; fill:none" points="
  211.005,1190.27 2321.26,1190.27 
  "/>
<polyline clip-path="url(#clip7502)" style="stroke:#000000; stroke-width:2; stroke-opacity:0.1; fill:none" points="
  211.005,990.099 2321.26,990.099 
  "/>
<polyline clip-path="url(#clip7502)" style="stroke:#000000; stroke-width:2; stroke-opacity:0.1; fill:none" points="
  211.005,789.928 2321.26,789.928 
  "/>
<polyline clip-path="url(#clip7502)" style="stroke:#000000; stroke-width:2; stroke-opacity:0.1; fill:none" points="
  211.005,589.758 2321.26,589.758 
  "/>
<polyline clip-path="url(#clip7502)" style="stroke:#000000; stroke-width:2; stroke-opacity:0.1; fill:none" points="
  211.005,389.587 2321.26,389.587 
  "/>
<polyline clip-path="url(#clip7502)" style="stroke:#000000; stroke-width:2; stroke-opacity:0.1; fill:none" points="
  211.005,189.417 2321.26,189.417 
  "/>
<polyline clip-path="url(#clip7500)" style="stroke:#000000; stroke-width:4; stroke-opacity:1; fill:none" points="
  211.005,1440.48 2321.26,1440.48 
  "/>
<polyline clip-path="url(#clip7500)" style="stroke:#000000; stroke-width:4; stroke-opacity:1; fill:none" points="
  211.005,1440.48 211.005,125.984 
  "/>
<polyline clip-path="url(#clip7500)" style="stroke:#000000; stroke-width:4; stroke-opacity:1; fill:none" points="
  211.005,1440.48 211.005,1420.77 
  "/>
<polyline clip-path="url(#clip7500)" style="stroke:#000000; stroke-width:4; stroke-opacity:1; fill:none" points="
  619.184,1440.48 619.184,1420.77 
  "/>
<polyline clip-path="url(#clip7500)" style="stroke:#000000; stroke-width:4; stroke-opacity:1; fill:none" points="
  1027.36,1440.48 1027.36,1420.77 
  "/>
<polyline clip-path="url(#clip7500)" style="stroke:#000000; stroke-width:4; stroke-opacity:1; fill:none" points="
  1435.54,1440.48 1435.54,1420.77 
  "/>
<polyline clip-path="url(#clip7500)" style="stroke:#000000; stroke-width:4; stroke-opacity:1; fill:none" points="
  1843.72,1440.48 1843.72,1420.77 
  "/>
<polyline clip-path="url(#clip7500)" style="stroke:#000000; stroke-width:4; stroke-opacity:1; fill:none" points="
  2251.9,1440.48 2251.9,1420.77 
  "/>
<polyline clip-path="url(#clip7500)" style="stroke:#000000; stroke-width:4; stroke-opacity:1; fill:none" points="
  211.005,1390.44 242.659,1390.44 
  "/>
<polyline clip-path="url(#clip7500)" style="stroke:#000000; stroke-width:4; stroke-opacity:1; fill:none" points="
  211.005,1190.27 242.659,1190.27 
  "/>
<polyline clip-path="url(#clip7500)" style="stroke:#000000; stroke-width:4; stroke-opacity:1; fill:none" points="
  211.005,990.099 242.659,990.099 
  "/>
<polyline clip-path="url(#clip7500)" style="stroke:#000000; stroke-width:4; stroke-opacity:1; fill:none" points="
  211.005,789.928 242.659,789.928 
  "/>
<polyline clip-path="url(#clip7500)" style="stroke:#000000; stroke-width:4; stroke-opacity:1; fill:none" points="
  211.005,589.758 242.659,589.758 
  "/>
<polyline clip-path="url(#clip7500)" style="stroke:#000000; stroke-width:4; stroke-opacity:1; fill:none" points="
  211.005,389.587 242.659,389.587 
  "/>
<polyline clip-path="url(#clip7500)" style="stroke:#000000; stroke-width:4; stroke-opacity:1; fill:none" points="
  211.005,189.417 242.659,189.417 
  "/>
<g clip-path="url(#clip7500)">
<text style="fill:#000000; fill-opacity:1; font-family:Arial,Helvetica Neue,Helvetica,sans-serif; font-size:48px; text-anchor:middle;" transform="rotate(0, 211.005, 1494.48)" x="211.005" y="1494.48">-0.5</text>
</g>
<g clip-path="url(#clip7500)">
<text style="fill:#000000; fill-opacity:1; font-family:Arial,Helvetica Neue,Helvetica,sans-serif; font-size:48px; text-anchor:middle;" transform="rotate(0, 619.184, 1494.48)" x="619.184" y="1494.48">0.0</text>
</g>
<g clip-path="url(#clip7500)">
<text style="fill:#000000; fill-opacity:1; font-family:Arial,Helvetica Neue,Helvetica,sans-serif; font-size:48px; text-anchor:middle;" transform="rotate(0, 1027.36, 1494.48)" x="1027.36" y="1494.48">0.5</text>
</g>
<g clip-path="url(#clip7500)">
<text style="fill:#000000; fill-opacity:1; font-family:Arial,Helvetica Neue,Helvetica,sans-serif; font-size:48px; text-anchor:middle;" transform="rotate(0, 1435.54, 1494.48)" x="1435.54" y="1494.48">1.0</text>
</g>
<g clip-path="url(#clip7500)">
<text style="fill:#000000; fill-opacity:1; font-family:Arial,Helvetica Neue,Helvetica,sans-serif; font-size:48px; text-anchor:middle;" transform="rotate(0, 1843.72, 1494.48)" x="1843.72" y="1494.48">1.5</text>
</g>
<g clip-path="url(#clip7500)">
<text style="fill:#000000; fill-opacity:1; font-family:Arial,Helvetica Neue,Helvetica,sans-serif; font-size:48px; text-anchor:middle;" transform="rotate(0, 2251.9, 1494.48)" x="2251.9" y="1494.48">2.0</text>
</g>
<g clip-path="url(#clip7500)">
<text style="fill:#000000; fill-opacity:1; font-family:Arial,Helvetica Neue,Helvetica,sans-serif; font-size:48px; text-anchor:end;" transform="rotate(0, 187.005, 1407.94)" x="187.005" y="1407.94">0</text>
</g>
<g clip-path="url(#clip7500)">
<text style="fill:#000000; fill-opacity:1; font-family:Arial,Helvetica Neue,Helvetica,sans-serif; font-size:48px; text-anchor:end;" transform="rotate(0, 187.005, 1207.77)" x="187.005" y="1207.77">2</text>
</g>
<g clip-path="url(#clip7500)">
<text style="fill:#000000; fill-opacity:1; font-family:Arial,Helvetica Neue,Helvetica,sans-serif; font-size:48px; text-anchor:end;" transform="rotate(0, 187.005, 1007.6)" x="187.005" y="1007.6">4</text>
</g>
<g clip-path="url(#clip7500)">
<text style="fill:#000000; fill-opacity:1; font-family:Arial,Helvetica Neue,Helvetica,sans-serif; font-size:48px; text-anchor:end;" transform="rotate(0, 187.005, 807.428)" x="187.005" y="807.428">6</text>
</g>
<g clip-path="url(#clip7500)">
<text style="fill:#000000; fill-opacity:1; font-family:Arial,Helvetica Neue,Helvetica,sans-serif; font-size:48px; text-anchor:end;" transform="rotate(0, 187.005, 607.258)" x="187.005" y="607.258">8</text>
</g>
<g clip-path="url(#clip7500)">
<text style="fill:#000000; fill-opacity:1; font-family:Arial,Helvetica Neue,Helvetica,sans-serif; font-size:48px; text-anchor:end;" transform="rotate(0, 187.005, 407.087)" x="187.005" y="407.087">10</text>
</g>
<g clip-path="url(#clip7500)">
<text style="fill:#000000; fill-opacity:1; font-family:Arial,Helvetica Neue,Helvetica,sans-serif; font-size:48px; text-anchor:end;" transform="rotate(0, 187.005, 206.917)" x="187.005" y="206.917">12</text>
</g>
<g clip-path="url(#clip7500)">
<text style="fill:#000000; fill-opacity:1; font-family:Arial,Helvetica Neue,Helvetica,sans-serif; font-size:66px; text-anchor:middle;" transform="rotate(0, 1266.13, 57.6)" x="1266.13" y="57.6">GCF_000849665.1_ViralProj14593_genomic.fna.K11.counts.histogram</text>
</g>
<g clip-path="url(#clip7500)">
<text style="fill:#000000; fill-opacity:1; font-family:Arial,Helvetica Neue,Helvetica,sans-serif; font-size:66px; text-anchor:middle;" transform="rotate(0, 1266.13, 1590.4)" x="1266.13" y="1590.4">log2(depth of coverage)</text>
</g>
<g clip-path="url(#clip7500)">
<text style="fill:#000000; fill-opacity:1; font-family:Arial,Helvetica Neue,Helvetica,sans-serif; font-size:66px; text-anchor:middle;" transform="rotate(-90, 57.6, 783.233)" x="57.6" y="783.233">log2(# kmers)</text>
</g>
<circle clip-path="url(#clip7502)" style="fill:#000000; stroke:none; fill-opacity:1" cx="619.184" cy="176.027" r="18"/>
<circle clip-path="url(#clip7502)" style="fill:#009af9; stroke:none; fill-opacity:1" cx="619.184" cy="176.027" r="14"/>
<circle clip-path="url(#clip7502)" style="fill:#000000; stroke:none; fill-opacity:1" cx="1435.54" cy="909.295" r="18"/>
<circle clip-path="url(#clip7502)" style="fill:#009af9; stroke:none; fill-opacity:1" cx="1435.54" cy="909.295" r="14"/>
<circle clip-path="url(#clip7502)" style="fill:#000000; stroke:none; fill-opacity:1" cx="1913.08" cy="1390.44" r="18"/>
<circle clip-path="url(#clip7502)" style="fill:#009af9; stroke:none; fill-opacity:1" cx="1913.08" cy="1390.44" r="14"/>
<polyline clip-path="url(#clip7502)" style="stroke:#e26f46; stroke-width:4; stroke-opacity:1; fill:none" points="
  619.184,168.103 632.254,180.313 645.323,192.523 658.393,204.733 671.463,216.943 684.532,229.153 697.602,241.363 710.672,253.573 723.741,265.783 736.811,277.993 
  749.881,290.203 762.95,302.413 776.02,314.623 789.09,326.833 802.159,339.043 815.229,351.253 828.299,363.463 841.368,375.673 854.438,387.883 867.508,400.093 
  880.577,412.303 893.647,424.513 906.717,436.723 919.786,448.933 932.856,461.143 945.926,473.353 958.995,485.563 972.065,497.773 985.135,509.983 998.204,522.193 
  1011.27,534.403 1024.34,546.613 1037.41,558.823 1050.48,571.033 1063.55,583.243 1076.62,595.453 1089.69,607.663 1102.76,619.873 1115.83,632.083 1128.9,644.293 
  1141.97,656.503 1155.04,668.713 1168.11,680.923 1181.18,693.133 1194.25,705.343 1207.32,717.553 1220.39,729.763 1233.46,741.973 1246.53,754.183 1259.6,766.393 
  1272.67,778.603 1285.74,790.813 1298.81,803.023 1311.88,815.233 1324.95,827.443 1338.02,839.653 1351.09,851.863 1364.15,864.073 1377.22,876.283 1390.29,888.493 
  1403.36,900.703 1416.43,912.913 1429.5,925.123 1442.57,937.333 1455.64,949.543 1468.71,961.753 1481.78,973.963 1494.85,986.173 1507.92,998.383 1520.99,1010.59 
  1534.06,1022.8 1547.13,1035.01 1560.2,1047.22 1573.27,1059.43 1586.34,1071.64 1599.41,1083.85 1612.48,1096.06 1625.55,1108.27 1638.62,1120.48 1651.69,1132.69 
  1664.76,1144.9 1677.83,1157.11 1690.9,1169.32 1703.97,1181.53 1717.04,1193.74 1730.11,1205.95 1743.18,1218.16 1756.24,1230.37 1769.31,1242.58 1782.38,1254.79 
  1795.45,1267 1808.52,1279.21 1821.59,1291.42 1834.66,1303.63 1847.73,1315.84 1860.8,1328.05 1873.87,1340.26 1886.94,1352.47 1900.01,1364.68 1913.08,1376.89 
  
  "/>
<g clip-path="url(#clip7500)">
<text style="fill:#000000; fill-opacity:1; font-family:Arial,Helvetica Neue,Helvetica,sans-serif; font-size:59px; text-anchor:start;" transform="rotate(0, 619.184, 1311.85)" x="619.184" y="1311.85">r = -1.0</text>
</g>
</svg>
