<?xml version="1.0" encoding="utf-8"?>
<svg xmlns="http://www.w3.org/2000/svg" xmlns:xlink="http://www.w3.org/1999/xlink" width="600" height="400" viewBox="0 0 2400 1600">
<defs>
  <clipPath id="clip9200">
    <rect x="0" y="0" width="2400" height="1600"/>
  </clipPath>
</defs>
<polygon clip-path="url(#clip9200)" points="
0,1600 2400,1600 2400,0 0,0 
  " fill="#ffffff" fill-rule="evenodd" fill-opacity="1"/>
<defs>
  <clipPath id="clip9201">
    <rect x="480" y="0" width="1681" height="1600"/>
  </clipPath>
</defs>
<polygon clip-path="url(#clip9200)" points="
211.005,1440.48 2321.26,1440.48 2321.26,125.984 211.005,125.984 
  " fill="#ffffff" fill-rule="evenodd" fill-opacity="1"/>
<defs>
  <clipPath id="clip9202">
    <rect x="211" y="125" width="2111" height="1315"/>
  </clipPath>
</defs>
<polyline clip-path="url(#clip9202)" style="stroke:#000000; stroke-width:2; stroke-opacity:0.1; fill:none" points="
  211.005,1440.48 211.005,125.984 
  "/>
<polyline clip-path="url(#clip9202)" style="stroke:#000000; stroke-width:2; stroke-opacity:0.1; fill:none" points="
  738.569,1440.48 738.569,125.984 
  "/>
<polyline clip-path="url(#clip9202)" style="stroke:#000000; stroke-width:2; stroke-opacity:0.1; fill:none" points="
  1266.13,1440.48 1266.13,125.984 
  "/>
<polyline clip-path="url(#clip9202)" style="stroke:#000000; stroke-width:2; stroke-opacity:0.1; fill:none" points="
  1793.7,1440.48 1793.7,125.984 
  "/>
<polyline clip-path="url(#clip9202)" style="stroke:#000000; stroke-width:2; stroke-opacity:0.1; fill:none" points="
  2321.26,1440.48 2321.26,125.984 
  "/>
<polyline clip-path="url(#clip9202)" style="stroke:#000000; stroke-width:2; stroke-opacity:0.1; fill:none" points="
  211.005,1392.96 2321.26,1392.96 
  "/>
<polyline clip-path="url(#clip9202)" style="stroke:#000000; stroke-width:2; stroke-opacity:0.1; fill:none" points="
  211.005,1202.86 2321.26,1202.86 
  "/>
<polyline clip-path="url(#clip9202)" style="stroke:#000000; stroke-width:2; stroke-opacity:0.1; fill:none" points="
  211.005,1012.76 2321.26,1012.76 
  "/>
<polyline clip-path="url(#clip9202)" style="stroke:#000000; stroke-width:2; stroke-opacity:0.1; fill:none" points="
  211.005,822.665 2321.26,822.665 
  "/>
<polyline clip-path="url(#clip9202)" style="stroke:#000000; stroke-width:2; stroke-opacity:0.1; fill:none" points="
  211.005,632.568 2321.26,632.568 
  "/>
<polyline clip-path="url(#clip9202)" style="stroke:#000000; stroke-width:2; stroke-opacity:0.1; fill:none" points="
  211.005,442.47 2321.26,442.47 
  "/>
<polyline clip-path="url(#clip9202)" style="stroke:#000000; stroke-width:2; stroke-opacity:0.1; fill:none" points="
  211.005,252.373 2321.26,252.373 
  "/>
<polyline clip-path="url(#clip9200)" style="stroke:#000000; stroke-width:4; stroke-opacity:1; fill:none" points="
  211.005,1440.48 2321.26,1440.48 
  "/>
<polyline clip-path="url(#clip9200)" style="stroke:#000000; stroke-width:4; stroke-opacity:1; fill:none" points="
  211.005,1440.48 211.005,125.984 
  "/>
<polyline clip-path="url(#clip9200)" style="stroke:#000000; stroke-width:4; stroke-opacity:1; fill:none" points="
  211.005,1440.48 211.005,1420.77 
  "/>
<polyline clip-path="url(#clip9200)" style="stroke:#000000; stroke-width:4; stroke-opacity:1; fill:none" points="
  738.569,1440.48 738.569,1420.77 
  "/>
<polyline clip-path="url(#clip9200)" style="stroke:#000000; stroke-width:4; stroke-opacity:1; fill:none" points="
  1266.13,1440.48 1266.13,1420.77 
  "/>
<polyline clip-path="url(#clip9200)" style="stroke:#000000; stroke-width:4; stroke-opacity:1; fill:none" points="
  1793.7,1440.48 1793.7,1420.77 
  "/>
<polyline clip-path="url(#clip9200)" style="stroke:#000000; stroke-width:4; stroke-opacity:1; fill:none" points="
  2321.26,1440.48 2321.26,1420.77 
  "/>
<polyline clip-path="url(#clip9200)" style="stroke:#000000; stroke-width:4; stroke-opacity:1; fill:none" points="
  211.005,1392.96 242.659,1392.96 
  "/>
<polyline clip-path="url(#clip9200)" style="stroke:#000000; stroke-width:4; stroke-opacity:1; fill:none" points="
  211.005,1202.86 242.659,1202.86 
  "/>
<polyline clip-path="url(#clip9200)" style="stroke:#000000; stroke-width:4; stroke-opacity:1; fill:none" points="
  211.005,1012.76 242.659,1012.76 
  "/>
<polyline clip-path="url(#clip9200)" style="stroke:#000000; stroke-width:4; stroke-opacity:1; fill:none" points="
  211.005,822.665 242.659,822.665 
  "/>
<polyline clip-path="url(#clip9200)" style="stroke:#000000; stroke-width:4; stroke-opacity:1; fill:none" points="
  211.005,632.568 242.659,632.568 
  "/>
<polyline clip-path="url(#clip9200)" style="stroke:#000000; stroke-width:4; stroke-opacity:1; fill:none" points="
  211.005,442.47 242.659,442.47 
  "/>
<polyline clip-path="url(#clip9200)" style="stroke:#000000; stroke-width:4; stroke-opacity:1; fill:none" points="
  211.005,252.373 242.659,252.373 
  "/>
<g clip-path="url(#clip9200)">
<text style="fill:#000000; fill-opacity:1; font-family:Arial,Helvetica Neue,Helvetica,sans-serif; font-size:48px; text-anchor:middle;" transform="rotate(0, 211.005, 1494.48)" x="211.005" y="1494.48">-0.5</text>
</g>
<g clip-path="url(#clip9200)">
<text style="fill:#000000; fill-opacity:1; font-family:Arial,Helvetica Neue,Helvetica,sans-serif; font-size:48px; text-anchor:middle;" transform="rotate(0, 738.569, 1494.48)" x="738.569" y="1494.48">0.0</text>
</g>
<g clip-path="url(#clip9200)">
<text style="fill:#000000; fill-opacity:1; font-family:Arial,Helvetica Neue,Helvetica,sans-serif; font-size:48px; text-anchor:middle;" transform="rotate(0, 1266.13, 1494.48)" x="1266.13" y="1494.48">0.5</text>
</g>
<g clip-path="url(#clip9200)">
<text style="fill:#000000; fill-opacity:1; font-family:Arial,Helvetica Neue,Helvetica,sans-serif; font-size:48px; text-anchor:middle;" transform="rotate(0, 1793.7, 1494.48)" x="1793.7" y="1494.48">1.0</text>
</g>
<g clip-path="url(#clip9200)">
<text style="fill:#000000; fill-opacity:1; font-family:Arial,Helvetica Neue,Helvetica,sans-serif; font-size:48px; text-anchor:middle;" transform="rotate(0, 2321.26, 1494.48)" x="2321.26" y="1494.48">1.5</text>
</g>
<g clip-path="url(#clip9200)">
<text style="fill:#000000; fill-opacity:1; font-family:Arial,Helvetica Neue,Helvetica,sans-serif; font-size:48px; text-anchor:end;" transform="rotate(0, 187.005, 1410.46)" x="187.005" y="1410.46">0</text>
</g>
<g clip-path="url(#clip9200)">
<text style="fill:#000000; fill-opacity:1; font-family:Arial,Helvetica Neue,Helvetica,sans-serif; font-size:48px; text-anchor:end;" transform="rotate(0, 187.005, 1220.36)" x="187.005" y="1220.36">2</text>
</g>
<g clip-path="url(#clip9200)">
<text style="fill:#000000; fill-opacity:1; font-family:Arial,Helvetica Neue,Helvetica,sans-serif; font-size:48px; text-anchor:end;" transform="rotate(0, 187.005, 1030.26)" x="187.005" y="1030.26">4</text>
</g>
<g clip-path="url(#clip9200)">
<text style="fill:#000000; fill-opacity:1; font-family:Arial,Helvetica Neue,Helvetica,sans-serif; font-size:48px; text-anchor:end;" transform="rotate(0, 187.005, 840.165)" x="187.005" y="840.165">6</text>
</g>
<g clip-path="url(#clip9200)">
<text style="fill:#000000; fill-opacity:1; font-family:Arial,Helvetica Neue,Helvetica,sans-serif; font-size:48px; text-anchor:end;" transform="rotate(0, 187.005, 650.068)" x="187.005" y="650.068">8</text>
</g>
<g clip-path="url(#clip9200)">
<text style="fill:#000000; fill-opacity:1; font-family:Arial,Helvetica Neue,Helvetica,sans-serif; font-size:48px; text-anchor:end;" transform="rotate(0, 187.005, 459.97)" x="187.005" y="459.97">10</text>
</g>
<g clip-path="url(#clip9200)">
<text style="fill:#000000; fill-opacity:1; font-family:Arial,Helvetica Neue,Helvetica,sans-serif; font-size:48px; text-anchor:end;" transform="rotate(0, 187.005, 269.873)" x="187.005" y="269.873">12</text>
</g>
<g clip-path="url(#clip9200)">
<text style="fill:#000000; fill-opacity:1; font-family:Arial,Helvetica Neue,Helvetica,sans-serif; font-size:66px; text-anchor:middle;" transform="rotate(0, 1266.13, 57.6)" x="1266.13" y="57.6">GCF_000868425.1_ViralProj17577_genomic.fna.K11.counts.histogram</text>
</g>
<g clip-path="url(#clip9200)">
<text style="fill:#000000; fill-opacity:1; font-family:Arial,Helvetica Neue,Helvetica,sans-serif; font-size:66px; text-anchor:middle;" transform="rotate(0, 1266.13, 1590.4)" x="1266.13" y="1590.4">log2(depth of coverage)</text>
</g>
<g clip-path="url(#clip9200)">
<text style="fill:#000000; fill-opacity:1; font-family:Arial,Helvetica Neue,Helvetica,sans-serif; font-size:66px; text-anchor:middle;" transform="rotate(-90, 57.6, 783.233)" x="57.6" y="783.233">log2(# kmers)</text>
</g>
<circle clip-path="url(#clip9202)" style="fill:#000000; stroke:none; fill-opacity:1" cx="738.569" cy="173.509" r="18"/>
<circle clip-path="url(#clip9202)" style="fill:#009af9; stroke:none; fill-opacity:1" cx="738.569" cy="173.509" r="14"/>
<circle clip-path="url(#clip9202)" style="fill:#000000; stroke:none; fill-opacity:1" cx="1793.7" cy="867.95" r="18"/>
<circle clip-path="url(#clip9202)" style="fill:#009af9; stroke:none; fill-opacity:1" cx="1793.7" cy="867.95" r="14"/>
<polyline clip-path="url(#clip9202)" style="stroke:#e26f46; stroke-width:4; stroke-opacity:1; fill:none" points="
  738.569,173.509 749.227,180.523 759.884,187.538 770.542,194.552 781.2,201.567 791.858,208.581 802.516,215.596 813.174,222.611 823.832,229.625 834.489,236.64 
  845.147,243.654 855.805,250.669 866.463,257.683 877.121,264.698 887.779,271.713 898.436,278.727 909.094,285.742 919.752,292.756 930.41,299.771 941.068,306.785 
  951.726,313.8 962.384,320.814 973.041,327.829 983.699,334.844 994.357,341.858 1005.02,348.873 1015.67,355.887 1026.33,362.902 1036.99,369.916 1047.65,376.931 
  1058.3,383.946 1068.96,390.96 1079.62,397.975 1090.28,404.989 1100.94,412.004 1111.59,419.018 1122.25,426.033 1132.91,433.047 1143.57,440.062 1154.22,447.077 
  1164.88,454.091 1175.54,461.106 1186.2,468.12 1196.86,475.135 1207.51,482.149 1218.17,489.164 1228.83,496.179 1239.49,503.193 1250.15,510.208 1260.8,517.222 
  1271.46,524.237 1282.12,531.251 1292.78,538.266 1303.43,545.28 1314.09,552.295 1324.75,559.31 1335.41,566.324 1346.07,573.339 1356.72,580.353 1367.38,587.368 
  1378.04,594.382 1388.7,601.397 1399.36,608.412 1410.01,615.426 1420.67,622.441 1431.33,629.455 1441.99,636.47 1452.64,643.484 1463.3,650.499 1473.96,657.513 
  1484.62,664.528 1495.28,671.543 1505.93,678.557 1516.59,685.572 1527.25,692.586 1537.91,699.601 1548.57,706.615 1559.22,713.63 1569.88,720.645 1580.54,727.659 
  1591.2,734.674 1601.85,741.688 1612.51,748.703 1623.17,755.717 1633.83,762.732 1644.49,769.746 1655.14,776.761 1665.8,783.776 1676.46,790.79 1687.12,797.805 
  1697.78,804.819 1708.43,811.834 1719.09,818.848 1729.75,825.863 1740.41,832.878 1751.06,839.892 1761.72,846.907 1772.38,853.921 1783.04,860.936 1793.7,867.95 
  
  "/>
<g clip-path="url(#clip9200)">
<text style="fill:#000000; fill-opacity:1; font-family:Arial,Helvetica Neue,Helvetica,sans-serif; font-size:59px; text-anchor:start;" transform="rotate(0, 738.569, 1319.41)" x="738.569" y="1319.41">r = -1.0</text>
</g>
</svg>
