<?xml version="1.0" encoding="utf-8"?>
<svg xmlns="http://www.w3.org/2000/svg" xmlns:xlink="http://www.w3.org/1999/xlink" width="600" height="400" viewBox="0 0 2400 1600">
<defs>
  <clipPath id="clip0900">
    <rect x="0" y="0" width="2400" height="1600"/>
  </clipPath>
</defs>
<polygon clip-path="url(#clip0900)" points="
0,1600 2400,1600 2400,0 0,0 
  " fill="#ffffff" fill-rule="evenodd" fill-opacity="1"/>
<defs>
  <clipPath id="clip0901">
    <rect x="480" y="0" width="1681" height="1600"/>
  </clipPath>
</defs>
<polygon clip-path="url(#clip0900)" points="
211.005,1440.48 2321.26,1440.48 2321.26,125.984 211.005,125.984 
  " fill="#ffffff" fill-rule="evenodd" fill-opacity="1"/>
<defs>
  <clipPath id="clip0902">
    <rect x="211" y="125" width="2111" height="1315"/>
  </clipPath>
</defs>
<polyline clip-path="url(#clip0902)" style="stroke:#000000; stroke-width:2; stroke-opacity:0.1; fill:none" points="
  307.404,1440.48 307.404,125.984 
  "/>
<polyline clip-path="url(#clip0902)" style="stroke:#000000; stroke-width:2; stroke-opacity:0.1; fill:none" points="
  789.398,1440.48 789.398,125.984 
  "/>
<polyline clip-path="url(#clip0902)" style="stroke:#000000; stroke-width:2; stroke-opacity:0.1; fill:none" points="
  1271.39,1440.48 1271.39,125.984 
  "/>
<polyline clip-path="url(#clip0902)" style="stroke:#000000; stroke-width:2; stroke-opacity:0.1; fill:none" points="
  1753.39,1440.48 1753.39,125.984 
  "/>
<polyline clip-path="url(#clip0902)" style="stroke:#000000; stroke-width:2; stroke-opacity:0.1; fill:none" points="
  2235.38,1440.48 2235.38,125.984 
  "/>
<polyline clip-path="url(#clip0902)" style="stroke:#000000; stroke-width:2; stroke-opacity:0.1; fill:none" points="
  211.005,1413.57 2321.26,1413.57 
  "/>
<polyline clip-path="url(#clip0902)" style="stroke:#000000; stroke-width:2; stroke-opacity:0.1; fill:none" points="
  211.005,1144.49 2321.26,1144.49 
  "/>
<polyline clip-path="url(#clip0902)" style="stroke:#000000; stroke-width:2; stroke-opacity:0.1; fill:none" points="
  211.005,875.409 2321.26,875.409 
  "/>
<polyline clip-path="url(#clip0902)" style="stroke:#000000; stroke-width:2; stroke-opacity:0.1; fill:none" points="
  211.005,606.326 2321.26,606.326 
  "/>
<polyline clip-path="url(#clip0902)" style="stroke:#000000; stroke-width:2; stroke-opacity:0.1; fill:none" points="
  211.005,337.243 2321.26,337.243 
  "/>
<polyline clip-path="url(#clip0900)" style="stroke:#000000; stroke-width:4; stroke-opacity:1; fill:none" points="
  211.005,1440.48 2321.26,1440.48 
  "/>
<polyline clip-path="url(#clip0900)" style="stroke:#000000; stroke-width:4; stroke-opacity:1; fill:none" points="
  211.005,1440.48 211.005,125.984 
  "/>
<polyline clip-path="url(#clip0900)" style="stroke:#000000; stroke-width:4; stroke-opacity:1; fill:none" points="
  307.404,1440.48 307.404,1420.77 
  "/>
<polyline clip-path="url(#clip0900)" style="stroke:#000000; stroke-width:4; stroke-opacity:1; fill:none" points="
  789.398,1440.48 789.398,1420.77 
  "/>
<polyline clip-path="url(#clip0900)" style="stroke:#000000; stroke-width:4; stroke-opacity:1; fill:none" points="
  1271.39,1440.48 1271.39,1420.77 
  "/>
<polyline clip-path="url(#clip0900)" style="stroke:#000000; stroke-width:4; stroke-opacity:1; fill:none" points="
  1753.39,1440.48 1753.39,1420.77 
  "/>
<polyline clip-path="url(#clip0900)" style="stroke:#000000; stroke-width:4; stroke-opacity:1; fill:none" points="
  2235.38,1440.48 2235.38,1420.77 
  "/>
<polyline clip-path="url(#clip0900)" style="stroke:#000000; stroke-width:4; stroke-opacity:1; fill:none" points="
  211.005,1413.57 242.659,1413.57 
  "/>
<polyline clip-path="url(#clip0900)" style="stroke:#000000; stroke-width:4; stroke-opacity:1; fill:none" points="
  211.005,1144.49 242.659,1144.49 
  "/>
<polyline clip-path="url(#clip0900)" style="stroke:#000000; stroke-width:4; stroke-opacity:1; fill:none" points="
  211.005,875.409 242.659,875.409 
  "/>
<polyline clip-path="url(#clip0900)" style="stroke:#000000; stroke-width:4; stroke-opacity:1; fill:none" points="
  211.005,606.326 242.659,606.326 
  "/>
<polyline clip-path="url(#clip0900)" style="stroke:#000000; stroke-width:4; stroke-opacity:1; fill:none" points="
  211.005,337.243 242.659,337.243 
  "/>
<g clip-path="url(#clip0900)">
<text style="fill:#000000; fill-opacity:1; font-family:Arial,Helvetica Neue,Helvetica,sans-serif; font-size:48px; text-anchor:middle;" transform="rotate(0, 307.404, 1494.48)" x="307.404" y="1494.48">0.0</text>
</g>
<g clip-path="url(#clip0900)">
<text style="fill:#000000; fill-opacity:1; font-family:Arial,Helvetica Neue,Helvetica,sans-serif; font-size:48px; text-anchor:middle;" transform="rotate(0, 789.398, 1494.48)" x="789.398" y="1494.48">2.5</text>
</g>
<g clip-path="url(#clip0900)">
<text style="fill:#000000; fill-opacity:1; font-family:Arial,Helvetica Neue,Helvetica,sans-serif; font-size:48px; text-anchor:middle;" transform="rotate(0, 1271.39, 1494.48)" x="1271.39" y="1494.48">5.0</text>
</g>
<g clip-path="url(#clip0900)">
<text style="fill:#000000; fill-opacity:1; font-family:Arial,Helvetica Neue,Helvetica,sans-serif; font-size:48px; text-anchor:middle;" transform="rotate(0, 1753.39, 1494.48)" x="1753.39" y="1494.48">7.5</text>
</g>
<g clip-path="url(#clip0900)">
<text style="fill:#000000; fill-opacity:1; font-family:Arial,Helvetica Neue,Helvetica,sans-serif; font-size:48px; text-anchor:middle;" transform="rotate(0, 2235.38, 1494.48)" x="2235.38" y="1494.48">10.0</text>
</g>
<g clip-path="url(#clip0900)">
<text style="fill:#000000; fill-opacity:1; font-family:Arial,Helvetica Neue,Helvetica,sans-serif; font-size:48px; text-anchor:end;" transform="rotate(0, 187.005, 1431.07)" x="187.005" y="1431.07">0</text>
</g>
<g clip-path="url(#clip0900)">
<text style="fill:#000000; fill-opacity:1; font-family:Arial,Helvetica Neue,Helvetica,sans-serif; font-size:48px; text-anchor:end;" transform="rotate(0, 187.005, 1161.99)" x="187.005" y="1161.99">5</text>
</g>
<g clip-path="url(#clip0900)">
<text style="fill:#000000; fill-opacity:1; font-family:Arial,Helvetica Neue,Helvetica,sans-serif; font-size:48px; text-anchor:end;" transform="rotate(0, 187.005, 892.909)" x="187.005" y="892.909">10</text>
</g>
<g clip-path="url(#clip0900)">
<text style="fill:#000000; fill-opacity:1; font-family:Arial,Helvetica Neue,Helvetica,sans-serif; font-size:48px; text-anchor:end;" transform="rotate(0, 187.005, 623.826)" x="187.005" y="623.826">15</text>
</g>
<g clip-path="url(#clip0900)">
<text style="fill:#000000; fill-opacity:1; font-family:Arial,Helvetica Neue,Helvetica,sans-serif; font-size:48px; text-anchor:end;" transform="rotate(0, 187.005, 354.743)" x="187.005" y="354.743">20</text>
</g>
<g clip-path="url(#clip0900)">
<text style="fill:#000000; fill-opacity:1; font-family:Arial,Helvetica Neue,Helvetica,sans-serif; font-size:66px; text-anchor:middle;" transform="rotate(0, 1266.13, 57.6)" x="1266.13" y="57.6">GCF_000146045.2_R64_genomic.fna.K19.counts.histogram</text>
</g>
<g clip-path="url(#clip0900)">
<text style="fill:#000000; fill-opacity:1; font-family:Arial,Helvetica Neue,Helvetica,sans-serif; font-size:66px; text-anchor:middle;" transform="rotate(0, 1266.13, 1590.4)" x="1266.13" y="1590.4">log2(depth of coverage)</text>
</g>
<g clip-path="url(#clip0900)">
<text style="fill:#000000; fill-opacity:1; font-family:Arial,Helvetica Neue,Helvetica,sans-serif; font-size:66px; text-anchor:middle;" transform="rotate(-90, 57.6, 783.233)" x="57.6" y="783.233">log2(# kmers)</text>
</g>
<circle clip-path="url(#clip0902)" style="fill:#000000; stroke:none; fill-opacity:1" cx="307.404" cy="152.893" r="18"/>
<circle clip-path="url(#clip0902)" style="fill:#009af9; stroke:none; fill-opacity:1" cx="307.404" cy="152.893" r="14"/>
<circle clip-path="url(#clip0902)" style="fill:#000000; stroke:none; fill-opacity:1" cx="500.201" cy="494.376" r="18"/>
<circle clip-path="url(#clip0902)" style="fill:#009af9; stroke:none; fill-opacity:1" cx="500.201" cy="494.376" r="14"/>
<circle clip-path="url(#clip0902)" style="fill:#000000; stroke:none; fill-opacity:1" cx="612.981" cy="605.164" r="18"/>
<circle clip-path="url(#clip0902)" style="fill:#009af9; stroke:none; fill-opacity:1" cx="612.981" cy="605.164" r="14"/>
<circle clip-path="url(#clip0902)" style="fill:#000000; stroke:none; fill-opacity:1" cx="692.999" cy="691.33" r="18"/>
<circle clip-path="url(#clip0902)" style="fill:#009af9; stroke:none; fill-opacity:1" cx="692.999" cy="691.33" r="14"/>
<circle clip-path="url(#clip0902)" style="fill:#000000; stroke:none; fill-opacity:1" cx="755.066" cy="783.432" r="18"/>
<circle clip-path="url(#clip0902)" style="fill:#009af9; stroke:none; fill-opacity:1" cx="755.066" cy="783.432" r="14"/>
<circle clip-path="url(#clip0902)" style="fill:#000000; stroke:none; fill-opacity:1" cx="805.778" cy="805.675" r="18"/>
<circle clip-path="url(#clip0902)" style="fill:#009af9; stroke:none; fill-opacity:1" cx="805.778" cy="805.675" r="14"/>
<circle clip-path="url(#clip0902)" style="fill:#000000; stroke:none; fill-opacity:1" cx="848.655" cy="821.403" r="18"/>
<circle clip-path="url(#clip0902)" style="fill:#009af9; stroke:none; fill-opacity:1" cx="848.655" cy="821.403" r="14"/>
<circle clip-path="url(#clip0902)" style="fill:#000000; stroke:none; fill-opacity:1" cx="885.796" cy="833.051" r="18"/>
<circle clip-path="url(#clip0902)" style="fill:#009af9; stroke:none; fill-opacity:1" cx="885.796" cy="833.051" r="14"/>
<circle clip-path="url(#clip0902)" style="fill:#000000; stroke:none; fill-opacity:1" cx="918.558" cy="859.368" r="18"/>
<circle clip-path="url(#clip0902)" style="fill:#009af9; stroke:none; fill-opacity:1" cx="918.558" cy="859.368" r="14"/>
<circle clip-path="url(#clip0902)" style="fill:#000000; stroke:none; fill-opacity:1" cx="947.863" cy="883.052" r="18"/>
<circle clip-path="url(#clip0902)" style="fill:#009af9; stroke:none; fill-opacity:1" cx="947.863" cy="883.052" r="14"/>
<circle clip-path="url(#clip0902)" style="fill:#000000; stroke:none; fill-opacity:1" cx="974.374" cy="824.568" r="18"/>
<circle clip-path="url(#clip0902)" style="fill:#009af9; stroke:none; fill-opacity:1" cx="974.374" cy="824.568" r="14"/>
<circle clip-path="url(#clip0902)" style="fill:#000000; stroke:none; fill-opacity:1" cx="998.576" cy="871.275" r="18"/>
<circle clip-path="url(#clip0902)" style="fill:#009af9; stroke:none; fill-opacity:1" cx="998.576" cy="871.275" r="14"/>
<circle clip-path="url(#clip0902)" style="fill:#000000; stroke:none; fill-opacity:1" cx="1020.84" cy="793.021" r="18"/>
<circle clip-path="url(#clip0902)" style="fill:#009af9; stroke:none; fill-opacity:1" cx="1020.84" cy="793.021" r="14"/>
<circle clip-path="url(#clip0902)" style="fill:#000000; stroke:none; fill-opacity:1" cx="1041.45" cy="907.766" r="18"/>
<circle clip-path="url(#clip0902)" style="fill:#009af9; stroke:none; fill-opacity:1" cx="1041.45" cy="907.766" r="14"/>
<circle clip-path="url(#clip0902)" style="fill:#000000; stroke:none; fill-opacity:1" cx="1060.64" cy="896.641" r="18"/>
<circle clip-path="url(#clip0902)" style="fill:#009af9; stroke:none; fill-opacity:1" cx="1060.64" cy="896.641" r="14"/>
<circle clip-path="url(#clip0902)" style="fill:#000000; stroke:none; fill-opacity:1" cx="1078.59" cy="883.303" r="18"/>
<circle clip-path="url(#clip0902)" style="fill:#009af9; stroke:none; fill-opacity:1" cx="1078.59" cy="883.303" r="14"/>
<circle clip-path="url(#clip0902)" style="fill:#000000; stroke:none; fill-opacity:1" cx="1095.46" cy="920.486" r="18"/>
<circle clip-path="url(#clip0902)" style="fill:#009af9; stroke:none; fill-opacity:1" cx="1095.46" cy="920.486" r="14"/>
<circle clip-path="url(#clip0902)" style="fill:#000000; stroke:none; fill-opacity:1" cx="1111.36" cy="885.172" r="18"/>
<circle clip-path="url(#clip0902)" style="fill:#009af9; stroke:none; fill-opacity:1" cx="1111.36" cy="885.172" r="14"/>
<circle clip-path="url(#clip0902)" style="fill:#000000; stroke:none; fill-opacity:1" cx="1126.39" cy="812.246" r="18"/>
<circle clip-path="url(#clip0902)" style="fill:#009af9; stroke:none; fill-opacity:1" cx="1126.39" cy="812.246" r="14"/>
<circle clip-path="url(#clip0902)" style="fill:#000000; stroke:none; fill-opacity:1" cx="1140.66" cy="980.948" r="18"/>
<circle clip-path="url(#clip0902)" style="fill:#009af9; stroke:none; fill-opacity:1" cx="1140.66" cy="980.948" r="14"/>
<circle clip-path="url(#clip0902)" style="fill:#000000; stroke:none; fill-opacity:1" cx="1154.23" cy="982.137" r="18"/>
<circle clip-path="url(#clip0902)" style="fill:#009af9; stroke:none; fill-opacity:1" cx="1154.23" cy="982.137" r="14"/>
<circle clip-path="url(#clip0902)" style="fill:#000000; stroke:none; fill-opacity:1" cx="1167.17" cy="1027.71" r="18"/>
<circle clip-path="url(#clip0902)" style="fill:#009af9; stroke:none; fill-opacity:1" cx="1167.17" cy="1027.71" r="14"/>
<circle clip-path="url(#clip0902)" style="fill:#000000; stroke:none; fill-opacity:1" cx="1179.54" cy="974.167" r="18"/>
<circle clip-path="url(#clip0902)" style="fill:#009af9; stroke:none; fill-opacity:1" cx="1179.54" cy="974.167" r="14"/>
<circle clip-path="url(#clip0902)" style="fill:#000000; stroke:none; fill-opacity:1" cx="1191.37" cy="1012.13" r="18"/>
<circle clip-path="url(#clip0902)" style="fill:#009af9; stroke:none; fill-opacity:1" cx="1191.37" cy="1012.13" r="14"/>
<circle clip-path="url(#clip0902)" style="fill:#000000; stroke:none; fill-opacity:1" cx="1202.73" cy="993.409" r="18"/>
<circle clip-path="url(#clip0902)" style="fill:#009af9; stroke:none; fill-opacity:1" cx="1202.73" cy="993.409" r="14"/>
<circle clip-path="url(#clip0902)" style="fill:#000000; stroke:none; fill-opacity:1" cx="1213.64" cy="977.483" r="18"/>
<circle clip-path="url(#clip0902)" style="fill:#009af9; stroke:none; fill-opacity:1" cx="1213.64" cy="977.483" r="14"/>
<circle clip-path="url(#clip0902)" style="fill:#000000; stroke:none; fill-opacity:1" cx="1224.13" cy="1009.11" r="18"/>
<circle clip-path="url(#clip0902)" style="fill:#009af9; stroke:none; fill-opacity:1" cx="1224.13" cy="1009.11" r="14"/>
<circle clip-path="url(#clip0902)" style="fill:#000000; stroke:none; fill-opacity:1" cx="1234.25" cy="955.077" r="18"/>
<circle clip-path="url(#clip0902)" style="fill:#009af9; stroke:none; fill-opacity:1" cx="1234.25" cy="955.077" r="14"/>
<circle clip-path="url(#clip0902)" style="fill:#000000; stroke:none; fill-opacity:1" cx="1244.01" cy="909.276" r="18"/>
<circle clip-path="url(#clip0902)" style="fill:#009af9; stroke:none; fill-opacity:1" cx="1244.01" cy="909.276" r="14"/>
<circle clip-path="url(#clip0902)" style="fill:#000000; stroke:none; fill-opacity:1" cx="1253.44" cy="920.758" r="18"/>
<circle clip-path="url(#clip0902)" style="fill:#009af9; stroke:none; fill-opacity:1" cx="1253.44" cy="920.758" r="14"/>
<circle clip-path="url(#clip0902)" style="fill:#000000; stroke:none; fill-opacity:1" cx="1262.56" cy="988.377" r="18"/>
<circle clip-path="url(#clip0902)" style="fill:#009af9; stroke:none; fill-opacity:1" cx="1262.56" cy="988.377" r="14"/>
<circle clip-path="url(#clip0902)" style="fill:#000000; stroke:none; fill-opacity:1" cx="1271.39" cy="885.431" r="18"/>
<circle clip-path="url(#clip0902)" style="fill:#009af9; stroke:none; fill-opacity:1" cx="1271.39" cy="885.431" r="14"/>
<circle clip-path="url(#clip0902)" style="fill:#000000; stroke:none; fill-opacity:1" cx="1279.95" cy="896.243" r="18"/>
<circle clip-path="url(#clip0902)" style="fill:#009af9; stroke:none; fill-opacity:1" cx="1279.95" cy="896.243" r="14"/>
<circle clip-path="url(#clip0902)" style="fill:#000000; stroke:none; fill-opacity:1" cx="1288.25" cy="1071.43" r="18"/>
<circle clip-path="url(#clip0902)" style="fill:#009af9; stroke:none; fill-opacity:1" cx="1288.25" cy="1071.43" r="14"/>
<circle clip-path="url(#clip0902)" style="fill:#000000; stroke:none; fill-opacity:1" cx="1296.32" cy="1154.86" r="18"/>
<circle clip-path="url(#clip0902)" style="fill:#009af9; stroke:none; fill-opacity:1" cx="1296.32" cy="1154.86" r="14"/>
<circle clip-path="url(#clip0902)" style="fill:#000000; stroke:none; fill-opacity:1" cx="1304.15" cy="1114.65" r="18"/>
<circle clip-path="url(#clip0902)" style="fill:#009af9; stroke:none; fill-opacity:1" cx="1304.15" cy="1114.65" r="14"/>
<circle clip-path="url(#clip0902)" style="fill:#000000; stroke:none; fill-opacity:1" cx="1311.77" cy="1160.61" r="18"/>
<circle clip-path="url(#clip0902)" style="fill:#009af9; stroke:none; fill-opacity:1" cx="1311.77" cy="1160.61" r="14"/>
<circle clip-path="url(#clip0902)" style="fill:#000000; stroke:none; fill-opacity:1" cx="1319.19" cy="1189.16" r="18"/>
<circle clip-path="url(#clip0902)" style="fill:#009af9; stroke:none; fill-opacity:1" cx="1319.19" cy="1189.16" r="14"/>
<circle clip-path="url(#clip0902)" style="fill:#000000; stroke:none; fill-opacity:1" cx="1326.42" cy="1163.66" r="18"/>
<circle clip-path="url(#clip0902)" style="fill:#009af9; stroke:none; fill-opacity:1" cx="1326.42" cy="1163.66" r="14"/>
<circle clip-path="url(#clip0902)" style="fill:#000000; stroke:none; fill-opacity:1" cx="1333.46" cy="1189.16" r="18"/>
<circle clip-path="url(#clip0902)" style="fill:#009af9; stroke:none; fill-opacity:1" cx="1333.46" cy="1189.16" r="14"/>
<circle clip-path="url(#clip0902)" style="fill:#000000; stroke:none; fill-opacity:1" cx="1340.33" cy="1114.65" r="18"/>
<circle clip-path="url(#clip0902)" style="fill:#009af9; stroke:none; fill-opacity:1" cx="1340.33" cy="1114.65" r="14"/>
<circle clip-path="url(#clip0902)" style="fill:#000000; stroke:none; fill-opacity:1" cx="1347.03" cy="1198.31" r="18"/>
<circle clip-path="url(#clip0902)" style="fill:#009af9; stroke:none; fill-opacity:1" cx="1347.03" cy="1198.31" r="14"/>
<circle clip-path="url(#clip0902)" style="fill:#000000; stroke:none; fill-opacity:1" cx="1353.57" cy="1139.78" r="18"/>
<circle clip-path="url(#clip0902)" style="fill:#009af9; stroke:none; fill-opacity:1" cx="1353.57" cy="1139.78" r="14"/>
<circle clip-path="url(#clip0902)" style="fill:#000000; stroke:none; fill-opacity:1" cx="1359.97" cy="1189.16" r="18"/>
<circle clip-path="url(#clip0902)" style="fill:#009af9; stroke:none; fill-opacity:1" cx="1359.97" cy="1189.16" r="14"/>
<circle clip-path="url(#clip0902)" style="fill:#000000; stroke:none; fill-opacity:1" cx="1366.22" cy="1074.33" r="18"/>
<circle clip-path="url(#clip0902)" style="fill:#009af9; stroke:none; fill-opacity:1" cx="1366.22" cy="1074.33" r="14"/>
<circle clip-path="url(#clip0902)" style="fill:#000000; stroke:none; fill-opacity:1" cx="1372.33" cy="1359.76" r="18"/>
<circle clip-path="url(#clip0902)" style="fill:#009af9; stroke:none; fill-opacity:1" cx="1372.33" cy="1359.76" r="14"/>
<circle clip-path="url(#clip0902)" style="fill:#000000; stroke:none; fill-opacity:1" cx="1378.31" cy="1220.64" r="18"/>
<circle clip-path="url(#clip0902)" style="fill:#009af9; stroke:none; fill-opacity:1" cx="1378.31" cy="1220.64" r="14"/>
<circle clip-path="url(#clip0902)" style="fill:#000000; stroke:none; fill-opacity:1" cx="1384.17" cy="1177.19" r="18"/>
<circle clip-path="url(#clip0902)" style="fill:#009af9; stroke:none; fill-opacity:1" cx="1384.17" cy="1177.19" r="14"/>
<circle clip-path="url(#clip0902)" style="fill:#000000; stroke:none; fill-opacity:1" cx="1389.91" cy="1184.97" r="18"/>
<circle clip-path="url(#clip0902)" style="fill:#009af9; stroke:none; fill-opacity:1" cx="1389.91" cy="1184.97" r="14"/>
<circle clip-path="url(#clip0902)" style="fill:#000000; stroke:none; fill-opacity:1" cx="1395.53" cy="1203.32" r="18"/>
<circle clip-path="url(#clip0902)" style="fill:#009af9; stroke:none; fill-opacity:1" cx="1395.53" cy="1203.32" r="14"/>
<circle clip-path="url(#clip0902)" style="fill:#000000; stroke:none; fill-opacity:1" cx="1401.03" cy="1227.4" r="18"/>
<circle clip-path="url(#clip0902)" style="fill:#009af9; stroke:none; fill-opacity:1" cx="1401.03" cy="1227.4" r="14"/>
<circle clip-path="url(#clip0902)" style="fill:#000000; stroke:none; fill-opacity:1" cx="1406.43" cy="1220.64" r="18"/>
<circle clip-path="url(#clip0902)" style="fill:#009af9; stroke:none; fill-opacity:1" cx="1406.43" cy="1220.64" r="14"/>
<circle clip-path="url(#clip0902)" style="fill:#000000; stroke:none; fill-opacity:1" cx="1411.73" cy="1184.97" r="18"/>
<circle clip-path="url(#clip0902)" style="fill:#009af9; stroke:none; fill-opacity:1" cx="1411.73" cy="1184.97" r="14"/>
<circle clip-path="url(#clip0902)" style="fill:#000000; stroke:none; fill-opacity:1" cx="1416.93" cy="1184.97" r="18"/>
<circle clip-path="url(#clip0902)" style="fill:#009af9; stroke:none; fill-opacity:1" cx="1416.93" cy="1184.97" r="14"/>
<circle clip-path="url(#clip0902)" style="fill:#000000; stroke:none; fill-opacity:1" cx="1422.04" cy="1198.31" r="18"/>
<circle clip-path="url(#clip0902)" style="fill:#009af9; stroke:none; fill-opacity:1" cx="1422.04" cy="1198.31" r="14"/>
<circle clip-path="url(#clip0902)" style="fill:#000000; stroke:none; fill-opacity:1" cx="1427.05" cy="1288.62" r="18"/>
<circle clip-path="url(#clip0902)" style="fill:#009af9; stroke:none; fill-opacity:1" cx="1427.05" cy="1288.62" r="14"/>
<circle clip-path="url(#clip0902)" style="fill:#000000; stroke:none; fill-opacity:1" cx="1431.97" cy="1177.19" r="18"/>
<circle clip-path="url(#clip0902)" style="fill:#009af9; stroke:none; fill-opacity:1" cx="1431.97" cy="1177.19" r="14"/>
<circle clip-path="url(#clip0902)" style="fill:#000000; stroke:none; fill-opacity:1" cx="1436.81" cy="1170.13" r="18"/>
<circle clip-path="url(#clip0902)" style="fill:#009af9; stroke:none; fill-opacity:1" cx="1436.81" cy="1170.13" r="14"/>
<circle clip-path="url(#clip0902)" style="fill:#000000; stroke:none; fill-opacity:1" cx="1441.56" cy="1234.8" r="18"/>
<circle clip-path="url(#clip0902)" style="fill:#009af9; stroke:none; fill-opacity:1" cx="1441.56" cy="1234.8" r="14"/>
<circle clip-path="url(#clip0902)" style="fill:#000000; stroke:none; fill-opacity:1" cx="1446.24" cy="1220.64" r="18"/>
<circle clip-path="url(#clip0902)" style="fill:#009af9; stroke:none; fill-opacity:1" cx="1446.24" cy="1220.64" r="14"/>
<circle clip-path="url(#clip0902)" style="fill:#000000; stroke:none; fill-opacity:1" cx="1450.84" cy="1184.97" r="18"/>
<circle clip-path="url(#clip0902)" style="fill:#009af9; stroke:none; fill-opacity:1" cx="1450.84" cy="1184.97" r="14"/>
<circle clip-path="url(#clip0902)" style="fill:#000000; stroke:none; fill-opacity:1" cx="1455.36" cy="1203.32" r="18"/>
<circle clip-path="url(#clip0902)" style="fill:#009af9; stroke:none; fill-opacity:1" cx="1455.36" cy="1203.32" r="14"/>
<circle clip-path="url(#clip0902)" style="fill:#000000; stroke:none; fill-opacity:1" cx="1459.81" cy="1227.4" r="18"/>
<circle clip-path="url(#clip0902)" style="fill:#009af9; stroke:none; fill-opacity:1" cx="1459.81" cy="1227.4" r="14"/>
<circle clip-path="url(#clip0902)" style="fill:#000000; stroke:none; fill-opacity:1" cx="1464.19" cy="1157.68" r="18"/>
<circle clip-path="url(#clip0902)" style="fill:#009af9; stroke:none; fill-opacity:1" cx="1464.19" cy="1157.68" r="14"/>
<circle clip-path="url(#clip0902)" style="fill:#000000; stroke:none; fill-opacity:1" cx="1468.5" cy="1262.49" r="18"/>
<circle clip-path="url(#clip0902)" style="fill:#009af9; stroke:none; fill-opacity:1" cx="1468.5" cy="1262.49" r="14"/>
<circle clip-path="url(#clip0902)" style="fill:#000000; stroke:none; fill-opacity:1" cx="1472.75" cy="1328.28" r="18"/>
<circle clip-path="url(#clip0902)" style="fill:#009af9; stroke:none; fill-opacity:1" cx="1472.75" cy="1328.28" r="14"/>
<circle clip-path="url(#clip0902)" style="fill:#000000; stroke:none; fill-opacity:1" cx="1476.93" cy="1234.8" r="18"/>
<circle clip-path="url(#clip0902)" style="fill:#009af9; stroke:none; fill-opacity:1" cx="1476.93" cy="1234.8" r="14"/>
<circle clip-path="url(#clip0902)" style="fill:#000000; stroke:none; fill-opacity:1" cx="1481.05" cy="1220.64" r="18"/>
<circle clip-path="url(#clip0902)" style="fill:#009af9; stroke:none; fill-opacity:1" cx="1481.05" cy="1220.64" r="14"/>
<circle clip-path="url(#clip0902)" style="fill:#000000; stroke:none; fill-opacity:1" cx="1485.11" cy="1328.28" r="18"/>
<circle clip-path="url(#clip0902)" style="fill:#009af9; stroke:none; fill-opacity:1" cx="1485.11" cy="1328.28" r="14"/>
<circle clip-path="url(#clip0902)" style="fill:#000000; stroke:none; fill-opacity:1" cx="1489.11" cy="1359.76" r="18"/>
<circle clip-path="url(#clip0902)" style="fill:#009af9; stroke:none; fill-opacity:1" cx="1489.11" cy="1359.76" r="14"/>
<circle clip-path="url(#clip0902)" style="fill:#000000; stroke:none; fill-opacity:1" cx="1493.06" cy="1234.8" r="18"/>
<circle clip-path="url(#clip0902)" style="fill:#009af9; stroke:none; fill-opacity:1" cx="1493.06" cy="1234.8" r="14"/>
<circle clip-path="url(#clip0902)" style="fill:#000000; stroke:none; fill-opacity:1" cx="1496.95" cy="1262.49" r="18"/>
<circle clip-path="url(#clip0902)" style="fill:#009af9; stroke:none; fill-opacity:1" cx="1496.95" cy="1262.49" r="14"/>
<circle clip-path="url(#clip0902)" style="fill:#000000; stroke:none; fill-opacity:1" cx="1500.79" cy="1234.8" r="18"/>
<circle clip-path="url(#clip0902)" style="fill:#009af9; stroke:none; fill-opacity:1" cx="1500.79" cy="1234.8" r="14"/>
<circle clip-path="url(#clip0902)" style="fill:#000000; stroke:none; fill-opacity:1" cx="1504.57" cy="1288.62" r="18"/>
<circle clip-path="url(#clip0902)" style="fill:#009af9; stroke:none; fill-opacity:1" cx="1504.57" cy="1288.62" r="14"/>
<circle clip-path="url(#clip0902)" style="fill:#000000; stroke:none; fill-opacity:1" cx="1508.3" cy="1359.76" r="18"/>
<circle clip-path="url(#clip0902)" style="fill:#009af9; stroke:none; fill-opacity:1" cx="1508.3" cy="1359.76" r="14"/>
<circle clip-path="url(#clip0902)" style="fill:#000000; stroke:none; fill-opacity:1" cx="1511.99" cy="1413.57" r="18"/>
<circle clip-path="url(#clip0902)" style="fill:#009af9; stroke:none; fill-opacity:1" cx="1511.99" cy="1413.57" r="14"/>
<circle clip-path="url(#clip0902)" style="fill:#000000; stroke:none; fill-opacity:1" cx="1515.62" cy="1413.57" r="18"/>
<circle clip-path="url(#clip0902)" style="fill:#009af9; stroke:none; fill-opacity:1" cx="1515.62" cy="1413.57" r="14"/>
<circle clip-path="url(#clip0902)" style="fill:#000000; stroke:none; fill-opacity:1" cx="1519.21" cy="1234.8" r="18"/>
<circle clip-path="url(#clip0902)" style="fill:#009af9; stroke:none; fill-opacity:1" cx="1519.21" cy="1234.8" r="14"/>
<circle clip-path="url(#clip0902)" style="fill:#000000; stroke:none; fill-opacity:1" cx="1522.76" cy="1198.31" r="18"/>
<circle clip-path="url(#clip0902)" style="fill:#009af9; stroke:none; fill-opacity:1" cx="1522.76" cy="1198.31" r="14"/>
<circle clip-path="url(#clip0902)" style="fill:#000000; stroke:none; fill-opacity:1" cx="1526.26" cy="1274.46" r="18"/>
<circle clip-path="url(#clip0902)" style="fill:#009af9; stroke:none; fill-opacity:1" cx="1526.26" cy="1274.46" r="14"/>
<circle clip-path="url(#clip0902)" style="fill:#000000; stroke:none; fill-opacity:1" cx="1529.71" cy="1252.12" r="18"/>
<circle clip-path="url(#clip0902)" style="fill:#009af9; stroke:none; fill-opacity:1" cx="1529.71" cy="1252.12" r="14"/>
<circle clip-path="url(#clip0902)" style="fill:#000000; stroke:none; fill-opacity:1" cx="1533.12" cy="1189.16" r="18"/>
<circle clip-path="url(#clip0902)" style="fill:#009af9; stroke:none; fill-opacity:1" cx="1533.12" cy="1189.16" r="14"/>
<circle clip-path="url(#clip0902)" style="fill:#000000; stroke:none; fill-opacity:1" cx="1536.5" cy="1227.4" r="18"/>
<circle clip-path="url(#clip0902)" style="fill:#009af9; stroke:none; fill-opacity:1" cx="1536.5" cy="1227.4" r="14"/>
<circle clip-path="url(#clip0902)" style="fill:#000000; stroke:none; fill-opacity:1" cx="1539.83" cy="1208.68" r="18"/>
<circle clip-path="url(#clip0902)" style="fill:#009af9; stroke:none; fill-opacity:1" cx="1539.83" cy="1208.68" r="14"/>
<circle clip-path="url(#clip0902)" style="fill:#000000; stroke:none; fill-opacity:1" cx="1543.12" cy="1198.31" r="18"/>
<circle clip-path="url(#clip0902)" style="fill:#009af9; stroke:none; fill-opacity:1" cx="1543.12" cy="1198.31" r="14"/>
<circle clip-path="url(#clip0902)" style="fill:#000000; stroke:none; fill-opacity:1" cx="1546.37" cy="1214.43" r="18"/>
<circle clip-path="url(#clip0902)" style="fill:#009af9; stroke:none; fill-opacity:1" cx="1546.37" cy="1214.43" r="14"/>
<circle clip-path="url(#clip0902)" style="fill:#000000; stroke:none; fill-opacity:1" cx="1549.59" cy="1234.8" r="18"/>
<circle clip-path="url(#clip0902)" style="fill:#009af9; stroke:none; fill-opacity:1" cx="1549.59" cy="1234.8" r="14"/>
<circle clip-path="url(#clip0902)" style="fill:#000000; stroke:none; fill-opacity:1" cx="1552.77" cy="1359.76" r="18"/>
<circle clip-path="url(#clip0902)" style="fill:#009af9; stroke:none; fill-opacity:1" cx="1552.77" cy="1359.76" r="14"/>
<circle clip-path="url(#clip0902)" style="fill:#000000; stroke:none; fill-opacity:1" cx="1555.91" cy="1413.57" r="18"/>
<circle clip-path="url(#clip0902)" style="fill:#009af9; stroke:none; fill-opacity:1" cx="1555.91" cy="1413.57" r="14"/>
<circle clip-path="url(#clip0902)" style="fill:#000000; stroke:none; fill-opacity:1" cx="1559.02" cy="1305.94" r="18"/>
<circle clip-path="url(#clip0902)" style="fill:#009af9; stroke:none; fill-opacity:1" cx="1559.02" cy="1305.94" r="14"/>
<circle clip-path="url(#clip0902)" style="fill:#000000; stroke:none; fill-opacity:1" cx="1565.13" cy="1359.76" r="18"/>
<circle clip-path="url(#clip0902)" style="fill:#009af9; stroke:none; fill-opacity:1" cx="1565.13" cy="1359.76" r="14"/>
<circle clip-path="url(#clip0902)" style="fill:#000000; stroke:none; fill-opacity:1" cx="1574.06" cy="1413.57" r="18"/>
<circle clip-path="url(#clip0902)" style="fill:#009af9; stroke:none; fill-opacity:1" cx="1574.06" cy="1413.57" r="14"/>
<circle clip-path="url(#clip0902)" style="fill:#000000; stroke:none; fill-opacity:1" cx="1576.97" cy="1413.57" r="18"/>
<circle clip-path="url(#clip0902)" style="fill:#009af9; stroke:none; fill-opacity:1" cx="1576.97" cy="1413.57" r="14"/>
<circle clip-path="url(#clip0902)" style="fill:#000000; stroke:none; fill-opacity:1" cx="1579.85" cy="1413.57" r="18"/>
<circle clip-path="url(#clip0902)" style="fill:#009af9; stroke:none; fill-opacity:1" cx="1579.85" cy="1413.57" r="14"/>
<circle clip-path="url(#clip0902)" style="fill:#000000; stroke:none; fill-opacity:1" cx="1582.7" cy="1413.57" r="18"/>
<circle clip-path="url(#clip0902)" style="fill:#009af9; stroke:none; fill-opacity:1" cx="1582.7" cy="1413.57" r="14"/>
<circle clip-path="url(#clip0902)" style="fill:#000000; stroke:none; fill-opacity:1" cx="1585.53" cy="1359.76" r="18"/>
<circle clip-path="url(#clip0902)" style="fill:#009af9; stroke:none; fill-opacity:1" cx="1585.53" cy="1359.76" r="14"/>
<circle clip-path="url(#clip0902)" style="fill:#000000; stroke:none; fill-opacity:1" cx="1591.09" cy="1184.97" r="18"/>
<circle clip-path="url(#clip0902)" style="fill:#009af9; stroke:none; fill-opacity:1" cx="1591.09" cy="1184.97" r="14"/>
<circle clip-path="url(#clip0902)" style="fill:#000000; stroke:none; fill-opacity:1" cx="1593.83" cy="1305.94" r="18"/>
<circle clip-path="url(#clip0902)" style="fill:#009af9; stroke:none; fill-opacity:1" cx="1593.83" cy="1305.94" r="14"/>
<circle clip-path="url(#clip0902)" style="fill:#000000; stroke:none; fill-opacity:1" cx="1604.53" cy="1413.57" r="18"/>
<circle clip-path="url(#clip0902)" style="fill:#009af9; stroke:none; fill-opacity:1" cx="1604.53" cy="1413.57" r="14"/>
<circle clip-path="url(#clip0902)" style="fill:#000000; stroke:none; fill-opacity:1" cx="1607.14" cy="1359.76" r="18"/>
<circle clip-path="url(#clip0902)" style="fill:#009af9; stroke:none; fill-opacity:1" cx="1607.14" cy="1359.76" r="14"/>
<circle clip-path="url(#clip0902)" style="fill:#000000; stroke:none; fill-opacity:1" cx="1614.83" cy="1413.57" r="18"/>
<circle clip-path="url(#clip0902)" style="fill:#009af9; stroke:none; fill-opacity:1" cx="1614.83" cy="1413.57" r="14"/>
<circle clip-path="url(#clip0902)" style="fill:#000000; stroke:none; fill-opacity:1" cx="1619.85" cy="1359.76" r="18"/>
<circle clip-path="url(#clip0902)" style="fill:#009af9; stroke:none; fill-opacity:1" cx="1619.85" cy="1359.76" r="14"/>
<circle clip-path="url(#clip0902)" style="fill:#000000; stroke:none; fill-opacity:1" cx="1622.32" cy="1359.76" r="18"/>
<circle clip-path="url(#clip0902)" style="fill:#009af9; stroke:none; fill-opacity:1" cx="1622.32" cy="1359.76" r="14"/>
<circle clip-path="url(#clip0902)" style="fill:#000000; stroke:none; fill-opacity:1" cx="1624.77" cy="1359.76" r="18"/>
<circle clip-path="url(#clip0902)" style="fill:#009af9; stroke:none; fill-opacity:1" cx="1624.77" cy="1359.76" r="14"/>
<circle clip-path="url(#clip0902)" style="fill:#000000; stroke:none; fill-opacity:1" cx="1634.36" cy="1359.76" r="18"/>
<circle clip-path="url(#clip0902)" style="fill:#009af9; stroke:none; fill-opacity:1" cx="1634.36" cy="1359.76" r="14"/>
<circle clip-path="url(#clip0902)" style="fill:#000000; stroke:none; fill-opacity:1" cx="1639.04" cy="1359.76" r="18"/>
<circle clip-path="url(#clip0902)" style="fill:#009af9; stroke:none; fill-opacity:1" cx="1639.04" cy="1359.76" r="14"/>
<circle clip-path="url(#clip0902)" style="fill:#000000; stroke:none; fill-opacity:1" cx="1641.34" cy="1413.57" r="18"/>
<circle clip-path="url(#clip0902)" style="fill:#009af9; stroke:none; fill-opacity:1" cx="1641.34" cy="1413.57" r="14"/>
<circle clip-path="url(#clip0902)" style="fill:#000000; stroke:none; fill-opacity:1" cx="1689.75" cy="1413.57" r="18"/>
<circle clip-path="url(#clip0902)" style="fill:#009af9; stroke:none; fill-opacity:1" cx="1689.75" cy="1413.57" r="14"/>
<circle clip-path="url(#clip0902)" style="fill:#000000; stroke:none; fill-opacity:1" cx="1693.58" cy="1413.57" r="18"/>
<circle clip-path="url(#clip0902)" style="fill:#009af9; stroke:none; fill-opacity:1" cx="1693.58" cy="1413.57" r="14"/>
<circle clip-path="url(#clip0902)" style="fill:#000000; stroke:none; fill-opacity:1" cx="1701.1" cy="1413.57" r="18"/>
<circle clip-path="url(#clip0902)" style="fill:#009af9; stroke:none; fill-opacity:1" cx="1701.1" cy="1413.57" r="14"/>
<circle clip-path="url(#clip0902)" style="fill:#000000; stroke:none; fill-opacity:1" cx="1702.95" cy="1413.57" r="18"/>
<circle clip-path="url(#clip0902)" style="fill:#009af9; stroke:none; fill-opacity:1" cx="1702.95" cy="1413.57" r="14"/>
<circle clip-path="url(#clip0902)" style="fill:#000000; stroke:none; fill-opacity:1" cx="1704.79" cy="1413.57" r="18"/>
<circle clip-path="url(#clip0902)" style="fill:#009af9; stroke:none; fill-opacity:1" cx="1704.79" cy="1413.57" r="14"/>
<circle clip-path="url(#clip0902)" style="fill:#000000; stroke:none; fill-opacity:1" cx="1706.61" cy="1328.28" r="18"/>
<circle clip-path="url(#clip0902)" style="fill:#009af9; stroke:none; fill-opacity:1" cx="1706.61" cy="1328.28" r="14"/>
<circle clip-path="url(#clip0902)" style="fill:#000000; stroke:none; fill-opacity:1" cx="1708.42" cy="1328.28" r="18"/>
<circle clip-path="url(#clip0902)" style="fill:#009af9; stroke:none; fill-opacity:1" cx="1708.42" cy="1328.28" r="14"/>
<circle clip-path="url(#clip0902)" style="fill:#000000; stroke:none; fill-opacity:1" cx="1710.22" cy="1359.76" r="18"/>
<circle clip-path="url(#clip0902)" style="fill:#009af9; stroke:none; fill-opacity:1" cx="1710.22" cy="1359.76" r="14"/>
<circle clip-path="url(#clip0902)" style="fill:#000000; stroke:none; fill-opacity:1" cx="1713.79" cy="1413.57" r="18"/>
<circle clip-path="url(#clip0902)" style="fill:#009af9; stroke:none; fill-opacity:1" cx="1713.79" cy="1413.57" r="14"/>
<circle clip-path="url(#clip0902)" style="fill:#000000; stroke:none; fill-opacity:1" cx="1820" cy="1413.57" r="18"/>
<circle clip-path="url(#clip0902)" style="fill:#009af9; stroke:none; fill-opacity:1" cx="1820" cy="1413.57" r="14"/>
<circle clip-path="url(#clip0902)" style="fill:#000000; stroke:none; fill-opacity:1" cx="1831.83" cy="1413.57" r="18"/>
<circle clip-path="url(#clip0902)" style="fill:#009af9; stroke:none; fill-opacity:1" cx="1831.83" cy="1413.57" r="14"/>
<circle clip-path="url(#clip0902)" style="fill:#000000; stroke:none; fill-opacity:1" cx="1832.99" cy="1413.57" r="18"/>
<circle clip-path="url(#clip0902)" style="fill:#009af9; stroke:none; fill-opacity:1" cx="1832.99" cy="1413.57" r="14"/>
<circle clip-path="url(#clip0902)" style="fill:#000000; stroke:none; fill-opacity:1" cx="2176.62" cy="1413.57" r="18"/>
<circle clip-path="url(#clip0902)" style="fill:#009af9; stroke:none; fill-opacity:1" cx="2176.62" cy="1413.57" r="14"/>
<circle clip-path="url(#clip0902)" style="fill:#000000; stroke:none; fill-opacity:1" cx="2224.86" cy="1413.57" r="18"/>
<circle clip-path="url(#clip0902)" style="fill:#009af9; stroke:none; fill-opacity:1" cx="2224.86" cy="1413.57" r="14"/>
<polyline clip-path="url(#clip0902)" style="stroke:#e26f46; stroke-width:4; stroke-opacity:1; fill:none" points="
  307.404,385.901 326.772,399.814 346.14,413.726 365.509,427.638 384.877,441.55 404.245,455.462 423.613,469.375 442.982,483.287 462.35,497.199 481.718,511.111 
  501.086,525.023 520.455,538.935 539.823,552.848 559.191,566.76 578.559,580.672 597.928,594.584 617.296,608.496 636.664,622.409 656.032,636.321 675.401,650.233 
  694.769,664.145 714.137,678.057 733.505,691.969 752.874,705.882 772.242,719.794 791.61,733.706 810.978,747.618 830.347,761.53 849.715,775.443 869.083,789.355 
  888.451,803.267 907.82,817.179 927.188,831.091 946.556,845.003 965.924,858.916 985.293,872.828 1004.66,886.74 1024.03,900.652 1043.4,914.564 1062.77,928.477 
  1082.13,942.389 1101.5,956.301 1120.87,970.213 1140.24,984.125 1159.61,998.038 1178.98,1011.95 1198.34,1025.86 1217.71,1039.77 1237.08,1053.69 1256.45,1067.6 
  1275.82,1081.51 1295.18,1095.42 1314.55,1109.33 1333.92,1123.25 1353.29,1137.16 1372.66,1151.07 1392.03,1164.98 1411.39,1178.9 1430.76,1192.81 1450.13,1206.72 
  1469.5,1220.63 1488.87,1234.54 1508.24,1248.46 1527.6,1262.37 1546.97,1276.28 1566.34,1290.19 1585.71,1304.11 1605.08,1318.02 1624.45,1331.93 1643.81,1345.84 
  1663.18,1359.75 1682.55,1373.67 1701.92,1387.58 1721.29,1401.49 1740.65,1415.4 1760.02,1429.32 1779.39,1443.23 1798.76,1457.14 1818.13,1471.05 1837.5,1484.96 
  1856.86,1498.88 1876.23,1512.79 1895.6,1526.7 1914.97,1540.61 1934.34,1554.52 1953.71,1568.44 1973.07,1582.35 1992.44,1596.26 2011.81,1610.17 2031.18,1624.09 
  2050.55,1638 2069.92,1651.91 2089.28,1665.82 2108.65,1679.73 2128.02,1693.65 2147.39,1707.56 2166.76,1721.47 2186.12,1735.38 2205.49,1749.3 2224.86,1763.21 
  
  "/>
<g clip-path="url(#clip0900)">
<text style="fill:#000000; fill-opacity:1; font-family:Arial,Helvetica Neue,Helvetica,sans-serif; font-size:59px; text-anchor:start;" transform="rotate(0, 307.404, 1381.26)" x="307.404" y="1381.26">r = -0.93</text>
</g>
</svg>
