<?xml version="1.0" encoding="utf-8"?>
<svg xmlns="http://www.w3.org/2000/svg" xmlns:xlink="http://www.w3.org/1999/xlink" width="600" height="400" viewBox="0 0 2400 1600">
<defs>
  <clipPath id="clip2000">
    <rect x="0" y="0" width="2400" height="1600"/>
  </clipPath>
</defs>
<polygon clip-path="url(#clip2000)" points="
0,1600 2400,1600 2400,0 0,0 
  " fill="#ffffff" fill-rule="evenodd" fill-opacity="1"/>
<defs>
  <clipPath id="clip2001">
    <rect x="480" y="0" width="1681" height="1600"/>
  </clipPath>
</defs>
<polygon clip-path="url(#clip2000)" points="
211.005,1440.48 2321.26,1440.48 2321.26,125.984 211.005,125.984 
  " fill="#ffffff" fill-rule="evenodd" fill-opacity="1"/>
<defs>
  <clipPath id="clip2002">
    <rect x="211" y="125" width="2111" height="1315"/>
  </clipPath>
</defs>
<polyline clip-path="url(#clip2002)" style="stroke:#000000; stroke-width:2; stroke-opacity:0.1; fill:none" points="
  384.333,1440.48 384.333,125.984 
  "/>
<polyline clip-path="url(#clip2002)" style="stroke:#000000; stroke-width:2; stroke-opacity:0.1; fill:none" points="
  730.989,1440.48 730.989,125.984 
  "/>
<polyline clip-path="url(#clip2002)" style="stroke:#000000; stroke-width:2; stroke-opacity:0.1; fill:none" points="
  1077.64,1440.48 1077.64,125.984 
  "/>
<polyline clip-path="url(#clip2002)" style="stroke:#000000; stroke-width:2; stroke-opacity:0.1; fill:none" points="
  1424.3,1440.48 1424.3,125.984 
  "/>
<polyline clip-path="url(#clip2002)" style="stroke:#000000; stroke-width:2; stroke-opacity:0.1; fill:none" points="
  1770.96,1440.48 1770.96,125.984 
  "/>
<polyline clip-path="url(#clip2002)" style="stroke:#000000; stroke-width:2; stroke-opacity:0.1; fill:none" points="
  2117.61,1440.48 2117.61,125.984 
  "/>
<polyline clip-path="url(#clip2002)" style="stroke:#000000; stroke-width:2; stroke-opacity:0.1; fill:none" points="
  211.005,1411.11 2321.26,1411.11 
  "/>
<polyline clip-path="url(#clip2002)" style="stroke:#000000; stroke-width:2; stroke-opacity:0.1; fill:none" points="
  211.005,1117.36 2321.26,1117.36 
  "/>
<polyline clip-path="url(#clip2002)" style="stroke:#000000; stroke-width:2; stroke-opacity:0.1; fill:none" points="
  211.005,823.62 2321.26,823.62 
  "/>
<polyline clip-path="url(#clip2002)" style="stroke:#000000; stroke-width:2; stroke-opacity:0.1; fill:none" points="
  211.005,529.876 2321.26,529.876 
  "/>
<polyline clip-path="url(#clip2002)" style="stroke:#000000; stroke-width:2; stroke-opacity:0.1; fill:none" points="
  211.005,236.132 2321.26,236.132 
  "/>
<polyline clip-path="url(#clip2000)" style="stroke:#000000; stroke-width:4; stroke-opacity:1; fill:none" points="
  211.005,1440.48 2321.26,1440.48 
  "/>
<polyline clip-path="url(#clip2000)" style="stroke:#000000; stroke-width:4; stroke-opacity:1; fill:none" points="
  211.005,1440.48 211.005,125.984 
  "/>
<polyline clip-path="url(#clip2000)" style="stroke:#000000; stroke-width:4; stroke-opacity:1; fill:none" points="
  384.333,1440.48 384.333,1420.77 
  "/>
<polyline clip-path="url(#clip2000)" style="stroke:#000000; stroke-width:4; stroke-opacity:1; fill:none" points="
  730.989,1440.48 730.989,1420.77 
  "/>
<polyline clip-path="url(#clip2000)" style="stroke:#000000; stroke-width:4; stroke-opacity:1; fill:none" points="
  1077.64,1440.48 1077.64,1420.77 
  "/>
<polyline clip-path="url(#clip2000)" style="stroke:#000000; stroke-width:4; stroke-opacity:1; fill:none" points="
  1424.3,1440.48 1424.3,1420.77 
  "/>
<polyline clip-path="url(#clip2000)" style="stroke:#000000; stroke-width:4; stroke-opacity:1; fill:none" points="
  1770.96,1440.48 1770.96,1420.77 
  "/>
<polyline clip-path="url(#clip2000)" style="stroke:#000000; stroke-width:4; stroke-opacity:1; fill:none" points="
  2117.61,1440.48 2117.61,1420.77 
  "/>
<polyline clip-path="url(#clip2000)" style="stroke:#000000; stroke-width:4; stroke-opacity:1; fill:none" points="
  211.005,1411.11 242.659,1411.11 
  "/>
<polyline clip-path="url(#clip2000)" style="stroke:#000000; stroke-width:4; stroke-opacity:1; fill:none" points="
  211.005,1117.36 242.659,1117.36 
  "/>
<polyline clip-path="url(#clip2000)" style="stroke:#000000; stroke-width:4; stroke-opacity:1; fill:none" points="
  211.005,823.62 242.659,823.62 
  "/>
<polyline clip-path="url(#clip2000)" style="stroke:#000000; stroke-width:4; stroke-opacity:1; fill:none" points="
  211.005,529.876 242.659,529.876 
  "/>
<polyline clip-path="url(#clip2000)" style="stroke:#000000; stroke-width:4; stroke-opacity:1; fill:none" points="
  211.005,236.132 242.659,236.132 
  "/>
<g clip-path="url(#clip2000)">
<text style="fill:#000000; fill-opacity:1; font-family:Arial,Helvetica Neue,Helvetica,sans-serif; font-size:48px; text-anchor:middle;" transform="rotate(0, 384.333, 1494.48)" x="384.333" y="1494.48">0</text>
</g>
<g clip-path="url(#clip2000)">
<text style="fill:#000000; fill-opacity:1; font-family:Arial,Helvetica Neue,Helvetica,sans-serif; font-size:48px; text-anchor:middle;" transform="rotate(0, 730.989, 1494.48)" x="730.989" y="1494.48">1</text>
</g>
<g clip-path="url(#clip2000)">
<text style="fill:#000000; fill-opacity:1; font-family:Arial,Helvetica Neue,Helvetica,sans-serif; font-size:48px; text-anchor:middle;" transform="rotate(0, 1077.64, 1494.48)" x="1077.64" y="1494.48">2</text>
</g>
<g clip-path="url(#clip2000)">
<text style="fill:#000000; fill-opacity:1; font-family:Arial,Helvetica Neue,Helvetica,sans-serif; font-size:48px; text-anchor:middle;" transform="rotate(0, 1424.3, 1494.48)" x="1424.3" y="1494.48">3</text>
</g>
<g clip-path="url(#clip2000)">
<text style="fill:#000000; fill-opacity:1; font-family:Arial,Helvetica Neue,Helvetica,sans-serif; font-size:48px; text-anchor:middle;" transform="rotate(0, 1770.96, 1494.48)" x="1770.96" y="1494.48">4</text>
</g>
<g clip-path="url(#clip2000)">
<text style="fill:#000000; fill-opacity:1; font-family:Arial,Helvetica Neue,Helvetica,sans-serif; font-size:48px; text-anchor:middle;" transform="rotate(0, 2117.61, 1494.48)" x="2117.61" y="1494.48">5</text>
</g>
<g clip-path="url(#clip2000)">
<text style="fill:#000000; fill-opacity:1; font-family:Arial,Helvetica Neue,Helvetica,sans-serif; font-size:48px; text-anchor:end;" transform="rotate(0, 187.005, 1428.61)" x="187.005" y="1428.61">0</text>
</g>
<g clip-path="url(#clip2000)">
<text style="fill:#000000; fill-opacity:1; font-family:Arial,Helvetica Neue,Helvetica,sans-serif; font-size:48px; text-anchor:end;" transform="rotate(0, 187.005, 1134.86)" x="187.005" y="1134.86">5</text>
</g>
<g clip-path="url(#clip2000)">
<text style="fill:#000000; fill-opacity:1; font-family:Arial,Helvetica Neue,Helvetica,sans-serif; font-size:48px; text-anchor:end;" transform="rotate(0, 187.005, 841.12)" x="187.005" y="841.12">10</text>
</g>
<g clip-path="url(#clip2000)">
<text style="fill:#000000; fill-opacity:1; font-family:Arial,Helvetica Neue,Helvetica,sans-serif; font-size:48px; text-anchor:end;" transform="rotate(0, 187.005, 547.376)" x="187.005" y="547.376">15</text>
</g>
<g clip-path="url(#clip2000)">
<text style="fill:#000000; fill-opacity:1; font-family:Arial,Helvetica Neue,Helvetica,sans-serif; font-size:48px; text-anchor:end;" transform="rotate(0, 187.005, 253.632)" x="187.005" y="253.632">20</text>
</g>
<g clip-path="url(#clip2000)">
<text style="fill:#000000; fill-opacity:1; font-family:Arial,Helvetica Neue,Helvetica,sans-serif; font-size:66px; text-anchor:middle;" transform="rotate(0, 1266.13, 57.6)" x="1266.13" y="57.6">GCF_000064305.2_ASM6430v2_genomic.fna.K31.counts.histogram</text>
</g>
<g clip-path="url(#clip2000)">
<text style="fill:#000000; fill-opacity:1; font-family:Arial,Helvetica Neue,Helvetica,sans-serif; font-size:66px; text-anchor:middle;" transform="rotate(0, 1266.13, 1590.4)" x="1266.13" y="1590.4">log2(depth of coverage)</text>
</g>
<g clip-path="url(#clip2000)">
<text style="fill:#000000; fill-opacity:1; font-family:Arial,Helvetica Neue,Helvetica,sans-serif; font-size:66px; text-anchor:middle;" transform="rotate(-90, 57.6, 783.233)" x="57.6" y="783.233">log2(# kmers)</text>
</g>
<circle clip-path="url(#clip2002)" style="fill:#000000; stroke:none; fill-opacity:1" cx="384.333" cy="155.359" r="18"/>
<circle clip-path="url(#clip2002)" style="fill:#009af9; stroke:none; fill-opacity:1" cx="384.333" cy="155.359" r="14"/>
<circle clip-path="url(#clip2002)" style="fill:#000000; stroke:none; fill-opacity:1" cx="730.989" cy="596.026" r="18"/>
<circle clip-path="url(#clip2002)" style="fill:#009af9; stroke:none; fill-opacity:1" cx="730.989" cy="596.026" r="14"/>
<circle clip-path="url(#clip2002)" style="fill:#000000; stroke:none; fill-opacity:1" cx="933.77" cy="661.675" r="18"/>
<circle clip-path="url(#clip2002)" style="fill:#009af9; stroke:none; fill-opacity:1" cx="933.77" cy="661.675" r="14"/>
<circle clip-path="url(#clip2002)" style="fill:#000000; stroke:none; fill-opacity:1" cx="1077.64" cy="783.65" r="18"/>
<circle clip-path="url(#clip2002)" style="fill:#009af9; stroke:none; fill-opacity:1" cx="1077.64" cy="783.65" r="14"/>
<circle clip-path="url(#clip2002)" style="fill:#000000; stroke:none; fill-opacity:1" cx="1189.24" cy="810.815" r="18"/>
<circle clip-path="url(#clip2002)" style="fill:#009af9; stroke:none; fill-opacity:1" cx="1189.24" cy="810.815" r="14"/>
<circle clip-path="url(#clip2002)" style="fill:#000000; stroke:none; fill-opacity:1" cx="1280.43" cy="666.385" r="18"/>
<circle clip-path="url(#clip2002)" style="fill:#009af9; stroke:none; fill-opacity:1" cx="1280.43" cy="666.385" r="14"/>
<circle clip-path="url(#clip2002)" style="fill:#000000; stroke:none; fill-opacity:1" cx="1357.52" cy="778.15" r="18"/>
<circle clip-path="url(#clip2002)" style="fill:#009af9; stroke:none; fill-opacity:1" cx="1357.52" cy="778.15" r="14"/>
<circle clip-path="url(#clip2002)" style="fill:#000000; stroke:none; fill-opacity:1" cx="1424.3" cy="906.092" r="18"/>
<circle clip-path="url(#clip2002)" style="fill:#009af9; stroke:none; fill-opacity:1" cx="1424.3" cy="906.092" r="14"/>
<circle clip-path="url(#clip2002)" style="fill:#000000; stroke:none; fill-opacity:1" cx="1483.21" cy="920.891" r="18"/>
<circle clip-path="url(#clip2002)" style="fill:#009af9; stroke:none; fill-opacity:1" cx="1483.21" cy="920.891" r="14"/>
<circle clip-path="url(#clip2002)" style="fill:#000000; stroke:none; fill-opacity:1" cx="1535.9" cy="897.755" r="18"/>
<circle clip-path="url(#clip2002)" style="fill:#009af9; stroke:none; fill-opacity:1" cx="1535.9" cy="897.755" r="14"/>
<circle clip-path="url(#clip2002)" style="fill:#000000; stroke:none; fill-opacity:1" cx="1583.57" cy="880.729" r="18"/>
<circle clip-path="url(#clip2002)" style="fill:#009af9; stroke:none; fill-opacity:1" cx="1583.57" cy="880.729" r="14"/>
<circle clip-path="url(#clip2002)" style="fill:#000000; stroke:none; fill-opacity:1" cx="1627.08" cy="981.485" r="18"/>
<circle clip-path="url(#clip2002)" style="fill:#009af9; stroke:none; fill-opacity:1" cx="1627.08" cy="981.485" r="14"/>
<circle clip-path="url(#clip2002)" style="fill:#000000; stroke:none; fill-opacity:1" cx="1667.11" cy="1138.29" r="18"/>
<circle clip-path="url(#clip2002)" style="fill:#009af9; stroke:none; fill-opacity:1" cx="1667.11" cy="1138.29" r="14"/>
<circle clip-path="url(#clip2002)" style="fill:#000000; stroke:none; fill-opacity:1" cx="1704.17" cy="1073.02" r="18"/>
<circle clip-path="url(#clip2002)" style="fill:#009af9; stroke:none; fill-opacity:1" cx="1704.17" cy="1073.02" r="14"/>
<circle clip-path="url(#clip2002)" style="fill:#000000; stroke:none; fill-opacity:1" cx="1738.68" cy="989.297" r="18"/>
<circle clip-path="url(#clip2002)" style="fill:#009af9; stroke:none; fill-opacity:1" cx="1738.68" cy="989.297" r="14"/>
<circle clip-path="url(#clip2002)" style="fill:#000000; stroke:none; fill-opacity:1" cx="1770.96" cy="1141.75" r="18"/>
<circle clip-path="url(#clip2002)" style="fill:#009af9; stroke:none; fill-opacity:1" cx="1770.96" cy="1141.75" r="14"/>
<circle clip-path="url(#clip2002)" style="fill:#000000; stroke:none; fill-opacity:1" cx="1801.28" cy="1166.13" r="18"/>
<circle clip-path="url(#clip2002)" style="fill:#009af9; stroke:none; fill-opacity:1" cx="1801.28" cy="1166.13" r="14"/>
<circle clip-path="url(#clip2002)" style="fill:#000000; stroke:none; fill-opacity:1" cx="1829.86" cy="1157.2" r="18"/>
<circle clip-path="url(#clip2002)" style="fill:#009af9; stroke:none; fill-opacity:1" cx="1829.86" cy="1157.2" r="14"/>
<circle clip-path="url(#clip2002)" style="fill:#000000; stroke:none; fill-opacity:1" cx="1856.9" cy="1141.75" r="18"/>
<circle clip-path="url(#clip2002)" style="fill:#009af9; stroke:none; fill-opacity:1" cx="1856.9" cy="1141.75" r="14"/>
<circle clip-path="url(#clip2002)" style="fill:#000000; stroke:none; fill-opacity:1" cx="1882.55" cy="1411.11" r="18"/>
<circle clip-path="url(#clip2002)" style="fill:#009af9; stroke:none; fill-opacity:1" cx="1882.55" cy="1411.11" r="14"/>
<circle clip-path="url(#clip2002)" style="fill:#000000; stroke:none; fill-opacity:1" cx="1906.96" cy="1259.24" r="18"/>
<circle clip-path="url(#clip2002)" style="fill:#009af9; stroke:none; fill-opacity:1" cx="1906.96" cy="1259.24" r="14"/>
<circle clip-path="url(#clip2002)" style="fill:#000000; stroke:none; fill-opacity:1" cx="1930.22" cy="1352.36" r="18"/>
<circle clip-path="url(#clip2002)" style="fill:#009af9; stroke:none; fill-opacity:1" cx="1930.22" cy="1352.36" r="14"/>
<circle clip-path="url(#clip2002)" style="fill:#000000; stroke:none; fill-opacity:1" cx="1952.45" cy="1246.18" r="18"/>
<circle clip-path="url(#clip2002)" style="fill:#009af9; stroke:none; fill-opacity:1" cx="1952.45" cy="1246.18" r="14"/>
<circle clip-path="url(#clip2002)" style="fill:#000000; stroke:none; fill-opacity:1" cx="1973.74" cy="1224.88" r="18"/>
<circle clip-path="url(#clip2002)" style="fill:#009af9; stroke:none; fill-opacity:1" cx="1973.74" cy="1224.88" r="14"/>
<circle clip-path="url(#clip2002)" style="fill:#000000; stroke:none; fill-opacity:1" cx="1994.15" cy="1181.58" r="18"/>
<circle clip-path="url(#clip2002)" style="fill:#009af9; stroke:none; fill-opacity:1" cx="1994.15" cy="1181.58" r="14"/>
<circle clip-path="url(#clip2002)" style="fill:#000000; stroke:none; fill-opacity:1" cx="2013.77" cy="1246.18" r="18"/>
<circle clip-path="url(#clip2002)" style="fill:#009af9; stroke:none; fill-opacity:1" cx="2013.77" cy="1246.18" r="14"/>
<circle clip-path="url(#clip2002)" style="fill:#000000; stroke:none; fill-opacity:1" cx="2032.64" cy="1317.99" r="18"/>
<circle clip-path="url(#clip2002)" style="fill:#009af9; stroke:none; fill-opacity:1" cx="2032.64" cy="1317.99" r="14"/>
<circle clip-path="url(#clip2002)" style="fill:#000000; stroke:none; fill-opacity:1" cx="2050.83" cy="1149.12" r="18"/>
<circle clip-path="url(#clip2002)" style="fill:#009af9; stroke:none; fill-opacity:1" cx="2050.83" cy="1149.12" r="14"/>
<circle clip-path="url(#clip2002)" style="fill:#000000; stroke:none; fill-opacity:1" cx="2068.38" cy="1131.76" r="18"/>
<circle clip-path="url(#clip2002)" style="fill:#009af9; stroke:none; fill-opacity:1" cx="2068.38" cy="1131.76" r="14"/>
<circle clip-path="url(#clip2002)" style="fill:#000000; stroke:none; fill-opacity:1" cx="2085.34" cy="1193.71" r="18"/>
<circle clip-path="url(#clip2002)" style="fill:#009af9; stroke:none; fill-opacity:1" cx="2085.34" cy="1193.71" r="14"/>
<circle clip-path="url(#clip2002)" style="fill:#000000; stroke:none; fill-opacity:1" cx="2101.73" cy="1293.61" r="18"/>
<circle clip-path="url(#clip2002)" style="fill:#009af9; stroke:none; fill-opacity:1" cx="2101.73" cy="1293.61" r="14"/>
<circle clip-path="url(#clip2002)" style="fill:#000000; stroke:none; fill-opacity:1" cx="2133" cy="1411.11" r="18"/>
<circle clip-path="url(#clip2002)" style="fill:#009af9; stroke:none; fill-opacity:1" cx="2133" cy="1411.11" r="14"/>
<circle clip-path="url(#clip2002)" style="fill:#000000; stroke:none; fill-opacity:1" cx="2147.93" cy="1259.24" r="18"/>
<circle clip-path="url(#clip2002)" style="fill:#009af9; stroke:none; fill-opacity:1" cx="2147.93" cy="1259.24" r="14"/>
<polyline clip-path="url(#clip2002)" style="stroke:#e26f46; stroke-width:4; stroke-opacity:1; fill:none" points="
  384.333,274.241 402.147,284.902 419.961,295.563 437.775,306.223 455.589,316.884 473.404,327.545 491.218,338.206 509.032,348.867 526.846,359.528 544.66,370.189 
  562.474,380.849 580.288,391.51 598.103,402.171 615.917,412.832 633.731,423.493 651.545,434.154 669.359,444.815 687.173,455.475 704.987,466.136 722.801,476.797 
  740.616,487.458 758.43,498.119 776.244,508.78 794.058,519.44 811.872,530.101 829.686,540.762 847.5,551.423 865.314,562.084 883.129,572.745 900.943,583.406 
  918.757,594.066 936.571,604.727 954.385,615.388 972.199,626.049 990.013,636.71 1007.83,647.371 1025.64,658.032 1043.46,668.692 1061.27,679.353 1079.08,690.014 
  1096.9,700.675 1114.71,711.336 1132.53,721.997 1150.34,732.657 1168.15,743.318 1185.97,753.979 1203.78,764.64 1221.6,775.301 1239.41,785.962 1257.23,796.623 
  1275.04,807.283 1292.85,817.944 1310.67,828.605 1328.48,839.266 1346.3,849.927 1364.11,860.588 1381.92,871.249 1399.74,881.909 1417.55,892.57 1435.37,903.231 
  1453.18,913.892 1470.99,924.553 1488.81,935.214 1506.62,945.874 1524.44,956.535 1542.25,967.196 1560.07,977.857 1577.88,988.518 1595.69,999.179 1613.51,1009.84 
  1631.32,1020.5 1649.14,1031.16 1666.95,1041.82 1684.76,1052.48 1702.58,1063.14 1720.39,1073.8 1738.21,1084.47 1756.02,1095.13 1773.84,1105.79 1791.65,1116.45 
  1809.46,1127.11 1827.28,1137.77 1845.09,1148.43 1862.91,1159.09 1880.72,1169.75 1898.53,1180.41 1916.35,1191.07 1934.16,1201.73 1951.98,1212.4 1969.79,1223.06 
  1987.6,1233.72 2005.42,1244.38 2023.23,1255.04 2041.05,1265.7 2058.86,1276.36 2076.68,1287.02 2094.49,1297.68 2112.3,1308.34 2130.12,1319 2147.93,1329.67 
  
  "/>
<g clip-path="url(#clip2000)">
<text style="fill:#000000; fill-opacity:1; font-family:Arial,Helvetica Neue,Helvetica,sans-serif; font-size:59px; text-anchor:start;" transform="rotate(0, 384.333, 1373.86)" x="384.333" y="1373.86">r = -0.94</text>
</g>
</svg>
