<?xml version="1.0" encoding="utf-8"?>
<svg xmlns="http://www.w3.org/2000/svg" xmlns:xlink="http://www.w3.org/1999/xlink" width="600" height="400" viewBox="0 0 2400 1600">
<defs>
  <clipPath id="clip0600">
    <rect x="0" y="0" width="2400" height="1600"/>
  </clipPath>
</defs>
<polygon clip-path="url(#clip0600)" points="
0,1600 2400,1600 2400,0 0,0 
  " fill="#ffffff" fill-rule="evenodd" fill-opacity="1"/>
<defs>
  <clipPath id="clip0601">
    <rect x="480" y="0" width="1681" height="1600"/>
  </clipPath>
</defs>
<polygon clip-path="url(#clip0600)" points="
211.005,1440.48 2321.26,1440.48 2321.26,125.984 211.005,125.984 
  " fill="#ffffff" fill-rule="evenodd" fill-opacity="1"/>
<defs>
  <clipPath id="clip0602">
    <rect x="211" y="125" width="2111" height="1315"/>
  </clipPath>
</defs>
<polyline clip-path="url(#clip0602)" style="stroke:#000000; stroke-width:2; stroke-opacity:0.1; fill:none" points="
  328.918,1440.48 328.918,125.984 
  "/>
<polyline clip-path="url(#clip0602)" style="stroke:#000000; stroke-width:2; stroke-opacity:0.1; fill:none" points="
  800.569,1440.48 800.569,125.984 
  "/>
<polyline clip-path="url(#clip0602)" style="stroke:#000000; stroke-width:2; stroke-opacity:0.1; fill:none" points="
  1272.22,1440.48 1272.22,125.984 
  "/>
<polyline clip-path="url(#clip0602)" style="stroke:#000000; stroke-width:2; stroke-opacity:0.1; fill:none" points="
  1743.87,1440.48 1743.87,125.984 
  "/>
<polyline clip-path="url(#clip0602)" style="stroke:#000000; stroke-width:2; stroke-opacity:0.1; fill:none" points="
  2215.52,1440.48 2215.52,125.984 
  "/>
<polyline clip-path="url(#clip0602)" style="stroke:#000000; stroke-width:2; stroke-opacity:0.1; fill:none" points="
  211.005,1407.03 2321.26,1407.03 
  "/>
<polyline clip-path="url(#clip0602)" style="stroke:#000000; stroke-width:2; stroke-opacity:0.1; fill:none" points="
  211.005,1072.45 2321.26,1072.45 
  "/>
<polyline clip-path="url(#clip0602)" style="stroke:#000000; stroke-width:2; stroke-opacity:0.1; fill:none" points="
  211.005,737.883 2321.26,737.883 
  "/>
<polyline clip-path="url(#clip0602)" style="stroke:#000000; stroke-width:2; stroke-opacity:0.1; fill:none" points="
  211.005,403.312 2321.26,403.312 
  "/>
<polyline clip-path="url(#clip0600)" style="stroke:#000000; stroke-width:4; stroke-opacity:1; fill:none" points="
  211.005,1440.48 2321.26,1440.48 
  "/>
<polyline clip-path="url(#clip0600)" style="stroke:#000000; stroke-width:4; stroke-opacity:1; fill:none" points="
  211.005,1440.48 211.005,125.984 
  "/>
<polyline clip-path="url(#clip0600)" style="stroke:#000000; stroke-width:4; stroke-opacity:1; fill:none" points="
  328.918,1440.48 328.918,1420.77 
  "/>
<polyline clip-path="url(#clip0600)" style="stroke:#000000; stroke-width:4; stroke-opacity:1; fill:none" points="
  800.569,1440.48 800.569,1420.77 
  "/>
<polyline clip-path="url(#clip0600)" style="stroke:#000000; stroke-width:4; stroke-opacity:1; fill:none" points="
  1272.22,1440.48 1272.22,1420.77 
  "/>
<polyline clip-path="url(#clip0600)" style="stroke:#000000; stroke-width:4; stroke-opacity:1; fill:none" points="
  1743.87,1440.48 1743.87,1420.77 
  "/>
<polyline clip-path="url(#clip0600)" style="stroke:#000000; stroke-width:4; stroke-opacity:1; fill:none" points="
  2215.52,1440.48 2215.52,1420.77 
  "/>
<polyline clip-path="url(#clip0600)" style="stroke:#000000; stroke-width:4; stroke-opacity:1; fill:none" points="
  211.005,1407.03 242.659,1407.03 
  "/>
<polyline clip-path="url(#clip0600)" style="stroke:#000000; stroke-width:4; stroke-opacity:1; fill:none" points="
  211.005,1072.45 242.659,1072.45 
  "/>
<polyline clip-path="url(#clip0600)" style="stroke:#000000; stroke-width:4; stroke-opacity:1; fill:none" points="
  211.005,737.883 242.659,737.883 
  "/>
<polyline clip-path="url(#clip0600)" style="stroke:#000000; stroke-width:4; stroke-opacity:1; fill:none" points="
  211.005,403.312 242.659,403.312 
  "/>
<g clip-path="url(#clip0600)">
<text style="fill:#000000; fill-opacity:1; font-family:Arial,Helvetica Neue,Helvetica,sans-serif; font-size:48px; text-anchor:middle;" transform="rotate(0, 328.918, 1494.48)" x="328.918" y="1494.48">0</text>
</g>
<g clip-path="url(#clip0600)">
<text style="fill:#000000; fill-opacity:1; font-family:Arial,Helvetica Neue,Helvetica,sans-serif; font-size:48px; text-anchor:middle;" transform="rotate(0, 800.569, 1494.48)" x="800.569" y="1494.48">2</text>
</g>
<g clip-path="url(#clip0600)">
<text style="fill:#000000; fill-opacity:1; font-family:Arial,Helvetica Neue,Helvetica,sans-serif; font-size:48px; text-anchor:middle;" transform="rotate(0, 1272.22, 1494.48)" x="1272.22" y="1494.48">4</text>
</g>
<g clip-path="url(#clip0600)">
<text style="fill:#000000; fill-opacity:1; font-family:Arial,Helvetica Neue,Helvetica,sans-serif; font-size:48px; text-anchor:middle;" transform="rotate(0, 1743.87, 1494.48)" x="1743.87" y="1494.48">6</text>
</g>
<g clip-path="url(#clip0600)">
<text style="fill:#000000; fill-opacity:1; font-family:Arial,Helvetica Neue,Helvetica,sans-serif; font-size:48px; text-anchor:middle;" transform="rotate(0, 2215.52, 1494.48)" x="2215.52" y="1494.48">8</text>
</g>
<g clip-path="url(#clip0600)">
<text style="fill:#000000; fill-opacity:1; font-family:Arial,Helvetica Neue,Helvetica,sans-serif; font-size:48px; text-anchor:end;" transform="rotate(0, 187.005, 1424.53)" x="187.005" y="1424.53">0</text>
</g>
<g clip-path="url(#clip0600)">
<text style="fill:#000000; fill-opacity:1; font-family:Arial,Helvetica Neue,Helvetica,sans-serif; font-size:48px; text-anchor:end;" transform="rotate(0, 187.005, 1089.95)" x="187.005" y="1089.95">5</text>
</g>
<g clip-path="url(#clip0600)">
<text style="fill:#000000; fill-opacity:1; font-family:Arial,Helvetica Neue,Helvetica,sans-serif; font-size:48px; text-anchor:end;" transform="rotate(0, 187.005, 755.383)" x="187.005" y="755.383">10</text>
</g>
<g clip-path="url(#clip0600)">
<text style="fill:#000000; fill-opacity:1; font-family:Arial,Helvetica Neue,Helvetica,sans-serif; font-size:48px; text-anchor:end;" transform="rotate(0, 187.005, 420.812)" x="187.005" y="420.812">15</text>
</g>
<g clip-path="url(#clip0600)">
<text style="fill:#000000; fill-opacity:1; font-family:Arial,Helvetica Neue,Helvetica,sans-serif; font-size:66px; text-anchor:middle;" transform="rotate(0, 1266.13, 57.6)" x="1266.13" y="57.6">GCF_000064305.2_ASM6430v2_genomic.fna.K11.counts.histogram</text>
</g>
<g clip-path="url(#clip0600)">
<text style="fill:#000000; fill-opacity:1; font-family:Arial,Helvetica Neue,Helvetica,sans-serif; font-size:66px; text-anchor:middle;" transform="rotate(0, 1266.13, 1590.4)" x="1266.13" y="1590.4">log2(depth of coverage)</text>
</g>
<g clip-path="url(#clip0600)">
<text style="fill:#000000; fill-opacity:1; font-family:Arial,Helvetica Neue,Helvetica,sans-serif; font-size:66px; text-anchor:middle;" transform="rotate(-90, 57.6, 783.233)" x="57.6" y="783.233">log2(# kmers)</text>
</g>
<circle clip-path="url(#clip0602)" style="fill:#000000; stroke:none; fill-opacity:1" cx="328.918" cy="159.441" r="18"/>
<circle clip-path="url(#clip0602)" style="fill:#009af9; stroke:none; fill-opacity:1" cx="328.918" cy="159.441" r="14"/>
<circle clip-path="url(#clip0602)" style="fill:#000000; stroke:none; fill-opacity:1" cx="564.744" cy="237.565" r="18"/>
<circle clip-path="url(#clip0602)" style="fill:#009af9; stroke:none; fill-opacity:1" cx="564.744" cy="237.565" r="14"/>
<circle clip-path="url(#clip0602)" style="fill:#000000; stroke:none; fill-opacity:1" cx="702.693" cy="298.531" r="18"/>
<circle clip-path="url(#clip0602)" style="fill:#009af9; stroke:none; fill-opacity:1" cx="702.693" cy="298.531" r="14"/>
<circle clip-path="url(#clip0602)" style="fill:#000000; stroke:none; fill-opacity:1" cx="800.569" cy="349.097" r="18"/>
<circle clip-path="url(#clip0602)" style="fill:#009af9; stroke:none; fill-opacity:1" cx="800.569" cy="349.097" r="14"/>
<circle clip-path="url(#clip0602)" style="fill:#000000; stroke:none; fill-opacity:1" cx="876.488" cy="391.326" r="18"/>
<circle clip-path="url(#clip0602)" style="fill:#009af9; stroke:none; fill-opacity:1" cx="876.488" cy="391.326" r="14"/>
<circle clip-path="url(#clip0602)" style="fill:#000000; stroke:none; fill-opacity:1" cx="938.518" cy="418.935" r="18"/>
<circle clip-path="url(#clip0602)" style="fill:#009af9; stroke:none; fill-opacity:1" cx="938.518" cy="418.935" r="14"/>
<circle clip-path="url(#clip0602)" style="fill:#000000; stroke:none; fill-opacity:1" cx="990.964" cy="455.091" r="18"/>
<circle clip-path="url(#clip0602)" style="fill:#009af9; stroke:none; fill-opacity:1" cx="990.964" cy="455.091" r="14"/>
<circle clip-path="url(#clip0602)" style="fill:#000000; stroke:none; fill-opacity:1" cx="1036.39" cy="485.683" r="18"/>
<circle clip-path="url(#clip0602)" style="fill:#009af9; stroke:none; fill-opacity:1" cx="1036.39" cy="485.683" r="14"/>
<circle clip-path="url(#clip0602)" style="fill:#000000; stroke:none; fill-opacity:1" cx="1076.47" cy="514.689" r="18"/>
<circle clip-path="url(#clip0602)" style="fill:#009af9; stroke:none; fill-opacity:1" cx="1076.47" cy="514.689" r="14"/>
<circle clip-path="url(#clip0602)" style="fill:#000000; stroke:none; fill-opacity:1" cx="1112.31" cy="539.153" r="18"/>
<circle clip-path="url(#clip0602)" style="fill:#009af9; stroke:none; fill-opacity:1" cx="1112.31" cy="539.153" r="14"/>
<circle clip-path="url(#clip0602)" style="fill:#000000; stroke:none; fill-opacity:1" cx="1144.74" cy="560.28" r="18"/>
<circle clip-path="url(#clip0602)" style="fill:#009af9; stroke:none; fill-opacity:1" cx="1144.74" cy="560.28" r="14"/>
<circle clip-path="url(#clip0602)" style="fill:#000000; stroke:none; fill-opacity:1" cx="1174.34" cy="582.457" r="18"/>
<circle clip-path="url(#clip0602)" style="fill:#009af9; stroke:none; fill-opacity:1" cx="1174.34" cy="582.457" r="14"/>
<circle clip-path="url(#clip0602)" style="fill:#000000; stroke:none; fill-opacity:1" cx="1201.58" cy="602.697" r="18"/>
<circle clip-path="url(#clip0602)" style="fill:#009af9; stroke:none; fill-opacity:1" cx="1201.58" cy="602.697" r="14"/>
<circle clip-path="url(#clip0602)" style="fill:#000000; stroke:none; fill-opacity:1" cx="1226.79" cy="618.63" r="18"/>
<circle clip-path="url(#clip0602)" style="fill:#009af9; stroke:none; fill-opacity:1" cx="1226.79" cy="618.63" r="14"/>
<circle clip-path="url(#clip0602)" style="fill:#000000; stroke:none; fill-opacity:1" cx="1250.26" cy="635.87" r="18"/>
<circle clip-path="url(#clip0602)" style="fill:#009af9; stroke:none; fill-opacity:1" cx="1250.26" cy="635.87" r="14"/>
<circle clip-path="url(#clip0602)" style="fill:#000000; stroke:none; fill-opacity:1" cx="1272.22" cy="653.51" r="18"/>
<circle clip-path="url(#clip0602)" style="fill:#009af9; stroke:none; fill-opacity:1" cx="1272.22" cy="653.51" r="14"/>
<circle clip-path="url(#clip0602)" style="fill:#000000; stroke:none; fill-opacity:1" cx="1292.85" cy="673.355" r="18"/>
<circle clip-path="url(#clip0602)" style="fill:#009af9; stroke:none; fill-opacity:1" cx="1292.85" cy="673.355" r="14"/>
<circle clip-path="url(#clip0602)" style="fill:#000000; stroke:none; fill-opacity:1" cx="1312.29" cy="690.724" r="18"/>
<circle clip-path="url(#clip0602)" style="fill:#009af9; stroke:none; fill-opacity:1" cx="1312.29" cy="690.724" r="14"/>
<circle clip-path="url(#clip0602)" style="fill:#000000; stroke:none; fill-opacity:1" cx="1330.69" cy="705.711" r="18"/>
<circle clip-path="url(#clip0602)" style="fill:#009af9; stroke:none; fill-opacity:1" cx="1330.69" cy="705.711" r="14"/>
<circle clip-path="url(#clip0602)" style="fill:#000000; stroke:none; fill-opacity:1" cx="1348.14" cy="716.493" r="18"/>
<circle clip-path="url(#clip0602)" style="fill:#009af9; stroke:none; fill-opacity:1" cx="1348.14" cy="716.493" r="14"/>
<circle clip-path="url(#clip0602)" style="fill:#000000; stroke:none; fill-opacity:1" cx="1364.74" cy="729.751" r="18"/>
<circle clip-path="url(#clip0602)" style="fill:#009af9; stroke:none; fill-opacity:1" cx="1364.74" cy="729.751" r="14"/>
<circle clip-path="url(#clip0602)" style="fill:#000000; stroke:none; fill-opacity:1" cx="1380.57" cy="749.277" r="18"/>
<circle clip-path="url(#clip0602)" style="fill:#009af9; stroke:none; fill-opacity:1" cx="1380.57" cy="749.277" r="14"/>
<circle clip-path="url(#clip0602)" style="fill:#000000; stroke:none; fill-opacity:1" cx="1395.69" cy="756.317" r="18"/>
<circle clip-path="url(#clip0602)" style="fill:#009af9; stroke:none; fill-opacity:1" cx="1395.69" cy="756.317" r="14"/>
<circle clip-path="url(#clip0602)" style="fill:#000000; stroke:none; fill-opacity:1" cx="1410.17" cy="773.508" r="18"/>
<circle clip-path="url(#clip0602)" style="fill:#009af9; stroke:none; fill-opacity:1" cx="1410.17" cy="773.508" r="14"/>
<circle clip-path="url(#clip0602)" style="fill:#000000; stroke:none; fill-opacity:1" cx="1424.06" cy="786.477" r="18"/>
<circle clip-path="url(#clip0602)" style="fill:#009af9; stroke:none; fill-opacity:1" cx="1424.06" cy="786.477" r="14"/>
<circle clip-path="url(#clip0602)" style="fill:#000000; stroke:none; fill-opacity:1" cx="1437.4" cy="799.3" r="18"/>
<circle clip-path="url(#clip0602)" style="fill:#009af9; stroke:none; fill-opacity:1" cx="1437.4" cy="799.3" r="14"/>
<circle clip-path="url(#clip0602)" style="fill:#000000; stroke:none; fill-opacity:1" cx="1450.24" cy="809.234" r="18"/>
<circle clip-path="url(#clip0602)" style="fill:#009af9; stroke:none; fill-opacity:1" cx="1450.24" cy="809.234" r="14"/>
<circle clip-path="url(#clip0602)" style="fill:#000000; stroke:none; fill-opacity:1" cx="1462.62" cy="819.208" r="18"/>
<circle clip-path="url(#clip0602)" style="fill:#009af9; stroke:none; fill-opacity:1" cx="1462.62" cy="819.208" r="14"/>
<circle clip-path="url(#clip0602)" style="fill:#000000; stroke:none; fill-opacity:1" cx="1474.55" cy="816.617" r="18"/>
<circle clip-path="url(#clip0602)" style="fill:#009af9; stroke:none; fill-opacity:1" cx="1474.55" cy="816.617" r="14"/>
<circle clip-path="url(#clip0602)" style="fill:#000000; stroke:none; fill-opacity:1" cx="1486.09" cy="831.818" r="18"/>
<circle clip-path="url(#clip0602)" style="fill:#009af9; stroke:none; fill-opacity:1" cx="1486.09" cy="831.818" r="14"/>
<circle clip-path="url(#clip0602)" style="fill:#000000; stroke:none; fill-opacity:1" cx="1497.24" cy="853.86" r="18"/>
<circle clip-path="url(#clip0602)" style="fill:#009af9; stroke:none; fill-opacity:1" cx="1497.24" cy="853.86" r="14"/>
<circle clip-path="url(#clip0602)" style="fill:#000000; stroke:none; fill-opacity:1" cx="1508.05" cy="859.341" r="18"/>
<circle clip-path="url(#clip0602)" style="fill:#009af9; stroke:none; fill-opacity:1" cx="1508.05" cy="859.341" r="14"/>
<circle clip-path="url(#clip0602)" style="fill:#000000; stroke:none; fill-opacity:1" cx="1518.52" cy="858.68" r="18"/>
<circle clip-path="url(#clip0602)" style="fill:#009af9; stroke:none; fill-opacity:1" cx="1518.52" cy="858.68" r="14"/>
<circle clip-path="url(#clip0602)" style="fill:#000000; stroke:none; fill-opacity:1" cx="1528.67" cy="882.894" r="18"/>
<circle clip-path="url(#clip0602)" style="fill:#009af9; stroke:none; fill-opacity:1" cx="1528.67" cy="882.894" r="14"/>
<circle clip-path="url(#clip0602)" style="fill:#000000; stroke:none; fill-opacity:1" cx="1538.53" cy="893.159" r="18"/>
<circle clip-path="url(#clip0602)" style="fill:#009af9; stroke:none; fill-opacity:1" cx="1538.53" cy="893.159" r="14"/>
<circle clip-path="url(#clip0602)" style="fill:#000000; stroke:none; fill-opacity:1" cx="1548.12" cy="900.494" r="18"/>
<circle clip-path="url(#clip0602)" style="fill:#009af9; stroke:none; fill-opacity:1" cx="1548.12" cy="900.494" r="14"/>
<circle clip-path="url(#clip0602)" style="fill:#000000; stroke:none; fill-opacity:1" cx="1557.44" cy="896.027" r="18"/>
<circle clip-path="url(#clip0602)" style="fill:#009af9; stroke:none; fill-opacity:1" cx="1557.44" cy="896.027" r="14"/>
<circle clip-path="url(#clip0602)" style="fill:#000000; stroke:none; fill-opacity:1" cx="1566.51" cy="901.004" r="18"/>
<circle clip-path="url(#clip0602)" style="fill:#009af9; stroke:none; fill-opacity:1" cx="1566.51" cy="901.004" r="14"/>
<circle clip-path="url(#clip0602)" style="fill:#000000; stroke:none; fill-opacity:1" cx="1575.35" cy="920.149" r="18"/>
<circle clip-path="url(#clip0602)" style="fill:#009af9; stroke:none; fill-opacity:1" cx="1575.35" cy="920.149" r="14"/>
<circle clip-path="url(#clip0602)" style="fill:#000000; stroke:none; fill-opacity:1" cx="1583.97" cy="927.255" r="18"/>
<circle clip-path="url(#clip0602)" style="fill:#009af9; stroke:none; fill-opacity:1" cx="1583.97" cy="927.255" r="14"/>
<circle clip-path="url(#clip0602)" style="fill:#000000; stroke:none; fill-opacity:1" cx="1592.37" cy="925.924" r="18"/>
<circle clip-path="url(#clip0602)" style="fill:#009af9; stroke:none; fill-opacity:1" cx="1592.37" cy="925.924" r="14"/>
<circle clip-path="url(#clip0602)" style="fill:#000000; stroke:none; fill-opacity:1" cx="1600.56" cy="937.129" r="18"/>
<circle clip-path="url(#clip0602)" style="fill:#009af9; stroke:none; fill-opacity:1" cx="1600.56" cy="937.129" r="14"/>
<circle clip-path="url(#clip0602)" style="fill:#000000; stroke:none; fill-opacity:1" cx="1608.57" cy="944.055" r="18"/>
<circle clip-path="url(#clip0602)" style="fill:#009af9; stroke:none; fill-opacity:1" cx="1608.57" cy="944.055" r="14"/>
<circle clip-path="url(#clip0602)" style="fill:#000000; stroke:none; fill-opacity:1" cx="1616.39" cy="954.138" r="18"/>
<circle clip-path="url(#clip0602)" style="fill:#009af9; stroke:none; fill-opacity:1" cx="1616.39" cy="954.138" r="14"/>
<circle clip-path="url(#clip0602)" style="fill:#000000; stroke:none; fill-opacity:1" cx="1624.04" cy="985.213" r="18"/>
<circle clip-path="url(#clip0602)" style="fill:#009af9; stroke:none; fill-opacity:1" cx="1624.04" cy="985.213" r="14"/>
<circle clip-path="url(#clip0602)" style="fill:#000000; stroke:none; fill-opacity:1" cx="1631.52" cy="969.463" r="18"/>
<circle clip-path="url(#clip0602)" style="fill:#009af9; stroke:none; fill-opacity:1" cx="1631.52" cy="969.463" r="14"/>
<circle clip-path="url(#clip0602)" style="fill:#000000; stroke:none; fill-opacity:1" cx="1638.83" cy="996.889" r="18"/>
<circle clip-path="url(#clip0602)" style="fill:#009af9; stroke:none; fill-opacity:1" cx="1638.83" cy="996.889" r="14"/>
<circle clip-path="url(#clip0602)" style="fill:#000000; stroke:none; fill-opacity:1" cx="1646" cy="994.17" r="18"/>
<circle clip-path="url(#clip0602)" style="fill:#009af9; stroke:none; fill-opacity:1" cx="1646" cy="994.17" r="14"/>
<circle clip-path="url(#clip0602)" style="fill:#000000; stroke:none; fill-opacity:1" cx="1653.01" cy="995.52" r="18"/>
<circle clip-path="url(#clip0602)" style="fill:#009af9; stroke:none; fill-opacity:1" cx="1653.01" cy="995.52" r="14"/>
<circle clip-path="url(#clip0602)" style="fill:#000000; stroke:none; fill-opacity:1" cx="1659.88" cy="991.525" r="18"/>
<circle clip-path="url(#clip0602)" style="fill:#009af9; stroke:none; fill-opacity:1" cx="1659.88" cy="991.525" r="14"/>
<circle clip-path="url(#clip0602)" style="fill:#000000; stroke:none; fill-opacity:1" cx="1666.62" cy="1002.57" r="18"/>
<circle clip-path="url(#clip0602)" style="fill:#009af9; stroke:none; fill-opacity:1" cx="1666.62" cy="1002.57" r="14"/>
<circle clip-path="url(#clip0602)" style="fill:#000000; stroke:none; fill-opacity:1" cx="1673.23" cy="1001.12" r="18"/>
<circle clip-path="url(#clip0602)" style="fill:#009af9; stroke:none; fill-opacity:1" cx="1673.23" cy="1001.12" r="14"/>
<circle clip-path="url(#clip0602)" style="fill:#000000; stroke:none; fill-opacity:1" cx="1679.71" cy="1033.31" r="18"/>
<circle clip-path="url(#clip0602)" style="fill:#009af9; stroke:none; fill-opacity:1" cx="1679.71" cy="1033.31" r="14"/>
<circle clip-path="url(#clip0602)" style="fill:#000000; stroke:none; fill-opacity:1" cx="1686.07" cy="1029.37" r="18"/>
<circle clip-path="url(#clip0602)" style="fill:#009af9; stroke:none; fill-opacity:1" cx="1686.07" cy="1029.37" r="14"/>
<circle clip-path="url(#clip0602)" style="fill:#000000; stroke:none; fill-opacity:1" cx="1692.31" cy="1046.2" r="18"/>
<circle clip-path="url(#clip0602)" style="fill:#009af9; stroke:none; fill-opacity:1" cx="1692.31" cy="1046.2" r="14"/>
<circle clip-path="url(#clip0602)" style="fill:#000000; stroke:none; fill-opacity:1" cx="1698.44" cy="1050.91" r="18"/>
<circle clip-path="url(#clip0602)" style="fill:#009af9; stroke:none; fill-opacity:1" cx="1698.44" cy="1050.91" r="14"/>
<circle clip-path="url(#clip0602)" style="fill:#000000; stroke:none; fill-opacity:1" cx="1704.46" cy="1055.86" r="18"/>
<circle clip-path="url(#clip0602)" style="fill:#009af9; stroke:none; fill-opacity:1" cx="1704.46" cy="1055.86" r="14"/>
<circle clip-path="url(#clip0602)" style="fill:#000000; stroke:none; fill-opacity:1" cx="1710.38" cy="1069.48" r="18"/>
<circle clip-path="url(#clip0602)" style="fill:#009af9; stroke:none; fill-opacity:1" cx="1710.38" cy="1069.48" r="14"/>
<circle clip-path="url(#clip0602)" style="fill:#000000; stroke:none; fill-opacity:1" cx="1716.2" cy="1063.8" r="18"/>
<circle clip-path="url(#clip0602)" style="fill:#009af9; stroke:none; fill-opacity:1" cx="1716.2" cy="1063.8" r="14"/>
<circle clip-path="url(#clip0602)" style="fill:#000000; stroke:none; fill-opacity:1" cx="1721.91" cy="1048.53" r="18"/>
<circle clip-path="url(#clip0602)" style="fill:#009af9; stroke:none; fill-opacity:1" cx="1721.91" cy="1048.53" r="14"/>
<circle clip-path="url(#clip0602)" style="fill:#000000; stroke:none; fill-opacity:1" cx="1727.54" cy="1096.29" r="18"/>
<circle clip-path="url(#clip0602)" style="fill:#009af9; stroke:none; fill-opacity:1" cx="1727.54" cy="1096.29" r="14"/>
<circle clip-path="url(#clip0602)" style="fill:#000000; stroke:none; fill-opacity:1" cx="1733.07" cy="1096.29" r="18"/>
<circle clip-path="url(#clip0602)" style="fill:#009af9; stroke:none; fill-opacity:1" cx="1733.07" cy="1096.29" r="14"/>
<circle clip-path="url(#clip0602)" style="fill:#000000; stroke:none; fill-opacity:1" cx="1738.51" cy="1078.68" r="18"/>
<circle clip-path="url(#clip0602)" style="fill:#009af9; stroke:none; fill-opacity:1" cx="1738.51" cy="1078.68" r="14"/>
<circle clip-path="url(#clip0602)" style="fill:#000000; stroke:none; fill-opacity:1" cx="1743.87" cy="1092.5" r="18"/>
<circle clip-path="url(#clip0602)" style="fill:#009af9; stroke:none; fill-opacity:1" cx="1743.87" cy="1092.5" r="14"/>
<circle clip-path="url(#clip0602)" style="fill:#000000; stroke:none; fill-opacity:1" cx="1749.15" cy="1078.68" r="18"/>
<circle clip-path="url(#clip0602)" style="fill:#009af9; stroke:none; fill-opacity:1" cx="1749.15" cy="1078.68" r="14"/>
<circle clip-path="url(#clip0602)" style="fill:#000000; stroke:none; fill-opacity:1" cx="1754.34" cy="1078.68" r="18"/>
<circle clip-path="url(#clip0602)" style="fill:#009af9; stroke:none; fill-opacity:1" cx="1754.34" cy="1078.68" r="14"/>
<circle clip-path="url(#clip0602)" style="fill:#000000; stroke:none; fill-opacity:1" cx="1759.46" cy="1122.78" r="18"/>
<circle clip-path="url(#clip0602)" style="fill:#009af9; stroke:none; fill-opacity:1" cx="1759.46" cy="1122.78" r="14"/>
<circle clip-path="url(#clip0602)" style="fill:#000000; stroke:none; fill-opacity:1" cx="1764.5" cy="1122.78" r="18"/>
<circle clip-path="url(#clip0602)" style="fill:#009af9; stroke:none; fill-opacity:1" cx="1764.5" cy="1122.78" r="14"/>
<circle clip-path="url(#clip0602)" style="fill:#000000; stroke:none; fill-opacity:1" cx="1769.46" cy="1133.52" r="18"/>
<circle clip-path="url(#clip0602)" style="fill:#009af9; stroke:none; fill-opacity:1" cx="1769.46" cy="1133.52" r="14"/>
<circle clip-path="url(#clip0602)" style="fill:#000000; stroke:none; fill-opacity:1" cx="1774.36" cy="1145.6" r="18"/>
<circle clip-path="url(#clip0602)" style="fill:#009af9; stroke:none; fill-opacity:1" cx="1774.36" cy="1145.6" r="14"/>
<circle clip-path="url(#clip0602)" style="fill:#000000; stroke:none; fill-opacity:1" cx="1779.19" cy="1133.52" r="18"/>
<circle clip-path="url(#clip0602)" style="fill:#009af9; stroke:none; fill-opacity:1" cx="1779.19" cy="1133.52" r="14"/>
<circle clip-path="url(#clip0602)" style="fill:#000000; stroke:none; fill-opacity:1" cx="1783.94" cy="1139.37" r="18"/>
<circle clip-path="url(#clip0602)" style="fill:#009af9; stroke:none; fill-opacity:1" cx="1783.94" cy="1139.37" r="14"/>
<circle clip-path="url(#clip0602)" style="fill:#000000; stroke:none; fill-opacity:1" cx="1788.64" cy="1108.63" r="18"/>
<circle clip-path="url(#clip0602)" style="fill:#009af9; stroke:none; fill-opacity:1" cx="1788.64" cy="1108.63" r="14"/>
<circle clip-path="url(#clip0602)" style="fill:#000000; stroke:none; fill-opacity:1" cx="1793.27" cy="1122.78" r="18"/>
<circle clip-path="url(#clip0602)" style="fill:#009af9; stroke:none; fill-opacity:1" cx="1793.27" cy="1122.78" r="14"/>
<circle clip-path="url(#clip0602)" style="fill:#000000; stroke:none; fill-opacity:1" cx="1797.83" cy="1113.12" r="18"/>
<circle clip-path="url(#clip0602)" style="fill:#009af9; stroke:none; fill-opacity:1" cx="1797.83" cy="1113.12" r="14"/>
<circle clip-path="url(#clip0602)" style="fill:#000000; stroke:none; fill-opacity:1" cx="1802.34" cy="1175.54" r="18"/>
<circle clip-path="url(#clip0602)" style="fill:#009af9; stroke:none; fill-opacity:1" cx="1802.34" cy="1175.54" r="14"/>
<circle clip-path="url(#clip0602)" style="fill:#000000; stroke:none; fill-opacity:1" cx="1806.79" cy="1167.14" r="18"/>
<circle clip-path="url(#clip0602)" style="fill:#009af9; stroke:none; fill-opacity:1" cx="1806.79" cy="1167.14" r="14"/>
<circle clip-path="url(#clip0602)" style="fill:#000000; stroke:none; fill-opacity:1" cx="1811.18" cy="1206.28" r="18"/>
<circle clip-path="url(#clip0602)" style="fill:#009af9; stroke:none; fill-opacity:1" cx="1811.18" cy="1206.28" r="14"/>
<circle clip-path="url(#clip0602)" style="fill:#000000; stroke:none; fill-opacity:1" cx="1815.51" cy="1167.14" r="18"/>
<circle clip-path="url(#clip0602)" style="fill:#009af9; stroke:none; fill-opacity:1" cx="1815.51" cy="1167.14" r="14"/>
<circle clip-path="url(#clip0602)" style="fill:#000000; stroke:none; fill-opacity:1" cx="1819.79" cy="1175.54" r="18"/>
<circle clip-path="url(#clip0602)" style="fill:#009af9; stroke:none; fill-opacity:1" cx="1819.79" cy="1175.54" r="14"/>
<circle clip-path="url(#clip0602)" style="fill:#000000; stroke:none; fill-opacity:1" cx="1824.02" cy="1219.17" r="18"/>
<circle clip-path="url(#clip0602)" style="fill:#009af9; stroke:none; fill-opacity:1" cx="1824.02" cy="1219.17" r="14"/>
<circle clip-path="url(#clip0602)" style="fill:#000000; stroke:none; fill-opacity:1" cx="1828.19" cy="1152.26" r="18"/>
<circle clip-path="url(#clip0602)" style="fill:#009af9; stroke:none; fill-opacity:1" cx="1828.19" cy="1152.26" r="14"/>
<circle clip-path="url(#clip0602)" style="fill:#000000; stroke:none; fill-opacity:1" cx="1832.32" cy="1234.05" r="18"/>
<circle clip-path="url(#clip0602)" style="fill:#009af9; stroke:none; fill-opacity:1" cx="1832.32" cy="1234.05" r="14"/>
<circle clip-path="url(#clip0602)" style="fill:#000000; stroke:none; fill-opacity:1" cx="1836.39" cy="1194.91" r="18"/>
<circle clip-path="url(#clip0602)" style="fill:#009af9; stroke:none; fill-opacity:1" cx="1836.39" cy="1194.91" r="14"/>
<circle clip-path="url(#clip0602)" style="fill:#000000; stroke:none; fill-opacity:1" cx="1840.42" cy="1206.28" r="18"/>
<circle clip-path="url(#clip0602)" style="fill:#009af9; stroke:none; fill-opacity:1" cx="1840.42" cy="1206.28" r="14"/>
<circle clip-path="url(#clip0602)" style="fill:#000000; stroke:none; fill-opacity:1" cx="1844.4" cy="1175.54" r="18"/>
<circle clip-path="url(#clip0602)" style="fill:#009af9; stroke:none; fill-opacity:1" cx="1844.4" cy="1175.54" r="14"/>
<circle clip-path="url(#clip0602)" style="fill:#000000; stroke:none; fill-opacity:1" cx="1848.33" cy="1219.17" r="18"/>
<circle clip-path="url(#clip0602)" style="fill:#009af9; stroke:none; fill-opacity:1" cx="1848.33" cy="1219.17" r="14"/>
<circle clip-path="url(#clip0602)" style="fill:#000000; stroke:none; fill-opacity:1" cx="1852.22" cy="1219.17" r="18"/>
<circle clip-path="url(#clip0602)" style="fill:#009af9; stroke:none; fill-opacity:1" cx="1852.22" cy="1219.17" r="14"/>
<circle clip-path="url(#clip0602)" style="fill:#000000; stroke:none; fill-opacity:1" cx="1856.06" cy="1159.41" r="18"/>
<circle clip-path="url(#clip0602)" style="fill:#009af9; stroke:none; fill-opacity:1" cx="1856.06" cy="1159.41" r="14"/>
<circle clip-path="url(#clip0602)" style="fill:#000000; stroke:none; fill-opacity:1" cx="1859.86" cy="1251.66" r="18"/>
<circle clip-path="url(#clip0602)" style="fill:#009af9; stroke:none; fill-opacity:1" cx="1859.86" cy="1251.66" r="14"/>
<circle clip-path="url(#clip0602)" style="fill:#000000; stroke:none; fill-opacity:1" cx="1863.62" cy="1234.05" r="18"/>
<circle clip-path="url(#clip0602)" style="fill:#009af9; stroke:none; fill-opacity:1" cx="1863.62" cy="1234.05" r="14"/>
<circle clip-path="url(#clip0602)" style="fill:#000000; stroke:none; fill-opacity:1" cx="1867.34" cy="1175.54" r="18"/>
<circle clip-path="url(#clip0602)" style="fill:#009af9; stroke:none; fill-opacity:1" cx="1867.34" cy="1175.54" r="14"/>
<circle clip-path="url(#clip0602)" style="fill:#000000; stroke:none; fill-opacity:1" cx="1871.02" cy="1234.05" r="18"/>
<circle clip-path="url(#clip0602)" style="fill:#009af9; stroke:none; fill-opacity:1" cx="1871.02" cy="1234.05" r="14"/>
<circle clip-path="url(#clip0602)" style="fill:#000000; stroke:none; fill-opacity:1" cx="1874.66" cy="1234.05" r="18"/>
<circle clip-path="url(#clip0602)" style="fill:#009af9; stroke:none; fill-opacity:1" cx="1874.66" cy="1234.05" r="14"/>
<circle clip-path="url(#clip0602)" style="fill:#000000; stroke:none; fill-opacity:1" cx="1878.26" cy="1251.66" r="18"/>
<circle clip-path="url(#clip0602)" style="fill:#009af9; stroke:none; fill-opacity:1" cx="1878.26" cy="1251.66" r="14"/>
<circle clip-path="url(#clip0602)" style="fill:#000000; stroke:none; fill-opacity:1" cx="1881.82" cy="1234.05" r="18"/>
<circle clip-path="url(#clip0602)" style="fill:#009af9; stroke:none; fill-opacity:1" cx="1881.82" cy="1234.05" r="14"/>
<circle clip-path="url(#clip0602)" style="fill:#000000; stroke:none; fill-opacity:1" cx="1885.35" cy="1251.66" r="18"/>
<circle clip-path="url(#clip0602)" style="fill:#009af9; stroke:none; fill-opacity:1" cx="1885.35" cy="1251.66" r="14"/>
<circle clip-path="url(#clip0602)" style="fill:#000000; stroke:none; fill-opacity:1" cx="1892.29" cy="1300.97" r="18"/>
<circle clip-path="url(#clip0602)" style="fill:#009af9; stroke:none; fill-opacity:1" cx="1892.29" cy="1300.97" r="14"/>
<circle clip-path="url(#clip0602)" style="fill:#000000; stroke:none; fill-opacity:1" cx="1895.71" cy="1251.66" r="18"/>
<circle clip-path="url(#clip0602)" style="fill:#009af9; stroke:none; fill-opacity:1" cx="1895.71" cy="1251.66" r="14"/>
<circle clip-path="url(#clip0602)" style="fill:#000000; stroke:none; fill-opacity:1" cx="1899.1" cy="1273.2" r="18"/>
<circle clip-path="url(#clip0602)" style="fill:#009af9; stroke:none; fill-opacity:1" cx="1899.1" cy="1273.2" r="14"/>
<circle clip-path="url(#clip0602)" style="fill:#000000; stroke:none; fill-opacity:1" cx="1902.45" cy="1340.11" r="18"/>
<circle clip-path="url(#clip0602)" style="fill:#009af9; stroke:none; fill-opacity:1" cx="1902.45" cy="1340.11" r="14"/>
<circle clip-path="url(#clip0602)" style="fill:#000000; stroke:none; fill-opacity:1" cx="1905.77" cy="1251.66" r="18"/>
<circle clip-path="url(#clip0602)" style="fill:#009af9; stroke:none; fill-opacity:1" cx="1905.77" cy="1251.66" r="14"/>
<circle clip-path="url(#clip0602)" style="fill:#000000; stroke:none; fill-opacity:1" cx="1909.05" cy="1300.97" r="18"/>
<circle clip-path="url(#clip0602)" style="fill:#009af9; stroke:none; fill-opacity:1" cx="1909.05" cy="1300.97" r="14"/>
<circle clip-path="url(#clip0602)" style="fill:#000000; stroke:none; fill-opacity:1" cx="1915.53" cy="1407.03" r="18"/>
<circle clip-path="url(#clip0602)" style="fill:#009af9; stroke:none; fill-opacity:1" cx="1915.53" cy="1407.03" r="14"/>
<circle clip-path="url(#clip0602)" style="fill:#000000; stroke:none; fill-opacity:1" cx="1918.73" cy="1340.11" r="18"/>
<circle clip-path="url(#clip0602)" style="fill:#009af9; stroke:none; fill-opacity:1" cx="1918.73" cy="1340.11" r="14"/>
<circle clip-path="url(#clip0602)" style="fill:#000000; stroke:none; fill-opacity:1" cx="1921.89" cy="1273.2" r="18"/>
<circle clip-path="url(#clip0602)" style="fill:#009af9; stroke:none; fill-opacity:1" cx="1921.89" cy="1273.2" r="14"/>
<circle clip-path="url(#clip0602)" style="fill:#000000; stroke:none; fill-opacity:1" cx="1925.03" cy="1273.2" r="18"/>
<circle clip-path="url(#clip0602)" style="fill:#009af9; stroke:none; fill-opacity:1" cx="1925.03" cy="1273.2" r="14"/>
<circle clip-path="url(#clip0602)" style="fill:#000000; stroke:none; fill-opacity:1" cx="1931.22" cy="1251.66" r="18"/>
<circle clip-path="url(#clip0602)" style="fill:#009af9; stroke:none; fill-opacity:1" cx="1931.22" cy="1251.66" r="14"/>
<circle clip-path="url(#clip0602)" style="fill:#000000; stroke:none; fill-opacity:1" cx="1937.29" cy="1407.03" r="18"/>
<circle clip-path="url(#clip0602)" style="fill:#009af9; stroke:none; fill-opacity:1" cx="1937.29" cy="1407.03" r="14"/>
<circle clip-path="url(#clip0602)" style="fill:#000000; stroke:none; fill-opacity:1" cx="1940.29" cy="1407.03" r="18"/>
<circle clip-path="url(#clip0602)" style="fill:#009af9; stroke:none; fill-opacity:1" cx="1940.29" cy="1407.03" r="14"/>
<circle clip-path="url(#clip0602)" style="fill:#000000; stroke:none; fill-opacity:1" cx="1943.26" cy="1273.2" r="18"/>
<circle clip-path="url(#clip0602)" style="fill:#009af9; stroke:none; fill-opacity:1" cx="1943.26" cy="1273.2" r="14"/>
<circle clip-path="url(#clip0602)" style="fill:#000000; stroke:none; fill-opacity:1" cx="1946.21" cy="1407.03" r="18"/>
<circle clip-path="url(#clip0602)" style="fill:#009af9; stroke:none; fill-opacity:1" cx="1946.21" cy="1407.03" r="14"/>
<circle clip-path="url(#clip0602)" style="fill:#000000; stroke:none; fill-opacity:1" cx="1949.13" cy="1340.11" r="18"/>
<circle clip-path="url(#clip0602)" style="fill:#009af9; stroke:none; fill-opacity:1" cx="1949.13" cy="1340.11" r="14"/>
<circle clip-path="url(#clip0602)" style="fill:#000000; stroke:none; fill-opacity:1" cx="1954.89" cy="1300.97" r="18"/>
<circle clip-path="url(#clip0602)" style="fill:#009af9; stroke:none; fill-opacity:1" cx="1954.89" cy="1300.97" r="14"/>
<circle clip-path="url(#clip0602)" style="fill:#000000; stroke:none; fill-opacity:1" cx="1957.74" cy="1407.03" r="18"/>
<circle clip-path="url(#clip0602)" style="fill:#009af9; stroke:none; fill-opacity:1" cx="1957.74" cy="1407.03" r="14"/>
<circle clip-path="url(#clip0602)" style="fill:#000000; stroke:none; fill-opacity:1" cx="1960.56" cy="1251.66" r="18"/>
<circle clip-path="url(#clip0602)" style="fill:#009af9; stroke:none; fill-opacity:1" cx="1960.56" cy="1251.66" r="14"/>
<circle clip-path="url(#clip0602)" style="fill:#000000; stroke:none; fill-opacity:1" cx="1963.36" cy="1340.11" r="18"/>
<circle clip-path="url(#clip0602)" style="fill:#009af9; stroke:none; fill-opacity:1" cx="1963.36" cy="1340.11" r="14"/>
<circle clip-path="url(#clip0602)" style="fill:#000000; stroke:none; fill-opacity:1" cx="1971.63" cy="1340.11" r="18"/>
<circle clip-path="url(#clip0602)" style="fill:#009af9; stroke:none; fill-opacity:1" cx="1971.63" cy="1340.11" r="14"/>
<circle clip-path="url(#clip0602)" style="fill:#000000; stroke:none; fill-opacity:1" cx="1974.34" cy="1340.11" r="18"/>
<circle clip-path="url(#clip0602)" style="fill:#009af9; stroke:none; fill-opacity:1" cx="1974.34" cy="1340.11" r="14"/>
<circle clip-path="url(#clip0602)" style="fill:#000000; stroke:none; fill-opacity:1" cx="1977.03" cy="1407.03" r="18"/>
<circle clip-path="url(#clip0602)" style="fill:#009af9; stroke:none; fill-opacity:1" cx="1977.03" cy="1407.03" r="14"/>
<circle clip-path="url(#clip0602)" style="fill:#000000; stroke:none; fill-opacity:1" cx="1979.7" cy="1407.03" r="18"/>
<circle clip-path="url(#clip0602)" style="fill:#009af9; stroke:none; fill-opacity:1" cx="1979.7" cy="1407.03" r="14"/>
<circle clip-path="url(#clip0602)" style="fill:#000000; stroke:none; fill-opacity:1" cx="1982.35" cy="1340.11" r="18"/>
<circle clip-path="url(#clip0602)" style="fill:#009af9; stroke:none; fill-opacity:1" cx="1982.35" cy="1340.11" r="14"/>
<circle clip-path="url(#clip0602)" style="fill:#000000; stroke:none; fill-opacity:1" cx="1984.97" cy="1407.03" r="18"/>
<circle clip-path="url(#clip0602)" style="fill:#009af9; stroke:none; fill-opacity:1" cx="1984.97" cy="1407.03" r="14"/>
<circle clip-path="url(#clip0602)" style="fill:#000000; stroke:none; fill-opacity:1" cx="1987.58" cy="1340.11" r="18"/>
<circle clip-path="url(#clip0602)" style="fill:#009af9; stroke:none; fill-opacity:1" cx="1987.58" cy="1340.11" r="14"/>
<circle clip-path="url(#clip0602)" style="fill:#000000; stroke:none; fill-opacity:1" cx="1992.73" cy="1407.03" r="18"/>
<circle clip-path="url(#clip0602)" style="fill:#009af9; stroke:none; fill-opacity:1" cx="1992.73" cy="1407.03" r="14"/>
<circle clip-path="url(#clip0602)" style="fill:#000000; stroke:none; fill-opacity:1" cx="1995.28" cy="1300.97" r="18"/>
<circle clip-path="url(#clip0602)" style="fill:#009af9; stroke:none; fill-opacity:1" cx="1995.28" cy="1300.97" r="14"/>
<circle clip-path="url(#clip0602)" style="fill:#000000; stroke:none; fill-opacity:1" cx="1997.81" cy="1407.03" r="18"/>
<circle clip-path="url(#clip0602)" style="fill:#009af9; stroke:none; fill-opacity:1" cx="1997.81" cy="1407.03" r="14"/>
<circle clip-path="url(#clip0602)" style="fill:#000000; stroke:none; fill-opacity:1" cx="2000.32" cy="1407.03" r="18"/>
<circle clip-path="url(#clip0602)" style="fill:#009af9; stroke:none; fill-opacity:1" cx="2000.32" cy="1407.03" r="14"/>
<circle clip-path="url(#clip0602)" style="fill:#000000; stroke:none; fill-opacity:1" cx="2010.19" cy="1407.03" r="18"/>
<circle clip-path="url(#clip0602)" style="fill:#009af9; stroke:none; fill-opacity:1" cx="2010.19" cy="1407.03" r="14"/>
<circle clip-path="url(#clip0602)" style="fill:#000000; stroke:none; fill-opacity:1" cx="2019.77" cy="1340.11" r="18"/>
<circle clip-path="url(#clip0602)" style="fill:#009af9; stroke:none; fill-opacity:1" cx="2019.77" cy="1340.11" r="14"/>
<circle clip-path="url(#clip0602)" style="fill:#000000; stroke:none; fill-opacity:1" cx="2022.12" cy="1407.03" r="18"/>
<circle clip-path="url(#clip0602)" style="fill:#009af9; stroke:none; fill-opacity:1" cx="2022.12" cy="1407.03" r="14"/>
<circle clip-path="url(#clip0602)" style="fill:#000000; stroke:none; fill-opacity:1" cx="2026.79" cy="1407.03" r="18"/>
<circle clip-path="url(#clip0602)" style="fill:#009af9; stroke:none; fill-opacity:1" cx="2026.79" cy="1407.03" r="14"/>
<circle clip-path="url(#clip0602)" style="fill:#000000; stroke:none; fill-opacity:1" cx="2029.09" cy="1340.11" r="18"/>
<circle clip-path="url(#clip0602)" style="fill:#009af9; stroke:none; fill-opacity:1" cx="2029.09" cy="1340.11" r="14"/>
<circle clip-path="url(#clip0602)" style="fill:#000000; stroke:none; fill-opacity:1" cx="2035.92" cy="1407.03" r="18"/>
<circle clip-path="url(#clip0602)" style="fill:#009af9; stroke:none; fill-opacity:1" cx="2035.92" cy="1407.03" r="14"/>
<circle clip-path="url(#clip0602)" style="fill:#000000; stroke:none; fill-opacity:1" cx="2040.4" cy="1340.11" r="18"/>
<circle clip-path="url(#clip0602)" style="fill:#009af9; stroke:none; fill-opacity:1" cx="2040.4" cy="1340.11" r="14"/>
<circle clip-path="url(#clip0602)" style="fill:#000000; stroke:none; fill-opacity:1" cx="2042.61" cy="1407.03" r="18"/>
<circle clip-path="url(#clip0602)" style="fill:#009af9; stroke:none; fill-opacity:1" cx="2042.61" cy="1407.03" r="14"/>
<circle clip-path="url(#clip0602)" style="fill:#000000; stroke:none; fill-opacity:1" cx="2044.81" cy="1407.03" r="18"/>
<circle clip-path="url(#clip0602)" style="fill:#009af9; stroke:none; fill-opacity:1" cx="2044.81" cy="1407.03" r="14"/>
<circle clip-path="url(#clip0602)" style="fill:#000000; stroke:none; fill-opacity:1" cx="2047" cy="1340.11" r="18"/>
<circle clip-path="url(#clip0602)" style="fill:#009af9; stroke:none; fill-opacity:1" cx="2047" cy="1340.11" r="14"/>
<circle clip-path="url(#clip0602)" style="fill:#000000; stroke:none; fill-opacity:1" cx="2049.18" cy="1407.03" r="18"/>
<circle clip-path="url(#clip0602)" style="fill:#009af9; stroke:none; fill-opacity:1" cx="2049.18" cy="1407.03" r="14"/>
<circle clip-path="url(#clip0602)" style="fill:#000000; stroke:none; fill-opacity:1" cx="2053.48" cy="1407.03" r="18"/>
<circle clip-path="url(#clip0602)" style="fill:#009af9; stroke:none; fill-opacity:1" cx="2053.48" cy="1407.03" r="14"/>
<circle clip-path="url(#clip0602)" style="fill:#000000; stroke:none; fill-opacity:1" cx="2059.84" cy="1407.03" r="18"/>
<circle clip-path="url(#clip0602)" style="fill:#009af9; stroke:none; fill-opacity:1" cx="2059.84" cy="1407.03" r="14"/>
<circle clip-path="url(#clip0602)" style="fill:#000000; stroke:none; fill-opacity:1" cx="2061.94" cy="1407.03" r="18"/>
<circle clip-path="url(#clip0602)" style="fill:#009af9; stroke:none; fill-opacity:1" cx="2061.94" cy="1407.03" r="14"/>
<circle clip-path="url(#clip0602)" style="fill:#000000; stroke:none; fill-opacity:1" cx="2064.02" cy="1407.03" r="18"/>
<circle clip-path="url(#clip0602)" style="fill:#009af9; stroke:none; fill-opacity:1" cx="2064.02" cy="1407.03" r="14"/>
<circle clip-path="url(#clip0602)" style="fill:#000000; stroke:none; fill-opacity:1" cx="2068.14" cy="1407.03" r="18"/>
<circle clip-path="url(#clip0602)" style="fill:#009af9; stroke:none; fill-opacity:1" cx="2068.14" cy="1407.03" r="14"/>
<circle clip-path="url(#clip0602)" style="fill:#000000; stroke:none; fill-opacity:1" cx="2070.18" cy="1407.03" r="18"/>
<circle clip-path="url(#clip0602)" style="fill:#009af9; stroke:none; fill-opacity:1" cx="2070.18" cy="1407.03" r="14"/>
<circle clip-path="url(#clip0602)" style="fill:#000000; stroke:none; fill-opacity:1" cx="2076.24" cy="1407.03" r="18"/>
<circle clip-path="url(#clip0602)" style="fill:#009af9; stroke:none; fill-opacity:1" cx="2076.24" cy="1407.03" r="14"/>
<circle clip-path="url(#clip0602)" style="fill:#000000; stroke:none; fill-opacity:1" cx="2080.22" cy="1407.03" r="18"/>
<circle clip-path="url(#clip0602)" style="fill:#009af9; stroke:none; fill-opacity:1" cx="2080.22" cy="1407.03" r="14"/>
<circle clip-path="url(#clip0602)" style="fill:#000000; stroke:none; fill-opacity:1" cx="2082.19" cy="1340.11" r="18"/>
<circle clip-path="url(#clip0602)" style="fill:#009af9; stroke:none; fill-opacity:1" cx="2082.19" cy="1340.11" r="14"/>
<circle clip-path="url(#clip0602)" style="fill:#000000; stroke:none; fill-opacity:1" cx="2103.17" cy="1407.03" r="18"/>
<circle clip-path="url(#clip0602)" style="fill:#009af9; stroke:none; fill-opacity:1" cx="2103.17" cy="1407.03" r="14"/>
<circle clip-path="url(#clip0602)" style="fill:#000000; stroke:none; fill-opacity:1" cx="2105.01" cy="1407.03" r="18"/>
<circle clip-path="url(#clip0602)" style="fill:#009af9; stroke:none; fill-opacity:1" cx="2105.01" cy="1407.03" r="14"/>
<circle clip-path="url(#clip0602)" style="fill:#000000; stroke:none; fill-opacity:1" cx="2126.39" cy="1407.03" r="18"/>
<circle clip-path="url(#clip0602)" style="fill:#009af9; stroke:none; fill-opacity:1" cx="2126.39" cy="1407.03" r="14"/>
<circle clip-path="url(#clip0602)" style="fill:#000000; stroke:none; fill-opacity:1" cx="2146.51" cy="1407.03" r="18"/>
<circle clip-path="url(#clip0602)" style="fill:#009af9; stroke:none; fill-opacity:1" cx="2146.51" cy="1407.03" r="14"/>
<circle clip-path="url(#clip0602)" style="fill:#000000; stroke:none; fill-opacity:1" cx="2159.29" cy="1407.03" r="18"/>
<circle clip-path="url(#clip0602)" style="fill:#009af9; stroke:none; fill-opacity:1" cx="2159.29" cy="1407.03" r="14"/>
<circle clip-path="url(#clip0602)" style="fill:#000000; stroke:none; fill-opacity:1" cx="2165.51" cy="1407.03" r="18"/>
<circle clip-path="url(#clip0602)" style="fill:#009af9; stroke:none; fill-opacity:1" cx="2165.51" cy="1407.03" r="14"/>
<circle clip-path="url(#clip0602)" style="fill:#000000; stroke:none; fill-opacity:1" cx="2194.98" cy="1407.03" r="18"/>
<circle clip-path="url(#clip0602)" style="fill:#009af9; stroke:none; fill-opacity:1" cx="2194.98" cy="1407.03" r="14"/>
<circle clip-path="url(#clip0602)" style="fill:#000000; stroke:none; fill-opacity:1" cx="2203.35" cy="1407.03" r="18"/>
<circle clip-path="url(#clip0602)" style="fill:#009af9; stroke:none; fill-opacity:1" cx="2203.35" cy="1407.03" r="14"/>
<polyline clip-path="url(#clip0602)" style="stroke:#e26f46; stroke-width:4; stroke-opacity:1; fill:none" points="
  328.918,-120.033 347.851,-103.582 366.785,-87.1307 385.719,-70.6798 404.652,-54.2289 423.586,-37.7779 442.52,-21.327 461.453,-4.87606 480.387,11.5749 499.32,28.0258 
  518.254,44.4767 537.188,60.9277 556.121,77.3786 575.055,93.8295 593.989,110.28 612.922,126.731 631.856,143.182 650.79,159.633 669.723,176.084 688.657,192.535 
  707.59,208.986 726.524,225.437 745.458,241.888 764.391,258.339 783.325,274.79 802.259,291.241 821.192,307.692 840.126,324.143 859.059,340.594 877.993,357.044 
  896.927,373.495 915.86,389.946 934.794,406.397 953.728,422.848 972.661,439.299 991.595,455.75 1010.53,472.201 1029.46,488.652 1048.4,505.103 1067.33,521.554 
  1086.26,538.005 1105.2,554.456 1124.13,570.907 1143.06,587.358 1162,603.808 1180.93,620.259 1199.86,636.71 1218.8,653.161 1237.73,669.612 1256.67,686.063 
  1275.6,702.514 1294.53,718.965 1313.47,735.416 1332.4,751.867 1351.33,768.318 1370.27,784.769 1389.2,801.22 1408.13,817.671 1427.07,834.122 1446,850.572 
  1464.94,867.023 1483.87,883.474 1502.8,899.925 1521.74,916.376 1540.67,932.827 1559.6,949.278 1578.54,965.729 1597.47,982.18 1616.4,998.631 1635.34,1015.08 
  1654.27,1031.53 1673.21,1047.98 1692.14,1064.43 1711.07,1080.89 1730.01,1097.34 1748.94,1113.79 1767.87,1130.24 1786.81,1146.69 1805.74,1163.14 1824.67,1179.59 
  1843.61,1196.04 1862.54,1212.49 1881.48,1228.94 1900.41,1245.39 1919.34,1261.85 1938.28,1278.3 1957.21,1294.75 1976.14,1311.2 1995.08,1327.65 2014.01,1344.1 
  2032.94,1360.55 2051.88,1377 2070.81,1393.45 2089.75,1409.9 2108.68,1426.36 2127.61,1442.81 2146.55,1459.26 2165.48,1475.71 2184.41,1492.16 2203.35,1508.61 
  
  "/>
<g clip-path="url(#clip0600)">
<text style="fill:#000000; fill-opacity:1; font-family:Arial,Helvetica Neue,Helvetica,sans-serif; font-size:59px; text-anchor:start;" transform="rotate(0, 328.918, 1361.61)" x="328.918" y="1361.61">r = -0.98</text>
</g>
</svg>
