<?xml version="1.0" encoding="utf-8"?>
<svg xmlns="http://www.w3.org/2000/svg" xmlns:xlink="http://www.w3.org/1999/xlink" width="600" height="400" viewBox="0 0 2400 1600">
<defs>
  <clipPath id="clip2000">
    <rect x="0" y="0" width="2400" height="1600"/>
  </clipPath>
</defs>
<polygon clip-path="url(#clip2000)" points="
0,1600 2400,1600 2400,0 0,0 
  " fill="#ffffff" fill-rule="evenodd" fill-opacity="1"/>
<defs>
  <clipPath id="clip2001">
    <rect x="480" y="0" width="1681" height="1600"/>
  </clipPath>
</defs>
<polygon clip-path="url(#clip2000)" points="
211.005,1440.48 2321.26,1440.48 2321.26,125.984 211.005,125.984 
  " fill="#ffffff" fill-rule="evenodd" fill-opacity="1"/>
<defs>
  <clipPath id="clip2002">
    <rect x="211" y="125" width="2111" height="1315"/>
  </clipPath>
</defs>
<polyline clip-path="url(#clip2002)" style="stroke:#000000; stroke-width:2; stroke-opacity:0.1; fill:none" points="
  355.833,1440.48 355.833,125.984 
  "/>
<polyline clip-path="url(#clip2002)" style="stroke:#000000; stroke-width:2; stroke-opacity:0.1; fill:none" points="
  645.488,1440.48 645.488,125.984 
  "/>
<polyline clip-path="url(#clip2002)" style="stroke:#000000; stroke-width:2; stroke-opacity:0.1; fill:none" points="
  935.143,1440.48 935.143,125.984 
  "/>
<polyline clip-path="url(#clip2002)" style="stroke:#000000; stroke-width:2; stroke-opacity:0.1; fill:none" points="
  1224.8,1440.48 1224.8,125.984 
  "/>
<polyline clip-path="url(#clip2002)" style="stroke:#000000; stroke-width:2; stroke-opacity:0.1; fill:none" points="
  1514.45,1440.48 1514.45,125.984 
  "/>
<polyline clip-path="url(#clip2002)" style="stroke:#000000; stroke-width:2; stroke-opacity:0.1; fill:none" points="
  1804.11,1440.48 1804.11,125.984 
  "/>
<polyline clip-path="url(#clip2002)" style="stroke:#000000; stroke-width:2; stroke-opacity:0.1; fill:none" points="
  2093.76,1440.48 2093.76,125.984 
  "/>
<polyline clip-path="url(#clip2002)" style="stroke:#000000; stroke-width:2; stroke-opacity:0.1; fill:none" points="
  211.005,1410.22 2321.26,1410.22 
  "/>
<polyline clip-path="url(#clip2002)" style="stroke:#000000; stroke-width:2; stroke-opacity:0.1; fill:none" points="
  211.005,1107.64 2321.26,1107.64 
  "/>
<polyline clip-path="url(#clip2002)" style="stroke:#000000; stroke-width:2; stroke-opacity:0.1; fill:none" points="
  211.005,805.051 2321.26,805.051 
  "/>
<polyline clip-path="url(#clip2002)" style="stroke:#000000; stroke-width:2; stroke-opacity:0.1; fill:none" points="
  211.005,502.464 2321.26,502.464 
  "/>
<polyline clip-path="url(#clip2002)" style="stroke:#000000; stroke-width:2; stroke-opacity:0.1; fill:none" points="
  211.005,199.878 2321.26,199.878 
  "/>
<polyline clip-path="url(#clip2000)" style="stroke:#000000; stroke-width:4; stroke-opacity:1; fill:none" points="
  211.005,1440.48 2321.26,1440.48 
  "/>
<polyline clip-path="url(#clip2000)" style="stroke:#000000; stroke-width:4; stroke-opacity:1; fill:none" points="
  211.005,1440.48 211.005,125.984 
  "/>
<polyline clip-path="url(#clip2000)" style="stroke:#000000; stroke-width:4; stroke-opacity:1; fill:none" points="
  355.833,1440.48 355.833,1420.77 
  "/>
<polyline clip-path="url(#clip2000)" style="stroke:#000000; stroke-width:4; stroke-opacity:1; fill:none" points="
  645.488,1440.48 645.488,1420.77 
  "/>
<polyline clip-path="url(#clip2000)" style="stroke:#000000; stroke-width:4; stroke-opacity:1; fill:none" points="
  935.143,1440.48 935.143,1420.77 
  "/>
<polyline clip-path="url(#clip2000)" style="stroke:#000000; stroke-width:4; stroke-opacity:1; fill:none" points="
  1224.8,1440.48 1224.8,1420.77 
  "/>
<polyline clip-path="url(#clip2000)" style="stroke:#000000; stroke-width:4; stroke-opacity:1; fill:none" points="
  1514.45,1440.48 1514.45,1420.77 
  "/>
<polyline clip-path="url(#clip2000)" style="stroke:#000000; stroke-width:4; stroke-opacity:1; fill:none" points="
  1804.11,1440.48 1804.11,1420.77 
  "/>
<polyline clip-path="url(#clip2000)" style="stroke:#000000; stroke-width:4; stroke-opacity:1; fill:none" points="
  2093.76,1440.48 2093.76,1420.77 
  "/>
<polyline clip-path="url(#clip2000)" style="stroke:#000000; stroke-width:4; stroke-opacity:1; fill:none" points="
  211.005,1410.22 242.659,1410.22 
  "/>
<polyline clip-path="url(#clip2000)" style="stroke:#000000; stroke-width:4; stroke-opacity:1; fill:none" points="
  211.005,1107.64 242.659,1107.64 
  "/>
<polyline clip-path="url(#clip2000)" style="stroke:#000000; stroke-width:4; stroke-opacity:1; fill:none" points="
  211.005,805.051 242.659,805.051 
  "/>
<polyline clip-path="url(#clip2000)" style="stroke:#000000; stroke-width:4; stroke-opacity:1; fill:none" points="
  211.005,502.464 242.659,502.464 
  "/>
<polyline clip-path="url(#clip2000)" style="stroke:#000000; stroke-width:4; stroke-opacity:1; fill:none" points="
  211.005,199.878 242.659,199.878 
  "/>
<g clip-path="url(#clip2000)">
<text style="fill:#000000; fill-opacity:1; font-family:Arial,Helvetica Neue,Helvetica,sans-serif; font-size:48px; text-anchor:middle;" transform="rotate(0, 355.833, 1494.48)" x="355.833" y="1494.48">0</text>
</g>
<g clip-path="url(#clip2000)">
<text style="fill:#000000; fill-opacity:1; font-family:Arial,Helvetica Neue,Helvetica,sans-serif; font-size:48px; text-anchor:middle;" transform="rotate(0, 645.488, 1494.48)" x="645.488" y="1494.48">1</text>
</g>
<g clip-path="url(#clip2000)">
<text style="fill:#000000; fill-opacity:1; font-family:Arial,Helvetica Neue,Helvetica,sans-serif; font-size:48px; text-anchor:middle;" transform="rotate(0, 935.143, 1494.48)" x="935.143" y="1494.48">2</text>
</g>
<g clip-path="url(#clip2000)">
<text style="fill:#000000; fill-opacity:1; font-family:Arial,Helvetica Neue,Helvetica,sans-serif; font-size:48px; text-anchor:middle;" transform="rotate(0, 1224.8, 1494.48)" x="1224.8" y="1494.48">3</text>
</g>
<g clip-path="url(#clip2000)">
<text style="fill:#000000; fill-opacity:1; font-family:Arial,Helvetica Neue,Helvetica,sans-serif; font-size:48px; text-anchor:middle;" transform="rotate(0, 1514.45, 1494.48)" x="1514.45" y="1494.48">4</text>
</g>
<g clip-path="url(#clip2000)">
<text style="fill:#000000; fill-opacity:1; font-family:Arial,Helvetica Neue,Helvetica,sans-serif; font-size:48px; text-anchor:middle;" transform="rotate(0, 1804.11, 1494.48)" x="1804.11" y="1494.48">5</text>
</g>
<g clip-path="url(#clip2000)">
<text style="fill:#000000; fill-opacity:1; font-family:Arial,Helvetica Neue,Helvetica,sans-serif; font-size:48px; text-anchor:middle;" transform="rotate(0, 2093.76, 1494.48)" x="2093.76" y="1494.48">6</text>
</g>
<g clip-path="url(#clip2000)">
<text style="fill:#000000; fill-opacity:1; font-family:Arial,Helvetica Neue,Helvetica,sans-serif; font-size:48px; text-anchor:end;" transform="rotate(0, 187.005, 1427.72)" x="187.005" y="1427.72">0</text>
</g>
<g clip-path="url(#clip2000)">
<text style="fill:#000000; fill-opacity:1; font-family:Arial,Helvetica Neue,Helvetica,sans-serif; font-size:48px; text-anchor:end;" transform="rotate(0, 187.005, 1125.14)" x="187.005" y="1125.14">5</text>
</g>
<g clip-path="url(#clip2000)">
<text style="fill:#000000; fill-opacity:1; font-family:Arial,Helvetica Neue,Helvetica,sans-serif; font-size:48px; text-anchor:end;" transform="rotate(0, 187.005, 822.551)" x="187.005" y="822.551">10</text>
</g>
<g clip-path="url(#clip2000)">
<text style="fill:#000000; fill-opacity:1; font-family:Arial,Helvetica Neue,Helvetica,sans-serif; font-size:48px; text-anchor:end;" transform="rotate(0, 187.005, 519.964)" x="187.005" y="519.964">15</text>
</g>
<g clip-path="url(#clip2000)">
<text style="fill:#000000; fill-opacity:1; font-family:Arial,Helvetica Neue,Helvetica,sans-serif; font-size:48px; text-anchor:end;" transform="rotate(0, 187.005, 217.378)" x="187.005" y="217.378">20</text>
</g>
<g clip-path="url(#clip2000)">
<text style="fill:#000000; fill-opacity:1; font-family:Arial,Helvetica Neue,Helvetica,sans-serif; font-size:66px; text-anchor:middle;" transform="rotate(0, 1266.13, 57.6)" x="1266.13" y="57.6">GCF_000064305.2_ASM6430v2_genomic.fna.K13.counts.histogram</text>
</g>
<g clip-path="url(#clip2000)">
<text style="fill:#000000; fill-opacity:1; font-family:Arial,Helvetica Neue,Helvetica,sans-serif; font-size:66px; text-anchor:middle;" transform="rotate(0, 1266.13, 1590.4)" x="1266.13" y="1590.4">log2(depth of coverage)</text>
</g>
<g clip-path="url(#clip2000)">
<text style="fill:#000000; fill-opacity:1; font-family:Arial,Helvetica Neue,Helvetica,sans-serif; font-size:66px; text-anchor:middle;" transform="rotate(-90, 57.6, 783.233)" x="57.6" y="783.233">log2(# kmers)</text>
</g>
<circle clip-path="url(#clip2002)" style="fill:#000000; stroke:none; fill-opacity:1" cx="355.833" cy="156.243" r="18"/>
<circle clip-path="url(#clip2002)" style="fill:#009af9; stroke:none; fill-opacity:1" cx="355.833" cy="156.243" r="14"/>
<circle clip-path="url(#clip2002)" style="fill:#000000; stroke:none; fill-opacity:1" cx="645.488" cy="319.597" r="18"/>
<circle clip-path="url(#clip2002)" style="fill:#009af9; stroke:none; fill-opacity:1" cx="645.488" cy="319.597" r="14"/>
<circle clip-path="url(#clip2002)" style="fill:#000000; stroke:none; fill-opacity:1" cx="814.925" cy="432.593" r="18"/>
<circle clip-path="url(#clip2002)" style="fill:#009af9; stroke:none; fill-opacity:1" cx="814.925" cy="432.593" r="14"/>
<circle clip-path="url(#clip2002)" style="fill:#000000; stroke:none; fill-opacity:1" cx="935.143" cy="521.831" r="18"/>
<circle clip-path="url(#clip2002)" style="fill:#009af9; stroke:none; fill-opacity:1" cx="935.143" cy="521.831" r="14"/>
<circle clip-path="url(#clip2002)" style="fill:#000000; stroke:none; fill-opacity:1" cx="1028.39" cy="589.611" r="18"/>
<circle clip-path="url(#clip2002)" style="fill:#009af9; stroke:none; fill-opacity:1" cx="1028.39" cy="589.611" r="14"/>
<circle clip-path="url(#clip2002)" style="fill:#000000; stroke:none; fill-opacity:1" cx="1104.58" cy="596.084" r="18"/>
<circle clip-path="url(#clip2002)" style="fill:#009af9; stroke:none; fill-opacity:1" cx="1104.58" cy="596.084" r="14"/>
<circle clip-path="url(#clip2002)" style="fill:#000000; stroke:none; fill-opacity:1" cx="1169" cy="667.765" r="18"/>
<circle clip-path="url(#clip2002)" style="fill:#009af9; stroke:none; fill-opacity:1" cx="1169" cy="667.765" r="14"/>
<circle clip-path="url(#clip2002)" style="fill:#000000; stroke:none; fill-opacity:1" cx="1224.8" cy="721.673" r="18"/>
<circle clip-path="url(#clip2002)" style="fill:#009af9; stroke:none; fill-opacity:1" cx="1224.8" cy="721.673" r="14"/>
<circle clip-path="url(#clip2002)" style="fill:#000000; stroke:none; fill-opacity:1" cx="1274.02" cy="766.032" r="18"/>
<circle clip-path="url(#clip2002)" style="fill:#009af9; stroke:none; fill-opacity:1" cx="1274.02" cy="766.032" r="14"/>
<circle clip-path="url(#clip2002)" style="fill:#000000; stroke:none; fill-opacity:1" cx="1318.05" cy="779.955" r="18"/>
<circle clip-path="url(#clip2002)" style="fill:#009af9; stroke:none; fill-opacity:1" cx="1318.05" cy="779.955" r="14"/>
<circle clip-path="url(#clip2002)" style="fill:#000000; stroke:none; fill-opacity:1" cx="1357.88" cy="786.322" r="18"/>
<circle clip-path="url(#clip2002)" style="fill:#009af9; stroke:none; fill-opacity:1" cx="1357.88" cy="786.322" r="14"/>
<circle clip-path="url(#clip2002)" style="fill:#000000; stroke:none; fill-opacity:1" cx="1394.24" cy="820.29" r="18"/>
<circle clip-path="url(#clip2002)" style="fill:#009af9; stroke:none; fill-opacity:1" cx="1394.24" cy="820.29" r="14"/>
<circle clip-path="url(#clip2002)" style="fill:#000000; stroke:none; fill-opacity:1" cx="1427.68" cy="872.301" r="18"/>
<circle clip-path="url(#clip2002)" style="fill:#009af9; stroke:none; fill-opacity:1" cx="1427.68" cy="872.301" r="14"/>
<circle clip-path="url(#clip2002)" style="fill:#000000; stroke:none; fill-opacity:1" cx="1458.65" cy="909.094" r="18"/>
<circle clip-path="url(#clip2002)" style="fill:#009af9; stroke:none; fill-opacity:1" cx="1458.65" cy="909.094" r="14"/>
<circle clip-path="url(#clip2002)" style="fill:#000000; stroke:none; fill-opacity:1" cx="1487.48" cy="897.051" r="18"/>
<circle clip-path="url(#clip2002)" style="fill:#009af9; stroke:none; fill-opacity:1" cx="1487.48" cy="897.051" r="14"/>
<circle clip-path="url(#clip2002)" style="fill:#000000; stroke:none; fill-opacity:1" cx="1514.45" cy="953.506" r="18"/>
<circle clip-path="url(#clip2002)" style="fill:#009af9; stroke:none; fill-opacity:1" cx="1514.45" cy="953.506" r="14"/>
<circle clip-path="url(#clip2002)" style="fill:#000000; stroke:none; fill-opacity:1" cx="1539.79" cy="983.916" r="18"/>
<circle clip-path="url(#clip2002)" style="fill:#009af9; stroke:none; fill-opacity:1" cx="1539.79" cy="983.916" r="14"/>
<circle clip-path="url(#clip2002)" style="fill:#000000; stroke:none; fill-opacity:1" cx="1563.67" cy="1004.73" r="18"/>
<circle clip-path="url(#clip2002)" style="fill:#009af9; stroke:none; fill-opacity:1" cx="1563.67" cy="1004.73" r="14"/>
<circle clip-path="url(#clip2002)" style="fill:#000000; stroke:none; fill-opacity:1" cx="1586.27" cy="1008.16" r="18"/>
<circle clip-path="url(#clip2002)" style="fill:#009af9; stroke:none; fill-opacity:1" cx="1586.27" cy="1008.16" r="14"/>
<circle clip-path="url(#clip2002)" style="fill:#000000; stroke:none; fill-opacity:1" cx="1607.7" cy="1030.97" r="18"/>
<circle clip-path="url(#clip2002)" style="fill:#009af9; stroke:none; fill-opacity:1" cx="1607.7" cy="1030.97" r="14"/>
<circle clip-path="url(#clip2002)" style="fill:#000000; stroke:none; fill-opacity:1" cx="1628.09" cy="1047.12" r="18"/>
<circle clip-path="url(#clip2002)" style="fill:#009af9; stroke:none; fill-opacity:1" cx="1628.09" cy="1047.12" r="14"/>
<circle clip-path="url(#clip2002)" style="fill:#000000; stroke:none; fill-opacity:1" cx="1647.53" cy="1077.87" r="18"/>
<circle clip-path="url(#clip2002)" style="fill:#009af9; stroke:none; fill-opacity:1" cx="1647.53" cy="1077.87" r="14"/>
<circle clip-path="url(#clip2002)" style="fill:#000000; stroke:none; fill-opacity:1" cx="1666.11" cy="1083.9" r="18"/>
<circle clip-path="url(#clip2002)" style="fill:#009af9; stroke:none; fill-opacity:1" cx="1666.11" cy="1083.9" r="14"/>
<circle clip-path="url(#clip2002)" style="fill:#000000; stroke:none; fill-opacity:1" cx="1683.89" cy="1097.35" r="18"/>
<circle clip-path="url(#clip2002)" style="fill:#009af9; stroke:none; fill-opacity:1" cx="1683.89" cy="1097.35" r="14"/>
<circle clip-path="url(#clip2002)" style="fill:#000000; stroke:none; fill-opacity:1" cx="1700.95" cy="1179.81" r="18"/>
<circle clip-path="url(#clip2002)" style="fill:#009af9; stroke:none; fill-opacity:1" cx="1700.95" cy="1179.81" r="14"/>
<circle clip-path="url(#clip2002)" style="fill:#000000; stroke:none; fill-opacity:1" cx="1717.34" cy="1153.15" r="18"/>
<circle clip-path="url(#clip2002)" style="fill:#009af9; stroke:none; fill-opacity:1" cx="1717.34" cy="1153.15" r="14"/>
<circle clip-path="url(#clip2002)" style="fill:#000000; stroke:none; fill-opacity:1" cx="1733.11" cy="1157.87" r="18"/>
<circle clip-path="url(#clip2002)" style="fill:#009af9; stroke:none; fill-opacity:1" cx="1733.11" cy="1157.87" r="14"/>
<circle clip-path="url(#clip2002)" style="fill:#000000; stroke:none; fill-opacity:1" cx="1748.31" cy="1209.19" r="18"/>
<circle clip-path="url(#clip2002)" style="fill:#009af9; stroke:none; fill-opacity:1" cx="1748.31" cy="1209.19" r="14"/>
<circle clip-path="url(#clip2002)" style="fill:#000000; stroke:none; fill-opacity:1" cx="1762.97" cy="1148.67" r="18"/>
<circle clip-path="url(#clip2002)" style="fill:#009af9; stroke:none; fill-opacity:1" cx="1762.97" cy="1148.67" r="14"/>
<circle clip-path="url(#clip2002)" style="fill:#000000; stroke:none; fill-opacity:1" cx="1777.14" cy="1186.28" r="18"/>
<circle clip-path="url(#clip2002)" style="fill:#009af9; stroke:none; fill-opacity:1" cx="1777.14" cy="1186.28" r="14"/>
<circle clip-path="url(#clip2002)" style="fill:#000000; stroke:none; fill-opacity:1" cx="1790.84" cy="1200.87" r="18"/>
<circle clip-path="url(#clip2002)" style="fill:#009af9; stroke:none; fill-opacity:1" cx="1790.84" cy="1200.87" r="14"/>
<circle clip-path="url(#clip2002)" style="fill:#000000; stroke:none; fill-opacity:1" cx="1804.11" cy="1200.87" r="18"/>
<circle clip-path="url(#clip2002)" style="fill:#009af9; stroke:none; fill-opacity:1" cx="1804.11" cy="1200.87" r="14"/>
<circle clip-path="url(#clip2002)" style="fill:#000000; stroke:none; fill-opacity:1" cx="1816.97" cy="1218.39" r="18"/>
<circle clip-path="url(#clip2002)" style="fill:#009af9; stroke:none; fill-opacity:1" cx="1816.97" cy="1218.39" r="14"/>
<circle clip-path="url(#clip2002)" style="fill:#000000; stroke:none; fill-opacity:1" cx="1829.44" cy="1186.28" r="18"/>
<circle clip-path="url(#clip2002)" style="fill:#009af9; stroke:none; fill-opacity:1" cx="1829.44" cy="1186.28" r="14"/>
<circle clip-path="url(#clip2002)" style="fill:#000000; stroke:none; fill-opacity:1" cx="1841.56" cy="1157.87" r="18"/>
<circle clip-path="url(#clip2002)" style="fill:#009af9; stroke:none; fill-opacity:1" cx="1841.56" cy="1157.87" r="14"/>
<circle clip-path="url(#clip2002)" style="fill:#000000; stroke:none; fill-opacity:1" cx="1853.33" cy="1153.15" r="18"/>
<circle clip-path="url(#clip2002)" style="fill:#009af9; stroke:none; fill-opacity:1" cx="1853.33" cy="1153.15" r="14"/>
<circle clip-path="url(#clip2002)" style="fill:#000000; stroke:none; fill-opacity:1" cx="1864.78" cy="1157.87" r="18"/>
<circle clip-path="url(#clip2002)" style="fill:#009af9; stroke:none; fill-opacity:1" cx="1864.78" cy="1157.87" r="14"/>
<circle clip-path="url(#clip2002)" style="fill:#000000; stroke:none; fill-opacity:1" cx="1875.92" cy="1186.28" r="18"/>
<circle clip-path="url(#clip2002)" style="fill:#009af9; stroke:none; fill-opacity:1" cx="1875.92" cy="1186.28" r="14"/>
<circle clip-path="url(#clip2002)" style="fill:#000000; stroke:none; fill-opacity:1" cx="1886.78" cy="1218.39" r="18"/>
<circle clip-path="url(#clip2002)" style="fill:#009af9; stroke:none; fill-opacity:1" cx="1886.78" cy="1218.39" r="14"/>
<circle clip-path="url(#clip2002)" style="fill:#000000; stroke:none; fill-opacity:1" cx="1897.36" cy="1314.31" r="18"/>
<circle clip-path="url(#clip2002)" style="fill:#009af9; stroke:none; fill-opacity:1" cx="1897.36" cy="1314.31" r="14"/>
<circle clip-path="url(#clip2002)" style="fill:#000000; stroke:none; fill-opacity:1" cx="1907.68" cy="1253.79" r="18"/>
<circle clip-path="url(#clip2002)" style="fill:#009af9; stroke:none; fill-opacity:1" cx="1907.68" cy="1253.79" r="14"/>
<circle clip-path="url(#clip2002)" style="fill:#000000; stroke:none; fill-opacity:1" cx="1917.75" cy="1349.71" r="18"/>
<circle clip-path="url(#clip2002)" style="fill:#009af9; stroke:none; fill-opacity:1" cx="1917.75" cy="1349.71" r="14"/>
<circle clip-path="url(#clip2002)" style="fill:#000000; stroke:none; fill-opacity:1" cx="1927.58" cy="1314.31" r="18"/>
<circle clip-path="url(#clip2002)" style="fill:#009af9; stroke:none; fill-opacity:1" cx="1927.58" cy="1314.31" r="14"/>
<circle clip-path="url(#clip2002)" style="fill:#000000; stroke:none; fill-opacity:1" cx="1937.19" cy="1349.71" r="18"/>
<circle clip-path="url(#clip2002)" style="fill:#009af9; stroke:none; fill-opacity:1" cx="1937.19" cy="1349.71" r="14"/>
<circle clip-path="url(#clip2002)" style="fill:#000000; stroke:none; fill-opacity:1" cx="1946.58" cy="1349.71" r="18"/>
<circle clip-path="url(#clip2002)" style="fill:#009af9; stroke:none; fill-opacity:1" cx="1946.58" cy="1349.71" r="14"/>
<circle clip-path="url(#clip2002)" style="fill:#000000; stroke:none; fill-opacity:1" cx="1955.76" cy="1410.22" r="18"/>
<circle clip-path="url(#clip2002)" style="fill:#009af9; stroke:none; fill-opacity:1" cx="1955.76" cy="1410.22" r="14"/>
<circle clip-path="url(#clip2002)" style="fill:#000000; stroke:none; fill-opacity:1" cx="1964.75" cy="1349.71" r="18"/>
<circle clip-path="url(#clip2002)" style="fill:#009af9; stroke:none; fill-opacity:1" cx="1964.75" cy="1349.71" r="14"/>
<circle clip-path="url(#clip2002)" style="fill:#000000; stroke:none; fill-opacity:1" cx="1973.55" cy="1349.71" r="18"/>
<circle clip-path="url(#clip2002)" style="fill:#009af9; stroke:none; fill-opacity:1" cx="1973.55" cy="1349.71" r="14"/>
<circle clip-path="url(#clip2002)" style="fill:#000000; stroke:none; fill-opacity:1" cx="1982.16" cy="1410.22" r="18"/>
<circle clip-path="url(#clip2002)" style="fill:#009af9; stroke:none; fill-opacity:1" cx="1982.16" cy="1410.22" r="14"/>
<circle clip-path="url(#clip2002)" style="fill:#000000; stroke:none; fill-opacity:1" cx="1990.61" cy="1410.22" r="18"/>
<circle clip-path="url(#clip2002)" style="fill:#009af9; stroke:none; fill-opacity:1" cx="1990.61" cy="1410.22" r="14"/>
<circle clip-path="url(#clip2002)" style="fill:#000000; stroke:none; fill-opacity:1" cx="1998.88" cy="1410.22" r="18"/>
<circle clip-path="url(#clip2002)" style="fill:#009af9; stroke:none; fill-opacity:1" cx="1998.88" cy="1410.22" r="14"/>
<circle clip-path="url(#clip2002)" style="fill:#000000; stroke:none; fill-opacity:1" cx="2022.77" cy="1410.22" r="18"/>
<circle clip-path="url(#clip2002)" style="fill:#009af9; stroke:none; fill-opacity:1" cx="2022.77" cy="1410.22" r="14"/>
<circle clip-path="url(#clip2002)" style="fill:#000000; stroke:none; fill-opacity:1" cx="2073.7" cy="1349.71" r="18"/>
<circle clip-path="url(#clip2002)" style="fill:#009af9; stroke:none; fill-opacity:1" cx="2073.7" cy="1349.71" r="14"/>
<circle clip-path="url(#clip2002)" style="fill:#000000; stroke:none; fill-opacity:1" cx="2087.18" cy="1410.22" r="18"/>
<circle clip-path="url(#clip2002)" style="fill:#009af9; stroke:none; fill-opacity:1" cx="2087.18" cy="1410.22" r="14"/>
<circle clip-path="url(#clip2002)" style="fill:#000000; stroke:none; fill-opacity:1" cx="2119.1" cy="1410.22" r="18"/>
<circle clip-path="url(#clip2002)" style="fill:#009af9; stroke:none; fill-opacity:1" cx="2119.1" cy="1410.22" r="14"/>
<circle clip-path="url(#clip2002)" style="fill:#000000; stroke:none; fill-opacity:1" cx="2125.2" cy="1289.19" r="18"/>
<circle clip-path="url(#clip2002)" style="fill:#009af9; stroke:none; fill-opacity:1" cx="2125.2" cy="1289.19" r="14"/>
<circle clip-path="url(#clip2002)" style="fill:#000000; stroke:none; fill-opacity:1" cx="2137.14" cy="1289.19" r="18"/>
<circle clip-path="url(#clip2002)" style="fill:#009af9; stroke:none; fill-opacity:1" cx="2137.14" cy="1289.19" r="14"/>
<circle clip-path="url(#clip2002)" style="fill:#000000; stroke:none; fill-opacity:1" cx="2142.98" cy="1314.31" r="18"/>
<circle clip-path="url(#clip2002)" style="fill:#009af9; stroke:none; fill-opacity:1" cx="2142.98" cy="1314.31" r="14"/>
<circle clip-path="url(#clip2002)" style="fill:#000000; stroke:none; fill-opacity:1" cx="2148.75" cy="1410.22" r="18"/>
<circle clip-path="url(#clip2002)" style="fill:#009af9; stroke:none; fill-opacity:1" cx="2148.75" cy="1410.22" r="14"/>
<circle clip-path="url(#clip2002)" style="fill:#000000; stroke:none; fill-opacity:1" cx="2154.43" cy="1314.31" r="18"/>
<circle clip-path="url(#clip2002)" style="fill:#009af9; stroke:none; fill-opacity:1" cx="2154.43" cy="1314.31" r="14"/>
<circle clip-path="url(#clip2002)" style="fill:#000000; stroke:none; fill-opacity:1" cx="2176.43" cy="1410.22" r="18"/>
<circle clip-path="url(#clip2002)" style="fill:#009af9; stroke:none; fill-opacity:1" cx="2176.43" cy="1410.22" r="14"/>
<polyline clip-path="url(#clip2002)" style="stroke:#e26f46; stroke-width:4; stroke-opacity:1; fill:none" points="
  355.833,95.0755 374.223,108.852 392.612,122.629 411.002,136.405 429.392,150.182 447.782,163.958 466.172,177.735 484.562,191.511 502.952,205.288 521.342,219.064 
  539.732,232.841 558.121,246.617 576.511,260.394 594.901,274.171 613.291,287.947 631.681,301.724 650.071,315.5 668.461,329.277 686.851,343.053 705.241,356.83 
  723.631,370.606 742.02,384.383 760.41,398.159 778.8,411.936 797.19,425.712 815.58,439.489 833.97,453.266 852.36,467.042 870.75,480.819 889.14,494.595 
  907.529,508.372 925.919,522.148 944.309,535.925 962.699,549.701 981.089,563.478 999.479,577.254 1017.87,591.031 1036.26,604.808 1054.65,618.584 1073.04,632.361 
  1091.43,646.137 1109.82,659.914 1128.21,673.69 1146.6,687.467 1164.99,701.243 1183.38,715.02 1201.77,728.796 1220.16,742.573 1238.55,756.349 1256.94,770.126 
  1275.33,783.903 1293.72,797.679 1312.11,811.456 1330.5,825.232 1348.89,839.009 1367.28,852.785 1385.67,866.562 1404.06,880.338 1422.45,894.115 1440.84,907.891 
  1459.23,921.668 1477.62,935.445 1496.01,949.221 1514.4,962.998 1532.79,976.774 1551.18,990.551 1569.57,1004.33 1587.96,1018.1 1606.35,1031.88 1624.74,1045.66 
  1643.13,1059.43 1661.52,1073.21 1679.91,1086.99 1698.29,1100.76 1716.68,1114.54 1735.07,1128.32 1753.46,1142.09 1771.85,1155.87 1790.24,1169.65 1808.63,1183.42 
  1827.02,1197.2 1845.41,1210.98 1863.8,1224.75 1882.19,1238.53 1900.58,1252.31 1918.97,1266.08 1937.36,1279.86 1955.75,1293.63 1974.14,1307.41 1992.53,1321.19 
  2010.92,1334.96 2029.31,1348.74 2047.7,1362.52 2066.09,1376.29 2084.48,1390.07 2102.87,1403.85 2121.26,1417.62 2139.65,1431.4 2158.04,1445.18 2176.43,1458.95 
  
  "/>
<g clip-path="url(#clip2000)">
<text style="fill:#000000; fill-opacity:1; font-family:Arial,Helvetica Neue,Helvetica,sans-serif; font-size:59px; text-anchor:start;" transform="rotate(0, 355.833, 1371.21)" x="355.833" y="1371.21">r = -0.98</text>
</g>
</svg>
