<?xml version="1.0" encoding="utf-8"?>
<svg xmlns="http://www.w3.org/2000/svg" xmlns:xlink="http://www.w3.org/1999/xlink" width="600" height="400" viewBox="0 0 2400 1600">
<defs>
  <clipPath id="clip8900">
    <rect x="0" y="0" width="2400" height="1600"/>
  </clipPath>
</defs>
<polygon clip-path="url(#clip8900)" points="
0,1600 2400,1600 2400,0 0,0 
  " fill="#ffffff" fill-rule="evenodd" fill-opacity="1"/>
<defs>
  <clipPath id="clip8901">
    <rect x="480" y="0" width="1681" height="1600"/>
  </clipPath>
</defs>
<polygon clip-path="url(#clip8900)" points="
251.149,1440.48 2321.26,1440.48 2321.26,125.984 251.149,125.984 
  " fill="#ffffff" fill-rule="evenodd" fill-opacity="1"/>
<defs>
  <clipPath id="clip8902">
    <rect x="251" y="125" width="2071" height="1315"/>
  </clipPath>
</defs>
<polyline clip-path="url(#clip8902)" style="stroke:#000000; stroke-width:2; stroke-opacity:0.1; fill:none" points="
  499.368,1440.48 499.368,125.984 
  "/>
<polyline clip-path="url(#clip8902)" style="stroke:#000000; stroke-width:2; stroke-opacity:0.1; fill:none" points="
  995.806,1440.48 995.806,125.984 
  "/>
<polyline clip-path="url(#clip8902)" style="stroke:#000000; stroke-width:2; stroke-opacity:0.1; fill:none" points="
  1492.24,1440.48 1492.24,125.984 
  "/>
<polyline clip-path="url(#clip8902)" style="stroke:#000000; stroke-width:2; stroke-opacity:0.1; fill:none" points="
  1988.68,1440.48 1988.68,125.984 
  "/>
<polyline clip-path="url(#clip8902)" style="stroke:#000000; stroke-width:2; stroke-opacity:0.1; fill:none" points="
  251.149,1385.96 2321.26,1385.96 
  "/>
<polyline clip-path="url(#clip8902)" style="stroke:#000000; stroke-width:2; stroke-opacity:0.1; fill:none" points="
  251.149,1113.33 2321.26,1113.33 
  "/>
<polyline clip-path="url(#clip8902)" style="stroke:#000000; stroke-width:2; stroke-opacity:0.1; fill:none" points="
  251.149,840.7 2321.26,840.7 
  "/>
<polyline clip-path="url(#clip8902)" style="stroke:#000000; stroke-width:2; stroke-opacity:0.1; fill:none" points="
  251.149,568.071 2321.26,568.071 
  "/>
<polyline clip-path="url(#clip8902)" style="stroke:#000000; stroke-width:2; stroke-opacity:0.1; fill:none" points="
  251.149,295.442 2321.26,295.442 
  "/>
<polyline clip-path="url(#clip8900)" style="stroke:#000000; stroke-width:4; stroke-opacity:1; fill:none" points="
  251.149,1440.48 2321.26,1440.48 
  "/>
<polyline clip-path="url(#clip8900)" style="stroke:#000000; stroke-width:4; stroke-opacity:1; fill:none" points="
  251.149,1440.48 251.149,125.984 
  "/>
<polyline clip-path="url(#clip8900)" style="stroke:#000000; stroke-width:4; stroke-opacity:1; fill:none" points="
  499.368,1440.48 499.368,1420.77 
  "/>
<polyline clip-path="url(#clip8900)" style="stroke:#000000; stroke-width:4; stroke-opacity:1; fill:none" points="
  995.806,1440.48 995.806,1420.77 
  "/>
<polyline clip-path="url(#clip8900)" style="stroke:#000000; stroke-width:4; stroke-opacity:1; fill:none" points="
  1492.24,1440.48 1492.24,1420.77 
  "/>
<polyline clip-path="url(#clip8900)" style="stroke:#000000; stroke-width:4; stroke-opacity:1; fill:none" points="
  1988.68,1440.48 1988.68,1420.77 
  "/>
<polyline clip-path="url(#clip8900)" style="stroke:#000000; stroke-width:4; stroke-opacity:1; fill:none" points="
  251.149,1385.96 282.2,1385.96 
  "/>
<polyline clip-path="url(#clip8900)" style="stroke:#000000; stroke-width:4; stroke-opacity:1; fill:none" points="
  251.149,1113.33 282.2,1113.33 
  "/>
<polyline clip-path="url(#clip8900)" style="stroke:#000000; stroke-width:4; stroke-opacity:1; fill:none" points="
  251.149,840.7 282.2,840.7 
  "/>
<polyline clip-path="url(#clip8900)" style="stroke:#000000; stroke-width:4; stroke-opacity:1; fill:none" points="
  251.149,568.071 282.2,568.071 
  "/>
<polyline clip-path="url(#clip8900)" style="stroke:#000000; stroke-width:4; stroke-opacity:1; fill:none" points="
  251.149,295.442 282.2,295.442 
  "/>
<g clip-path="url(#clip8900)">
<text style="fill:#000000; fill-opacity:1; font-family:Arial,Helvetica Neue,Helvetica,sans-serif; font-size:48px; text-anchor:middle;" transform="rotate(0, 499.368, 1494.48)" x="499.368" y="1494.48">0</text>
</g>
<g clip-path="url(#clip8900)">
<text style="fill:#000000; fill-opacity:1; font-family:Arial,Helvetica Neue,Helvetica,sans-serif; font-size:48px; text-anchor:middle;" transform="rotate(0, 995.806, 1494.48)" x="995.806" y="1494.48">1</text>
</g>
<g clip-path="url(#clip8900)">
<text style="fill:#000000; fill-opacity:1; font-family:Arial,Helvetica Neue,Helvetica,sans-serif; font-size:48px; text-anchor:middle;" transform="rotate(0, 1492.24, 1494.48)" x="1492.24" y="1494.48">2</text>
</g>
<g clip-path="url(#clip8900)">
<text style="fill:#000000; fill-opacity:1; font-family:Arial,Helvetica Neue,Helvetica,sans-serif; font-size:48px; text-anchor:middle;" transform="rotate(0, 1988.68, 1494.48)" x="1988.68" y="1494.48">3</text>
</g>
<g clip-path="url(#clip8900)">
<text style="fill:#000000; fill-opacity:1; font-family:Arial,Helvetica Neue,Helvetica,sans-serif; font-size:48px; text-anchor:end;" transform="rotate(0, 227.149, 1403.46)" x="227.149" y="1403.46">0.0</text>
</g>
<g clip-path="url(#clip8900)">
<text style="fill:#000000; fill-opacity:1; font-family:Arial,Helvetica Neue,Helvetica,sans-serif; font-size:48px; text-anchor:end;" transform="rotate(0, 227.149, 1130.83)" x="227.149" y="1130.83">2.5</text>
</g>
<g clip-path="url(#clip8900)">
<text style="fill:#000000; fill-opacity:1; font-family:Arial,Helvetica Neue,Helvetica,sans-serif; font-size:48px; text-anchor:end;" transform="rotate(0, 227.149, 858.2)" x="227.149" y="858.2">5.0</text>
</g>
<g clip-path="url(#clip8900)">
<text style="fill:#000000; fill-opacity:1; font-family:Arial,Helvetica Neue,Helvetica,sans-serif; font-size:48px; text-anchor:end;" transform="rotate(0, 227.149, 585.571)" x="227.149" y="585.571">7.5</text>
</g>
<g clip-path="url(#clip8900)">
<text style="fill:#000000; fill-opacity:1; font-family:Arial,Helvetica Neue,Helvetica,sans-serif; font-size:48px; text-anchor:end;" transform="rotate(0, 227.149, 312.942)" x="227.149" y="312.942">10.0</text>
</g>
<g clip-path="url(#clip8900)">
<text style="fill:#000000; fill-opacity:1; font-family:Arial,Helvetica Neue,Helvetica,sans-serif; font-size:66px; text-anchor:middle;" transform="rotate(0, 1286.2, 57.6)" x="1286.2" y="57.6">GCF_000849665.1_ViralProj14593_genomic.fna.K7.counts.histogram</text>
</g>
<g clip-path="url(#clip8900)">
<text style="fill:#000000; fill-opacity:1; font-family:Arial,Helvetica Neue,Helvetica,sans-serif; font-size:66px; text-anchor:middle;" transform="rotate(0, 1286.2, 1590.4)" x="1286.2" y="1590.4">log2(depth of coverage)</text>
</g>
<g clip-path="url(#clip8900)">
<text style="fill:#000000; fill-opacity:1; font-family:Arial,Helvetica Neue,Helvetica,sans-serif; font-size:66px; text-anchor:middle;" transform="rotate(-90, 57.6, 783.233)" x="57.6" y="783.233">log2(# kmers)</text>
</g>
<circle clip-path="url(#clip8902)" style="fill:#000000; stroke:none; fill-opacity:1" cx="499.368" cy="180.51" r="18"/>
<circle clip-path="url(#clip8902)" style="fill:#009af9; stroke:none; fill-opacity:1" cx="499.368" cy="180.51" r="14"/>
<circle clip-path="url(#clip8902)" style="fill:#000000; stroke:none; fill-opacity:1" cx="995.806" cy="367.432" r="18"/>
<circle clip-path="url(#clip8902)" style="fill:#009af9; stroke:none; fill-opacity:1" cx="995.806" cy="367.432" r="14"/>
<circle clip-path="url(#clip8902)" style="fill:#000000; stroke:none; fill-opacity:1" cx="1286.2" cy="541.739" r="18"/>
<circle clip-path="url(#clip8902)" style="fill:#009af9; stroke:none; fill-opacity:1" cx="1286.2" cy="541.739" r="14"/>
<circle clip-path="url(#clip8902)" style="fill:#000000; stroke:none; fill-opacity:1" cx="1492.24" cy="702.555" r="18"/>
<circle clip-path="url(#clip8902)" style="fill:#009af9; stroke:none; fill-opacity:1" cx="1492.24" cy="702.555" r="14"/>
<circle clip-path="url(#clip8902)" style="fill:#000000; stroke:none; fill-opacity:1" cx="1652.06" cy="885.96" r="18"/>
<circle clip-path="url(#clip8902)" style="fill:#009af9; stroke:none; fill-opacity:1" cx="1652.06" cy="885.96" r="14"/>
<circle clip-path="url(#clip8902)" style="fill:#000000; stroke:none; fill-opacity:1" cx="1782.64" cy="1079.81" r="18"/>
<circle clip-path="url(#clip8902)" style="fill:#009af9; stroke:none; fill-opacity:1" cx="1782.64" cy="1079.81" r="14"/>
<circle clip-path="url(#clip8902)" style="fill:#000000; stroke:none; fill-opacity:1" cx="1893.05" cy="1276.91" r="18"/>
<circle clip-path="url(#clip8902)" style="fill:#009af9; stroke:none; fill-opacity:1" cx="1893.05" cy="1276.91" r="14"/>
<circle clip-path="url(#clip8902)" style="fill:#000000; stroke:none; fill-opacity:1" cx="2073.04" cy="1385.96" r="18"/>
<circle clip-path="url(#clip8902)" style="fill:#009af9; stroke:none; fill-opacity:1" cx="2073.04" cy="1385.96" r="14"/>
<polyline clip-path="url(#clip8902)" style="stroke:#e26f46; stroke-width:4; stroke-opacity:1; fill:none" points="
  499.368,28.981 515.263,41.7916 531.159,54.6022 547.055,67.4128 562.95,80.2234 578.846,93.034 594.742,105.845 610.638,118.655 626.533,131.466 642.429,144.276 
  658.325,157.087 674.22,169.898 690.116,182.708 706.012,195.519 721.907,208.329 737.803,221.14 753.699,233.951 769.594,246.761 785.49,259.572 801.386,272.383 
  817.281,285.193 833.177,298.004 849.073,310.814 864.969,323.625 880.864,336.436 896.76,349.246 912.656,362.057 928.551,374.867 944.447,387.678 960.343,400.489 
  976.238,413.299 992.134,426.11 1008.03,438.92 1023.93,451.731 1039.82,464.542 1055.72,477.352 1071.61,490.163 1087.51,502.973 1103.4,515.784 1119.3,528.595 
  1135.2,541.405 1151.09,554.216 1166.99,567.027 1182.88,579.837 1198.78,592.648 1214.67,605.458 1230.57,618.269 1246.46,631.08 1262.36,643.89 1278.26,656.701 
  1294.15,669.511 1310.05,682.322 1325.94,695.133 1341.84,707.943 1357.73,720.754 1373.63,733.564 1389.53,746.375 1405.42,759.186 1421.32,771.996 1437.21,784.807 
  1453.11,797.617 1469,810.428 1484.9,823.239 1500.8,836.049 1516.69,848.86 1532.59,861.671 1548.48,874.481 1564.38,887.292 1580.27,900.102 1596.17,912.913 
  1612.07,925.724 1627.96,938.534 1643.86,951.345 1659.75,964.155 1675.65,976.966 1691.54,989.777 1707.44,1002.59 1723.34,1015.4 1739.23,1028.21 1755.13,1041.02 
  1771.02,1053.83 1786.92,1066.64 1802.81,1079.45 1818.71,1092.26 1834.61,1105.07 1850.5,1117.88 1866.4,1130.69 1882.29,1143.5 1898.19,1156.31 1914.08,1169.13 
  1929.98,1181.94 1945.88,1194.75 1961.77,1207.56 1977.67,1220.37 1993.56,1233.18 2009.46,1245.99 2025.35,1258.8 2041.25,1271.61 2057.14,1284.42 2073.04,1297.23 
  
  "/>
<g clip-path="url(#clip8900)">
<text style="fill:#000000; fill-opacity:1; font-family:Arial,Helvetica Neue,Helvetica,sans-serif; font-size:59px; text-anchor:start;" transform="rotate(0, 499.368, 1298.41)" x="499.368" y="1298.41">r = -0.97</text>
</g>
</svg>
