<?xml version="1.0" encoding="utf-8"?>
<svg xmlns="http://www.w3.org/2000/svg" xmlns:xlink="http://www.w3.org/1999/xlink" width="600" height="400" viewBox="0 0 2400 1600">
<defs>
  <clipPath id="clip0200">
    <rect x="0" y="0" width="2400" height="1600"/>
  </clipPath>
</defs>
<polygon clip-path="url(#clip0200)" points="
0,1600 2400,1600 2400,0 0,0 
  " fill="#ffffff" fill-rule="evenodd" fill-opacity="1"/>
<defs>
  <clipPath id="clip0201">
    <rect x="480" y="0" width="1681" height="1600"/>
  </clipPath>
</defs>
<polygon clip-path="url(#clip0200)" points="
211.005,1440.48 2321.26,1440.48 2321.26,125.984 211.005,125.984 
  " fill="#ffffff" fill-rule="evenodd" fill-opacity="1"/>
<defs>
  <clipPath id="clip0202">
    <rect x="211" y="125" width="2111" height="1315"/>
  </clipPath>
</defs>
<polyline clip-path="url(#clip0202)" style="stroke:#000000; stroke-width:2; stroke-opacity:0.1; fill:none" points="
  339.228,1440.48 339.228,125.984 
  "/>
<polyline clip-path="url(#clip0202)" style="stroke:#000000; stroke-width:2; stroke-opacity:0.1; fill:none" points="
  852.122,1440.48 852.122,125.984 
  "/>
<polyline clip-path="url(#clip0202)" style="stroke:#000000; stroke-width:2; stroke-opacity:0.1; fill:none" points="
  1365.02,1440.48 1365.02,125.984 
  "/>
<polyline clip-path="url(#clip0202)" style="stroke:#000000; stroke-width:2; stroke-opacity:0.1; fill:none" points="
  1877.91,1440.48 1877.91,125.984 
  "/>
<polyline clip-path="url(#clip0202)" style="stroke:#000000; stroke-width:2; stroke-opacity:0.1; fill:none" points="
  211.005,1413.59 2321.26,1413.59 
  "/>
<polyline clip-path="url(#clip0202)" style="stroke:#000000; stroke-width:2; stroke-opacity:0.1; fill:none" points="
  211.005,1144.65 2321.26,1144.65 
  "/>
<polyline clip-path="url(#clip0202)" style="stroke:#000000; stroke-width:2; stroke-opacity:0.1; fill:none" points="
  211.005,875.703 2321.26,875.703 
  "/>
<polyline clip-path="url(#clip0202)" style="stroke:#000000; stroke-width:2; stroke-opacity:0.1; fill:none" points="
  211.005,606.76 2321.26,606.76 
  "/>
<polyline clip-path="url(#clip0202)" style="stroke:#000000; stroke-width:2; stroke-opacity:0.1; fill:none" points="
  211.005,337.817 2321.26,337.817 
  "/>
<polyline clip-path="url(#clip0200)" style="stroke:#000000; stroke-width:4; stroke-opacity:1; fill:none" points="
  211.005,1440.48 2321.26,1440.48 
  "/>
<polyline clip-path="url(#clip0200)" style="stroke:#000000; stroke-width:4; stroke-opacity:1; fill:none" points="
  211.005,1440.48 211.005,125.984 
  "/>
<polyline clip-path="url(#clip0200)" style="stroke:#000000; stroke-width:4; stroke-opacity:1; fill:none" points="
  339.228,1440.48 339.228,1420.77 
  "/>
<polyline clip-path="url(#clip0200)" style="stroke:#000000; stroke-width:4; stroke-opacity:1; fill:none" points="
  852.122,1440.48 852.122,1420.77 
  "/>
<polyline clip-path="url(#clip0200)" style="stroke:#000000; stroke-width:4; stroke-opacity:1; fill:none" points="
  1365.02,1440.48 1365.02,1420.77 
  "/>
<polyline clip-path="url(#clip0200)" style="stroke:#000000; stroke-width:4; stroke-opacity:1; fill:none" points="
  1877.91,1440.48 1877.91,1420.77 
  "/>
<polyline clip-path="url(#clip0200)" style="stroke:#000000; stroke-width:4; stroke-opacity:1; fill:none" points="
  211.005,1413.59 242.659,1413.59 
  "/>
<polyline clip-path="url(#clip0200)" style="stroke:#000000; stroke-width:4; stroke-opacity:1; fill:none" points="
  211.005,1144.65 242.659,1144.65 
  "/>
<polyline clip-path="url(#clip0200)" style="stroke:#000000; stroke-width:4; stroke-opacity:1; fill:none" points="
  211.005,875.703 242.659,875.703 
  "/>
<polyline clip-path="url(#clip0200)" style="stroke:#000000; stroke-width:4; stroke-opacity:1; fill:none" points="
  211.005,606.76 242.659,606.76 
  "/>
<polyline clip-path="url(#clip0200)" style="stroke:#000000; stroke-width:4; stroke-opacity:1; fill:none" points="
  211.005,337.817 242.659,337.817 
  "/>
<g clip-path="url(#clip0200)">
<text style="fill:#000000; fill-opacity:1; font-family:Arial,Helvetica Neue,Helvetica,sans-serif; font-size:48px; text-anchor:middle;" transform="rotate(0, 339.228, 1494.48)" x="339.228" y="1494.48">0</text>
</g>
<g clip-path="url(#clip0200)">
<text style="fill:#000000; fill-opacity:1; font-family:Arial,Helvetica Neue,Helvetica,sans-serif; font-size:48px; text-anchor:middle;" transform="rotate(0, 852.122, 1494.48)" x="852.122" y="1494.48">2</text>
</g>
<g clip-path="url(#clip0200)">
<text style="fill:#000000; fill-opacity:1; font-family:Arial,Helvetica Neue,Helvetica,sans-serif; font-size:48px; text-anchor:middle;" transform="rotate(0, 1365.02, 1494.48)" x="1365.02" y="1494.48">4</text>
</g>
<g clip-path="url(#clip0200)">
<text style="fill:#000000; fill-opacity:1; font-family:Arial,Helvetica Neue,Helvetica,sans-serif; font-size:48px; text-anchor:middle;" transform="rotate(0, 1877.91, 1494.48)" x="1877.91" y="1494.48">6</text>
</g>
<g clip-path="url(#clip0200)">
<text style="fill:#000000; fill-opacity:1; font-family:Arial,Helvetica Neue,Helvetica,sans-serif; font-size:48px; text-anchor:end;" transform="rotate(0, 187.005, 1431.09)" x="187.005" y="1431.09">0</text>
</g>
<g clip-path="url(#clip0200)">
<text style="fill:#000000; fill-opacity:1; font-family:Arial,Helvetica Neue,Helvetica,sans-serif; font-size:48px; text-anchor:end;" transform="rotate(0, 187.005, 1162.15)" x="187.005" y="1162.15">5</text>
</g>
<g clip-path="url(#clip0200)">
<text style="fill:#000000; fill-opacity:1; font-family:Arial,Helvetica Neue,Helvetica,sans-serif; font-size:48px; text-anchor:end;" transform="rotate(0, 187.005, 893.203)" x="187.005" y="893.203">10</text>
</g>
<g clip-path="url(#clip0200)">
<text style="fill:#000000; fill-opacity:1; font-family:Arial,Helvetica Neue,Helvetica,sans-serif; font-size:48px; text-anchor:end;" transform="rotate(0, 187.005, 624.26)" x="187.005" y="624.26">15</text>
</g>
<g clip-path="url(#clip0200)">
<text style="fill:#000000; fill-opacity:1; font-family:Arial,Helvetica Neue,Helvetica,sans-serif; font-size:48px; text-anchor:end;" transform="rotate(0, 187.005, 355.317)" x="187.005" y="355.317">20</text>
</g>
<g clip-path="url(#clip0200)">
<text style="fill:#000000; fill-opacity:1; font-family:Arial,Helvetica Neue,Helvetica,sans-serif; font-size:66px; text-anchor:middle;" transform="rotate(0, 1266.13, 57.6)" x="1266.13" y="57.6">GCF_000146045.2_R64_genomic.fna.K29.counts.histogram</text>
</g>
<g clip-path="url(#clip0200)">
<text style="fill:#000000; fill-opacity:1; font-family:Arial,Helvetica Neue,Helvetica,sans-serif; font-size:66px; text-anchor:middle;" transform="rotate(0, 1266.13, 1590.4)" x="1266.13" y="1590.4">log2(depth of coverage)</text>
</g>
<g clip-path="url(#clip0200)">
<text style="fill:#000000; fill-opacity:1; font-family:Arial,Helvetica Neue,Helvetica,sans-serif; font-size:66px; text-anchor:middle;" transform="rotate(-90, 57.6, 783.233)" x="57.6" y="783.233">log2(# kmers)</text>
</g>
<circle clip-path="url(#clip0202)" style="fill:#000000; stroke:none; fill-opacity:1" cx="339.228" cy="152.879" r="18"/>
<circle clip-path="url(#clip0202)" style="fill:#009af9; stroke:none; fill-opacity:1" cx="339.228" cy="152.879" r="14"/>
<circle clip-path="url(#clip0202)" style="fill:#000000; stroke:none; fill-opacity:1" cx="595.675" cy="504.355" r="18"/>
<circle clip-path="url(#clip0202)" style="fill:#009af9; stroke:none; fill-opacity:1" cx="595.675" cy="504.355" r="14"/>
<circle clip-path="url(#clip0202)" style="fill:#000000; stroke:none; fill-opacity:1" cx="745.687" cy="618.212" r="18"/>
<circle clip-path="url(#clip0202)" style="fill:#009af9; stroke:none; fill-opacity:1" cx="745.687" cy="618.212" r="14"/>
<circle clip-path="url(#clip0202)" style="fill:#000000; stroke:none; fill-opacity:1" cx="852.122" cy="698.058" r="18"/>
<circle clip-path="url(#clip0202)" style="fill:#009af9; stroke:none; fill-opacity:1" cx="852.122" cy="698.058" r="14"/>
<circle clip-path="url(#clip0202)" style="fill:#000000; stroke:none; fill-opacity:1" cx="934.68" cy="791.672" r="18"/>
<circle clip-path="url(#clip0202)" style="fill:#009af9; stroke:none; fill-opacity:1" cx="934.68" cy="791.672" r="14"/>
<circle clip-path="url(#clip0202)" style="fill:#000000; stroke:none; fill-opacity:1" cx="1002.13" cy="812.976" r="18"/>
<circle clip-path="url(#clip0202)" style="fill:#009af9; stroke:none; fill-opacity:1" cx="1002.13" cy="812.976" r="14"/>
<circle clip-path="url(#clip0202)" style="fill:#000000; stroke:none; fill-opacity:1" cx="1059.17" cy="819.821" r="18"/>
<circle clip-path="url(#clip0202)" style="fill:#009af9; stroke:none; fill-opacity:1" cx="1059.17" cy="819.821" r="14"/>
<circle clip-path="url(#clip0202)" style="fill:#000000; stroke:none; fill-opacity:1" cx="1108.57" cy="838.027" r="18"/>
<circle clip-path="url(#clip0202)" style="fill:#009af9; stroke:none; fill-opacity:1" cx="1108.57" cy="838.027" r="14"/>
<circle clip-path="url(#clip0202)" style="fill:#000000; stroke:none; fill-opacity:1" cx="1152.15" cy="866.294" r="18"/>
<circle clip-path="url(#clip0202)" style="fill:#009af9; stroke:none; fill-opacity:1" cx="1152.15" cy="866.294" r="14"/>
<circle clip-path="url(#clip0202)" style="fill:#000000; stroke:none; fill-opacity:1" cx="1191.13" cy="890.063" r="18"/>
<circle clip-path="url(#clip0202)" style="fill:#009af9; stroke:none; fill-opacity:1" cx="1191.13" cy="890.063" r="14"/>
<circle clip-path="url(#clip0202)" style="fill:#000000; stroke:none; fill-opacity:1" cx="1226.39" cy="825.52" r="18"/>
<circle clip-path="url(#clip0202)" style="fill:#009af9; stroke:none; fill-opacity:1" cx="1226.39" cy="825.52" r="14"/>
<circle clip-path="url(#clip0202)" style="fill:#000000; stroke:none; fill-opacity:1" cx="1258.58" cy="868.957" r="18"/>
<circle clip-path="url(#clip0202)" style="fill:#009af9; stroke:none; fill-opacity:1" cx="1258.58" cy="868.957" r="14"/>
<circle clip-path="url(#clip0202)" style="fill:#000000; stroke:none; fill-opacity:1" cx="1288.19" cy="804.235" r="18"/>
<circle clip-path="url(#clip0202)" style="fill:#009af9; stroke:none; fill-opacity:1" cx="1288.19" cy="804.235" r="14"/>
<circle clip-path="url(#clip0202)" style="fill:#000000; stroke:none; fill-opacity:1" cx="1315.61" cy="903.143" r="18"/>
<circle clip-path="url(#clip0202)" style="fill:#009af9; stroke:none; fill-opacity:1" cx="1315.61" cy="903.143" r="14"/>
<circle clip-path="url(#clip0202)" style="fill:#000000; stroke:none; fill-opacity:1" cx="1341.14" cy="886.673" r="18"/>
<circle clip-path="url(#clip0202)" style="fill:#009af9; stroke:none; fill-opacity:1" cx="1341.14" cy="886.673" r="14"/>
<circle clip-path="url(#clip0202)" style="fill:#000000; stroke:none; fill-opacity:1" cx="1365.02" cy="882.925" r="18"/>
<circle clip-path="url(#clip0202)" style="fill:#009af9; stroke:none; fill-opacity:1" cx="1365.02" cy="882.925" r="14"/>
<circle clip-path="url(#clip0202)" style="fill:#000000; stroke:none; fill-opacity:1" cx="1387.45" cy="917.054" r="18"/>
<circle clip-path="url(#clip0202)" style="fill:#009af9; stroke:none; fill-opacity:1" cx="1387.45" cy="917.054" r="14"/>
<circle clip-path="url(#clip0202)" style="fill:#000000; stroke:none; fill-opacity:1" cx="1408.59" cy="893.513" r="18"/>
<circle clip-path="url(#clip0202)" style="fill:#009af9; stroke:none; fill-opacity:1" cx="1408.59" cy="893.513" r="14"/>
<circle clip-path="url(#clip0202)" style="fill:#000000; stroke:none; fill-opacity:1" cx="1428.6" cy="832.841" r="18"/>
<circle clip-path="url(#clip0202)" style="fill:#009af9; stroke:none; fill-opacity:1" cx="1428.6" cy="832.841" r="14"/>
<circle clip-path="url(#clip0202)" style="fill:#000000; stroke:none; fill-opacity:1" cx="1447.57" cy="970.2" r="18"/>
<circle clip-path="url(#clip0202)" style="fill:#009af9; stroke:none; fill-opacity:1" cx="1447.57" cy="970.2" r="14"/>
<circle clip-path="url(#clip0202)" style="fill:#000000; stroke:none; fill-opacity:1" cx="1465.62" cy="979.148" r="18"/>
<circle clip-path="url(#clip0202)" style="fill:#009af9; stroke:none; fill-opacity:1" cx="1465.62" cy="979.148" r="14"/>
<circle clip-path="url(#clip0202)" style="fill:#000000; stroke:none; fill-opacity:1" cx="1482.84" cy="1010.18" r="18"/>
<circle clip-path="url(#clip0202)" style="fill:#009af9; stroke:none; fill-opacity:1" cx="1482.84" cy="1010.18" r="14"/>
<circle clip-path="url(#clip0202)" style="fill:#000000; stroke:none; fill-opacity:1" cx="1499.28" cy="967.433" r="18"/>
<circle clip-path="url(#clip0202)" style="fill:#009af9; stroke:none; fill-opacity:1" cx="1499.28" cy="967.433" r="14"/>
<circle clip-path="url(#clip0202)" style="fill:#000000; stroke:none; fill-opacity:1" cx="1515.03" cy="1020.24" r="18"/>
<circle clip-path="url(#clip0202)" style="fill:#009af9; stroke:none; fill-opacity:1" cx="1515.03" cy="1020.24" r="14"/>
<circle clip-path="url(#clip0202)" style="fill:#000000; stroke:none; fill-opacity:1" cx="1530.13" cy="993.642" r="18"/>
<circle clip-path="url(#clip0202)" style="fill:#009af9; stroke:none; fill-opacity:1" cx="1530.13" cy="993.642" r="14"/>
<circle clip-path="url(#clip0202)" style="fill:#000000; stroke:none; fill-opacity:1" cx="1544.64" cy="956.824" r="18"/>
<circle clip-path="url(#clip0202)" style="fill:#009af9; stroke:none; fill-opacity:1" cx="1544.64" cy="956.824" r="14"/>
<circle clip-path="url(#clip0202)" style="fill:#000000; stroke:none; fill-opacity:1" cx="1558.6" cy="1032.94" r="18"/>
<circle clip-path="url(#clip0202)" style="fill:#009af9; stroke:none; fill-opacity:1" cx="1558.6" cy="1032.94" r="14"/>
<circle clip-path="url(#clip0202)" style="fill:#000000; stroke:none; fill-opacity:1" cx="1572.06" cy="947.876" r="18"/>
<circle clip-path="url(#clip0202)" style="fill:#009af9; stroke:none; fill-opacity:1" cx="1572.06" cy="947.876" r="14"/>
<circle clip-path="url(#clip0202)" style="fill:#000000; stroke:none; fill-opacity:1" cx="1585.04" cy="909.318" r="18"/>
<circle clip-path="url(#clip0202)" style="fill:#009af9; stroke:none; fill-opacity:1" cx="1585.04" cy="909.318" r="14"/>
<circle clip-path="url(#clip0202)" style="fill:#000000; stroke:none; fill-opacity:1" cx="1597.59" cy="922.954" r="18"/>
<circle clip-path="url(#clip0202)" style="fill:#009af9; stroke:none; fill-opacity:1" cx="1597.59" cy="922.954" r="14"/>
<circle clip-path="url(#clip0202)" style="fill:#000000; stroke:none; fill-opacity:1" cx="1609.72" cy="993.989" r="18"/>
<circle clip-path="url(#clip0202)" style="fill:#009af9; stroke:none; fill-opacity:1" cx="1609.72" cy="993.989" r="14"/>
<circle clip-path="url(#clip0202)" style="fill:#000000; stroke:none; fill-opacity:1" cx="1621.46" cy="900.282" r="18"/>
<circle clip-path="url(#clip0202)" style="fill:#009af9; stroke:none; fill-opacity:1" cx="1621.46" cy="900.282" r="14"/>
<circle clip-path="url(#clip0202)" style="fill:#000000; stroke:none; fill-opacity:1" cx="1632.85" cy="924.218" r="18"/>
<circle clip-path="url(#clip0202)" style="fill:#009af9; stroke:none; fill-opacity:1" cx="1632.85" cy="924.218" r="14"/>
<circle clip-path="url(#clip0202)" style="fill:#000000; stroke:none; fill-opacity:1" cx="1643.89" cy="1119.93" r="18"/>
<circle clip-path="url(#clip0202)" style="fill:#009af9; stroke:none; fill-opacity:1" cx="1643.89" cy="1119.93" r="14"/>
<circle clip-path="url(#clip0202)" style="fill:#000000; stroke:none; fill-opacity:1" cx="1654.62" cy="1181.12" r="18"/>
<circle clip-path="url(#clip0202)" style="fill:#009af9; stroke:none; fill-opacity:1" cx="1654.62" cy="1181.12" r="14"/>
<circle clip-path="url(#clip0202)" style="fill:#000000; stroke:none; fill-opacity:1" cx="1665.04" cy="1116.48" r="18"/>
<circle clip-path="url(#clip0202)" style="fill:#009af9; stroke:none; fill-opacity:1" cx="1665.04" cy="1116.48" r="14"/>
<circle clip-path="url(#clip0202)" style="fill:#000000; stroke:none; fill-opacity:1" cx="1675.18" cy="1166.97" r="18"/>
<circle clip-path="url(#clip0202)" style="fill:#009af9; stroke:none; fill-opacity:1" cx="1675.18" cy="1166.97" r="14"/>
<circle clip-path="url(#clip0202)" style="fill:#000000; stroke:none; fill-opacity:1" cx="1685.04" cy="1328.34" r="18"/>
<circle clip-path="url(#clip0202)" style="fill:#009af9; stroke:none; fill-opacity:1" cx="1685.04" cy="1328.34" r="14"/>
<circle clip-path="url(#clip0202)" style="fill:#000000; stroke:none; fill-opacity:1" cx="1694.65" cy="1193.73" r="18"/>
<circle clip-path="url(#clip0202)" style="fill:#009af9; stroke:none; fill-opacity:1" cx="1694.65" cy="1193.73" r="14"/>
<circle clip-path="url(#clip0202)" style="fill:#000000; stroke:none; fill-opacity:1" cx="1704.02" cy="1306.01" r="18"/>
<circle clip-path="url(#clip0202)" style="fill:#009af9; stroke:none; fill-opacity:1" cx="1704.02" cy="1306.01" r="14"/>
<circle clip-path="url(#clip0202)" style="fill:#000000; stroke:none; fill-opacity:1" cx="1713.16" cy="1149.65" r="18"/>
<circle clip-path="url(#clip0202)" style="fill:#009af9; stroke:none; fill-opacity:1" cx="1713.16" cy="1149.65" r="14"/>
<circle clip-path="url(#clip0202)" style="fill:#000000; stroke:none; fill-opacity:1" cx="1722.07" cy="1262.58" r="18"/>
<circle clip-path="url(#clip0202)" style="fill:#009af9; stroke:none; fill-opacity:1" cx="1722.07" cy="1262.58" r="14"/>
<circle clip-path="url(#clip0202)" style="fill:#000000; stroke:none; fill-opacity:1" cx="1730.78" cy="1181.12" r="18"/>
<circle clip-path="url(#clip0202)" style="fill:#009af9; stroke:none; fill-opacity:1" cx="1730.78" cy="1181.12" r="14"/>
<circle clip-path="url(#clip0202)" style="fill:#000000; stroke:none; fill-opacity:1" cx="1739.28" cy="1413.59" r="18"/>
<circle clip-path="url(#clip0202)" style="fill:#009af9; stroke:none; fill-opacity:1" cx="1739.28" cy="1413.59" r="14"/>
<circle clip-path="url(#clip0202)" style="fill:#000000; stroke:none; fill-opacity:1" cx="1747.6" cy="1133.38" r="18"/>
<circle clip-path="url(#clip0202)" style="fill:#009af9; stroke:none; fill-opacity:1" cx="1747.6" cy="1133.38" r="14"/>
<circle clip-path="url(#clip0202)" style="fill:#000000; stroke:none; fill-opacity:1" cx="1755.73" cy="1227.51" r="18"/>
<circle clip-path="url(#clip0202)" style="fill:#009af9; stroke:none; fill-opacity:1" cx="1755.73" cy="1227.51" r="14"/>
<circle clip-path="url(#clip0202)" style="fill:#000000; stroke:none; fill-opacity:1" cx="1763.69" cy="1166.97" r="18"/>
<circle clip-path="url(#clip0202)" style="fill:#009af9; stroke:none; fill-opacity:1" cx="1763.69" cy="1166.97" r="14"/>
<circle clip-path="url(#clip0202)" style="fill:#000000; stroke:none; fill-opacity:1" cx="1771.47" cy="1198.43" r="18"/>
<circle clip-path="url(#clip0202)" style="fill:#009af9; stroke:none; fill-opacity:1" cx="1771.47" cy="1198.43" r="14"/>
<circle clip-path="url(#clip0202)" style="fill:#000000; stroke:none; fill-opacity:1" cx="1779.1" cy="1214.55" r="18"/>
<circle clip-path="url(#clip0202)" style="fill:#009af9; stroke:none; fill-opacity:1" cx="1779.1" cy="1214.55" r="14"/>
<circle clip-path="url(#clip0202)" style="fill:#000000; stroke:none; fill-opacity:1" cx="1786.58" cy="1359.8" r="18"/>
<circle clip-path="url(#clip0202)" style="fill:#009af9; stroke:none; fill-opacity:1" cx="1786.58" cy="1359.8" r="14"/>
<circle clip-path="url(#clip0202)" style="fill:#000000; stroke:none; fill-opacity:1" cx="1793.9" cy="1137.69" r="18"/>
<circle clip-path="url(#clip0202)" style="fill:#009af9; stroke:none; fill-opacity:1" cx="1793.9" cy="1137.69" r="14"/>
<circle clip-path="url(#clip0202)" style="fill:#000000; stroke:none; fill-opacity:1" cx="1801.09" cy="1163.8" r="18"/>
<circle clip-path="url(#clip0202)" style="fill:#009af9; stroke:none; fill-opacity:1" cx="1801.09" cy="1163.8" r="14"/>
<circle clip-path="url(#clip0202)" style="fill:#000000; stroke:none; fill-opacity:1" cx="1808.14" cy="1189.29" r="18"/>
<circle clip-path="url(#clip0202)" style="fill:#009af9; stroke:none; fill-opacity:1" cx="1808.14" cy="1189.29" r="14"/>
<circle clip-path="url(#clip0202)" style="fill:#000000; stroke:none; fill-opacity:1" cx="1815.05" cy="1214.55" r="18"/>
<circle clip-path="url(#clip0202)" style="fill:#009af9; stroke:none; fill-opacity:1" cx="1815.05" cy="1214.55" r="14"/>
<circle clip-path="url(#clip0202)" style="fill:#000000; stroke:none; fill-opacity:1" cx="1821.84" cy="1203.44" r="18"/>
<circle clip-path="url(#clip0202)" style="fill:#009af9; stroke:none; fill-opacity:1" cx="1821.84" cy="1203.44" r="14"/>
<circle clip-path="url(#clip0202)" style="fill:#000000; stroke:none; fill-opacity:1" cx="1828.51" cy="1262.58" r="18"/>
<circle clip-path="url(#clip0202)" style="fill:#009af9; stroke:none; fill-opacity:1" cx="1828.51" cy="1262.58" r="14"/>
<circle clip-path="url(#clip0202)" style="fill:#000000; stroke:none; fill-opacity:1" cx="1835.05" cy="1306.01" r="18"/>
<circle clip-path="url(#clip0202)" style="fill:#009af9; stroke:none; fill-opacity:1" cx="1835.05" cy="1306.01" r="14"/>
<circle clip-path="url(#clip0202)" style="fill:#000000; stroke:none; fill-opacity:1" cx="1841.49" cy="1413.59" r="18"/>
<circle clip-path="url(#clip0202)" style="fill:#009af9; stroke:none; fill-opacity:1" cx="1841.49" cy="1413.59" r="14"/>
<circle clip-path="url(#clip0202)" style="fill:#000000; stroke:none; fill-opacity:1" cx="1847.81" cy="1413.59" r="18"/>
<circle clip-path="url(#clip0202)" style="fill:#009af9; stroke:none; fill-opacity:1" cx="1847.81" cy="1413.59" r="14"/>
<circle clip-path="url(#clip0202)" style="fill:#000000; stroke:none; fill-opacity:1" cx="1854.03" cy="1252.22" r="18"/>
<circle clip-path="url(#clip0202)" style="fill:#009af9; stroke:none; fill-opacity:1" cx="1854.03" cy="1252.22" r="14"/>
<circle clip-path="url(#clip0202)" style="fill:#000000; stroke:none; fill-opacity:1" cx="1860.15" cy="1144.65" r="18"/>
<circle clip-path="url(#clip0202)" style="fill:#009af9; stroke:none; fill-opacity:1" cx="1860.15" cy="1144.65" r="14"/>
<circle clip-path="url(#clip0202)" style="fill:#000000; stroke:none; fill-opacity:1" cx="1866.16" cy="1306.01" r="18"/>
<circle clip-path="url(#clip0202)" style="fill:#009af9; stroke:none; fill-opacity:1" cx="1866.16" cy="1306.01" r="14"/>
<circle clip-path="url(#clip0202)" style="fill:#000000; stroke:none; fill-opacity:1" cx="1872.08" cy="1163.8" r="18"/>
<circle clip-path="url(#clip0202)" style="fill:#009af9; stroke:none; fill-opacity:1" cx="1872.08" cy="1163.8" r="14"/>
<circle clip-path="url(#clip0202)" style="fill:#000000; stroke:none; fill-opacity:1" cx="1877.91" cy="1214.55" r="18"/>
<circle clip-path="url(#clip0202)" style="fill:#009af9; stroke:none; fill-opacity:1" cx="1877.91" cy="1214.55" r="14"/>
<circle clip-path="url(#clip0202)" style="fill:#000000; stroke:none; fill-opacity:1" cx="1889.29" cy="1413.59" r="18"/>
<circle clip-path="url(#clip0202)" style="fill:#009af9; stroke:none; fill-opacity:1" cx="1889.29" cy="1413.59" r="14"/>
<circle clip-path="url(#clip0202)" style="fill:#000000; stroke:none; fill-opacity:1" cx="1894.86" cy="1252.22" r="18"/>
<circle clip-path="url(#clip0202)" style="fill:#009af9; stroke:none; fill-opacity:1" cx="1894.86" cy="1252.22" r="14"/>
<circle clip-path="url(#clip0202)" style="fill:#000000; stroke:none; fill-opacity:1" cx="1900.34" cy="1328.34" r="18"/>
<circle clip-path="url(#clip0202)" style="fill:#009af9; stroke:none; fill-opacity:1" cx="1900.34" cy="1328.34" r="14"/>
<circle clip-path="url(#clip0202)" style="fill:#000000; stroke:none; fill-opacity:1" cx="1905.74" cy="1359.8" r="18"/>
<circle clip-path="url(#clip0202)" style="fill:#009af9; stroke:none; fill-opacity:1" cx="1905.74" cy="1359.8" r="14"/>
<circle clip-path="url(#clip0202)" style="fill:#000000; stroke:none; fill-opacity:1" cx="1916.31" cy="1413.59" r="18"/>
<circle clip-path="url(#clip0202)" style="fill:#009af9; stroke:none; fill-opacity:1" cx="1916.31" cy="1413.59" r="14"/>
<circle clip-path="url(#clip0202)" style="fill:#000000; stroke:none; fill-opacity:1" cx="1926.59" cy="1359.8" r="18"/>
<circle clip-path="url(#clip0202)" style="fill:#009af9; stroke:none; fill-opacity:1" cx="1926.59" cy="1359.8" r="14"/>
<circle clip-path="url(#clip0202)" style="fill:#000000; stroke:none; fill-opacity:1" cx="1931.62" cy="1359.8" r="18"/>
<circle clip-path="url(#clip0202)" style="fill:#009af9; stroke:none; fill-opacity:1" cx="1931.62" cy="1359.8" r="14"/>
<circle clip-path="url(#clip0202)" style="fill:#000000; stroke:none; fill-opacity:1" cx="1936.59" cy="1359.8" r="18"/>
<circle clip-path="url(#clip0202)" style="fill:#009af9; stroke:none; fill-opacity:1" cx="1936.59" cy="1359.8" r="14"/>
<circle clip-path="url(#clip0202)" style="fill:#000000; stroke:none; fill-opacity:1" cx="1941.49" cy="1208.8" r="18"/>
<circle clip-path="url(#clip0202)" style="fill:#009af9; stroke:none; fill-opacity:1" cx="1941.49" cy="1208.8" r="14"/>
<circle clip-path="url(#clip0202)" style="fill:#000000; stroke:none; fill-opacity:1" cx="1946.33" cy="1181.12" r="18"/>
<circle clip-path="url(#clip0202)" style="fill:#009af9; stroke:none; fill-opacity:1" cx="1946.33" cy="1181.12" r="14"/>
<circle clip-path="url(#clip0202)" style="fill:#000000; stroke:none; fill-opacity:1" cx="1951.1" cy="1155.01" r="18"/>
<circle clip-path="url(#clip0202)" style="fill:#009af9; stroke:none; fill-opacity:1" cx="1951.1" cy="1155.01" r="14"/>
<circle clip-path="url(#clip0202)" style="fill:#000000; stroke:none; fill-opacity:1" cx="1955.81" cy="1274.55" r="18"/>
<circle clip-path="url(#clip0202)" style="fill:#009af9; stroke:none; fill-opacity:1" cx="1955.81" cy="1274.55" r="14"/>
<circle clip-path="url(#clip0202)" style="fill:#000000; stroke:none; fill-opacity:1" cx="1960.47" cy="1413.59" r="18"/>
<circle clip-path="url(#clip0202)" style="fill:#009af9; stroke:none; fill-opacity:1" cx="1960.47" cy="1413.59" r="14"/>
<circle clip-path="url(#clip0202)" style="fill:#000000; stroke:none; fill-opacity:1" cx="1965.06" cy="1177.33" r="18"/>
<circle clip-path="url(#clip0202)" style="fill:#009af9; stroke:none; fill-opacity:1" cx="1965.06" cy="1177.33" r="14"/>
<circle clip-path="url(#clip0202)" style="fill:#000000; stroke:none; fill-opacity:1" cx="1969.6" cy="1198.43" r="18"/>
<circle clip-path="url(#clip0202)" style="fill:#009af9; stroke:none; fill-opacity:1" cx="1969.6" cy="1198.43" r="14"/>
<circle clip-path="url(#clip0202)" style="fill:#000000; stroke:none; fill-opacity:1" cx="1974.09" cy="1306.01" r="18"/>
<circle clip-path="url(#clip0202)" style="fill:#009af9; stroke:none; fill-opacity:1" cx="1974.09" cy="1306.01" r="14"/>
<circle clip-path="url(#clip0202)" style="fill:#000000; stroke:none; fill-opacity:1" cx="1978.52" cy="1288.7" r="18"/>
<circle clip-path="url(#clip0202)" style="fill:#009af9; stroke:none; fill-opacity:1" cx="1978.52" cy="1288.7" r="14"/>
<circle clip-path="url(#clip0202)" style="fill:#000000; stroke:none; fill-opacity:1" cx="2039.31" cy="1306.01" r="18"/>
<circle clip-path="url(#clip0202)" style="fill:#009af9; stroke:none; fill-opacity:1" cx="2039.31" cy="1306.01" r="14"/>
<circle clip-path="url(#clip0202)" style="fill:#000000; stroke:none; fill-opacity:1" cx="2043.02" cy="1252.22" r="18"/>
<circle clip-path="url(#clip0202)" style="fill:#009af9; stroke:none; fill-opacity:1" cx="2043.02" cy="1252.22" r="14"/>
<circle clip-path="url(#clip0202)" style="fill:#000000; stroke:none; fill-opacity:1" cx="2046.71" cy="1262.58" r="18"/>
<circle clip-path="url(#clip0202)" style="fill:#009af9; stroke:none; fill-opacity:1" cx="2046.71" cy="1262.58" r="14"/>
<circle clip-path="url(#clip0202)" style="fill:#000000; stroke:none; fill-opacity:1" cx="2050.35" cy="1413.59" r="18"/>
<circle clip-path="url(#clip0202)" style="fill:#009af9; stroke:none; fill-opacity:1" cx="2050.35" cy="1413.59" r="14"/>
<circle clip-path="url(#clip0202)" style="fill:#000000; stroke:none; fill-opacity:1" cx="2061.08" cy="1413.59" r="18"/>
<circle clip-path="url(#clip0202)" style="fill:#009af9; stroke:none; fill-opacity:1" cx="2061.08" cy="1413.59" r="14"/>
<circle clip-path="url(#clip0202)" style="fill:#000000; stroke:none; fill-opacity:1" cx="2064.58" cy="1413.59" r="18"/>
<circle clip-path="url(#clip0202)" style="fill:#009af9; stroke:none; fill-opacity:1" cx="2064.58" cy="1413.59" r="14"/>
<circle clip-path="url(#clip0202)" style="fill:#000000; stroke:none; fill-opacity:1" cx="2193.04" cy="1413.59" r="18"/>
<circle clip-path="url(#clip0202)" style="fill:#009af9; stroke:none; fill-opacity:1" cx="2193.04" cy="1413.59" r="14"/>
<polyline clip-path="url(#clip0202)" style="stroke:#e26f46; stroke-width:4; stroke-opacity:1; fill:none" points="
  339.228,303.324 357.954,314.909 376.679,326.494 395.404,338.079 414.13,349.664 432.855,361.249 451.58,372.833 470.306,384.418 489.031,396.003 507.756,407.588 
  526.482,419.173 545.207,430.757 563.932,442.342 582.658,453.927 601.383,465.512 620.108,477.097 638.834,488.682 657.559,500.266 676.284,511.851 695.01,523.436 
  713.735,535.021 732.46,546.606 751.186,558.19 769.911,569.775 788.636,581.36 807.362,592.945 826.087,604.53 844.812,616.115 863.538,627.699 882.263,639.284 
  900.988,650.869 919.714,662.454 938.439,674.039 957.164,685.623 975.89,697.208 994.615,708.793 1013.34,720.378 1032.07,731.963 1050.79,743.548 1069.52,755.132 
  1088.24,766.717 1106.97,778.302 1125.69,789.887 1144.42,801.472 1163.14,813.056 1181.87,824.641 1200.59,836.226 1219.32,847.811 1238.04,859.396 1256.77,870.981 
  1275.5,882.565 1294.22,894.15 1312.95,905.735 1331.67,917.32 1350.4,928.905 1369.12,940.489 1387.85,952.074 1406.57,963.659 1425.3,975.244 1444.02,986.829 
  1462.75,998.413 1481.47,1010 1500.2,1021.58 1518.92,1033.17 1537.65,1044.75 1556.38,1056.34 1575.1,1067.92 1593.83,1079.51 1612.55,1091.09 1631.28,1102.68 
  1650,1114.26 1668.73,1125.85 1687.45,1137.43 1706.18,1149.02 1724.9,1160.6 1743.63,1172.19 1762.35,1183.77 1781.08,1195.36 1799.8,1206.94 1818.53,1218.53 
  1837.26,1230.11 1855.98,1241.69 1874.71,1253.28 1893.43,1264.86 1912.16,1276.45 1930.88,1288.03 1949.61,1299.62 1968.33,1311.2 1987.06,1322.79 2005.78,1334.37 
  2024.51,1345.96 2043.23,1357.54 2061.96,1369.13 2080.68,1380.71 2099.41,1392.3 2118.14,1403.88 2136.86,1415.47 2155.59,1427.05 2174.31,1438.64 2193.04,1450.22 
  
  "/>
<g clip-path="url(#clip0200)">
<text style="fill:#000000; fill-opacity:1; font-family:Arial,Helvetica Neue,Helvetica,sans-serif; font-size:59px; text-anchor:start;" transform="rotate(0, 339.228, 1381.3)" x="339.228" y="1381.3">r = -0.92</text>
</g>
</svg>
