<?xml version="1.0" encoding="utf-8"?>
<svg xmlns="http://www.w3.org/2000/svg" xmlns:xlink="http://www.w3.org/1999/xlink" width="600" height="400" viewBox="0 0 2400 1600">
<defs>
  <clipPath id="clip9900">
    <rect x="0" y="0" width="2400" height="1600"/>
  </clipPath>
</defs>
<polygon clip-path="url(#clip9900)" points="
0,1600 2400,1600 2400,0 0,0 
  " fill="#ffffff" fill-rule="evenodd" fill-opacity="1"/>
<defs>
  <clipPath id="clip9901">
    <rect x="480" y="0" width="1681" height="1600"/>
  </clipPath>
</defs>
<polygon clip-path="url(#clip9900)" points="
211.005,1440.48 2321.26,1440.48 2321.26,125.984 211.005,125.984 
  " fill="#ffffff" fill-rule="evenodd" fill-opacity="1"/>
<defs>
  <clipPath id="clip9902">
    <rect x="211" y="125" width="2111" height="1315"/>
  </clipPath>
</defs>
<polyline clip-path="url(#clip9902)" style="stroke:#000000; stroke-width:2; stroke-opacity:0.1; fill:none" points="
  211.005,1440.48 211.005,125.984 
  "/>
<polyline clip-path="url(#clip9902)" style="stroke:#000000; stroke-width:2; stroke-opacity:0.1; fill:none" points="
  738.569,1440.48 738.569,125.984 
  "/>
<polyline clip-path="url(#clip9902)" style="stroke:#000000; stroke-width:2; stroke-opacity:0.1; fill:none" points="
  1266.13,1440.48 1266.13,125.984 
  "/>
<polyline clip-path="url(#clip9902)" style="stroke:#000000; stroke-width:2; stroke-opacity:0.1; fill:none" points="
  1793.7,1440.48 1793.7,125.984 
  "/>
<polyline clip-path="url(#clip9902)" style="stroke:#000000; stroke-width:2; stroke-opacity:0.1; fill:none" points="
  2321.26,1440.48 2321.26,125.984 
  "/>
<polyline clip-path="url(#clip9902)" style="stroke:#000000; stroke-width:2; stroke-opacity:0.1; fill:none" points="
  211.005,1393.01 2321.26,1393.01 
  "/>
<polyline clip-path="url(#clip9902)" style="stroke:#000000; stroke-width:2; stroke-opacity:0.1; fill:none" points="
  211.005,1203.11 2321.26,1203.11 
  "/>
<polyline clip-path="url(#clip9902)" style="stroke:#000000; stroke-width:2; stroke-opacity:0.1; fill:none" points="
  211.005,1013.21 2321.26,1013.21 
  "/>
<polyline clip-path="url(#clip9902)" style="stroke:#000000; stroke-width:2; stroke-opacity:0.1; fill:none" points="
  211.005,823.317 2321.26,823.317 
  "/>
<polyline clip-path="url(#clip9902)" style="stroke:#000000; stroke-width:2; stroke-opacity:0.1; fill:none" points="
  211.005,633.419 2321.26,633.419 
  "/>
<polyline clip-path="url(#clip9902)" style="stroke:#000000; stroke-width:2; stroke-opacity:0.1; fill:none" points="
  211.005,443.522 2321.26,443.522 
  "/>
<polyline clip-path="url(#clip9902)" style="stroke:#000000; stroke-width:2; stroke-opacity:0.1; fill:none" points="
  211.005,253.625 2321.26,253.625 
  "/>
<polyline clip-path="url(#clip9900)" style="stroke:#000000; stroke-width:4; stroke-opacity:1; fill:none" points="
  211.005,1440.48 2321.26,1440.48 
  "/>
<polyline clip-path="url(#clip9900)" style="stroke:#000000; stroke-width:4; stroke-opacity:1; fill:none" points="
  211.005,1440.48 211.005,125.984 
  "/>
<polyline clip-path="url(#clip9900)" style="stroke:#000000; stroke-width:4; stroke-opacity:1; fill:none" points="
  211.005,1440.48 211.005,1420.77 
  "/>
<polyline clip-path="url(#clip9900)" style="stroke:#000000; stroke-width:4; stroke-opacity:1; fill:none" points="
  738.569,1440.48 738.569,1420.77 
  "/>
<polyline clip-path="url(#clip9900)" style="stroke:#000000; stroke-width:4; stroke-opacity:1; fill:none" points="
  1266.13,1440.48 1266.13,1420.77 
  "/>
<polyline clip-path="url(#clip9900)" style="stroke:#000000; stroke-width:4; stroke-opacity:1; fill:none" points="
  1793.7,1440.48 1793.7,1420.77 
  "/>
<polyline clip-path="url(#clip9900)" style="stroke:#000000; stroke-width:4; stroke-opacity:1; fill:none" points="
  2321.26,1440.48 2321.26,1420.77 
  "/>
<polyline clip-path="url(#clip9900)" style="stroke:#000000; stroke-width:4; stroke-opacity:1; fill:none" points="
  211.005,1393.01 242.659,1393.01 
  "/>
<polyline clip-path="url(#clip9900)" style="stroke:#000000; stroke-width:4; stroke-opacity:1; fill:none" points="
  211.005,1203.11 242.659,1203.11 
  "/>
<polyline clip-path="url(#clip9900)" style="stroke:#000000; stroke-width:4; stroke-opacity:1; fill:none" points="
  211.005,1013.21 242.659,1013.21 
  "/>
<polyline clip-path="url(#clip9900)" style="stroke:#000000; stroke-width:4; stroke-opacity:1; fill:none" points="
  211.005,823.317 242.659,823.317 
  "/>
<polyline clip-path="url(#clip9900)" style="stroke:#000000; stroke-width:4; stroke-opacity:1; fill:none" points="
  211.005,633.419 242.659,633.419 
  "/>
<polyline clip-path="url(#clip9900)" style="stroke:#000000; stroke-width:4; stroke-opacity:1; fill:none" points="
  211.005,443.522 242.659,443.522 
  "/>
<polyline clip-path="url(#clip9900)" style="stroke:#000000; stroke-width:4; stroke-opacity:1; fill:none" points="
  211.005,253.625 242.659,253.625 
  "/>
<g clip-path="url(#clip9900)">
<text style="fill:#000000; fill-opacity:1; font-family:Arial,Helvetica Neue,Helvetica,sans-serif; font-size:48px; text-anchor:middle;" transform="rotate(0, 211.005, 1494.48)" x="211.005" y="1494.48">-0.5</text>
</g>
<g clip-path="url(#clip9900)">
<text style="fill:#000000; fill-opacity:1; font-family:Arial,Helvetica Neue,Helvetica,sans-serif; font-size:48px; text-anchor:middle;" transform="rotate(0, 738.569, 1494.48)" x="738.569" y="1494.48">0.0</text>
</g>
<g clip-path="url(#clip9900)">
<text style="fill:#000000; fill-opacity:1; font-family:Arial,Helvetica Neue,Helvetica,sans-serif; font-size:48px; text-anchor:middle;" transform="rotate(0, 1266.13, 1494.48)" x="1266.13" y="1494.48">0.5</text>
</g>
<g clip-path="url(#clip9900)">
<text style="fill:#000000; fill-opacity:1; font-family:Arial,Helvetica Neue,Helvetica,sans-serif; font-size:48px; text-anchor:middle;" transform="rotate(0, 1793.7, 1494.48)" x="1793.7" y="1494.48">1.0</text>
</g>
<g clip-path="url(#clip9900)">
<text style="fill:#000000; fill-opacity:1; font-family:Arial,Helvetica Neue,Helvetica,sans-serif; font-size:48px; text-anchor:middle;" transform="rotate(0, 2321.26, 1494.48)" x="2321.26" y="1494.48">1.5</text>
</g>
<g clip-path="url(#clip9900)">
<text style="fill:#000000; fill-opacity:1; font-family:Arial,Helvetica Neue,Helvetica,sans-serif; font-size:48px; text-anchor:end;" transform="rotate(0, 187.005, 1410.51)" x="187.005" y="1410.51">0</text>
</g>
<g clip-path="url(#clip9900)">
<text style="fill:#000000; fill-opacity:1; font-family:Arial,Helvetica Neue,Helvetica,sans-serif; font-size:48px; text-anchor:end;" transform="rotate(0, 187.005, 1220.61)" x="187.005" y="1220.61">2</text>
</g>
<g clip-path="url(#clip9900)">
<text style="fill:#000000; fill-opacity:1; font-family:Arial,Helvetica Neue,Helvetica,sans-serif; font-size:48px; text-anchor:end;" transform="rotate(0, 187.005, 1030.71)" x="187.005" y="1030.71">4</text>
</g>
<g clip-path="url(#clip9900)">
<text style="fill:#000000; fill-opacity:1; font-family:Arial,Helvetica Neue,Helvetica,sans-serif; font-size:48px; text-anchor:end;" transform="rotate(0, 187.005, 840.817)" x="187.005" y="840.817">6</text>
</g>
<g clip-path="url(#clip9900)">
<text style="fill:#000000; fill-opacity:1; font-family:Arial,Helvetica Neue,Helvetica,sans-serif; font-size:48px; text-anchor:end;" transform="rotate(0, 187.005, 650.919)" x="187.005" y="650.919">8</text>
</g>
<g clip-path="url(#clip9900)">
<text style="fill:#000000; fill-opacity:1; font-family:Arial,Helvetica Neue,Helvetica,sans-serif; font-size:48px; text-anchor:end;" transform="rotate(0, 187.005, 461.022)" x="187.005" y="461.022">10</text>
</g>
<g clip-path="url(#clip9900)">
<text style="fill:#000000; fill-opacity:1; font-family:Arial,Helvetica Neue,Helvetica,sans-serif; font-size:48px; text-anchor:end;" transform="rotate(0, 187.005, 271.125)" x="187.005" y="271.125">12</text>
</g>
<g clip-path="url(#clip9900)">
<text style="fill:#000000; fill-opacity:1; font-family:Arial,Helvetica Neue,Helvetica,sans-serif; font-size:66px; text-anchor:middle;" transform="rotate(0, 1266.13, 57.6)" x="1266.13" y="57.6">GCF_000868425.1_ViralProj17577_genomic.fna.K13.counts.histogram</text>
</g>
<g clip-path="url(#clip9900)">
<text style="fill:#000000; fill-opacity:1; font-family:Arial,Helvetica Neue,Helvetica,sans-serif; font-size:66px; text-anchor:middle;" transform="rotate(0, 1266.13, 1590.4)" x="1266.13" y="1590.4">log2(depth of coverage)</text>
</g>
<g clip-path="url(#clip9900)">
<text style="fill:#000000; fill-opacity:1; font-family:Arial,Helvetica Neue,Helvetica,sans-serif; font-size:66px; text-anchor:middle;" transform="rotate(-90, 57.6, 783.233)" x="57.6" y="783.233">log2(# kmers)</text>
</g>
<circle clip-path="url(#clip9902)" style="fill:#000000; stroke:none; fill-opacity:1" cx="738.569" cy="173.459" r="18"/>
<circle clip-path="url(#clip9902)" style="fill:#009af9; stroke:none; fill-opacity:1" cx="738.569" cy="173.459" r="14"/>
<circle clip-path="url(#clip9902)" style="fill:#000000; stroke:none; fill-opacity:1" cx="1793.7" cy="1108.16" r="18"/>
<circle clip-path="url(#clip9902)" style="fill:#009af9; stroke:none; fill-opacity:1" cx="1793.7" cy="1108.16" r="14"/>
<polyline clip-path="url(#clip9902)" style="stroke:#e26f46; stroke-width:4; stroke-opacity:1; fill:none" points="
  738.569,173.459 749.227,182.9 759.884,192.341 770.542,201.783 781.2,211.224 791.858,220.666 802.516,230.107 813.174,239.549 823.832,248.99 834.489,258.432 
  845.147,267.873 855.805,277.315 866.463,286.756 877.121,296.197 887.779,305.639 898.436,315.08 909.094,324.522 919.752,333.963 930.41,343.405 941.068,352.846 
  951.726,362.288 962.384,371.729 973.041,381.171 983.699,390.612 994.357,400.053 1005.02,409.495 1015.67,418.936 1026.33,428.378 1036.99,437.819 1047.65,447.261 
  1058.3,456.702 1068.96,466.144 1079.62,475.585 1090.28,485.027 1100.94,494.468 1111.59,503.909 1122.25,513.351 1132.91,522.792 1143.57,532.234 1154.22,541.675 
  1164.88,551.117 1175.54,560.558 1186.2,570 1196.86,579.441 1207.51,588.883 1218.17,598.324 1228.83,607.765 1239.49,617.207 1250.15,626.648 1260.8,636.09 
  1271.46,645.531 1282.12,654.973 1292.78,664.414 1303.43,673.856 1314.09,683.297 1324.75,692.739 1335.41,702.18 1346.07,711.621 1356.72,721.063 1367.38,730.504 
  1378.04,739.946 1388.7,749.387 1399.36,758.829 1410.01,768.27 1420.67,777.712 1431.33,787.153 1441.99,796.594 1452.64,806.036 1463.3,815.477 1473.96,824.919 
  1484.62,834.36 1495.28,843.802 1505.93,853.243 1516.59,862.685 1527.25,872.126 1537.91,881.568 1548.57,891.009 1559.22,900.45 1569.88,909.892 1580.54,919.333 
  1591.2,928.775 1601.85,938.216 1612.51,947.658 1623.17,957.099 1633.83,966.541 1644.49,975.982 1655.14,985.424 1665.8,994.865 1676.46,1004.31 1687.12,1013.75 
  1697.78,1023.19 1708.43,1032.63 1719.09,1042.07 1729.75,1051.51 1740.41,1060.96 1751.06,1070.4 1761.72,1079.84 1772.38,1089.28 1783.04,1098.72 1793.7,1108.16 
  
  "/>
<g clip-path="url(#clip9900)">
<text style="fill:#000000; fill-opacity:1; font-family:Arial,Helvetica Neue,Helvetica,sans-serif; font-size:59px; text-anchor:start;" transform="rotate(0, 738.569, 1319.56)" x="738.569" y="1319.56">r = -1.0</text>
</g>
</svg>
